<svg width="156" height="151" viewBox="0 0 156 151" fill="none" xmlns="http://www.w3.org/2000/svg">
<circle cx="89" cy="73.0001" r="67" fill="#F0E8FF"/>
<path d="M77.1533 45.5077C76.3933 47.0068 75.7232 48.5497 75.1467 50.1284C74.5392 52.1535 75.3676 52.9819 77.3926 52.4112C78.8048 52.0419 80.152 51.4583 81.3874 50.6807C87.8218 46.6126 92.7534 40.5564 95.4337 33.4312C95.7973 32.5018 96.0446 31.531 96.17 30.541C96.3357 29.1419 95.6914 28.4975 94.3291 28.7C92.4073 28.9644 90.6271 29.8578 89.2666 31.2405C88.6406 31.8112 88.1068 32.474 87.4256 33.0815C87.2047 33.2656 86.5236 33.3392 86.4316 33.2103C86.3111 33.0418 86.2274 32.8498 86.1862 32.6468C86.1449 32.4437 86.147 32.2343 86.1922 32.0321C87.352 29.3075 92.5618 26.5093 95.4889 26.9696C96.055 27.0779 96.5899 27.3109 97.0548 27.6516C97.5197 27.9923 97.9028 28.4322 98.1766 28.9394C99.673 31.3546 101.536 33.5222 103.699 35.3642C108.366 38.8131 113.821 41.0406 119.568 41.8443C121.612 42.2309 123.692 42.3965 125.735 42.82C130.994 43.7409 135.957 45.901 140.215 49.1215C144.473 52.3421 147.902 56.5304 150.22 61.3397C152.576 66.0709 153.22 71.3359 154.122 76.4905C154.168 76.7956 154.168 77.1059 154.122 77.411C154.056 77.5631 153.969 77.7055 153.865 77.8344C152.65 78.2026 152.502 77.319 152.337 76.4537C151.84 73.9685 151.416 71.4648 150.846 68.9796C147.863 55.909 139.285 48.3428 126.748 44.8818C123.655 44.0166 120.36 43.8877 117.212 43.2066C111.404 42.2821 105.978 39.7286 101.564 35.8429C100.349 34.6831 99.2444 33.4128 98.0662 32.161C92.5434 44.6057 88.0332 49.7419 78.8838 54.2521C79.4544 54.7124 79.9331 55.1542 80.4669 55.5224C84.6594 58.3419 87.7587 62.5133 89.2482 67.3411C90.3343 70.6364 91.4573 73.9132 92.4514 77.2269C95.7098 88.07 107.897 100.809 124.631 100.736C125.625 100.736 126.637 100.736 127.631 100.736C128.349 100.736 129.178 100.864 129.067 101.785C129.067 102.116 128.165 102.558 127.668 102.558C121.63 102.558 115.647 102.135 110.106 99.3549C105.481 97.2048 101.352 94.1207 97.9777 90.2965C94.6035 86.4724 92.0575 81.9911 90.5 77.1349C89.4691 73.993 88.4443 70.845 87.4256 67.6909C86.5279 64.8106 85.0186 62.1581 83.0011 59.9149C80.9835 57.6718 78.5052 55.8908 75.7358 54.694C75.2355 54.545 74.774 54.2882 74.3837 53.9417C73.9934 53.5951 73.6838 53.1672 73.4767 52.6881C73.2696 52.2089 73.1701 51.6903 73.1851 51.1685C73.2001 50.6468 73.3292 50.1346 73.5634 49.6682C73.8948 48.6557 74.3919 47.6984 74.8153 46.7043C74.8857 46.4623 75.011 46.2398 75.1814 46.0541C75.3519 45.8684 75.5629 45.7245 75.798 45.6337C76.0332 45.5428 76.2861 45.5075 76.5371 45.5303C76.7881 45.5532 77.0305 45.6336 77.2453 45.7655L77.1533 45.5077Z" fill="#985BE7"/>
<path d="M5.22832 117.028C4.08694 117.985 3.64515 118.022 3.01924 117.028C2.47598 116.271 2.16269 115.373 2.11698 114.442C2.07126 113.512 2.29503 112.588 2.76148 111.781C3.11931 111.004 3.70598 110.355 4.44297 109.921C5.17996 109.486 6.03206 109.288 6.88514 109.351C7.6159 109.402 8.34197 109.507 9.05748 109.664C9.6834 106.847 10.1804 104.031 12.4448 101.987C13.5735 101.09 14.8768 100.439 16.2715 100.074C17.6663 99.7099 19.1217 99.6404 20.5449 99.8702C20.8026 99.097 21.0603 98.3974 21.2996 97.6795C22.8398 92.6095 26.0957 88.2332 30.5092 85.301C34.9227 82.3688 40.2187 81.0632 45.4894 81.6082C53.074 82.2157 58.3759 86.5051 62.2234 92.8931C63.0921 94.4342 63.8667 96.0264 64.543 97.6611C64.6544 98.0593 64.8965 98.4084 65.2305 98.6522C65.5645 98.896 65.9708 99.0202 66.384 99.005C70.4989 99.2921 74.3587 101.104 77.2086 104.086C80.3856 107.112 82.7095 110.922 83.9464 115.132C84.4435 114.892 84.83 114.708 85.1798 114.506C86.5074 113.611 88.1167 113.232 89.704 113.443C91.2912 113.653 92.7466 114.437 93.7954 115.647C94.6237 116.516 95.2637 117.547 95.6755 118.674C96.0873 119.802 96.262 121.002 96.1886 122.201C96.1886 122.624 95.802 123.342 95.489 123.397C94.7158 123.545 94.5686 122.863 94.4213 122.219C94.2558 120.858 93.9219 119.522 93.4272 118.243C93.0945 117.434 92.5559 116.727 91.8653 116.192C91.1746 115.656 90.3558 115.311 89.4902 115.19C88.6246 115.069 87.7423 115.177 86.9312 115.502C86.1202 115.828 85.4085 116.36 84.8669 117.046C83.6519 118.574 83.1732 118.427 82.4736 116.549C82.0686 115.481 81.7373 114.358 81.3139 113.291C80.2503 110.533 78.6268 108.026 76.5459 105.927C71.2256 100.57 65.9606 99.2995 58.4128 102.245C55.2 103.397 52.3281 105.337 50.0604 107.888C47.7928 110.439 46.202 113.518 45.4342 116.844C45.1212 118.04 45.1028 118.04 43.8878 119.034C43.7172 118.436 43.6366 117.815 43.6485 117.193C44.1906 114.067 45.4239 111.1 47.2584 108.511C49.0928 105.922 51.4823 103.775 54.2522 102.227C56.6011 101.104 59.0246 100.144 61.5055 99.3547C61.9105 99.1891 62.3707 99.097 62.7941 98.9682C60.3641 90.1133 52.4665 82.8968 43.0226 83.1546C38.1616 83.2398 33.473 84.9699 29.7218 88.0625C25.9705 91.1551 23.3781 95.4277 22.3674 100.183C23.1843 100.747 23.9652 101.362 24.7054 102.024C26.0922 103.425 27.126 105.135 27.7214 107.014C28.3168 108.893 28.4567 110.887 28.1295 112.83C28.1295 113.475 27.7797 114.156 27.0065 113.935C26.6568 113.843 26.3069 113.18 26.2701 112.757C26.2701 111.615 26.2701 110.437 26.2701 109.296C26.2133 107.392 25.4828 105.57 24.2086 104.154C22.9343 102.738 21.1989 101.82 19.3114 101.564C17.7783 101.349 16.2175 101.659 14.8836 102.445C13.5496 103.23 12.5212 104.445 11.9661 105.89C11.1062 107.628 10.7735 109.58 11.0089 111.505C11.0089 111.873 11.0088 112.517 10.7327 112.683C10.4565 112.849 9.90429 112.683 9.49929 112.554C9.09428 112.425 9.03903 112.149 8.7813 111.983C8.24962 111.472 7.54035 111.186 6.80233 111.186C6.06432 111.186 5.35499 111.472 4.82331 111.983C4.27851 112.534 3.94779 113.261 3.89043 114.034C3.83308 114.806 4.05289 115.574 4.51039 116.199C4.73446 116.488 4.97411 116.765 5.22832 117.028V117.028Z" fill="#985BE7"/>
<path d="M87.0205 36.9657C86.4247 36.7448 85.8514 36.4674 85.3085 36.1373C74.6679 28.3134 63.2173 27.5402 51.2329 32.4555C44.7575 35.2002 38.9123 39.2411 34.0571 44.3294C26.142 52.2119 18.9347 60.7744 12.5182 69.9183C12.2091 70.4415 11.8517 70.9346 11.4505 71.3911C11.0931 71.6195 10.6917 71.77 10.2723 71.8329C10.1464 71.3693 10.0663 70.8946 10.033 70.4154C10.033 70.1392 10.3091 69.8815 10.4932 69.6238C18.1535 58.3423 27.1607 48.0368 37.3155 38.9355C43.3057 33.5383 50.6479 29.8672 58.5598 28.3134C63.2113 27.3438 68.0157 27.3725 72.6553 28.3976C77.2949 29.4226 81.6641 31.4206 85.4742 34.2596C86.2105 34.7014 87.2967 35.1432 87.0205 36.9657Z" fill="#985BE7"/>
<path d="M65.8132 34.8855C60.5126 35.132 55.397 36.9096 51.0858 40.0033C46.4461 43.3354 42.4061 47.4314 39.1382 52.1166C35.1479 58.0586 31.7036 64.3495 28.8474 70.9124C28.2215 72.2379 27.6692 73.6002 27.0065 74.8889C26.804 75.2386 26.178 75.3491 25.7546 75.57C25.6257 75.0913 25.4785 74.6311 25.3864 74.1709C25.3864 74.042 25.4785 73.8763 25.5521 73.7475C29.4549 65.2976 33.2656 56.7741 38.9725 49.3184C42.1049 45.1113 45.8897 41.4321 50.1837 38.4201C61.0636 30.9091 73.3058 31.8111 84.112 38.2728C84.5842 38.5283 84.998 38.8794 85.327 39.3037C85.4238 39.4484 85.4843 39.6143 85.5035 39.7873C85.5227 39.9603 85.5001 40.1354 85.4375 40.2978C85.3027 40.4067 85.143 40.4804 84.9728 40.5126C84.8025 40.5447 84.627 40.5342 84.4618 40.4819C84.0461 40.2857 83.6565 40.0383 83.302 39.7455C78.0136 36.5868 71.9731 34.9081 65.8132 34.8855V34.8855Z" fill="#985BE7"/>
<path d="M77.227 45.655C75.9751 44.9186 74.7601 44.1086 73.453 43.4827C72.5859 43.0123 71.5991 42.8085 70.6166 42.8969C69.634 42.9853 68.6995 43.362 67.9303 43.9797C66.4584 45.0773 65.1505 46.3791 64.0459 47.8457C61.2726 51.8819 59.8719 56.7035 60.0511 61.5974C60.2301 67.6124 61.3226 73.5653 63.2911 79.2519C64.3773 82.6208 65.758 85.8977 66.973 89.2113C67.245 89.8461 67.4546 90.5058 67.5989 91.1811C67.6029 91.3573 67.5609 91.5315 67.4769 91.6865C67.393 91.8415 67.27 91.9719 67.1202 92.0647C66.8993 92.1568 66.4759 91.8807 66.1998 91.6782C65.9236 91.4757 65.9789 91.2732 65.8869 91.0523C62.3071 83.4655 59.8276 75.407 58.5231 67.1202C57.6763 60.5481 58.0629 54.2337 61.487 48.3059C62.6621 46.1279 64.3102 44.2407 66.3102 42.7831C67.4456 41.9017 68.8081 41.3611 70.2389 41.2242C71.6698 41.0873 73.11 41.3598 74.3919 42.0099C76.3584 43.0611 78.2637 44.2227 80.0988 45.4893C80.4405 45.6682 80.7221 45.9434 80.9088 46.2809C81.0421 46.6686 81.0421 47.0898 80.9088 47.4775C80.9088 47.6248 80.154 47.68 79.9147 47.4775C78.9206 46.9068 77.9817 46.2257 77.0429 45.6366L77.227 45.655Z" fill="#985BE7"/>
<path d="M82.7679 44.0166C82.0316 44.5505 81.4977 44.0166 80.927 43.6668C78.7547 42.5255 76.6192 41.2736 74.3733 40.2979C71.8182 39.0515 68.9358 38.6404 66.1341 39.1228C63.3324 39.6052 60.7535 40.9566 58.7623 42.9857C55.3348 46.1051 52.5949 49.9046 50.7174 54.1417C48.0277 60.4507 46.1235 67.0662 45.0473 73.8396C44.9001 74.829 44.6848 75.807 44.403 76.7667C44.2926 77.0981 43.7403 77.2638 43.3905 77.5031C43.1696 77.1349 42.7278 76.7483 42.7646 76.4169C43.0039 74.7417 43.3353 73.0849 43.6667 71.428C44.7045 65.4293 46.4215 59.5681 48.7844 53.9576C50.7585 49.3391 53.6813 45.187 57.3632 41.7707C59.6114 39.4525 62.5364 37.9063 65.7181 37.3539C68.8999 36.8016 72.1748 37.2716 75.0729 38.6963C77.4661 39.7457 79.712 41.1079 81.9764 42.3782C82.547 42.7095 83.2098 43.1146 82.7679 44.0166Z" fill="#985BE7"/>
<path d="M86.5603 110.953C86.0264 108.375 87.9594 106.442 92.5433 104.436C92.1124 101.692 90.8565 99.1447 88.9426 97.1322C87.0288 95.1197 84.5477 93.7375 81.8292 93.1693C79.1758 92.3328 76.3422 92.2496 73.6444 92.9289C70.9465 93.6083 68.4902 95.0235 66.5494 97.0169C65.5185 96.1332 65.7946 95.4337 66.5494 94.955C67.9694 93.7859 69.52 92.7851 71.1702 91.9727C78.6627 88.972 90.1869 91.4756 93.7583 101.398C94.0713 102.263 94.4947 103.092 94.8997 104.012L96.4645 104.27C98.4121 104.548 100.28 105.229 101.951 106.268C103.621 107.308 105.057 108.684 106.166 110.308C106.373 110.538 106.519 110.817 106.59 111.118C106.608 111.263 106.596 111.409 106.555 111.549C106.514 111.688 106.444 111.817 106.35 111.928C106.23 112.009 106.092 112.06 105.947 112.076C105.803 112.092 105.657 112.073 105.522 112.02C105.058 111.634 104.616 111.222 104.196 110.787C103.064 109.626 101.832 108.567 100.515 107.621C98.6103 106.252 96.248 105.679 93.9283 106.023C91.6087 106.366 89.514 107.6 88.0883 109.462C87.6833 109.94 87.2414 110.29 86.5603 110.953Z" fill="#985BE7"/>
<path d="M122.017 99.7045C121.887 99.4703 121.799 99.2147 121.759 98.9497C121.732 98.8081 121.736 98.6623 121.771 98.5224C121.806 98.3826 121.871 98.252 121.962 98.1397C122.328 97.8593 122.73 97.6301 123.158 97.4586C128.794 95.0146 133.832 91.3773 137.926 86.7974C142.019 82.2176 145.071 76.8042 146.869 70.9308C147.182 69.9919 147.44 69.0899 147.845 68.1142C148.011 67.7644 148.526 67.5987 148.876 67.341C149.079 67.7828 149.336 68.2063 149.502 68.6481C149.668 69.0899 149.502 69.0899 149.336 69.3108C147.715 75.6372 144.711 81.5255 140.541 86.5518C136.371 91.5781 131.138 95.6174 125.22 98.3791C124.263 98.8945 123.379 99.1523 122.017 99.7045Z" fill="#985BE7"/>
<path d="M119.366 44.4399C119.444 45.0511 119.444 45.6697 119.366 46.2808C115.831 59.1673 108.32 68.9979 96.1885 74.9441C95.6514 75.2478 95.0754 75.477 94.4764 75.6252C94.0589 75.6158 93.6468 75.5284 93.2614 75.3675C93.3769 74.9698 93.5506 74.5914 93.7769 74.2445C94.084 74.0187 94.426 73.8446 94.7894 73.7291C100.183 71.213 104.972 67.5641 108.828 63.0308C112.685 58.4976 115.519 53.1864 117.138 47.459C117.326 46.7112 117.554 45.9738 117.819 45.2499C118.081 44.8356 118.404 44.4632 118.777 44.1454L119.366 44.4399Z" fill="#985BE7"/>
<path d="M153.809 79.7673C153.46 80.9271 153.22 81.9764 152.834 82.989C151.301 87.1172 148.944 90.8901 145.906 94.0773C142.867 97.2645 139.211 99.7993 135.161 101.527C134.603 101.768 134.014 101.929 133.412 102.006C133.268 101.997 133.128 101.949 133.009 101.868C132.889 101.788 132.793 101.676 132.731 101.546C132.69 101.407 132.684 101.261 132.713 101.12C132.742 100.979 132.805 100.847 132.896 100.736C133.399 100.382 133.935 100.08 134.498 99.8335C141.882 96.6216 147.743 90.6876 150.864 83.2651C151.361 82.0685 151.637 80.7614 152.134 79.5832C152.3 79.1966 152.834 78.9757 153.202 78.6628C153.404 79.0862 153.717 79.436 153.809 79.7673Z" fill="#985BE7"/>
<path d="M80.3933 120.507C80.346 121.743 79.8985 122.93 79.1183 123.889C78.3381 124.849 77.2673 125.529 76.0671 125.827C74.912 126.181 73.6686 126.11 72.5612 125.627C71.4539 125.145 70.5557 124.282 70.0288 123.195C69.4601 122.094 69.2906 120.83 69.549 119.618C69.8075 118.407 70.478 117.322 71.4463 116.549C71.6213 116.396 71.8058 116.255 71.9986 116.126C73.5818 115.058 75.2571 114.119 77.1532 115.058C78.173 115.542 79.0257 116.319 79.6027 117.289C80.1797 118.26 80.4549 119.38 80.3933 120.507V120.507ZM78.5523 120.507C78.5181 119.745 78.2862 119.005 77.8796 118.359C77.4729 117.714 76.9054 117.185 76.2327 116.825C74.8521 116.052 73.9316 117.101 72.9007 117.672C72.6449 117.833 72.4153 118.031 72.2195 118.261C71.6214 118.809 71.2333 119.548 71.1224 120.351C71.0115 121.155 71.1846 121.972 71.612 122.661C71.9826 123.34 72.5804 123.867 73.3007 124.15C74.021 124.433 74.8179 124.453 75.5516 124.207C76.3939 123.984 77.1445 123.501 77.6964 122.827C78.2484 122.153 78.5736 121.322 78.6259 120.452L78.5523 120.507Z" fill="#985BE7"/>
<path d="M20.5264 92.5065C20.4004 93.896 19.7682 95.1907 18.7499 96.1445C17.7316 97.0983 16.3984 97.6446 15.0036 97.6795C13.5346 97.5267 12.1692 96.8519 11.1557 95.7775C10.1422 94.7032 9.54786 93.3008 9.48083 91.8254C9.56428 90.6252 10.0739 89.4944 10.9179 88.6369C11.7618 87.7795 12.8844 87.2519 14.0832 87.1494C18.078 87.131 20.5816 89.2297 20.5264 92.5065ZM18.6855 92.3777C18.697 91.7189 18.4928 91.0745 18.1039 90.5427C17.715 90.0109 17.1628 89.6209 16.5316 89.4322C15.7905 89.2365 15.0322 89.1132 14.2673 89.064C13.8267 89.0285 13.3839 89.0979 12.9753 89.2665C12.5667 89.4351 12.2039 89.6981 11.9165 90.034C11.6291 90.3699 11.4254 90.769 11.322 91.1988C11.2187 91.6286 11.2186 92.0767 11.3218 92.5065C11.4634 93.2317 11.7981 93.9052 12.2906 94.4561C12.7831 95.0069 13.4151 95.4146 14.12 95.6361C14.6399 95.7723 15.1832 95.793 15.7119 95.6968C16.2406 95.6006 16.7419 95.3899 17.1805 95.0794C17.619 94.7689 17.9844 94.3661 18.2507 93.8994C18.5171 93.4326 18.6781 92.9132 18.7223 92.3777H18.6855Z" fill="#985BE7"/>
<path d="M122.201 51.9511C122.661 50.8465 123.471 51.0122 124.17 51.2699C126.432 51.9858 128.656 52.8152 130.835 53.7552C135.87 56.3954 140.621 59.5478 145.01 63.1623C145.28 63.3153 145.498 63.5463 145.636 63.825C145.705 63.9882 145.74 64.1634 145.74 64.3405C145.74 64.5176 145.705 64.6928 145.636 64.856C145.496 64.9618 145.332 65.0322 145.159 65.0611C144.986 65.09 144.808 65.0764 144.642 65.0217C144.17 64.7747 143.726 64.4785 143.316 64.138C140.573 62.1498 137.885 60.1064 135.087 58.2102C131.638 55.761 127.779 53.9469 123.692 52.8531C123.323 52.7473 122.965 52.6055 122.624 52.4297C122.422 52.3745 122.422 52.2088 122.201 51.9511Z" fill="#985BE7"/>
<path d="M126.104 91.531C125.422 91.9544 125.073 92.341 124.723 92.341C124.269 92.278 123.838 92.1007 123.471 91.8256C116.599 88.0345 110.383 83.1611 105.062 77.3927C104.565 76.822 103.331 76.2145 104.16 75.3861C104.988 74.5576 105.761 75.7359 106.295 76.3249C111.536 81.7576 117.546 86.391 124.134 90.0767C124.668 90.5185 125.22 90.9971 126.104 91.531Z" fill="#985BE7"/>
<path d="M110.051 70.6363C110.677 70.3786 111.1 70.0657 111.413 70.1393C111.914 70.3294 112.376 70.6102 112.775 70.9677L130.908 84.0015C131.371 84.2714 131.792 84.6062 132.16 84.9956C132.263 85.1411 132.327 85.3104 132.346 85.4875C132.366 85.6647 132.34 85.8438 132.271 86.0081C132.141 86.1274 131.985 86.2146 131.816 86.2626C131.646 86.3105 131.468 86.3179 131.295 86.2842C130.856 86.1549 130.448 85.9355 130.098 85.6399C123.876 81.1296 117.69 76.6193 111.487 72.0722C110.976 71.6268 110.496 71.147 110.051 70.6363V70.6363Z" fill="#985BE7"/>
<path d="M138.438 79.3254C137.683 79.6936 137.259 80.0618 136.873 80.025C136.432 79.9141 136.026 79.6923 135.695 79.3807L116.402 66.3469C115.886 66.0156 115.168 65.6658 115.757 64.9846C115.978 64.7269 116.77 64.7453 117.156 64.9846C118.257 65.5165 119.316 66.1319 120.323 66.8256C125.674 70.4215 131.025 74.0297 136.376 77.6502C136.983 78.0552 137.517 78.6443 138.438 79.3254Z" fill="#985BE7"/>
<path d="M142.672 71.7777C142.322 71.9802 141.936 72.3852 141.641 72.3116C141.059 72.1402 140.516 71.859 140.039 71.4831C137.094 69.5318 134.259 67.3779 131.185 65.6106C128.11 63.8433 124.355 62.1312 120.912 60.4376C120.581 60.2535 120.139 60.2167 119.881 59.9773C119.748 59.8622 119.643 59.7172 119.576 59.5541C119.509 59.391 119.481 59.2143 119.495 59.0385C119.588 58.8948 119.717 58.7772 119.868 58.6967C120.019 58.6162 120.189 58.5755 120.36 58.5783C121.05 58.6792 121.72 58.884 122.348 59.1857C125.643 60.7873 129.031 62.2969 132.215 64.1378C135.4 65.9788 138.383 68.2063 141.42 70.2497C141.917 70.5811 142.469 70.8572 143.003 71.1518L142.672 71.7777Z" fill="#985BE7"/>
<path d="M98.8763 79.8778C99.2554 80.1066 99.6022 80.3852 99.9072 80.7062C104.16 86.9101 110.253 90.6841 116.899 93.7584C117.175 93.8873 117.47 94.0161 117.727 94.1634C118.298 94.4579 118.942 94.8813 118.501 95.5441C118.267 95.6973 118.001 95.7952 117.723 95.8303C117.446 95.8654 117.164 95.8368 116.899 95.7466C110.136 93.0758 104.162 88.7302 99.5391 83.1178C99.0646 82.5137 98.6801 81.844 98.3977 81.1296C98.3057 80.8535 98.6554 80.4853 98.8763 79.8778Z" fill="#985BE7"/>
<path d="M84.5356 80.4854C85.2583 80.5671 85.9285 80.9023 86.4273 81.4315C86.9261 81.9606 87.2212 82.6495 87.2602 83.3757C87.3522 84.8484 86.3029 85.8425 84.6277 85.9162C83.8929 85.9731 83.1648 85.7416 82.5977 85.2708C82.0307 84.8 81.6693 84.1268 81.5901 83.3941C81.5926 83.0097 81.6707 82.6295 81.82 82.2753C81.9693 81.9211 82.1869 81.5998 82.4604 81.3297C82.734 81.0596 83.058 80.846 83.4141 80.7012C83.7701 80.5563 84.1513 80.483 84.5356 80.4854V80.4854ZM85.4929 83.7254C85.3272 82.8418 85.1063 82.0318 84.0938 82.2895C83.8951 82.4212 83.7344 82.6027 83.6278 82.8159C83.5212 83.0291 83.4724 83.2666 83.4863 83.5045C83.8545 84.3146 84.5724 84.3514 85.4929 83.6518V83.7254Z" fill="#985BE7"/>
<path d="M25.2576 84.7746C25.2546 85.1224 25.1786 85.4658 25.0345 85.7824C24.8905 86.0991 24.6815 86.3819 24.4212 86.6127C24.1609 86.8435 23.8551 87.0171 23.5235 87.1222C23.1919 87.2273 22.8419 87.2617 22.4962 87.223C22.1703 87.2334 21.8457 87.1765 21.5427 87.056C21.2398 86.9354 20.9649 86.7538 20.7352 86.5224C20.5055 86.2909 20.3259 86.0147 20.2077 85.7108C20.0894 85.4069 20.035 85.082 20.0478 84.7562C20.1756 83.999 20.5712 83.3128 21.1626 82.8229C21.7539 82.3329 22.5016 82.0717 23.2694 82.0868C23.8757 82.2073 24.4153 82.5495 24.7829 83.0464C25.1506 83.5434 25.3198 84.1596 25.2576 84.7746V84.7746ZM22.9564 83.6884C22.5552 83.9683 22.201 84.31 21.9071 84.7009C21.9071 84.8298 22.3489 85.4741 22.4594 85.4557C22.8484 85.3276 23.1888 85.0835 23.4351 84.7562C23.5271 84.5905 23.1773 84.1671 23.0116 83.6884H22.9564Z" fill="#985BE7"/>
<path d="M70.8758 112.481C70.5322 112.498 70.1886 112.446 69.8656 112.327C69.5425 112.209 69.2467 112.026 68.9958 111.791C68.7449 111.556 68.544 111.272 68.4052 110.957C68.2665 110.642 68.1926 110.303 68.1881 109.959C68.2105 109.615 68.3029 109.28 68.4598 108.973C68.6167 108.667 68.8346 108.396 69.1002 108.177C69.3658 107.958 69.6734 107.795 70.0042 107.7C70.3349 107.604 70.6816 107.577 71.0231 107.621C71.3678 107.59 71.7151 107.633 72.042 107.746C72.369 107.859 72.6682 108.041 72.9199 108.278C73.1717 108.516 73.3702 108.804 73.5024 109.124C73.6347 109.443 73.6976 109.788 73.6871 110.134C73.6766 110.479 73.593 110.819 73.4416 111.13C73.2903 111.442 73.0746 111.717 72.809 111.939C72.5433 112.161 72.2337 112.324 71.9005 112.417C71.5673 112.51 71.2181 112.532 70.8758 112.481V112.481ZM71.7779 110.161C71.4097 109.277 70.8759 109.075 70.2131 109.609C70.145 109.723 70.109 109.853 70.109 109.986C70.109 110.119 70.145 110.249 70.2131 110.364C70.6366 110.897 71.1704 110.824 71.7595 110.161H71.7779Z" fill="#985BE7"/>
<path d="M21.1707 20.7103L22.22 21.8149C22.3881 21.9766 22.5308 22.1628 22.6434 22.3671C22.6841 22.4502 22.7052 22.5415 22.7052 22.6341C22.7052 22.7266 22.6841 22.8179 22.6434 22.901C22.5635 22.9414 22.4753 22.9625 22.3857 22.9625C22.2962 22.9625 22.2078 22.9414 22.1279 22.901C21.7414 22.5696 21.41 22.183 21.0602 21.8333L20.508 21.3362C20.508 21.6676 20.3975 21.8701 20.3975 22.0726V26.9326C20.3975 27.3192 20.5079 27.7979 19.9557 27.9267C19.4034 28.0556 19.385 27.669 19.385 26.951C19.385 25.4599 19.385 23.9871 19.385 22.496C19.4059 22.1187 19.343 21.7415 19.2009 21.3914L18.17 22.4224C18.0216 22.6108 17.8482 22.778 17.6545 22.9194C17.5834 22.9833 17.4912 23.0186 17.3956 23.0185C17.3 23.0184 17.2078 22.9829 17.1369 22.9188C17.066 22.8547 17.0213 22.7666 17.0115 22.6716C17.0017 22.5765 17.0275 22.4811 17.0838 22.4039C17.2774 22.1293 17.4929 21.8707 17.7282 21.6308C18.0043 21.3178 18.2988 21.0233 18.7591 20.5446H15.519C15.219 20.5729 14.917 20.5729 14.617 20.5446C14.5262 20.5199 14.4439 20.4709 14.3789 20.4027C14.314 20.3346 14.269 20.2499 14.2488 20.158C14.2597 20.0688 14.2923 19.9836 14.3436 19.9098C14.3949 19.836 14.4635 19.7759 14.5433 19.7346C14.8429 19.6976 15.1459 19.6976 15.4454 19.7346H18.4645V19.5137L16.8629 17.8937C16.5868 17.6175 16.1266 17.3046 16.5316 16.8996C16.9366 16.4946 17.2495 16.8996 17.5441 17.2309L19.2193 18.9062C19.2193 18.4644 19.2193 18.225 19.2193 17.9673C19.2193 16.5498 19.2193 15.1323 19.2193 13.7148C19.2193 13.2729 19.072 12.7207 19.7163 12.555C20.0845 12.463 20.2318 12.8311 20.2318 13.77V18.9062C20.7555 18.5159 21.2424 18.0784 21.6861 17.5991C21.8774 17.3675 22.0935 17.1577 22.3305 16.9732C22.4425 16.9194 22.5652 16.8914 22.6895 16.8914C22.8138 16.8914 22.9364 16.9194 23.0484 16.9732C23.343 17.1573 23.1957 17.4518 23.0484 17.6543L21.5573 19.1639C21.3754 19.3513 21.2034 19.5479 21.0418 19.753H23.5086C23.9321 19.753 24.3739 19.753 24.8157 19.753C25.2576 19.753 25.4785 19.753 25.4785 20.2132C25.4785 20.6735 25.1287 20.6551 24.8157 20.6551H21.1339L21.1707 20.7103Z" fill="#985BE7"/>
<path d="M118.942 32.7684C118.985 32.2363 118.9 31.7017 118.695 31.2088C118.49 30.7159 118.171 30.2787 117.764 29.9333C116.951 29.2226 116.007 28.6785 114.984 28.3317C114.789 28.2783 114.599 28.2106 114.414 28.1292C114.333 28.0987 114.264 28.0445 114.216 27.9738C114.167 27.9031 114.141 27.8193 114.141 27.7334C114.141 27.6475 114.167 27.5637 114.216 27.493C114.264 27.4223 114.333 27.3681 114.414 27.3376C114.633 27.2508 114.862 27.189 115.095 27.1535C115.563 27.0801 116.025 26.9693 116.476 26.8222C117.143 26.6224 117.731 26.2184 118.157 25.6669C118.583 25.1154 118.826 24.4442 118.85 23.7478C118.813 23.4113 118.813 23.0718 118.85 22.7353C118.894 22.6378 118.96 22.552 119.044 22.4849C119.127 22.4177 119.225 22.3711 119.329 22.3487C119.434 22.3739 119.53 22.4263 119.607 22.5007C119.685 22.5751 119.741 22.6687 119.771 22.7721C119.858 23.1653 119.908 23.566 119.918 23.9687C119.983 24.6606 120.263 25.3148 120.719 25.8396C121.175 26.3645 121.783 26.7338 122.459 26.8958C122.882 27.0142 123.312 27.1064 123.747 27.1719C124.097 27.264 124.557 27.1719 124.576 27.7242C124.594 28.2765 124.171 28.166 123.876 28.3133C123.073 28.6579 122.293 29.0513 121.538 29.4915C120.949 29.8295 120.47 30.3311 120.16 30.9355C119.849 31.5399 119.721 32.2213 119.789 32.8972C119.798 33.0013 119.798 33.1061 119.789 33.2102C119.789 33.5232 119.605 33.7809 119.311 33.7072C119.016 33.6336 118.924 33.4127 118.814 33.1918C118.703 32.9709 118.942 32.8788 118.942 32.7684ZM116.623 27.8347L119.403 30.2831L122.201 27.8531C121.685 27.5774 121.187 27.2699 120.71 26.9326C120.251 26.5077 119.815 26.0591 119.403 25.5887C118.712 26.5902 117.747 27.3702 116.623 27.8347V27.8347Z" fill="#985BE7"/>
<path d="M130.982 15.7583C130.651 15.3717 130.448 15.2244 130.393 15.0403C130.338 14.8562 130.393 14.4328 130.393 14.1383C130.251 13.2797 130.055 12.4311 129.804 11.5978C129.518 10.9009 128.969 10.345 128.276 10.0514C128.004 9.92467 127.74 9.78331 127.484 9.62797C126.877 9.22296 126.877 8.79957 127.484 8.35775C127.938 8.0703 128.374 7.7568 128.791 7.41886C129.332 6.97327 129.765 6.40993 130.055 5.77184C130.345 5.13375 130.486 4.43777 130.466 3.737C130.448 3.50418 130.448 3.27026 130.466 3.03744C130.466 2.70607 130.614 2.37471 131 2.46676C131.387 2.5588 131.332 2.79813 131.442 3.01904C131.47 3.18356 131.47 3.35158 131.442 3.5161C131.424 4.39928 131.635 5.27205 132.055 6.04951C132.474 6.82697 133.088 7.48265 133.835 7.95274L134.332 8.2657C135.087 8.78116 135.106 9.31502 134.332 9.66479C133.429 10.056 132.673 10.7221 132.17 11.5682C131.668 12.4144 131.445 13.3975 131.534 14.3776C131.562 14.6099 131.562 14.8448 131.534 15.0771C131.381 15.3279 131.196 15.557 130.982 15.7583V15.7583ZM130.779 11.5609C131.145 11.0203 131.544 10.5038 131.976 10.0146C132.377 9.64776 132.808 9.31522 133.265 9.02046L130.853 6.27749L128.423 9.05728C129.493 9.56975 130.333 10.4624 130.779 11.5609V11.5609Z" fill="#985BE7"/>
<path d="M135.953 118.289C135.622 117.902 135.42 117.773 135.364 117.571C135.309 117.368 135.364 116.982 135.364 116.687C135.225 115.828 135.028 114.979 134.775 114.147C134.638 113.802 134.434 113.488 134.175 113.223C133.916 112.958 133.607 112.746 133.266 112.6C132.99 112.453 132.713 112.342 132.456 112.177C131.848 111.772 131.848 111.33 132.456 110.907C132.909 110.619 133.346 110.306 133.763 109.968C134.301 109.519 134.731 108.956 135.021 108.318C135.311 107.681 135.453 106.986 135.438 106.286C135.42 106.047 135.42 105.807 135.438 105.568C135.438 105.255 135.585 104.924 135.972 105.016C136.358 105.108 136.303 105.347 136.414 105.549C136.441 105.72 136.441 105.894 136.414 106.065C136.402 106.944 136.617 107.812 137.035 108.585C137.454 109.359 138.064 110.012 138.807 110.483L139.322 110.796C140.059 111.312 140.096 111.845 139.23 112.214C138.327 112.605 137.571 113.271 137.068 114.117C136.566 114.963 136.343 115.946 136.432 116.926C136.459 117.159 136.459 117.394 136.432 117.626C136.306 117.869 136.145 118.093 135.953 118.289V118.289ZM135.769 114.11C136.129 113.564 136.523 113.042 136.947 112.545C137.353 112.184 137.784 111.852 138.236 111.551L135.843 108.826L133.395 111.606C134.463 112.12 135.303 113.012 135.751 114.11H135.769Z" fill="#985BE7"/>
<path d="M119.402 1.03092C119.398 1.30601 119.285 1.56822 119.089 1.76104C118.892 1.95386 118.628 2.06187 118.353 2.06183C118.08 2.06183 117.817 1.95322 117.624 1.75989C117.431 1.56655 117.322 1.30433 117.322 1.03092C117.322 0.757498 117.431 0.495278 117.624 0.301943C117.817 0.108608 118.08 1.24431e-08 118.353 1.24431e-08C118.628 -4.23328e-05 118.892 0.107996 119.089 0.300819C119.285 0.493643 119.398 0.755819 119.402 1.03092V1.03092Z" fill="#985BE7"/>
<path d="M146.354 26.8407C146.354 27.0446 146.293 27.2439 146.18 27.4135C146.067 27.583 145.906 27.7151 145.717 27.7932C145.529 27.8712 145.322 27.8916 145.122 27.8518C144.922 27.8121 144.738 27.7139 144.594 27.5697C144.45 27.4255 144.351 27.2418 144.312 27.0418C144.272 26.8419 144.292 26.6346 144.37 26.4462C144.448 26.2578 144.581 26.0968 144.75 25.9835C144.92 25.8703 145.119 25.8098 145.323 25.8098C145.596 25.8098 145.858 25.9184 146.052 26.1117C146.245 26.3051 146.354 26.5673 146.354 26.8407Z" fill="#985BE7"/>
<path d="M133.983 131.056C133.983 131.26 133.922 131.459 133.809 131.628C133.696 131.798 133.535 131.93 133.347 132.008C133.158 132.086 132.951 132.107 132.751 132.067C132.551 132.027 132.367 131.929 132.223 131.785C132.079 131.64 131.981 131.457 131.941 131.257C131.901 131.057 131.922 130.85 132 130.661C132.078 130.473 132.21 130.312 132.379 130.199C132.549 130.085 132.748 130.025 132.952 130.025C133.225 130.025 133.488 130.133 133.681 130.327C133.874 130.52 133.983 130.782 133.983 131.056V131.056Z" fill="#985BE7"/>
<path d="M105.964 130.025C105.964 130.229 105.903 130.428 105.79 130.597C105.677 130.767 105.516 130.899 105.327 130.977C105.139 131.055 104.932 131.076 104.732 131.036C104.532 130.996 104.348 130.898 104.204 130.754C104.06 130.609 103.961 130.426 103.922 130.226C103.882 130.026 103.902 129.819 103.98 129.63C104.058 129.442 104.19 129.281 104.36 129.167C104.53 129.054 104.729 128.994 104.933 128.994C105.206 128.994 105.468 129.102 105.662 129.296C105.855 129.489 105.964 129.751 105.964 130.025Z" fill="#985BE7"/>
<path d="M21.5757 128.994C21.5757 129.267 21.467 129.529 21.2737 129.723C21.0803 129.916 20.8182 130.025 20.5447 130.025C20.2713 130.025 20.0091 129.916 19.8157 129.723C19.6224 129.529 19.5138 129.267 19.5138 128.994C19.5138 128.72 19.6224 128.458 19.8157 128.265C20.0091 128.072 20.2713 127.963 20.5447 127.963C20.8182 127.963 21.0803 128.072 21.2737 128.265C21.467 128.458 21.5757 128.72 21.5757 128.994Z" fill="#985BE7"/>
<path d="M14.2857 45.6917C14.2857 45.8956 14.2253 46.0949 14.112 46.2644C13.9987 46.434 13.8377 46.5661 13.6493 46.6441C13.461 46.7222 13.2537 46.7426 13.0537 46.7028C12.8537 46.663 12.67 46.5649 12.5258 46.4207C12.3817 46.2765 12.2835 46.0928 12.2437 45.8928C12.2039 45.6928 12.2243 45.4856 12.3023 45.2972C12.3804 45.1088 12.5125 44.9478 12.6821 44.8345C12.8516 44.7213 13.0509 44.6608 13.2548 44.6608C13.5282 44.6608 13.7904 44.7694 13.9838 44.9627C14.1771 45.1561 14.2857 45.4183 14.2857 45.6917Z" fill="#985BE7"/>
<path d="M1.03092 16.4211C1.60028 16.4211 2.06183 15.9595 2.06183 15.3902C2.06183 14.8208 1.60028 14.3593 1.03092 14.3593C0.461554 14.3593 0 14.8208 0 15.3902C0 15.9595 0.461554 16.4211 1.03092 16.4211Z" fill="#985BE7"/>
<circle cx="123" cy="133" r="18" fill="#8840E3"/>
<path d="M133.704 132.505C133.08 132.016 132.65 131.322 132.491 130.545C132.431 130.223 132.333 129.91 132.197 129.612C132.126 129.39 132.007 129.186 131.849 129.013C131.692 128.841 131.499 128.705 131.284 128.614C131.069 128.523 130.836 128.479 130.603 128.486C130.37 128.492 130.14 128.549 129.931 128.652C129.405 128.866 128.901 129.13 128.424 129.439L128.264 129.532C128.034 129.671 127.811 129.822 127.598 129.985L127.118 130.319C126.958 130.425 126.438 130.759 126.265 130.679C126.091 130.599 125.985 130.025 125.945 129.825C125.854 129.369 125.72 128.923 125.545 128.492C125.496 128.337 125.414 128.194 125.305 128.074C125.196 127.953 125.063 127.857 124.913 127.793C124.764 127.728 124.603 127.697 124.44 127.7C124.278 127.703 124.118 127.742 123.971 127.812C123.587 127.949 123.227 128.147 122.905 128.399C122.598 128.639 122.292 128.906 122.012 129.159C121.732 129.412 121.638 129.505 121.438 129.665L121.305 129.785C121.02 130.044 120.712 130.276 120.385 130.479C120.159 130.625 120.052 130.625 119.999 130.612C119.945 130.599 119.852 130.519 119.732 130.252L119.532 129.759C119.43 129.491 119.314 129.228 119.185 128.972C119.015 128.562 118.709 128.222 118.318 128.011C117.927 127.8 117.475 127.729 117.039 127.812C116.437 127.92 115.857 128.122 115.319 128.412C113.867 129.277 112.543 130.34 111.386 131.572C111.3 131.636 111.23 131.718 111.179 131.813C111.128 131.907 111.099 132.012 111.093 132.119C111.099 132.187 111.12 132.254 111.155 132.314C111.189 132.374 111.236 132.425 111.293 132.465C111.559 132.678 112.026 132.465 112.079 132.465C112.216 132.402 112.335 132.305 112.426 132.185L112.546 132.065L113.173 131.519C113.693 131.079 114.213 130.612 114.759 130.185C115.364 129.748 116.017 129.382 116.706 129.092C117.439 128.786 117.879 128.986 118.225 129.772C118.292 129.932 118.359 130.079 118.412 130.239C118.465 130.399 118.572 130.652 118.665 130.852C118.747 131.058 118.869 131.246 119.025 131.404C119.181 131.562 119.367 131.687 119.572 131.772C119.78 131.836 120 131.855 120.216 131.827C120.432 131.799 120.64 131.726 120.825 131.612C121.209 131.417 121.568 131.176 121.892 130.892C122.132 130.692 122.358 130.479 122.585 130.252L123.252 129.652C123.561 129.351 123.935 129.123 124.345 128.986V129.066C124.432 129.261 124.508 129.461 124.571 129.665C124.62 129.827 124.655 129.992 124.678 130.159C124.678 130.319 124.678 130.479 124.771 130.639C124.815 130.893 124.915 131.135 125.065 131.345C125.215 131.555 125.411 131.728 125.638 131.852C125.873 131.945 126.127 131.983 126.379 131.962C126.631 131.941 126.875 131.863 127.091 131.732C127.389 131.582 127.675 131.408 127.944 131.212L128.358 130.945L128.798 130.665C129.184 130.425 129.571 130.172 129.971 129.972C130.371 129.772 130.571 129.745 130.717 129.812C130.864 129.879 131.011 130.105 131.131 130.519C131.131 130.652 131.197 130.772 131.224 130.892C131.251 131.012 131.317 131.252 131.371 131.425C131.658 132.251 132.176 132.978 132.864 133.518C133.004 133.632 133.177 133.697 133.357 133.705C133.45 133.703 133.541 133.681 133.624 133.639C133.707 133.598 133.78 133.538 133.837 133.465C133.94 133.347 133.992 133.194 133.984 133.038C133.974 132.935 133.945 132.835 133.897 132.744C133.849 132.652 133.783 132.571 133.704 132.505V132.505Z" fill="white"/>
<path d="M131.531 136.305C131.426 136.026 131.337 135.741 131.264 135.451C131.197 135.145 131.171 134.852 131.131 134.532C131.091 134.212 131.064 133.932 131.011 133.625C130.976 133.362 130.876 133.112 130.72 132.898C130.564 132.684 130.357 132.512 130.117 132.398C129.876 132.316 129.619 132.294 129.367 132.336C129.116 132.378 128.879 132.482 128.678 132.638C128.094 133.047 127.537 133.492 127.011 133.972L126.625 134.305C126.433 134.468 126.25 134.641 126.078 134.825C125.891 134.998 125.705 135.185 125.505 135.345C125.091 135.691 124.931 135.718 124.878 135.705C124.825 135.691 124.705 135.571 124.545 135.038L124.385 134.385C124.305 134.065 124.211 133.732 124.105 133.398C124.077 133.241 124.01 133.094 123.91 132.969C123.81 132.845 123.681 132.747 123.534 132.685C123.388 132.623 123.227 132.598 123.069 132.613C122.91 132.628 122.757 132.683 122.625 132.772C122.378 132.883 122.141 133.017 121.918 133.172L121.105 133.772L119.985 134.558C119.668 134.787 119.328 134.983 118.972 135.145C118.759 135.238 118.665 135.238 118.625 135.212C118.585 135.185 118.519 135.132 118.439 134.892C118.38 134.731 118.336 134.566 118.305 134.398C118.305 134.278 118.239 134.145 118.199 134.025V133.825C118.136 133.555 118.047 133.291 117.932 133.038C117.86 132.82 117.737 132.621 117.574 132.458C117.411 132.295 117.212 132.172 116.993 132.1C116.774 132.027 116.541 132.007 116.313 132.04C116.085 132.073 115.868 132.16 115.679 132.292C114.574 133.01 113.6 133.912 112.799 134.958L112.493 135.318C112.418 135.436 112.378 135.572 112.378 135.711C112.378 135.851 112.418 135.987 112.493 136.105C112.532 136.169 112.586 136.223 112.652 136.26C112.717 136.297 112.791 136.317 112.866 136.318C112.968 136.32 113.069 136.297 113.16 136.251C113.251 136.204 113.328 136.136 113.386 136.051L113.759 135.651C114.013 135.371 114.266 135.092 114.546 134.838C115.031 134.359 115.547 133.914 116.092 133.505C116.399 133.292 116.546 133.278 116.612 133.305C116.679 133.332 116.812 133.438 116.946 133.838C116.993 133.954 117.029 134.075 117.052 134.198C117.046 134.269 117.046 134.341 117.052 134.412V134.692C117.119 134.932 117.172 135.158 117.252 135.385C117.376 135.811 117.664 136.17 118.052 136.385C118.246 136.467 118.455 136.509 118.665 136.509C118.876 136.509 119.085 136.467 119.279 136.385C119.75 136.176 120.197 135.917 120.612 135.611L121.732 134.812C121.985 134.638 122.225 134.452 122.492 134.278C122.621 134.185 122.76 134.104 122.905 134.038V134.105C122.972 134.332 123.025 134.545 123.092 134.758C123.158 134.972 123.158 134.998 123.198 135.118C123.272 135.428 123.37 135.731 123.492 136.025C123.565 136.237 123.684 136.431 123.841 136.592C123.998 136.754 124.188 136.878 124.398 136.958C124.612 137.013 124.835 137.02 125.052 136.979C125.268 136.937 125.473 136.848 125.651 136.718C126.001 136.494 126.328 136.235 126.625 135.945L126.878 135.718L127.598 135.065C127.998 134.705 128.398 134.345 128.824 133.998L128.944 133.892C129.211 133.652 129.371 133.558 129.544 133.652C129.718 133.745 129.731 133.878 129.758 134.198C129.758 134.292 129.758 134.398 129.758 134.492V134.785C129.878 135.478 129.998 136.198 130.158 136.905C130.232 137.2 130.389 137.469 130.611 137.678C130.729 137.78 130.882 137.833 131.037 137.825C131.162 137.828 131.286 137.8 131.397 137.745C131.637 137.598 131.611 137.171 131.571 136.998C131.531 136.825 131.611 136.518 131.531 136.305Z" fill="white"/>
<path d="M122.638 148.25C119.547 148.253 116.525 147.339 113.954 145.623C111.383 143.908 109.378 141.469 108.193 138.614C107.009 135.759 106.697 132.617 107.299 129.585C107.9 126.553 109.387 123.768 111.572 121.581C113.756 119.395 116.54 117.905 119.572 117.301C122.603 116.697 125.745 117.006 128.601 118.188C131.457 119.37 133.898 121.373 135.616 123.943C137.333 126.513 138.25 129.534 138.25 132.625C138.243 136.765 136.596 140.733 133.67 143.661C130.745 146.59 126.778 148.24 122.638 148.25V148.25ZM122.638 118.227C119.791 118.227 117.007 119.071 114.639 120.653C112.271 122.235 110.426 124.484 109.336 127.115C108.246 129.746 107.961 132.641 108.517 135.434C109.072 138.227 110.443 140.793 112.457 142.806C114.471 144.82 117.036 146.191 119.829 146.747C122.622 147.303 125.517 147.017 128.148 145.928C130.779 144.838 133.028 142.992 134.61 140.625C136.192 138.257 137.037 135.473 137.037 132.625C137.033 128.808 135.515 125.147 132.816 122.448C130.116 119.748 126.456 118.23 122.638 118.227V118.227Z" fill="white"/>
</svg>
