<svg width="181" height="151" viewBox="0 0 181 151" fill="none" xmlns="http://www.w3.org/2000/svg">
<circle cx="90.0001" cy="73.0003" r="67" fill="#F0E8FF"/>
<circle cx="124" cy="133" r="18" fill="#8840E3"/>
<path d="M118.012 134.345C118.155 134.317 118.289 134.254 118.401 134.16C118.512 134.067 118.599 133.947 118.652 133.812C118.678 133.751 118.692 133.685 118.692 133.619C118.692 133.552 118.678 133.486 118.652 133.425C118.585 133.344 118.501 133.278 118.407 133.23C118.314 133.182 118.211 133.153 118.106 133.145V133.145C117.713 133.083 117.326 132.994 116.946 132.879C116.547 132.77 116.198 132.528 115.955 132.193C115.713 131.859 115.592 131.452 115.613 131.039C115.617 130.705 115.667 130.373 115.759 130.052C115.816 129.771 115.934 129.507 116.105 129.276C116.275 129.046 116.494 128.856 116.746 128.719C117.005 128.601 117.287 128.54 117.572 128.54C117.858 128.54 118.139 128.601 118.399 128.719C119.126 129.069 119.764 129.58 120.265 130.212C121.386 131.468 122.162 132.993 122.519 134.638C122.679 135.452 122.812 136.292 122.932 137.105V137.425C122.932 137.678 123.052 138.171 123.598 138.171C124.132 138.171 124.198 137.705 124.225 137.478C124.225 137.052 124.345 136.625 124.412 136.145L124.492 135.678C124.745 133.717 125.549 131.868 126.811 130.346C127.324 129.718 127.959 129.201 128.678 128.826C128.976 128.649 129.311 128.546 129.657 128.525C130.002 128.504 130.348 128.566 130.664 128.706C130.957 128.889 131.201 129.14 131.377 129.437C131.553 129.733 131.656 130.068 131.678 130.412C131.703 130.625 131.703 130.84 131.678 131.052C131.687 131.453 131.56 131.845 131.318 132.165C131.076 132.485 130.733 132.713 130.344 132.812C130.113 132.885 129.877 132.943 129.638 132.985L129.025 133.119C128.851 133.119 128.478 133.425 128.558 133.705C128.624 133.921 128.766 134.106 128.958 134.225C129.138 134.296 129.338 134.296 129.518 134.225L129.891 134.145C130.282 134.067 130.666 133.955 131.038 133.812C131.58 133.607 132.047 133.242 132.378 132.766C132.709 132.29 132.888 131.725 132.891 131.146C132.913 130.611 132.854 130.076 132.717 129.559C132.61 129.122 132.411 128.712 132.133 128.358C131.855 128.004 131.504 127.713 131.104 127.506C130.685 127.319 130.23 127.223 129.771 127.223C129.312 127.223 128.858 127.319 128.438 127.506C127.551 127.883 126.758 128.452 126.118 129.172C124.837 130.557 123.94 132.253 123.518 134.092V134.012C123.083 132.164 122.163 130.466 120.852 129.092C120.128 128.293 119.195 127.711 118.159 127.413C117.465 127.206 116.72 127.269 116.07 127.587C115.42 127.906 114.914 128.458 114.653 129.132C114.441 129.656 114.311 130.209 114.266 130.772C114.245 131.262 114.329 131.751 114.512 132.205C114.696 132.66 114.974 133.07 115.329 133.409C115.683 133.747 116.106 134.006 116.569 134.167C117.032 134.329 117.524 134.389 118.012 134.345V134.345Z" fill="white"/>
<path d="M123.625 148.25C120.534 148.25 117.513 147.334 114.943 145.616C112.373 143.899 110.37 141.458 109.188 138.602C108.006 135.746 107.697 132.603 108.301 129.572C108.905 126.541 110.395 123.757 112.581 121.572C114.768 119.387 117.553 117.9 120.585 117.299C123.617 116.698 126.759 117.009 129.614 118.194C132.469 119.378 134.908 121.383 136.623 123.954C138.339 126.526 139.253 129.548 139.25 132.639C139.247 136.78 137.599 140.751 134.669 143.679C131.739 146.606 127.767 148.25 123.625 148.25V148.25ZM123.625 118.24C120.778 118.243 117.995 119.09 115.629 120.673C113.263 122.257 111.42 124.507 110.332 127.138C109.244 129.769 108.961 132.664 109.518 135.456C110.075 138.248 111.448 140.812 113.462 142.825C115.476 144.837 118.042 146.207 120.834 146.761C123.627 147.316 126.521 147.03 129.152 145.94C131.782 144.85 134.03 143.004 135.611 140.637C137.193 138.269 138.037 135.486 138.037 132.639C138.033 128.819 136.513 125.156 133.811 122.457C131.109 119.757 127.445 118.24 123.625 118.24V118.24Z" fill="white"/>
<path d="M76.7528 39.6496C85.7891 37.5298 95.1934 37.5298 104.23 39.6496C104.616 38.597 104.96 37.7376 105.261 36.8783C107.824 29.7174 112.172 23.3288 117.893 18.3169C124.182 12.8277 132.232 9.77833 140.579 9.72366C147.466 9.46068 154.308 10.9384 160.473 14.0203C173.233 20.2934 180.237 30.5408 180.903 44.8271C181.278 50.2696 180.565 55.7323 178.805 60.8962C177.046 66.0602 174.275 70.8219 170.656 74.9034C169.732 75.967 169.208 77.3192 169.173 78.7274C168.759 85.7867 165.991 92.5034 161.31 97.8044C160.945 98.2126 160.515 98.5563 160.021 99.0075C158.582 98.5735 157.308 97.7119 156.369 96.5369C155.877 96.0281 155.551 95.3813 155.436 94.6827C155.321 93.984 155.422 93.2669 155.725 92.627C156.477 90.9298 156.906 89.0823 157.68 86.6762C149.709 91.4884 142.147 91.5314 134.736 87.1273C127.324 82.7233 124.445 75.2257 125.434 66.4821C123.706 66.7376 122.088 67.4832 120.772 68.6304C120.339 69.0356 120.016 69.5434 119.832 70.1067C119.648 70.6699 119.609 71.2705 119.719 71.8528C119.891 74.2804 120.02 76.7295 120.084 79.1571C120.18 85.2209 118.394 91.1653 114.971 96.1717C112.095 100.691 108.461 104.681 104.23 107.966C103.542 108.503 102.898 109.062 102.081 109.663C102.576 110.974 103.07 112.198 103.542 113.444C104.491 115.621 104.918 117.99 104.788 120.362C104.788 121.192 104.562 122.006 104.134 122.718C103.707 123.429 103.094 124.011 102.361 124.401C101.978 124.585 101.64 124.852 101.373 125.183C101.105 125.514 100.915 125.899 100.814 126.313C100.538 127.284 100.033 128.176 99.3418 128.912C98.6503 129.649 97.7922 130.209 96.8395 130.545C92.7744 132.188 88.2297 132.188 84.1645 130.545C83.2327 130.207 82.3882 129.666 81.693 128.959C80.9978 128.253 80.4696 127.4 80.1472 126.463C79.9535 125.799 79.5456 125.217 78.9871 124.809C77.8537 124.219 76.9602 123.254 76.4587 122.078C75.9573 120.903 75.879 119.59 76.2372 118.364C76.7434 116.036 77.389 113.74 78.1707 111.489L78.7937 109.642L76.6454 107.859C71.9116 104.162 67.9422 99.5798 64.9586 94.3671C61.897 89.058 60.5116 82.9474 60.9842 76.8369C60.9842 75.1827 61.1131 73.5285 61.3065 71.8958C61.4382 71.11 61.3154 70.3027 60.956 69.5916C60.5966 68.8805 60.0194 68.3028 59.3085 67.9429C58.2559 67.3414 57.1602 66.8473 55.5275 66.0954C56.4942 75.1398 53.9378 82.3151 46.2683 86.891C42.9081 89.0707 38.983 90.2181 34.9779 90.1914C30.9728 90.1646 27.0633 88.965 23.7325 86.7406C23.7931 88.2129 24.0981 89.6649 24.6348 91.0373C24.9141 92.3477 26.2031 93.4649 25.4082 95.0331C24.5095 96.7992 22.9738 98.1583 21.1116 98.8356C20.5572 98.3914 20.0333 97.9105 19.5433 97.3963C14.9686 92.1091 12.2521 85.4687 11.8094 78.4911C11.7454 77.006 11.1596 75.5911 10.1552 74.4953C3.44855 66.8302 -0.165977 56.9438 0.015143 46.7606C-0.206739 39.2049 2.01471 31.7792 6.34947 25.5867C10.6842 19.3942 16.901 14.7653 24.0762 12.3876C32.7566 9.05539 42.3052 8.73762 51.1879 11.4853C55.1857 12.7175 58.8914 14.7494 62.0799 17.4576C68.2883 22.5491 72.9962 29.2322 75.7002 36.7924C76.0224 37.5658 76.3232 38.4466 76.7528 39.6496ZM79.739 107.665C81.5379 104.865 82.751 101.73 83.3052 98.4489C84.2171 92.593 83.873 86.61 82.2955 80.8972C81.8873 79.5438 81.3932 78.2118 81.0495 76.8369C80.942 76.3428 81.0495 75.419 81.3287 75.2472C82.0806 74.839 82.3599 75.5909 82.5962 76.1924C82.6366 76.3459 82.6869 76.4966 82.7466 76.6436C86.4417 87.2133 87.0432 97.6541 81.8443 108.009C80.3432 111.04 79.1485 114.214 78.2781 117.483C77.2255 121.221 78.2781 122.703 81.9732 123.67C82.6607 123.863 83.3696 123.971 84.1215 124.164L90.4591 125.969L98.9234 123.82C102.747 122.811 103.693 121.328 102.876 117.376C102.606 116.302 102.247 115.253 101.802 114.239C101.031 112.09 100.134 109.988 99.1168 107.944C96.3281 102.608 95.0293 96.6194 95.3572 90.6076C95.5812 85.7303 96.5895 80.9209 98.3434 76.3643C98.5797 75.7413 98.7515 74.9034 99.8472 75.2257C100.513 76.2569 99.8472 77.1806 99.5464 78.1044C97.2209 84.6728 96.5855 91.7209 97.6989 98.5993C98.31 101.851 99.5348 104.957 101.308 107.751C106.71 104.01 111.197 99.0973 114.434 93.3789C116.948 89.1556 118.214 84.3066 118.086 79.3934C118.086 76.3213 117.872 73.2492 117.7 70.1986C117.31 66.3415 117.81 62.4465 119.16 58.8126C119.246 58.518 119.304 58.2158 119.332 57.9103C118.903 57.9103 118.602 57.9103 118.28 57.9103C112.35 58.1036 107.968 55.053 104.122 50.9927C103.414 50.3531 102.913 49.5165 102.683 48.5902C102.454 47.664 102.506 46.6902 102.833 45.7938C103.208 44.3807 103.495 42.9458 103.693 41.4972C95.0363 39.2416 85.9463 39.2416 77.2899 41.4972C77.5112 42.7874 77.8053 44.0642 78.1707 45.3212C78.5406 46.4075 78.5724 47.5804 78.2617 48.685C77.951 49.7897 77.3125 50.7741 76.4306 51.5083C72.5207 55.2894 68.2025 58.1251 62.4451 57.8244C62.1662 57.8561 61.8922 57.921 61.6287 58.0177C62.8168 60.7858 63.4167 63.7706 63.3903 66.7828C63.3903 69.683 63.2399 72.6047 63.0251 75.505C62.3526 81.7391 63.6285 88.0286 66.6772 93.5078C69.7664 98.8436 73.9199 103.487 78.8797 107.15C79.1533 107.342 79.4405 107.514 79.739 107.665V107.665ZM55.0978 49.6608C52.4503 45.9695 48.959 42.9643 44.9149 40.8957C42.544 39.7168 39.9387 39.0855 37.2913 39.0483C34.6438 39.0112 32.0219 39.569 29.6189 40.6808C27.7563 41.4488 26.1137 42.6675 24.8388 44.2274C23.5638 45.7874 22.6964 47.6397 22.3146 49.6178C21.8893 51.095 22.0192 52.6768 22.6798 54.0648C22.9871 53.9516 23.2883 53.8226 23.5821 53.6781C26.8146 51.5933 30.5529 50.426 34.3974 50.3012C38.2418 50.1763 42.048 51.0985 45.409 52.9692C45.8296 53.1814 46.298 53.281 46.7686 53.2584C47.2392 53.2359 47.696 53.0918 48.0944 52.8403L55.0978 49.6608ZM158.453 54.1937C159.006 51.7046 158.738 49.1031 157.689 46.7793C156.639 44.4554 154.865 42.5343 152.631 41.3038C149.219 39.433 145.29 38.7241 141.438 39.2844C136.301 40.1701 131.631 42.8127 128.226 46.7606C127.41 47.6199 126.701 48.6081 126.078 49.5104C128.463 50.6275 130.611 51.6587 132.695 52.6254C133.265 52.9473 133.909 53.1165 134.564 53.1165C135.219 53.1165 135.863 52.9473 136.433 52.6254C139.56 51.0101 143.043 50.2086 146.561 50.295C150.079 50.3814 153.519 51.3528 156.563 53.1196L158.453 54.1937ZM168.4 21.4534C167.605 20.7445 167.046 20.1859 166.466 19.7133C162.676 16.7496 158.34 14.5598 153.705 13.2684C151.879 12.7098 151.836 12.7098 150.805 14.2136C148.052 18.1118 146.384 22.6713 145.971 27.4258C145.537 30.7858 145.83 34.2 146.831 37.4369L150.461 38.1458C156.842 27.8125 159.807 24.9982 168.4 21.4534ZM34.2807 37.3295C35.2759 33.5664 35.4734 29.6369 34.8608 25.793C34.1592 21.5884 32.538 17.5905 30.113 14.0847C29.5544 13.2684 28.9959 12.6883 27.7928 13.075C22.7776 14.4628 18.0989 16.8606 14.0436 20.1215C13.5925 20.5082 13.2058 20.9808 12.6902 21.5179C16.6111 22.9748 20.2031 25.1971 23.2569 28.0555C26.3108 30.9138 28.7655 34.3512 30.4782 38.1673L34.2807 37.3295ZM49.9849 41.6261C51.145 42.7217 52.305 43.667 53.2933 44.7626C53.614 45.1563 54.0455 45.4446 54.532 45.5901C55.0184 45.7357 55.5374 45.7318 56.0216 45.579C60.3044 44.8618 64.3632 43.1633 67.8803 40.6164C69.7139 39.3666 71.1939 37.6647 72.1769 35.6753C72.4046 35.2683 72.5241 34.8097 72.5241 34.3433C72.5241 33.877 72.4046 33.4184 72.1769 33.0114C70.0486 28.6953 67.1925 24.7782 63.7341 21.432C63.4067 21.1869 63.0537 20.9781 62.6814 20.8089C61.4783 29.6815 56.6876 36.2123 49.9849 41.6046V41.6261ZM178.11 37.9095C177.201 33.7121 175.407 29.7571 172.847 26.3086C170.204 22.635 169.603 22.4846 165.543 24.6329C160.163 27.5463 155.812 32.0473 153.082 37.5228C152.873 37.9788 152.708 38.4536 152.588 38.9407L157.422 42.4639C160.361 40.3009 163.719 38.7763 167.282 37.9883C170.845 37.2002 174.533 37.1661 178.11 37.888V37.9095ZM2.97981 37.8665C6.5546 37.1454 10.2409 37.1819 13.8007 37.9738C17.3605 38.7657 20.7146 40.2953 23.6466 42.4639L28.5447 38.7688C26.0887 33.2729 22.04 28.6405 16.9224 25.4708C15.6207 24.7432 14.2713 24.1044 12.8835 23.5588C12.3304 23.2575 11.6825 23.181 11.0744 23.345C10.4662 23.509 9.9447 23.9011 9.6181 24.4396C6.78711 27.8467 4.66202 31.7829 3.36651 36.019C3.2025 36.627 3.07339 37.2438 2.97981 37.8665V37.8665ZM118.387 20.6801C118 20.7875 117.829 20.7875 117.721 20.8949C117.419 21.1427 117.132 21.4081 116.862 21.6898C113.995 24.7175 111.513 28.0871 109.472 31.7224C108.875 32.5911 108.599 33.6397 108.689 34.6895C108.779 35.7394 109.23 36.7255 109.966 37.4798C110.295 37.9191 110.654 38.3354 111.04 38.7259C114.998 42.4704 120.033 44.8754 125.434 45.6005C125.952 45.695 126.487 45.5956 126.937 45.3212C128.226 44.0967 129.408 42.7217 130.718 41.2824C127.42 38.9727 124.645 35.9933 122.576 32.5387C120.203 29.0409 118.788 24.9816 118.473 20.766L118.387 20.6801ZM42.5732 37.6947L48.2447 40.3156C54.4412 36.1829 58.858 29.8721 60.619 22.635C60.7389 21.9256 60.7821 21.2054 60.7479 20.4867C60.7786 19.8636 60.6412 19.2438 60.3502 18.692C60.0592 18.1402 59.6252 17.6767 59.0937 17.3502C56.1421 15.2543 52.8388 13.7045 49.3404 12.7743C48.8463 12.7743 48.3521 12.6454 47.7506 12.5594C50.2427 21.9476 48.8892 30.3045 42.5732 37.6947ZM133.232 12.6239C129.723 13.1692 126.378 14.4823 123.436 16.4694C120.213 18.6177 119.676 19.7348 120.557 23.4729C120.8 24.5417 121.146 25.5848 121.588 26.5879C122.988 30.029 125.021 33.177 127.582 35.8686C129.193 37.5443 131.041 39.0052 132.673 40.4445L138.517 37.6732C132.029 30.326 130.998 21.9046 133.232 12.6239ZM149.967 12.3876C146.156 11.483 142.222 11.2145 138.323 11.5927C135.488 11.829 135.122 12.0438 134.564 14.8366C133.772 18.1862 133.698 21.6655 134.345 25.0459C134.993 28.4263 136.349 31.6314 138.323 34.4507C139.87 36.599 141.374 37.888 144.081 37.0287C144.278 36.9246 144.465 36.8023 144.639 36.6635C143.76 32.4704 143.781 28.1386 144.699 23.9539C145.617 19.7693 147.413 15.8271 149.967 12.3876V12.3876ZM36.429 36.7709C41.2412 37.6302 40.1241 37.8021 42.5517 34.6226C42.9599 34.064 43.3895 33.484 43.7548 32.8825C45.43 30.0767 46.5151 26.9587 46.9435 23.7191C47.372 20.4795 47.135 17.1866 46.2468 14.0418C46.1478 13.3816 45.8121 12.7799 45.3021 12.349C44.7922 11.9182 44.143 11.6875 43.4755 11.7001C39.6434 11.2952 35.7732 11.4399 31.982 12.1298C31.7242 12.1298 31.5094 12.4305 31.2301 12.6239C33.6853 16.1433 35.4563 20.0933 36.4505 24.2677C37.2647 28.3964 37.2574 32.6451 36.429 36.7709V36.7709ZM73.6807 36.7709C69.3841 43.2158 62.9392 45.8368 56.172 47.5125C57.3751 49.6608 58.6426 51.7017 59.5878 53.85C59.8128 54.5265 60.26 55.1071 60.8568 55.4971C61.4536 55.8872 62.1648 56.0638 62.8747 55.9983C68.3744 55.9983 72.3918 53.2055 75.872 49.36C76.3309 48.7427 76.5451 47.9775 76.4735 47.2117C75.9659 43.6527 75.0281 40.1684 73.6807 36.8354V36.7709ZM107.517 37.0502H106.937C106.099 40.4016 105.196 43.7314 104.509 47.1043C104.475 47.5249 104.528 47.948 104.665 48.3471C104.802 48.7463 105.019 49.1131 105.304 49.4245C107.69 52.4305 110.982 54.5856 114.692 55.5686C116.155 55.8653 117.651 55.9593 119.139 55.8479C119.509 55.7896 119.864 55.6567 120.182 55.4573C120.499 55.2579 120.773 54.9961 120.987 54.6878C122.34 52.3891 123.522 50.0045 124.811 47.5554C117.957 45.9012 111.62 43.3447 107.517 37.1146V37.0502ZM22.465 44.0107C21.7346 43.5166 21.0686 42.958 20.3167 42.5499C15.8614 39.8218 10.6152 38.6787 5.42889 39.3059C2.33532 39.6926 2.33532 39.6711 2.099 42.6573C2.099 43.2803 1.92714 43.9033 1.88417 44.5263C1.67886 47.4679 1.87399 50.4238 2.46422 53.3129C2.64152 53.3118 2.81681 53.2753 2.97981 53.2055C3.17465 53.0817 3.36123 52.9453 3.53837 52.7973C5.49681 51.0191 7.84198 49.7208 10.3885 49.0049C12.9351 48.2891 15.6132 48.1753 18.2113 48.6726C18.9236 48.7744 19.6407 48.8389 20.3597 48.8659L22.465 44.0107ZM160.515 48.5222C163.845 48.6511 166.96 48.5222 170.054 48.9303C173.326 49.5877 176.322 51.2205 178.647 53.6137C179.486 49.1412 179.486 44.5518 178.647 40.0793C172.503 37.931 162.17 40.0793 158.818 44.3759C159.355 45.8368 160 47.3406 160.515 48.5222V48.5222ZM160.902 51.0572C160.687 52.561 160.473 54.0218 160.258 55.6546C165.635 58.2776 170.361 62.0642 174.093 66.7399C175.492 64.1249 176.643 61.3846 177.53 58.5548C177.904 57.7774 177.982 56.8902 177.748 56.0597C177.515 55.2292 176.987 54.5123 176.263 54.0433C174.168 52.2797 171.658 51.0799 168.97 50.5573C166.282 50.0348 163.505 50.2068 160.902 51.0572V51.0572ZM20.1663 50.8424C18.5016 50.5678 16.8236 50.3814 15.1393 50.2838C11.3947 50.1851 7.74813 51.4874 4.91329 53.9359C4.17453 54.3917 3.6314 55.1057 3.38926 55.9393C3.14712 56.7729 3.22323 57.6667 3.60282 58.4474C4.29028 60.0371 4.71995 61.7343 5.36444 63.3455C5.77262 64.3982 6.35266 65.4938 6.99715 66.7613C10.7239 62.0551 15.4591 58.245 20.8538 55.6116C20.5315 54.0863 20.3167 52.6254 20.1663 50.8424ZM133.039 57.0295C134.403 60.0799 136.696 62.6213 139.591 64.2908C139.937 64.4652 140.335 64.5035 140.708 64.3982C142.62 63.7967 144.511 63.1092 146.616 62.2499C146.013 58.8556 146.362 55.3605 147.626 52.1528C142.276 51.7806 136.996 53.5329 132.931 57.0295H133.039ZM34.4311 62.3573C36.5794 63.0877 38.3625 63.7537 40.21 64.3123C40.6928 64.4301 41.2015 64.377 41.6494 64.1619C44.5273 62.5426 46.7921 60.021 48.0944 56.9865C44.0987 53.5939 38.9277 51.9114 33.7007 52.3032C34.8593 55.5246 35.1119 59.0022 34.4311 62.3573V62.3573ZM38.7277 75.8487C38.5574 77.8501 38.8572 79.8636 39.6032 81.7286C40.3492 83.5936 41.5207 85.2584 43.0243 86.5903C45.2237 85.6707 47.214 84.3153 48.8755 82.6058C50.537 80.8964 51.8351 78.8682 52.6917 76.6436L43.1532 73.2063L38.7277 75.8487ZM138.237 86.5903C140.907 83.6527 142.372 79.8177 142.341 75.8487L137.743 73.0559L128.183 76.4932C129.074 78.8018 130.435 80.8996 132.181 82.6528C133.927 84.4061 136.019 85.7763 138.323 86.6762L138.237 86.5903ZM127.496 74.3664C130.579 74.1388 133.56 73.1577 136.175 71.5091C136.543 71.2358 136.814 70.8519 136.949 70.4135C137.4 68.9526 137.786 67.4488 138.13 66.1168L131.105 58.5118C126.851 62.9803 126.529 68.3941 127.582 74.4523L127.496 74.3664ZM49.6197 58.4259C48.4166 59.9942 47.4713 61.455 46.3113 62.7225C45.1726 63.8519 43.975 64.9204 42.7236 65.9235C43.1747 67.4918 43.5184 68.8237 43.9266 70.2201C44.0014 70.6726 44.2111 71.0919 44.5282 71.4232C47.1903 73.2209 50.2814 74.2809 53.4866 74.4953C54.3459 68.48 54.2815 63.0018 49.6197 58.4259ZM140.3 87.4281C143.521 88.4007 146.938 88.5338 150.225 87.8148C150.487 87.799 150.743 87.7299 150.978 87.6119C151.212 87.4939 151.42 87.3294 151.589 87.1284C151.758 86.9274 151.884 86.6941 151.96 86.4428C152.036 86.1914 152.059 85.9273 152.03 85.6665C151.941 81.7825 150.633 78.0247 148.292 74.9249L144.489 75.9561C144.152 77.9304 143.692 79.8819 143.114 81.7995C142.279 83.7252 141.339 85.6042 140.3 87.4281V87.4281ZM41.0694 87.4281C38.4359 84.1767 36.9283 80.1588 36.7727 75.9776L32.6265 74.9034C29.9147 78.447 28.7034 82.9141 29.2537 87.3422C33.0957 88.5751 37.2273 88.5751 41.0694 87.3422V87.4281ZM149.452 52.561C148.659 54.0321 148.165 55.6457 147.999 57.3087C147.833 58.9717 147.998 60.6511 148.485 62.2499C148.667 62.7479 149.026 63.1611 149.495 63.41C150.805 64.0759 152.159 64.6345 153.619 65.279C155.6 62.6251 158.402 60.6994 161.59 59.8008C158.5 56.0597 154.212 53.5019 149.452 52.561ZM31.6598 52.7329C27.0839 53.141 21.1975 56.7932 19.7796 60.0586C22.8526 60.8698 25.5576 62.7034 27.4491 65.2575C28.8884 64.5915 30.1345 64.0974 31.2946 63.4744C31.8305 63.2147 32.2569 62.7732 32.4976 62.2284C33.4761 59.076 33.1752 55.6652 31.6598 52.7329V52.7329ZM152.61 67.5777C151.802 66.7229 150.831 66.0377 149.755 65.5622C148.679 65.0868 147.519 64.8305 146.343 64.8085C145.167 64.7865 143.998 64.9992 142.905 65.4341C141.812 65.869 140.817 66.5174 139.978 67.3414C139.57 67.7165 139.258 68.1842 139.068 68.7051C138.879 69.2259 138.817 69.7847 138.889 70.3343C138.96 70.884 139.163 71.4083 139.48 71.8633C139.796 72.3182 140.218 72.6904 140.708 72.9485C142.054 73.8038 143.684 74.0897 145.241 73.7433C146.918 73.495 148.494 72.7877 149.795 71.6996C151.095 70.6114 152.069 69.1849 152.61 67.5777V67.5777ZM28.244 67.5777C28.781 68.5015 29.1892 69.3608 29.7263 70.1342C30.8581 71.6483 32.443 72.7623 34.2508 73.3147C36.0587 73.8671 37.9956 73.8291 39.7804 73.2063C40.3971 72.9859 40.9408 72.599 41.351 72.0884C41.7612 71.5778 42.0219 70.9636 42.1043 70.3138C42.1866 69.6641 42.0873 69.0042 41.8174 68.4075C41.5475 67.8107 41.1176 67.3004 40.5753 66.9332C38.8203 65.4558 36.5685 64.7024 34.2778 64.8261C31.9871 64.9498 29.8296 65.9414 28.244 67.5992V67.5777ZM18.018 61.498C15.9661 64.2889 14.6109 67.5298 14.0651 70.9505C16.9653 70.3978 19.9653 70.7503 22.6583 71.9603C23.7969 70.1342 24.8067 68.3941 25.9238 66.5895C25.0457 65.2258 23.8858 64.0659 22.5222 63.1877C21.1586 62.3095 19.6228 61.7333 18.018 61.498V61.498ZM158.109 71.9817C160.797 70.751 163.803 70.3977 166.703 70.972C166.146 67.5393 164.76 64.2944 162.664 61.5195C161.056 61.7453 159.515 62.3152 158.147 63.1901C156.779 64.065 155.616 65.2244 154.737 66.5895L158.109 71.9817ZM30.9079 74.1945L26.6112 69.3608C26.2691 69.8148 25.9535 70.2882 25.666 70.7787C24.0197 73.9834 23.1513 77.5308 23.131 81.1335C23.0653 82.3118 23.4617 83.4692 24.236 84.3598C25.0102 85.2504 26.1013 85.804 27.2772 85.9028C27.2728 81.7223 28.539 77.6391 30.9079 74.1945V74.1945ZM150.204 74.1945C152.596 77.7026 153.828 81.8726 153.727 86.1176C156.928 85.022 158.023 83.6685 157.873 80.8113C157.883 76.712 156.688 72.7001 154.436 69.2749L150.204 74.1945ZM21.3049 79.9305C21.6057 77.7822 21.885 75.8487 22.1857 73.7648C20.9143 73.0325 19.4994 72.5841 18.0383 72.4506C16.5771 72.3171 15.1044 72.5016 13.7214 72.9914C13.3671 75.4688 13.4252 77.9877 13.8932 80.4461L21.3049 79.9305ZM158.797 73.8508C159.162 75.9991 159.506 78.1474 159.807 79.952L167.24 80.4246V72.884C165.839 72.4388 164.361 72.2966 162.901 72.467C161.442 72.6374 160.035 73.1164 158.775 73.8723L158.797 73.8508ZM56.6876 51.6372C53.7742 51.9458 50.9946 53.0206 48.6314 54.7523L52.1976 58.0822L58.8359 56.342L56.6876 51.6372ZM132.824 54.5804C130.418 53.5492 128.355 52.6254 126.25 51.7876C125.541 51.5083 124.682 51.4009 124.209 52.3462L122.254 56.385L129.086 58.0607L132.824 54.5804ZM14.237 83.024C14.86 84.979 15.5045 86.9125 16.149 88.846L21.6916 86.6977C21.4983 85.2153 21.3264 83.776 21.1545 82.2507C20.0204 81.835 18.8051 81.6885 17.6047 81.8227C16.4042 81.957 15.2513 82.3682 14.237 83.024ZM159.807 82.3151C159.656 83.9049 159.527 85.3013 159.377 86.6117L164.92 88.7601C165.521 86.8266 166.166 84.8501 166.81 82.7877C165.754 82.1857 164.575 81.8304 163.362 81.7486C162.15 81.6667 160.934 81.8604 159.807 82.3151V82.3151ZM81.8873 125.668C82.0557 126.359 82.3931 126.998 82.8693 127.527C83.3456 128.055 83.9456 128.458 84.6156 128.697C88.3946 130.168 92.5879 130.168 96.3669 128.697C97.0504 128.472 97.6662 128.078 98.158 127.553C98.6497 127.027 99.0015 126.386 99.1812 125.69C96.4314 126.27 93.8104 126.27 91.7266 128.096C91.4126 128.408 90.9878 128.583 90.545 128.583C90.1022 128.583 89.6774 128.408 89.3634 128.096C87.3225 126.248 84.766 126.377 81.8873 125.668ZM165.349 61.3476C166.187 63.2381 167.175 65.1071 167.82 67.0621C168.464 69.0171 168.851 71.1009 169.452 73.507C170.698 71.8099 171.751 70.4135 172.761 68.9526C172.84 68.7808 172.881 68.5939 172.881 68.4048C172.881 68.2157 172.84 68.0288 172.761 67.857C170.889 65.088 168.337 62.8466 165.349 61.3476V61.3476ZM11.3367 73.2922H11.8094C12.2834 68.9493 13.6669 64.755 15.8697 60.9824C12.6209 62.8421 9.88273 65.4769 7.89945 68.6519L11.3367 73.2922ZM22.0783 88.6741C20.2237 88.7333 18.4627 89.5023 17.1587 90.8224L19.6292 94.6894L23.4317 92.5411L22.0783 88.6741ZM157.658 92.6915L161.461 94.8398C162.019 94.0019 162.621 93.1856 163.136 92.3048C163.385 91.8449 163.607 91.3715 163.802 90.8869C163.2 90.2085 162.447 89.6805 161.604 89.3448C160.761 89.0091 159.851 88.875 158.947 88.9534C158.453 90.0705 158.045 91.3165 157.658 92.6915ZM123.887 64.7634L120.879 59.4571C119.885 61.8771 119.473 64.4967 119.676 67.1051L123.887 64.7634ZM61.6502 67.2125C61.718 64.5999 61.1659 62.0084 60.039 59.6504C59.0078 61.5195 58.1484 63.1307 57.2462 64.7419L61.6502 67.2125ZM125.584 64.1834C126.422 62.3358 127.002 61.0898 127.732 59.7364C126.081 58.9483 124.277 58.5304 122.447 58.5118C123.414 60.4238 124.359 62.078 125.584 64.1834V64.1834ZM58.5351 58.7481L58.2344 58.297L53.2718 59.586C54.0237 61.1542 54.6467 62.4432 55.4201 64.1404L58.5351 58.7481ZM159.312 96.6658L159.678 96.2362C159.522 95.8193 159.213 95.4779 158.813 95.2821C158.414 95.0863 157.954 95.051 157.529 95.1835L159.312 96.6658ZM23.0665 95.5058L22.5724 94.9687L21.2619 96.2362L21.6272 96.6444L23.0665 95.5058Z" fill="#985BE7"/>
<path d="M86.9789 111.36C86.0981 110.931 85.3677 111.102 85.0455 112.026C84.878 112.423 84.8719 112.869 85.0284 113.27C85.1848 113.672 85.4915 113.996 85.8833 114.175L86.313 114.389C89.0198 115.614 89.0198 115.614 90.3947 117.676C90.5666 117.676 90.8459 117.526 90.9103 117.354C91.2045 116.62 91.6766 115.971 92.2841 115.464C92.8916 114.958 93.6155 114.611 94.3906 114.454C94.9279 114.348 95.4043 114.04 95.7226 113.595C95.9577 113.038 96.0103 112.421 95.8729 111.833C95.7655 111.253 95.6151 111.274 94.1543 111.296C94.1543 111.446 93.9609 111.597 94.0039 111.704C94.1973 112.327 94.7988 113.057 93.7031 113.423C92.6075 113.788 92.0489 112.886 91.963 111.94C91.9516 111.345 92.1498 110.765 92.523 110.302C92.8961 109.839 93.4203 109.521 94.0039 109.405C94.7305 109.202 95.5071 109.279 96.1796 109.621C96.8522 109.963 97.3715 110.546 97.6346 111.253C97.8274 111.689 97.9278 112.161 97.9296 112.638C97.9313 113.115 97.8343 113.588 97.6446 114.026C97.455 114.463 97.1767 114.857 96.8275 115.182C96.4782 115.507 96.0654 115.757 95.6151 115.915C94.8728 116.141 94.1847 116.517 93.5935 117.019C93.0023 117.522 92.5204 118.14 92.1778 118.836C91.6825 119.624 91.4564 120.551 91.5334 121.479C91.566 122.03 91.566 122.582 91.5334 123.133C91.5556 123.29 91.5406 123.449 91.4899 123.599C91.4391 123.749 91.3538 123.885 91.2409 123.995C91.128 124.106 90.9907 124.189 90.84 124.237C90.6893 124.285 90.5294 124.297 90.3733 124.272C90.2143 124.279 90.0556 124.252 89.9083 124.191C89.761 124.131 89.6285 124.04 89.5202 123.923C89.4118 123.807 89.3301 123.668 89.2808 123.517C89.2315 123.365 89.2158 123.205 89.2347 123.047C89.1805 122.734 89.1805 122.415 89.2347 122.102C89.3866 121.502 89.4017 120.876 89.279 120.27C89.1563 119.664 88.8988 119.093 88.5257 118.6C87.8524 117.367 86.7407 116.432 85.4107 115.979C84.8809 115.817 84.3968 115.532 83.9977 115.148C83.5986 114.764 83.2957 114.291 83.1136 113.768C82.9315 113.245 82.8754 112.686 82.9497 112.137C83.0241 111.588 83.2269 111.064 83.5416 110.608C83.8369 110.14 84.2628 109.769 84.7667 109.54C85.2706 109.311 85.8305 109.234 86.3774 109.319C86.898 109.316 87.4056 109.482 87.8239 109.792C88.2423 110.102 88.5488 110.539 88.6976 111.038C88.8182 111.693 88.7041 112.37 88.3753 112.95C88.1853 113.127 87.9547 113.255 87.7038 113.322C87.4528 113.39 87.1892 113.395 86.936 113.337C86.27 113.1 86.4848 112.499 86.8071 111.962C87.0649 111.854 86.9789 111.575 86.9789 111.36Z" fill="#985BE7"/>
<path d="M81.3073 81.241C80.1 81.3605 78.8839 81.3605 77.6767 81.241C73.1398 80.1837 69.0107 77.8242 65.7965 74.4523C65.5169 74.1769 65.2651 73.8747 65.0446 73.55C64.3142 72.4329 64.529 71.681 65.818 71.5736C67.4489 71.3753 69.1004 71.4261 70.7161 71.724C72.8499 72.2807 74.8504 73.2596 76.5995 74.6027C78.3485 75.9459 79.8105 77.626 80.8991 79.5438C81.1115 80.0884 81.2488 80.6594 81.3073 81.241V81.241ZM78.493 79.6942C77.4381 77.7047 75.8356 76.0587 73.8751 74.9509C71.9145 73.8431 69.6778 73.3197 67.4292 73.4426C70.4851 76.4871 74.3083 78.6474 78.493 79.6942V79.6942Z" fill="#985BE7"/>
<path d="M116.454 72.2394C114.305 77.202 104.874 82.2291 99.9331 81.0904C99.9331 78.9421 102.79 75.3974 106.12 73.421C107.602 72.3651 109.327 71.7028 111.134 71.4961C112.942 71.2894 114.772 71.5452 116.454 72.2394V72.2394ZM113.296 73.4639C111.082 73.3959 108.894 73.9446 106.974 75.0485C105.054 76.1524 103.48 77.7683 102.425 79.7155C106.59 78.7591 110.374 76.5825 113.296 73.4639V73.4639Z" fill="#985BE7"/>
<path d="M149.185 112.621C149.593 113.051 150.001 113.459 150.388 113.889C150.59 114.078 150.764 114.295 150.904 114.533C150.947 114.632 150.969 114.738 150.969 114.845C150.969 114.952 150.947 115.058 150.904 115.156C150.807 115.204 150.7 115.229 150.592 115.229C150.484 115.229 150.378 115.204 150.281 115.156C149.851 114.77 149.464 114.319 149.035 113.91C148.605 113.502 148.691 113.61 148.412 113.352C148.345 113.634 148.302 113.922 148.283 114.211C148.283 116.102 148.283 117.971 148.283 119.861C148.283 120.312 148.433 120.871 147.767 121.021C147.101 121.172 147.123 120.721 147.101 119.883V114.641C147.127 114.208 147.053 113.774 146.886 113.373L145.683 114.555C145.518 114.774 145.323 114.969 145.103 115.135C145.01 115.182 144.907 115.207 144.803 115.207C144.698 115.207 144.595 115.182 144.502 115.135C144.444 115.045 144.414 114.941 144.414 114.834C144.414 114.728 144.444 114.623 144.502 114.533C144.721 114.208 144.973 113.906 145.254 113.631L146.435 112.364H142.482C142.132 112.396 141.78 112.396 141.43 112.364C141.328 112.328 141.235 112.268 141.161 112.19C141.086 112.111 141.031 112.016 141 111.913C141.02 111.808 141.063 111.709 141.126 111.624C141.19 111.538 141.271 111.468 141.365 111.418C141.715 111.375 142.068 111.375 142.418 111.418H145.92V111.161C145.297 110.538 144.674 109.915 144.072 109.27C143.471 108.626 143.213 108.583 143.685 108.11C144.158 107.637 144.523 108.11 144.845 108.497L146.822 110.452C146.822 109.958 146.822 109.657 146.822 109.356C146.822 107.702 146.822 106.069 146.822 104.415C146.822 103.899 146.629 103.233 147.38 103.04C148.132 102.847 147.982 103.362 147.982 104.458V110.452C148.598 110.002 149.166 109.491 149.679 108.926C149.963 108.599 150.288 108.31 150.646 108.067C150.774 108.01 150.914 107.981 151.054 107.981C151.195 107.981 151.334 108.01 151.462 108.067C151.806 108.282 151.634 108.626 151.462 108.862C150.882 109.463 150.281 110.043 149.701 110.624L149.121 111.311H151.978H153.503C153.868 111.311 154.277 111.311 154.277 111.848C154.277 112.385 153.868 112.364 153.482 112.364H149.185V112.621Z" fill="#985BE7"/>
<path d="M12.1316 124.1C12.1809 123.479 12.082 122.855 11.843 122.28C11.6039 121.705 11.2316 121.194 10.7567 120.791C9.80817 119.962 8.706 119.327 7.51277 118.922C7.28237 118.87 7.05888 118.79 6.84679 118.686C6.75311 118.65 6.67247 118.587 6.61557 118.505C6.55867 118.422 6.5282 118.324 6.5282 118.224C6.5282 118.124 6.55867 118.026 6.61557 117.944C6.67247 117.861 6.75311 117.798 6.84679 117.762C7.12187 117.699 7.4025 117.663 7.68463 117.655C8.22151 117.556 8.7523 117.427 9.27438 117.268C10.0535 117.028 10.7388 116.552 11.2353 115.905C11.7318 115.259 12.015 114.474 12.0457 113.659C12.0022 113.273 12.0022 112.884 12.0457 112.499C12.0926 112.38 12.1681 112.275 12.2656 112.192C12.363 112.11 12.4794 112.053 12.6043 112.026C12.7976 112.026 13.0769 112.305 13.1413 112.52C13.2244 112.982 13.2746 113.448 13.2917 113.917C13.368 114.724 13.6947 115.488 14.2263 116.1C14.7579 116.712 15.4677 117.143 16.2564 117.333C16.7502 117.478 17.2524 117.592 17.7602 117.676C18.1684 117.676 18.7055 117.676 18.727 118.321C18.7484 118.965 18.2543 118.836 17.9106 118.987C16.9735 119.396 16.0624 119.862 15.1822 120.383C14.4708 120.758 13.8867 121.336 13.5043 122.044C13.1218 122.752 12.9581 123.557 13.0339 124.358C13.0446 124.472 13.0446 124.587 13.0339 124.701C13.0339 125.066 12.8406 125.367 12.4754 125.303C12.1102 125.238 12.0242 124.938 11.8953 124.701C11.7664 124.465 12.1316 124.315 12.1316 124.1ZM9.42477 118.428L12.6687 121.285L15.8697 118.471C15.2678 118.142 14.6866 117.776 14.1296 117.375C13.5837 116.89 13.074 116.366 12.6043 115.807C11.8216 116.971 10.7167 117.882 9.42477 118.428V118.428Z" fill="#985BE7"/>
<path d="M79.9754 18.8324C80.0204 18.2099 79.9173 17.5855 79.6746 17.0105C79.4318 16.4354 79.0564 15.9261 78.579 15.524C77.6338 14.69 76.5306 14.0544 75.335 13.655C75.1067 13.5954 74.8839 13.5163 74.6691 13.4187C74.5754 13.3831 74.4947 13.3198 74.4378 13.2373C74.3809 13.1548 74.3505 13.057 74.3505 12.9568C74.3505 12.8566 74.3809 12.7587 74.4378 12.6762C74.4947 12.5937 74.5754 12.5305 74.6691 12.4949C74.928 12.4078 75.1939 12.3431 75.4639 12.3015C76.0045 12.2112 76.5364 12.0746 77.0537 11.8934C77.8344 11.6631 78.5226 11.1924 79.0202 10.5482C79.5178 9.90405 79.7995 9.11926 79.825 8.30568C79.817 7.91617 79.8531 7.52702 79.9324 7.1456C79.9793 7.02683 80.0548 6.92152 80.1523 6.83905C80.2497 6.75658 80.3661 6.69952 80.491 6.67297C80.6628 6.67297 80.9421 6.95225 81.0066 7.16708C81.0968 7.62789 81.1543 8.09454 81.1784 8.56348C81.2483 9.37305 81.5729 10.1397 82.1055 10.7533C82.6381 11.367 83.3514 11.7962 84.1431 11.9793C84.6157 12.1512 85.1313 12.1941 85.6254 12.323C86.1196 12.4519 86.5707 12.323 86.6137 12.946C86.6566 13.569 86.1196 13.4831 85.7758 13.6335C84.8502 14.0443 83.9467 14.5033 83.0689 15.0084C82.3775 15.4044 81.8164 15.9931 81.454 16.7027C81.0915 17.4123 80.9436 18.212 81.0281 19.0043V19.348C81.0281 19.7132 80.8347 20.014 80.4695 19.928C80.1043 19.8421 80.0398 19.5843 79.9109 19.348C79.782 19.1117 79.9539 19.0043 79.9754 18.8324ZM77.247 13.0749L80.5125 15.9322L83.7564 13.0964C83.1617 12.7744 82.5878 12.4157 82.0378 12.0223C81.4792 11.5496 81.0066 10.9696 80.491 10.454C79.6974 11.6437 78.5684 12.5709 77.247 13.1179V13.0749Z" fill="#985BE7"/>
<path d="M41.1982 112.563C40.8116 112.112 40.5538 111.94 40.5108 111.725C40.4887 111.375 40.4887 111.023 40.5108 110.673C40.3478 109.677 40.1181 108.694 39.8233 107.73C39.6615 107.325 39.4204 106.957 39.1142 106.647C38.808 106.337 38.4428 106.092 38.0402 105.925C37.7233 105.778 37.4149 105.613 37.1165 105.431C36.4075 104.958 36.386 104.443 37.1165 103.949C37.8469 103.455 38.1691 103.261 38.6418 102.853C39.2706 102.332 39.7719 101.674 40.107 100.929C40.4422 100.184 40.6023 99.3726 40.5752 98.5564C40.5752 98.2771 40.5752 97.9978 40.5752 97.7185C40.5752 97.4392 40.7471 96.9666 41.1982 97.0525C41.6494 97.1385 41.5849 97.4607 41.6924 97.697C41.7285 97.9051 41.7137 98.1189 41.6494 98.32C41.6283 99.3483 41.8722 100.365 42.3575 101.271C42.8429 102.178 43.5534 102.945 44.4207 103.497L45.0222 103.863C45.903 104.464 45.9245 105.087 45.0222 105.517C43.9481 105.949 43.0409 106.715 42.4338 107.701C41.8268 108.687 41.5518 109.841 41.6494 110.995C41.6707 111.274 41.6707 111.554 41.6494 111.833C41.5223 112.09 41.3713 112.335 41.1982 112.563V112.563ZM40.9619 107.687C41.3885 107.049 41.8549 106.439 42.3583 105.861C42.8129 105.463 43.2938 105.097 43.7977 104.765L41.0049 101.585L38.1906 104.765C39.4468 105.359 40.4353 106.401 40.9619 107.687V107.687Z" fill="#985BE7"/>
<path d="M92.6933 61.2617L94.3905 63.0663C94.6802 63.3209 94.9206 63.6268 95.0994 63.9686C95.15 64.1114 95.1648 64.2645 95.1423 64.4144C95.1198 64.5642 95.0608 64.7062 94.9705 64.8279C94.8431 64.9015 94.6987 64.9402 94.5516 64.9402C94.4045 64.9402 94.26 64.9015 94.1327 64.8279C93.5137 64.2734 92.9256 63.6853 92.371 63.0663L91.4688 62.2714C91.4688 62.8085 91.2969 63.1522 91.2969 63.496C91.2969 66.1384 91.2969 68.8023 91.2969 71.4662C91.2969 72.0892 91.4902 72.8841 90.5879 73.0774C89.6857 73.2708 89.6427 72.6693 89.6427 71.4662C89.6427 69.0386 89.6427 66.611 89.6427 64.1619C89.6731 63.5458 89.5706 62.9303 89.3419 62.3574L87.6233 63.9471C87.344 64.2049 87.1292 64.5701 86.8069 64.742C86.6725 64.8052 86.5258 64.838 86.3773 64.838C86.2287 64.838 86.082 64.8052 85.9476 64.742C85.878 64.6095 85.8416 64.462 85.8416 64.3123C85.8416 64.1626 85.878 64.0152 85.9476 63.8827C86.2629 63.4257 86.6227 63.0011 87.0217 62.6152C87.4729 62.0996 87.967 61.6055 88.6974 60.8321H83.2622C82.7696 60.8862 82.2725 60.8862 81.7799 60.8321C81.6381 60.7821 81.5099 60.6998 81.4054 60.5917C81.301 60.4835 81.2233 60.3525 81.1783 60.2091C81.2003 60.0606 81.259 59.92 81.349 59.8C81.4391 59.68 81.5576 59.5843 81.6939 59.5216C82.1786 59.4034 82.6785 59.3599 83.1763 59.3927H88.0959L88.2248 59.049C87.3655 58.1682 86.4632 57.2873 85.6039 56.3851C85.1742 55.9339 84.4008 55.4183 85.0668 54.7523C85.7328 54.0864 86.2484 54.8598 86.721 55.3109C87.5803 56.1273 88.4181 56.9866 89.4708 58.0393C89.5494 57.534 89.5996 57.0248 89.6212 56.514C89.6212 54.1938 89.6212 51.8736 89.6212 49.5534C89.6212 48.823 89.3634 47.8777 90.4161 47.62C91.0176 47.4696 91.2539 48.0711 91.2539 49.6179V58.0393C92.1271 57.4151 92.927 56.6945 93.6386 55.8909C93.9585 55.5096 94.3186 55.1638 94.7127 54.8598C94.8869 54.7594 95.0808 54.6978 95.281 54.6793C95.4812 54.6607 95.6831 54.6857 95.8728 54.7523C96.3669 55.0531 96.1306 55.5472 95.8728 55.8909C95.0779 56.7073 94.2401 57.5237 93.4237 58.34L92.6074 59.3068H96.6247C97.3336 59.3068 98.0641 59.3068 98.773 59.3068C99.482 59.3068 99.8686 59.3068 99.8686 60.0587C99.8686 60.8106 99.2886 60.7891 98.7945 60.7891H92.8007L92.6933 61.2617Z" fill="#985BE7"/>
<path d="M135.406 106.203C135.406 106.522 135.279 106.828 135.054 107.054C134.828 107.279 134.522 107.406 134.203 107.406C133.884 107.406 133.578 107.279 133.352 107.054C133.127 106.828 133 106.522 133 106.203C133 105.884 133.127 105.578 133.352 105.352C133.578 105.127 133.884 105 134.203 105C134.522 105 134.828 105.127 135.054 105.352C135.279 105.578 135.406 105.884 135.406 106.203Z" fill="#985BE7"/>
<path d="M28.201 128.697C28.1955 129.014 28.067 129.317 27.8425 129.542C27.6181 129.766 27.3153 129.895 26.9979 129.9C26.825 129.923 26.6491 129.909 26.4821 129.859C26.3151 129.808 26.1607 129.723 26.0295 129.608C25.8982 129.493 25.793 129.351 25.7209 129.192C25.6489 129.033 25.6116 128.861 25.6116 128.686C25.6116 128.512 25.6489 128.339 25.7209 128.181C25.793 128.022 25.8982 127.88 26.0295 127.765C26.1607 127.65 26.3151 127.565 26.4821 127.514C26.6491 127.464 26.825 127.45 26.9979 127.473C27.319 127.478 27.625 127.61 27.85 127.839C28.075 128.068 28.2011 128.376 28.201 128.697V128.697Z" fill="#985BE7"/>
<path d="M34.8607 2.84904C34.8607 3.08698 34.7901 3.31958 34.6579 3.51742C34.5258 3.71526 34.3379 3.86946 34.118 3.96051C33.8982 4.05157 33.6563 4.0754 33.4229 4.02898C33.1896 3.98256 32.9752 3.86797 32.807 3.69972C32.6387 3.53147 32.5241 3.31711 32.4777 3.08374C32.4313 2.85037 32.4551 2.60847 32.5462 2.38864C32.6372 2.16881 32.7914 1.98092 32.9893 1.84873C33.1871 1.71654 33.4197 1.64598 33.6576 1.64598C33.9767 1.64598 34.2827 1.77273 34.5083 1.99835C34.7339 2.22396 34.8607 2.52997 34.8607 2.84904Z" fill="#985BE7"/>
<path d="M100.234 31.1852C100.234 31.3432 100.203 31.4996 100.142 31.6456C100.082 31.7916 99.9932 31.9242 99.8815 32.0359C99.7698 32.1476 99.6372 32.2362 99.4912 32.2967C99.3452 32.3572 99.1888 32.3883 99.0308 32.3883C98.7117 32.3883 98.4057 32.2615 98.1801 32.0359C97.9545 31.8103 97.8278 31.5043 97.8278 31.1852C97.8278 30.8662 97.9545 30.5601 98.1801 30.3345C98.4057 30.1089 98.7117 29.9822 99.0308 29.9822C99.3499 29.9822 99.6559 30.1089 99.8815 30.3345C100.107 30.5601 100.234 30.8662 100.234 31.1852Z" fill="#985BE7"/>
<path d="M168.4 1.64593C168.4 1.88387 168.329 2.11647 168.197 2.31431C168.065 2.51215 167.877 2.66635 167.657 2.75741C167.437 2.84846 167.195 2.87229 166.962 2.82587C166.729 2.77945 166.514 2.66487 166.346 2.49662C166.178 2.32837 166.063 2.114 166.017 1.88063C165.97 1.64726 165.994 1.40537 166.085 1.18554C166.176 0.965711 166.331 0.777821 166.528 0.645628C166.726 0.513434 166.959 0.442871 167.197 0.442871C167.516 0.442871 167.822 0.569622 168.048 0.795238C168.273 1.02085 168.4 1.32686 168.4 1.64593Z" fill="#985BE7"/>
<path d="M62.4061 113.203C62.4061 113.441 62.3356 113.674 62.2034 113.872C62.0712 114.069 61.8833 114.224 61.6635 114.315C61.4436 114.406 61.2017 114.43 60.9684 114.383C60.735 114.337 60.5206 114.222 60.3524 114.054C60.1841 113.886 60.0695 113.671 60.0231 113.438C59.9767 113.205 60.0005 112.963 60.0916 112.743C60.1826 112.523 60.3368 112.335 60.5347 112.203C60.7325 112.071 60.9651 112 61.2031 112C61.361 112 61.5175 112.031 61.6635 112.092C61.8094 112.152 61.942 112.241 62.0537 112.352C62.1655 112.464 62.2541 112.597 62.3145 112.743C62.375 112.889 62.4061 113.045 62.4061 113.203V113.203Z" fill="#985BE7"/>
</svg>
