<svg width="152" height="151" viewBox="0 0 152 151" fill="none" xmlns="http://www.w3.org/2000/svg">
<circle cx="76" cy="73" r="67" fill="#F0E8FF"/>
<path d="M140.058 71.8673C140.104 71.293 140.012 70.7161 139.791 70.1841C139.57 69.6521 139.226 69.1802 138.787 68.8074C137.902 68.0398 136.876 67.4526 135.767 67.0788C135.564 67.018 135.365 66.945 135.17 66.8602C135.084 66.8273 135.009 66.7688 134.957 66.6925C134.904 66.6162 134.876 66.5257 134.876 66.433C134.876 66.3403 134.904 66.2499 134.957 66.1736C135.009 66.0973 135.084 66.0388 135.17 66.0058C135.411 65.9276 135.656 65.8678 135.906 65.827C136.412 65.7411 136.91 65.6148 137.396 65.4495C138.115 65.2313 138.748 64.7945 139.207 64.1998C139.667 63.6051 139.93 62.8822 139.959 62.1313C139.919 61.7748 139.919 61.4149 139.959 61.0584C140.002 60.9486 140.072 60.8511 140.162 60.7749C140.252 60.6986 140.36 60.6458 140.476 60.6213C140.588 60.6503 140.69 60.7075 140.774 60.7875C140.857 60.8675 140.919 60.9676 140.953 61.0783C141.046 61.5029 141.099 61.9352 141.111 62.3698C141.179 63.1175 141.48 63.825 141.972 64.392C142.464 64.9591 143.123 65.3568 143.853 65.529C144.311 65.6581 144.776 65.7642 145.244 65.8469C145.622 65.8469 146.118 65.8469 146.138 66.4231C146.158 66.9993 145.681 66.9 145.383 67.0589C144.521 67.4388 143.678 67.8633 142.86 68.3305C142.205 68.6816 141.668 69.217 141.315 69.8704C140.962 70.5238 140.808 71.2665 140.873 72.0064C140.873 72.1256 140.873 72.2249 140.873 72.3441C140.873 72.4634 140.674 72.9601 140.356 72.8806C140.038 72.8011 139.939 72.5627 139.82 72.3441C139.701 72.1256 140.058 71.9865 140.058 71.8673ZM137.555 66.5423L140.535 69.1849L143.535 66.5622C142.988 66.2598 142.458 65.9282 141.946 65.5687C141.429 65.1316 140.992 64.5951 140.515 64.1183C139.788 65.1994 138.758 66.0425 137.555 66.5423V66.5423Z" fill="#985BE7"/>
<path d="M137.893 47.8452C137.893 48.1403 137.776 48.4233 137.567 48.632C137.358 48.8407 137.075 48.9579 136.78 48.9579C136.485 48.9579 136.202 48.8407 135.994 48.632C135.785 48.4233 135.668 48.1403 135.668 47.8452C135.668 47.5501 135.785 47.2671 135.994 47.0584C136.202 46.8498 136.485 46.7325 136.78 46.7325C137.075 46.7325 137.358 46.8498 137.567 47.0584C137.776 47.2671 137.893 47.5501 137.893 47.8452Z" fill="#985BE7"/>
<path d="M150.887 36.7186C151.502 36.7186 152 36.2205 152 35.606C152 34.9914 151.502 34.4933 150.887 34.4933C150.273 34.4933 149.775 34.9914 149.775 35.606C149.775 36.2205 150.273 36.7186 150.887 36.7186Z" fill="#985BE7"/>
<path d="M104.771 26.6448C103.837 23.7042 103.002 21.0019 102.148 18.3196C101.846 17.1943 101.447 16.0974 100.956 15.0412C100.654 14.306 100.158 13.6669 99.521 13.1926C98.8836 12.7182 98.1291 12.4265 97.3383 12.3489C96.5476 12.2713 95.7507 12.4106 95.0333 12.7519C94.3158 13.0932 93.7049 13.6237 93.2663 14.2861C92.7181 15.0567 92.252 15.8824 91.8755 16.7499C91.6371 17.2268 91.4185 17.7434 91.2 18.26C89.7296 17.8427 89.67 16.8493 89.6303 15.7962C89.5115 13.4334 89.9518 11.076 90.9153 8.91529C91.8788 6.75463 93.3383 4.85171 95.1755 3.36112C97.0126 1.87053 99.1754 0.834303 101.488 0.336622C103.801 -0.161059 106.199 -0.106156 108.486 0.496861C112.418 1.41874 115.944 3.58986 118.538 6.68484C121.131 9.77982 122.652 13.632 122.872 17.6639L122.991 20.2271C125.859 21.8015 128.105 24.3083 129.355 27.3325C130.605 30.3567 130.785 33.7171 129.866 36.8576C129.76 37.4304 129.544 37.9771 129.23 38.467C128.606 39.1621 128.221 40.0387 128.132 40.9683C128.042 41.898 128.253 42.8319 128.733 43.6331C129.107 45.0879 129.599 46.51 130.203 47.8851C130.671 49.0229 130.802 50.2712 130.581 51.4814C130.259 54.5471 129.066 57.4565 127.143 59.8662C126.826 60.2636 126.388 60.7008 126.369 61.1379C126.202 62.752 125.419 64.2395 124.183 65.2906C122.554 66.9596 120.825 68.5293 119.096 70.0791C118.282 70.7944 117.388 71.4302 116.513 72.066C117.109 73.6158 117.706 75.0265 118.202 76.4571C118.54 77.391 119.335 77.5102 120.189 77.6492L125.594 78.5036C127.218 78.7518 128.777 79.3184 130.182 80.1708C131.587 81.0232 132.81 82.1447 133.78 83.4709C134.694 84.683 135.767 85.736 136.76 86.9282C138.549 89.4368 139.626 92.3818 139.88 95.4521C140.158 97.6775 140.535 99.9227 140.694 102.168C140.774 103.619 140.734 105.075 140.575 106.519C140.575 107.314 140.237 108.168 139.244 108.288C138.25 108.407 137.873 107.572 137.615 106.817C136.78 104.254 136.045 101.671 135.171 99.1279C134.098 96.0283 132.925 92.9685 131.773 89.9086C131.562 89.4259 131.246 88.9968 130.847 88.6529C130.448 88.309 129.977 88.0591 129.468 87.9217C126.527 86.8288 123.686 85.5374 120.805 84.2856C120.09 83.9876 119.375 83.6299 118.58 83.2524L115.54 86.6699C116.215 87.0077 116.752 87.3256 117.328 87.564C121.25 89.3018 124.919 91.5608 128.236 94.2798C129.466 95.3124 130.456 96.6007 131.137 98.055C133.116 102.208 134.289 106.698 134.594 111.288C134.639 112.628 134.485 113.967 134.138 115.262C134.05 115.488 133.908 115.69 133.724 115.85C133.541 116.009 133.321 116.121 133.084 116.176C132.846 116.143 132.617 116.059 132.414 115.928C132.212 115.798 132.04 115.625 131.912 115.421C131.589 114.79 131.343 114.123 131.177 113.434C130.462 111.069 129.746 108.685 129.19 106.301C128.375 103.142 125.991 100.956 124.243 98.353C124.046 98.1421 123.789 97.9964 123.507 97.9358C119.912 96.7325 116.516 94.9979 113.434 92.7896L112.639 92.3724L110.056 97.6179C110.572 98.0153 111.109 98.3928 111.586 98.81C115.083 101.792 118.176 105.219 120.785 109.003C121.251 109.561 121.632 110.183 121.918 110.851C123.883 116.06 124.404 121.703 123.428 127.183C123.273 127.972 122.991 128.73 122.593 129.429C122.434 129.646 122.232 129.828 122 129.965C121.767 130.101 121.51 130.189 121.242 130.223C120.905 130.223 120.348 129.647 120.249 129.25C119.792 127.422 119.434 125.554 119.077 123.706C118.58 121.044 118.202 118.381 117.626 115.759C117.306 114.38 116.819 113.045 116.176 111.785C115.866 111.057 115.32 110.455 114.626 110.076C112.912 109.252 111.446 107.991 110.374 106.42C109.102 104.85 107.87 103.221 106.539 101.512L100.678 105.665C100.822 106.061 101.009 106.441 101.234 106.797C104.286 111.429 106.424 116.602 107.533 122.037C107.581 122.32 107.581 122.609 107.533 122.892C106.817 127.72 106.42 132.628 104.214 137.078C103.896 137.812 103.452 138.484 102.903 139.065C102.68 139.277 102.413 139.436 102.121 139.532C101.829 139.628 101.519 139.659 101.214 139.622C100.954 139.461 100.735 139.244 100.573 138.985C100.411 138.727 100.311 138.435 100.28 138.131C100.224 136.674 100.257 135.214 100.38 133.76C100.717 129.27 101.095 124.759 101.393 120.269C101.363 119.666 101.156 119.085 100.797 118.6C99.1675 115.759 97.4786 112.957 95.8096 110.136C95.6516 109.988 95.4857 109.848 95.3129 109.718C92.5568 111.39 89.4465 112.391 86.2326 112.639C85.2282 112.825 84.2386 113.084 83.2721 113.414C78.1453 115.322 72.5034 115.322 67.3767 113.414C66.0009 112.935 64.5843 112.583 63.1445 112.361C60.3107 112.056 57.5882 111.09 55.1968 109.539C54.8391 110.076 54.5213 110.533 54.2431 111.01C52.8324 113.394 51.362 115.739 50.0506 118.163C49.6558 118.922 49.4707 119.772 49.5142 120.626C49.7725 125.137 50.15 129.647 50.448 134.138C50.5291 135.461 50.5291 136.788 50.448 138.111C50.448 138.608 50.0308 139.403 49.6731 139.482C49.3691 139.538 49.0567 139.525 48.7579 139.446C48.4592 139.368 48.1815 139.224 47.9445 139.025C47.3435 138.397 46.8531 137.672 46.4941 136.88C45.2327 133.774 44.3327 130.534 43.8117 127.223C42.6394 122.296 44.1694 117.865 45.9775 113.493C47.0703 110.811 48.6201 108.327 50.0904 105.546L44.4475 101.453C43.9111 102.049 43.3348 102.665 42.7984 103.3C41.6658 104.731 40.6128 106.221 39.4007 107.572C38.7088 108.405 37.8489 109.082 36.8773 109.559C36.3112 109.801 35.7997 110.155 35.373 110.598C34.9464 111.042 34.6132 111.567 34.3936 112.142C33.162 115.264 32.3664 118.54 32.0292 121.878C31.7312 123.746 31.3934 125.614 31.0556 127.462C30.9695 128.043 30.8092 128.61 30.5788 129.15C30.0622 130.343 28.8502 130.482 28.2938 129.309C27.7646 128.108 27.3842 126.847 27.1613 125.554C26.6363 121.721 26.8931 117.821 27.9163 114.09C28.5438 111.689 29.6824 109.452 31.2543 107.533C34.1134 103.818 37.3348 100.397 40.871 97.3198L38.4669 92.1737C37.1754 92.9486 35.9832 93.7434 34.7116 94.3792C32.4663 95.5316 30.1417 96.5847 27.8567 97.6974C27.3421 97.9142 26.8759 98.2317 26.4857 98.6312C23.8654 101.418 22.0224 104.844 21.1409 108.566C20.7616 110.274 20.2839 111.959 19.7103 113.613C19.5499 114.247 19.3165 114.86 19.0148 115.441C18.379 116.494 17.3657 116.434 16.869 115.282C16.5503 114.549 16.3944 113.756 16.412 112.957C16.4293 110.776 16.6488 108.601 17.0676 106.46C17.8459 103.506 18.8149 100.605 19.9686 97.7768C20.7148 96.0154 22.0207 94.549 23.6841 93.6043C25.6711 92.432 27.36 91.0014 29.2873 89.8689C31.2146 88.7363 33.2611 87.8819 35.407 86.6898L32.4067 83.2524C31.6715 83.5902 30.9761 83.9677 30.2609 84.2657C27.3798 85.5175 24.5187 86.809 21.5979 87.9217C21.0431 88.0756 20.5309 88.3543 20.1004 88.7366C19.6699 89.1188 19.3326 89.5945 19.1142 90.1271C18.081 92.9287 16.9683 95.6905 16.0146 98.512C15.0608 101.333 14.3257 103.936 13.4713 106.639C13.1931 107.473 12.915 108.466 11.8222 108.407C10.7294 108.347 10.3717 107.254 10.332 106.301C10.332 104.493 10.332 102.665 10.4711 100.857C10.6102 99.0485 10.9281 97.1013 11.1665 95.2336C11.3939 91.5625 12.9891 88.11 15.6371 85.5572C16.0034 85.2011 16.3237 84.8006 16.5908 84.3651C17.7787 82.5853 19.3613 81.1035 21.2153 80.0352C23.0694 78.9669 25.1449 78.3408 27.2805 78.2056C28.572 78.0665 29.8635 77.8479 31.2543 77.6492C31.651 77.6023 32.0244 77.4369 32.3256 77.1747C32.6269 76.9124 32.8421 76.5654 32.9432 76.1789C33.3605 74.8676 33.9565 73.6158 34.5327 72.2051C33.5989 71.45 32.5458 70.7546 31.6914 69.9201C29.8039 68.112 27.8766 66.3238 26.1281 64.3766C25.5352 63.4842 25.0672 62.5148 24.7372 61.4955C24.4371 60.8519 24.0849 60.2339 23.6841 59.6477C21.5031 56.8024 20.3603 53.2971 20.4454 49.7131C20.3732 49.06 20.5051 48.4005 20.8229 47.8255C22.3529 45.9776 21.8959 43.4741 22.9887 41.4872C23.0485 41.2172 23.0455 40.9371 22.9801 40.6684C22.9146 40.3997 22.7884 40.1496 22.6112 39.9374C19.293 35.586 19.9685 27.2012 25.0153 22.2934C25.8274 21.6086 26.6985 20.9969 27.6183 20.4655C28.0118 17.6899 28.6094 14.9471 29.4065 12.2595C30.5597 8.76077 32.7721 5.70715 35.7375 3.52141C38.7028 1.33567 42.2743 0.125946 45.9576 0.0597346C48.0041 -0.135526 50.0676 0.165213 51.9734 0.936489C53.8791 1.70776 55.5709 2.92686 56.9056 4.49058C59.7925 7.55011 61.3807 11.6098 61.3364 15.8161C61.4243 16.3273 61.3415 16.8533 61.1009 17.3128C60.8604 17.7724 60.4753 18.1401 60.0052 18.3593C59.7469 17.9222 59.4488 17.4851 59.1905 17.0281C58.7197 15.9749 58.1475 14.9701 57.4818 14.0278C57.0407 13.4612 56.4639 13.0148 55.8047 12.7301C55.1454 12.4453 54.425 12.3313 53.7101 12.3987C52.9952 12.466 52.3087 12.7125 51.7143 13.1153C51.1198 13.5181 50.6365 14.0643 50.3089 14.7034C49.7077 15.8673 49.2347 17.0932 48.8982 18.3593C48.024 21.0417 47.1895 23.7439 46.2755 26.5653C47.1696 26.8236 47.9644 26.1282 48.7194 25.5719C50.6543 23.9373 52.2131 21.904 53.2893 19.6111C53.4824 19.139 53.7081 18.6809 53.9649 18.2401C54.2033 17.9421 54.7001 17.5248 54.9584 17.6043C55.1819 17.6738 55.3863 17.7944 55.5553 17.9565C55.7242 18.1185 55.8532 18.3177 55.932 18.5382C56.742 21.5076 56.8305 24.6277 56.1902 27.6383C55.694 30.1001 54.6905 32.4316 53.2434 34.4842C51.7964 36.5368 49.9376 38.2654 47.7856 39.5599C45.208 41.0868 42.5178 42.4153 39.7385 43.5337C39.2016 43.6936 38.7028 43.961 38.2724 44.3197C37.842 44.6783 37.4891 45.1207 37.235 45.62C36.396 46.8679 35.4232 48.0205 34.334 49.0574C34.9105 49.3768 35.456 49.7494 35.9633 50.17C36.4585 50.5685 36.8192 51.1095 36.9966 51.7198C37.4337 55.1771 39.5199 57.8595 41.1294 61.0783C43.1163 59.0914 44.9641 57.5018 46.6331 55.6341C47.2148 54.837 47.5716 53.8982 47.666 52.9159C47.7604 51.9337 47.5889 50.9441 47.1696 50.0508C46.9013 49.3802 46.7145 48.6797 46.6133 47.9646C46.6133 46.2359 47.7259 45.3219 49.3155 45.9776C50.4104 46.5058 51.4323 47.1737 52.3555 47.9646C52.8967 48.452 53.3891 48.991 53.8258 49.574C54.3027 50.1303 54.7597 50.7065 55.1968 51.243C55.3955 51.243 55.6141 51.243 55.6538 51.1238C56.2965 50.0469 57.1599 49.1183 58.1873 48.3991C59.2147 47.6799 60.3827 47.1865 61.6146 46.9512C64.4776 46.0798 67.5023 45.8759 70.4564 46.3551C71.8248 46.4742 73.2009 46.4742 74.5693 46.3551C74.9468 46.3551 75.3244 46.1366 75.6423 46.2359C78.0849 46.6931 80.5911 46.6931 83.0337 46.2359C86.1812 46.0244 89.3239 46.7136 92.094 48.2229C93.4106 49.1185 94.6118 50.1729 95.6705 51.3622C96.5318 50.2835 97.4469 49.249 98.4125 48.2626C99.3269 47.4402 100.334 46.7268 101.413 46.1366C102.108 45.7193 103.102 45.5206 103.598 46.2955C103.997 47.0347 104.208 47.8601 104.214 48.6997C104.214 49.1567 103.857 49.6336 103.698 50.1104C103.197 51.218 103.061 52.4564 103.311 53.646C103.562 54.8357 104.184 55.9148 105.089 56.7269C106.599 58.078 108.069 59.4689 109.798 61.0584C111.308 58.1178 113.275 55.5546 113.771 52.2961C113.804 51.8246 113.954 51.3688 114.207 50.9698C114.46 50.5708 114.809 50.2413 115.222 50.0111C115.659 49.7727 116.076 49.4945 116.652 49.117C116.116 48.4812 115.619 47.9646 115.182 47.3883C114.558 46.6879 114.012 45.9218 113.553 45.1034C113.412 44.7817 113.204 44.4934 112.944 44.2571C112.684 44.0209 112.377 43.8421 112.043 43.7324C109.466 42.7311 106.945 41.5902 104.492 40.3149C100.748 38.3654 97.7632 35.2194 96.0133 31.3776C94.2634 27.5357 93.849 23.2189 94.836 19.1144C94.893 18.7527 94.993 18.3992 95.134 18.0613C95.5314 17.2268 96.2865 17.1076 96.8428 17.8229C97.1409 18.2202 97.2799 18.7368 97.5581 19.174C98.7502 20.9821 99.9225 22.8299 101.234 24.5585C102.108 25.6749 103.371 26.4201 104.771 26.6448ZM49.8519 54.4618C48.5704 56.414 46.9878 58.1509 45.1628 59.608C43.8215 60.8361 42.6279 62.2164 41.6062 63.7209C39.7782 66.5224 38.0695 69.4035 36.5197 72.364C35.4789 74.4637 34.5891 76.635 33.8572 78.8613C33.5443 79.694 33.4967 80.6031 33.7208 81.4639C33.9449 82.3247 34.4298 83.0952 35.109 83.6696C37.6293 86.1159 39.4945 89.1563 40.5333 92.5115C42.137 96.5309 44.9486 99.9536 48.5803 102.307C50.7461 103.916 52.9516 105.486 55.018 107.195C57.13 109.009 59.7013 110.205 62.4491 110.652C63.9636 110.871 65.4632 111.183 66.9395 111.586C69.738 112.613 72.7012 113.119 75.682 113.076C77.6897 113.016 79.6865 112.757 81.6428 112.301C83.8085 111.705 85.9942 111.069 88.1997 110.692C91.0913 110.215 93.7903 108.934 95.9884 106.996C97.4951 105.602 99.1022 104.32 100.797 103.161C105.413 100.487 108.933 96.263 110.731 91.2398C111.579 88.5116 113.136 86.0571 115.242 84.1266C116.073 83.4468 116.666 82.5195 116.934 81.4797C117.202 80.4398 117.131 79.3416 116.732 78.3447C115.936 76.1608 114.987 74.0361 113.891 71.9865C112.559 69.483 111.069 67.0589 109.539 64.6547C108.662 63.1558 107.615 61.7624 106.42 60.5021C104.338 58.8744 102.602 56.848 101.313 54.5413C99.704 56.0315 100.479 58.5151 98.4522 59.6676C97.9356 55.1771 101.055 51.8589 102.426 47.6466C101.916 47.7908 101.422 47.9907 100.956 48.2427C98.6341 50.0241 96.7795 52.3423 95.5513 54.9983C95.2208 55.8048 94.8495 56.594 94.4386 57.3627C94.22 57.7204 93.6637 57.8396 93.2465 58.078C93.0677 57.6608 92.6703 57.1839 92.7498 56.8064C92.956 56.1277 93.2082 55.4638 93.5047 54.8195C93.755 54.3147 93.8648 53.752 93.8227 53.1902C93.5071 51.8985 92.7021 50.78 91.5774 50.0707C89.2691 48.795 86.7007 48.0612 84.0668 47.9248C81.0268 47.7857 77.967 48.0639 74.927 48.0838C72.3837 48.0838 69.8405 47.9646 67.2972 47.9447C64.3007 47.8794 61.3508 48.6946 58.813 50.2893C57.8745 51.0679 57.1839 52.1038 56.8261 53.2696C56.6075 53.8459 57.2235 54.7201 57.442 55.4751C57.6566 56.0822 57.8162 56.7073 57.9189 57.3428C57.9189 57.6011 57.5613 57.9787 57.2831 58.1178C57.1488 58.1378 57.0116 58.1247 56.8835 58.0797C56.7554 58.0347 56.6402 57.9591 56.5479 57.8595C56.0871 57.2022 55.7005 56.4958 55.3955 55.7533C54.4025 53.2071 52.8471 50.9181 50.8454 49.0574C50.037 48.4178 49.1725 47.8526 48.2624 47.3685C48.3187 47.9022 48.432 48.4285 48.6002 48.9381C49.395 50.4879 50.2891 51.9781 51.0044 53.5677C51.5838 54.9005 52.0815 56.2674 52.4946 57.6608C52.7131 58.3164 53.0906 59.2702 52.1568 59.6477C51.2229 60.0252 51.1633 58.9324 50.9448 58.2568C50.5871 56.8461 50.15 55.6341 49.7526 54.3823L49.8519 54.4618ZM59.0514 13.2529L59.4488 13.1138C59.2899 12.4979 59.1905 11.8621 58.9918 11.266C58.1895 8.3508 56.3899 5.80948 53.9064 4.08483C51.423 2.36019 48.4131 1.56156 45.4012 1.8281C43.1745 2.01334 41.0063 2.63601 39.0206 3.66047C37.0349 4.68493 35.2708 6.09104 33.8294 7.79828C32.3879 9.50552 31.2974 11.4803 30.6202 13.6097C29.9431 15.739 29.6927 17.9809 29.8833 20.2072C31.3934 21.3199 32.8041 22.4921 34.3142 23.4657C35.8591 24.5515 37.5263 25.4518 39.2815 26.1481C43.0368 27.4595 43.3547 27.837 45.4211 23.5452C46.1436 21.642 46.7539 19.6981 47.2491 17.7235C47.6375 16.3407 48.1843 15.0072 48.8784 13.7497C49.3324 12.976 49.9551 12.3149 50.7002 11.8154C51.4453 11.3159 52.2935 10.9911 53.1816 10.865C54.0697 10.739 54.9748 10.815 55.8295 11.0874C56.6841 11.3598 57.4662 11.8216 58.1176 12.4383C58.3361 12.5774 58.6342 12.8953 58.9521 13.1735L59.0514 13.2529ZM91.5377 13.6106C92.1735 13.0344 92.4914 12.7562 92.7895 12.4582C93.468 11.7811 94.2998 11.2776 95.2143 10.9905C96.1288 10.7033 97.099 10.641 98.0428 10.8087C98.9865 10.9764 99.8758 11.3692 100.635 11.9538C101.395 12.5384 102.002 13.2976 102.406 14.1669C102.905 15.1373 103.305 16.1558 103.598 17.2069C104.115 18.8759 104.473 20.5847 105.049 22.2338C105.488 23.3844 106.027 24.4946 106.658 25.552C106.915 26.1186 107.381 26.5646 107.958 26.7976C108.535 27.0307 109.179 27.0329 109.758 26.8038C112.298 26.1408 114.686 24.9939 116.792 23.426L121.044 20.2668C121.465 16.0696 120.287 11.8679 117.746 8.50118C115.204 5.1345 111.486 2.85076 107.334 2.10627C99.4258 0.516725 92.8491 5.1264 91.4384 13.5311L91.5377 13.6106ZM54.5808 21.1609C53.5675 22.5518 52.7926 23.6644 51.978 24.7572C50.8816 26.2813 49.3758 27.4634 47.6351 28.1667C45.8944 28.87 43.9901 29.0657 42.1427 28.7311C40.851 28.5215 39.5808 28.1956 38.3477 27.7575C35.7375 26.6719 33.337 25.1388 31.2543 23.2273C30.8963 22.8278 30.4491 22.5181 29.9492 22.3235C29.4492 22.1288 28.9105 22.0546 28.3765 22.1068C27.8426 22.159 27.3283 22.3363 26.8756 22.6241C26.4228 22.912 26.0442 23.3024 25.7704 23.7638C24.4311 25.2172 23.4301 26.949 22.8393 28.8349C22.2484 30.7209 22.0823 32.7143 22.3529 34.672C22.4671 36.3266 23.1723 37.8851 24.3398 39.0631C25.1522 38.6427 26.048 38.4086 26.9622 38.3776C27.8764 38.3467 28.7861 38.5198 29.625 38.8843C31.8818 39.6745 34.0795 40.624 36.2017 41.7256C36.5811 41.9961 37.0248 42.1624 37.4886 42.2077C37.9523 42.253 38.4198 42.1758 38.8444 41.9839C41.7652 40.5334 44.8052 39.2221 47.5472 37.4934C50.2531 35.7081 52.3363 33.1248 53.5079 30.1021C54.752 27.2668 55.0919 24.1169 54.4815 21.0814L54.5808 21.1609ZM126.627 39.1227C127.044 38.4472 127.382 37.9703 127.64 37.4537C128.564 34.9908 128.736 32.3092 128.134 29.7484C127.533 27.1877 126.186 24.8629 124.262 23.0683C123.678 22.5062 122.898 22.1922 122.087 22.1922C121.276 22.1922 120.496 22.5062 119.911 23.0683C119.136 23.6048 118.421 24.2208 117.666 24.797C115.195 26.7443 112.28 28.0483 109.182 28.592C107.212 29.0543 105.149 28.9043 103.267 28.1622C101.385 27.4202 99.7747 26.1213 98.6509 24.4393L96.3659 21.2404C95.6533 25.2787 96.529 29.4362 98.8099 32.844C102.128 37.8908 107.234 40.2751 112.718 42.2223C113.337 42.3014 113.965 42.1758 114.507 41.8647C115.957 41.1891 117.308 40.2751 118.798 39.7188C121.222 38.8048 123.786 37.7915 126.627 39.1227ZM35.5858 70.695C37.0164 68.2113 38.3675 65.9661 39.5597 63.6812C39.6821 63.392 39.7451 63.0812 39.7451 62.7672C39.7451 62.4532 39.6821 62.1423 39.5597 61.8532C38.4072 59.5285 37.1157 57.2832 35.9434 55.1175C33.7976 56.3096 31.7709 57.4223 29.7641 58.5747C28.9992 58.9821 28.2624 59.4401 27.5587 59.9457C25.9691 61.0981 25.8698 61.575 27.042 63.1248C29.4432 66.1115 32.3318 68.6709 35.5858 70.695V70.695ZM115.202 70.695C118.354 68.6837 121.159 66.174 123.507 63.2639C124.839 61.5154 124.819 61.0981 123.11 59.9457C121.799 59.0516 120.328 58.3959 118.957 57.6011C117.586 56.8064 116.156 55.8924 114.705 55.0181C113.533 57.1839 112.42 59.2304 111.288 61.2571C111.027 61.6085 110.872 62.0267 110.84 62.463C110.809 62.8993 110.902 63.3356 111.109 63.7209C112.48 65.9661 113.771 68.2312 115.202 70.7149V70.695ZM125.355 59.1112C127.49 56.6556 128.718 53.5414 128.832 50.2893C128.832 47.8255 128.137 47.3486 125.792 48.3023L124.799 48.7395C123.016 49.7232 121.031 50.2872 118.997 50.3886C117.99 50.4962 117.013 50.7928 116.116 51.2629C115.083 51.7795 114.964 52.5544 115.778 53.2498C116.499 53.9586 117.307 54.5728 118.182 55.0778C120.487 56.5083 122.852 57.7601 125.355 59.1311V59.1112ZM25.3929 59.1112C27.5586 57.9588 29.3667 57.1243 31.1351 56.0116C32.5249 55.1959 33.8531 54.2795 35.109 53.2696C35.9037 52.5941 35.8044 51.8391 34.8705 51.2827C34.0696 50.7833 33.1663 50.4709 32.2279 50.3687C29.8254 50.2141 27.4858 49.5359 25.373 48.3818C24.9187 48.1575 24.4381 47.9906 23.9424 47.8851C22.7702 47.6069 22.2734 47.8851 22.1542 49.0971C21.9827 50.8989 22.1815 52.7168 22.7385 54.4389C23.2955 56.161 24.1987 57.7511 25.3929 59.1112V59.1112ZM36.2812 43.9708C33.5055 41.7991 30.1413 40.5115 26.6248 40.2751C26.3433 40.2909 26.0684 40.3664 25.8183 40.4965C25.5682 40.6267 25.3487 40.8086 25.1743 41.0302C24.1065 42.4532 23.5594 44.1997 23.6245 45.9776C26.6645 46.7525 29.1482 49.0971 32.5657 48.6799L36.2812 43.9708ZM127.004 45.9578C127.342 41.4673 125.415 39.6791 121.342 40.5931C120.986 40.6595 120.64 40.7662 120.308 40.911C118.22 41.5832 116.274 42.6339 114.566 44.0106L118.222 48.66C121.6 49.0574 124.103 46.7923 127.004 45.9975V45.9578ZM118.937 81.7225C122.534 83.2524 126.071 84.8022 129.627 86.2526C130.854 86.8721 132.251 87.0677 133.601 86.809C130.541 80.4508 124.819 79.9143 118.957 79.2785L118.937 81.7225ZM17.1471 86.6898C20.0679 87.0276 27.3202 84.3055 31.91 81.2058C31.91 80.5899 31.7709 79.8945 31.6914 79.0202C28.8501 79.6362 26.2075 80.0932 23.6046 80.7886C20.5249 81.643 18.7963 84.067 17.1471 86.6898ZM37.6919 90.1868L36.6389 88.021C35.7789 88.3402 34.9366 88.705 34.1155 89.1138C31.7113 90.4252 29.2873 91.7564 26.9228 93.0877C25.989 93.6639 24.9359 94.399 25.373 95.8296C28.2541 96.3065 34.0161 93.6241 37.6919 90.1868V90.1868ZM125.375 95.8892C125.772 94.4587 124.739 93.7036 123.786 93.1473C121.123 91.5577 118.361 90.1073 115.619 88.6171C115.121 88.4237 114.61 88.2643 114.089 88.1402L113.096 90.1271C117.229 93.8626 122.653 96.3661 125.375 95.8892V95.8892ZM43.4342 100.082L41.9837 98.5915C38.8469 101.202 35.9902 104.132 33.4598 107.334C35.4467 108.625 36.2217 108.685 37.6125 107.135C39.5994 104.95 41.3877 102.565 43.4342 100.082ZM117.388 107.354C114.876 104.197 112.046 101.308 108.943 98.7305L107.334 99.9426C108.864 101.93 110.135 103.579 111.447 105.208C112.046 106.016 112.711 106.773 113.434 107.473C113.688 107.748 113.999 107.966 114.345 108.111C114.69 108.255 115.063 108.325 115.438 108.313C115.812 108.302 116.18 108.211 116.517 108.045C116.853 107.88 117.15 107.644 117.388 107.354V107.354ZM104.393 118.222C103.403 114.033 101.541 110.1 98.9291 106.678L96.9421 108.466C98.492 111.169 99.8828 113.712 101.353 116.216C101.617 116.804 102.043 117.305 102.581 117.661C103.12 118.016 103.748 118.211 104.393 118.222V118.222ZM51.9581 106.837C49.2559 109.758 46.653 115.58 46.7921 118.103C48.3022 117.745 48.481 117.745 49.097 116.752C50.7262 114.03 52.276 111.248 53.9053 108.427L51.9581 106.837ZM45.4608 124.72C45.7429 128.929 46.8146 133.047 48.62 136.86L49.097 136.76C48.7592 132.786 48.4214 128.594 48.0836 124.402L45.4608 124.72ZM105.327 124.72L102.784 124.342C102.605 126.528 102.347 128.614 102.247 130.7C101.851 132.81 101.797 134.971 102.088 137.098C103.953 133.162 105.052 128.907 105.327 124.561V124.72ZM29.2674 126.269H29.7442C30.4198 122.514 31.0953 118.779 31.7312 114.944L29.9628 113.851C28.6918 117.866 28.4526 122.137 29.2674 126.269V126.269ZM121.063 126.408C122.216 122.293 122.112 117.927 120.765 113.871L119.017 115.023L121.063 126.408ZM138.389 104.552C138.657 100.404 138.193 96.2407 137.018 92.2532L135.032 93.3261C136.144 97.2602 137.277 100.956 138.389 104.691V104.552ZM11.8023 104.135L12.5176 104.254L15.8159 93.2466L13.372 92.2333L11.8023 104.135ZM20.6838 100.4C19.1721 103.757 18.4191 107.407 18.4784 111.089C19.5911 107.89 20.6839 104.691 21.8164 101.413C21.578 101.274 21.3197 100.996 20.6838 100.499V100.4ZM132.329 111.149C132.37 107.388 131.562 103.666 129.965 100.26L128.932 101.294L132.329 111.149ZM32.3273 108.904C30.3403 111.208 30.3404 111.705 32.2081 112.877L33.9764 109.818L32.3273 108.904ZM127.998 100.121C129.19 97.8762 129.091 97.3794 127.362 96.1475L126.011 98.1345L127.998 100.121ZM118.679 113.096C120.328 111.586 120.269 111.109 118.401 109.122L116.792 109.937L118.679 113.096ZM135.21 88.3389L132.925 88.8356C133.064 89.1933 133.124 89.4119 133.223 89.6106C134.098 91.1802 134.813 91.7366 135.369 91.2001C136.343 90.2662 135.687 89.3522 135.23 88.3389H135.21ZM24.7769 98.0749C24.2802 97.4192 23.8629 96.843 23.4258 96.2866C23.4258 96.2866 23.3066 96.2866 23.2271 96.2866C21.6574 97.8166 21.578 98.2735 22.8894 100.121L24.7769 98.0749ZM45.898 119.931C45.4012 120.964 45.1628 121.918 45.9973 122.633C46.2102 122.715 46.4402 122.741 46.666 122.71C46.8919 122.679 47.1061 122.591 47.2888 122.454C47.6366 121.683 47.9029 120.877 48.0836 120.05L45.898 119.931ZM104.989 119.931L102.823 120.05C102.823 120.726 102.923 121.223 103.022 121.719C103.121 122.216 103.698 122.931 104.373 122.713C104.592 122.578 104.779 122.399 104.923 122.187C105.067 121.974 105.164 121.734 105.208 121.481C105.234 120.97 105.167 120.458 105.009 119.971L104.989 119.931ZM15.5774 88.2992C14.8423 90.0278 14.8621 90.0278 15.5774 91.3193C17.0676 91.1603 17.3657 89.9682 17.8426 88.7562L15.5774 88.2992Z" fill="#985BE7"/>
<path d="M87.7426 89.9881C85.398 89.7894 83.5303 89.5112 81.6427 89.4715C79.7551 89.4318 78.0066 89.6702 76.1985 89.7695C75.697 89.8292 75.19 89.8292 74.6885 89.7695C71.6696 89.263 68.5874 89.263 65.5685 89.7695C63.4778 90.1413 61.3261 89.9562 59.3296 89.2331C58.038 88.7363 56.7267 88.2793 55.455 87.7826C53.7982 87.1654 52.3699 86.0561 51.362 84.6035C49.5623 82.0012 46.9145 80.1049 43.8713 79.2388C43.3133 79.0774 42.7789 78.8436 42.2817 78.5434C42.0432 78.3844 41.785 77.7884 41.8843 77.6692C42.0038 77.5142 42.1535 77.385 42.3242 77.2894C42.4949 77.1938 42.6832 77.1337 42.8778 77.1128C43.4437 77.2373 43.9961 77.417 44.5269 77.6493C47.788 78.5625 50.6317 80.5777 52.574 83.3518C53.5661 84.7294 54.9512 85.7752 56.5479 86.352C59.768 87.9314 63.3886 88.506 66.9395 88.0012C69.3937 87.7865 71.8634 87.8198 74.311 88.1005H76.4767C79.3016 87.9116 82.136 87.9116 84.9609 88.1005C88.9802 88.4068 92.9885 87.3803 96.3658 85.1797C97.3203 84.5052 98.1308 83.6474 98.7502 82.6564C101.029 79.8715 104.178 77.9332 107.691 77.1526C108.049 77.1526 108.546 77.391 108.983 77.5301C108.744 77.9076 108.605 78.4441 108.248 78.6428C107.533 79.0053 106.789 79.3045 106.022 79.5369C103.575 80.3279 101.449 81.8892 99.9622 83.9876C98.5787 85.9745 96.5829 87.4539 94.2796 88.1999C92.2225 89.175 90.0097 89.7804 87.7426 89.9881Z" fill="#985BE7"/>
<path d="M104.771 89.9483C104.407 90.3097 104.015 90.6419 103.598 90.9418C101.577 92.1312 99.9788 93.9239 99.0283 96.0681C98.6111 96.9224 98.1541 97.7371 97.7368 98.5914C96.8241 100.584 95.2423 102.194 93.2663 103.142C92.1329 103.786 91.1182 104.619 90.266 105.605C86.8684 109.082 82.6958 109.579 78.1855 108.864C77.8676 108.864 77.6292 108.347 77.351 108.069C77.7087 107.811 78.0663 107.354 78.4637 107.334C80.3314 107.195 82.219 107.334 84.0867 107.056C86.1914 106.738 88.0957 105.629 89.4116 103.956C90.3255 102.929 91.4328 102.092 92.6702 101.492C94.1093 100.784 95.2855 99.6357 96.0281 98.2139C96.7434 96.8628 97.4388 95.5117 98.174 94.2401C99.2732 92.2562 100.931 90.6393 102.943 89.5907C103.519 89.1933 104.115 88.7959 104.771 89.9483Z" fill="#985BE7"/>
<path d="M69.5624 109.241C65.8071 108.923 62.4294 108.109 59.9854 104.989C59.2157 104.139 58.2744 103.462 57.2236 103.002C55.6387 102.239 54.3425 100.985 53.5279 99.426C53.0511 98.512 52.5344 97.6378 52.0973 96.7039C51.1415 94.2051 49.3516 92.1134 47.0307 90.7828C46.8519 90.7828 46.5935 90.5643 46.5141 90.4053C46.4346 90.2464 46.2161 89.6503 46.3551 89.4516C46.4837 89.3456 46.634 89.2693 46.7954 89.2281C46.9568 89.1869 47.1254 89.1818 47.289 89.2132C47.6401 89.3108 47.9702 89.4725 48.2626 89.69C50.1129 90.7348 51.634 92.2765 52.6537 94.1408C53.1504 95.0349 53.6273 95.9489 54.0644 96.8628C54.949 99.0472 56.6432 100.806 58.7933 101.771C59.7827 102.219 60.6486 102.901 61.3167 103.757C62.3603 104.978 63.674 105.939 65.1536 106.563C66.6333 107.187 68.2381 107.458 69.8406 107.354C70.6553 107.354 71.45 107.175 72.2448 107.235C72.6843 107.371 73.0951 107.586 73.4568 107.87C73.1389 108.188 72.8607 108.685 72.4832 108.784C71.5191 108.992 70.5439 109.145 69.5624 109.241V109.241Z" fill="#985BE7"/>
<path d="M10.4513 42.0634C10.0936 41.6462 9.85523 41.4872 9.79563 41.2885C9.73602 41.0898 9.79563 40.6328 9.79563 40.3149C9.59693 39.4009 9.43796 38.4671 9.15979 37.5928C8.84472 36.8454 8.2542 36.2478 7.51061 35.9238C7.21257 35.7649 6.91453 35.6456 6.63636 35.4668C5.98067 35.0297 5.98067 34.5528 6.63636 34.0958C7.29204 33.6389 7.60999 33.46 8.04712 33.0825C8.62205 32.5949 9.08091 31.9851 9.39027 31.2977C9.69963 30.6102 9.85168 29.8623 9.83534 29.1087C9.83534 28.8504 9.83534 28.5921 9.83534 28.3338C9.83534 28.0755 10.0142 27.6383 10.4116 27.7178C10.809 27.7973 10.7891 28.0953 10.8884 28.3139C10.9376 28.4893 10.9376 28.6749 10.8884 28.8504C10.8767 29.8022 11.1078 30.7413 11.5597 31.5792C12.0116 32.417 12.6695 33.1258 13.4714 33.6389L14.0277 33.9766C14.8424 34.533 14.8622 35.1092 14.0277 35.5066C13.0509 35.9201 12.2314 36.6344 11.6883 37.5455C11.1452 38.4567 10.9068 39.5173 11.0076 40.5732C11.0272 40.8312 11.0272 41.0902 11.0076 41.3481C10.8509 41.6076 10.6642 41.8477 10.4513 42.0634V42.0634ZM10.2328 37.5531C10.6275 36.9688 11.0519 36.4051 11.5044 35.8642C11.9461 35.4791 12.4106 35.1208 12.8952 34.7913L10.3122 31.8506L7.6696 34.831C8.83159 35.3897 9.74494 36.3596 10.2328 37.5531V37.5531Z" fill="#985BE7"/>
<path d="M15.0212 54.9188C15.6358 54.9188 16.134 54.4206 16.134 53.8061C16.134 53.1916 15.6358 52.6934 15.0212 52.6934C14.4067 52.6934 13.9086 53.1916 13.9086 53.8061C13.9086 54.4206 14.4067 54.9188 15.0212 54.9188Z" fill="#985BE7"/>
<path d="M2.22539 60.6213C2.22539 60.8414 2.1601 61.0565 2.03784 61.2395C1.91558 61.4225 1.74182 61.5651 1.5385 61.6493C1.33519 61.7335 1.11148 61.7555 0.895637 61.7126C0.679798 61.6697 0.48151 61.5637 0.325899 61.4081C0.170288 61.2525 0.0643168 61.0542 0.0213839 60.8384C-0.0215491 60.6225 0.000471988 60.3988 0.0846881 60.1955C0.168904 59.9922 0.311549 59.8184 0.494528 59.6961C0.677507 59.5739 0.892587 59.5086 1.11265 59.5086C1.40775 59.5086 1.6908 59.6259 1.89947 59.8345C2.10814 60.0432 2.22539 60.3262 2.22539 60.6213Z" fill="#985BE7"/>
<path d="M74.5692 37.5532C74.5692 37.7732 74.504 37.9883 74.3817 38.1713C74.2595 38.3543 74.0857 38.4969 73.8824 38.5811C73.6791 38.6654 73.4553 38.6874 73.2394 38.6445C73.0236 38.6015 72.8254 38.4956 72.6698 38.3399C72.5142 38.1843 72.4082 37.9861 72.3653 37.7702C72.3223 37.5544 72.3443 37.3307 72.4286 37.1274C72.5128 36.924 72.6554 36.7503 72.8384 36.628C73.0214 36.5057 73.2365 36.4405 73.4565 36.4405C73.7516 36.4405 74.0347 36.5577 74.2433 36.7664C74.452 36.975 74.5692 37.2581 74.5692 37.5532Z" fill="#985BE7"/>
<path d="M85.7758 30.9763C85.7758 31.1964 85.7105 31.4115 85.5882 31.5945C85.466 31.7775 85.2922 31.9201 85.0889 32.0043C84.8856 32.0885 84.6619 32.1105 84.446 32.0676C84.2302 32.0247 84.0319 31.9187 83.8763 31.7631C83.7207 31.6075 83.6147 31.4092 83.5718 31.1934C83.5289 30.9775 83.5509 30.7538 83.6351 30.5505C83.7194 30.3472 83.8619 30.1734 84.0449 30.0511C84.2279 29.9289 84.443 29.8636 84.6631 29.8636C84.8092 29.8636 84.9539 29.8924 85.0889 29.9483C85.2239 30.0042 85.3465 30.0862 85.4499 30.1895C85.5532 30.2928 85.6352 30.4155 85.6911 30.5505C85.747 30.6855 85.7758 30.8302 85.7758 30.9763V30.9763Z" fill="#985BE7"/>
<path d="M75.682 128.654C75.682 128.874 75.6168 129.089 75.4945 129.272C75.3722 129.455 75.1985 129.598 74.9952 129.682C74.7919 129.766 74.5681 129.788 74.3522 129.745C74.1364 129.702 73.9382 129.596 73.7826 129.441C73.627 129.285 73.521 129.087 73.478 128.871C73.4351 128.655 73.4571 128.431 73.5414 128.228C73.6256 128.025 73.7682 127.851 73.9512 127.729C74.1342 127.606 74.3493 127.541 74.5693 127.541C74.7154 127.541 74.8602 127.57 74.9952 127.626C75.1302 127.682 75.2528 127.764 75.3561 127.867C75.4595 127.97 75.5414 128.093 75.5973 128.228C75.6533 128.363 75.682 128.508 75.682 128.654V128.654Z" fill="#985BE7"/>
<path d="M71.2512 9.67649C71.246 9.97526 71.1251 10.2604 70.9138 10.4717C70.7025 10.683 70.4174 10.8039 70.1186 10.809C69.8217 10.8038 69.5387 10.6822 69.3306 10.4704C69.1225 10.2585 69.0059 9.97345 69.0059 9.67649C69.0059 9.38139 69.1232 9.09837 69.3318 8.8897C69.5405 8.68103 69.8235 8.5638 70.1186 8.5638C70.4156 8.56376 70.7007 8.68035 70.9125 8.88847C71.1243 9.09658 71.2459 9.37957 71.2512 9.67649V9.67649Z" fill="#985BE7"/>
<path d="M72.3243 64.0388C72.1257 66.8603 72.225 69.483 75.5432 69.4234C78.8613 69.3638 78.6825 66.7212 78.603 64.317C79.9218 64.9094 81.0094 65.9186 81.6987 67.1894C82.388 68.4602 82.6406 69.9223 82.4179 71.3507C82.1626 72.8945 81.4026 74.31 80.2568 75.3757C79.1111 76.4414 77.6443 77.0972 76.0862 77.2403C74.528 77.3834 72.9663 77.0058 71.6456 76.1666C70.325 75.3274 69.3199 74.0739 68.7876 72.6025C67.6749 69.483 68.8472 66.3039 72.3243 64.0388ZM70.6354 68.3505C70.1001 69.3409 69.944 70.4924 70.1964 71.5895C70.4487 72.6867 71.0922 73.6543 72.0064 74.3113C73.1218 75.0793 74.4654 75.4446 75.8161 75.3471C77.1668 75.2495 78.444 74.695 79.4375 73.7748C80.1916 73.1234 80.6735 72.2124 80.7876 71.2225C80.9017 70.2325 80.6396 69.2358 80.0535 68.4299C76.9539 72.2647 74.4503 72.2647 70.6354 68.3505V68.3505Z" fill="#985BE7"/>
<circle cx="110" cy="133" r="18" fill="#8840E3"/>
<path d="M109.572 148.25C106.484 148.239 103.468 147.314 100.905 145.591C98.343 143.867 96.3486 141.424 95.1741 138.567C93.9997 135.711 93.6979 132.572 94.3068 129.544C94.9157 126.517 96.408 123.738 98.5953 121.558C100.783 119.378 103.567 117.895 106.596 117.296C109.626 116.698 112.765 117.01 115.617 118.194C118.469 119.379 120.906 121.381 122.62 123.95C124.335 126.518 125.25 129.537 125.25 132.625C125.247 134.68 124.838 136.715 124.048 138.613C123.259 140.51 122.103 142.234 120.647 143.685C119.191 145.135 117.464 146.285 115.563 147.069C113.663 147.852 111.627 148.253 109.572 148.25V148.25ZM109.572 118.226C106.722 118.216 103.933 119.051 101.558 120.627C99.183 122.203 97.3292 124.448 96.2312 127.078C95.1333 129.708 94.8405 132.605 95.3901 135.401C95.9396 138.198 97.3067 140.768 99.3182 142.787C101.33 144.806 103.895 146.183 106.69 146.743C109.484 147.303 112.382 147.021 115.016 145.932C117.65 144.844 119.902 142.999 121.486 140.63C123.071 138.261 123.917 135.475 123.917 132.625C123.913 128.817 122.403 125.164 119.715 122.466C117.027 119.768 113.38 118.244 109.572 118.226V118.226Z" fill="white"/>
<path d="M115.624 128.972C115.624 128.972 115.624 128.972 115.691 129.065C115.745 129.167 115.823 129.253 115.918 129.319C115.918 129.319 116.304 129.572 116.571 129.425C116.676 129.35 116.756 129.245 116.801 129.124C116.846 129.003 116.854 128.871 116.824 128.745C116.715 128.484 116.567 128.241 116.384 128.025C114.652 126.049 112.303 124.715 109.718 124.239C108.707 124.026 107.663 124.026 106.652 124.239C105.632 124.385 104.68 124.834 103.919 125.529C103.159 126.223 102.624 127.13 102.386 128.132C102.289 128.466 102.24 128.811 102.239 129.159C102.25 129.63 102.39 130.09 102.643 130.487C102.897 130.884 103.256 131.204 103.679 131.412C104.26 131.819 104.971 131.994 105.675 131.902C106.378 131.811 107.021 131.46 107.479 130.918C107.958 130.334 108.234 129.608 108.263 128.852C108.291 128.096 108.072 127.352 107.639 126.732C107.197 126.259 106.642 125.905 106.025 125.706C106.578 125.469 107.171 125.342 107.772 125.332C109.271 125.306 110.756 125.62 112.116 126.251C113.476 126.881 114.676 127.811 115.624 128.972V128.972ZM104.839 126.799C105.424 126.75 106.006 126.927 106.465 127.292C106.664 127.437 106.827 127.625 106.943 127.842C107.058 128.059 107.123 128.3 107.132 128.545C107.103 128.655 107.081 128.766 107.065 128.879C107.019 129.122 106.957 129.363 106.879 129.599C106.802 129.827 106.677 130.036 106.511 130.211C106.345 130.387 106.143 130.523 105.919 130.612C105.68 130.688 105.428 130.712 105.18 130.682C104.932 130.652 104.693 130.569 104.479 130.439C104.279 130.37 104.096 130.26 103.943 130.114C103.789 129.968 103.669 129.791 103.591 129.595C103.512 129.399 103.477 129.188 103.488 128.977C103.498 128.766 103.555 128.559 103.652 128.372C103.743 128.097 103.854 127.83 103.986 127.572L104.159 127.212C104.211 127.078 104.306 126.965 104.429 126.89C104.552 126.815 104.696 126.783 104.839 126.799V126.799Z" fill="white"/>
<path d="M112.945 139.744C111.569 140.306 110.034 140.334 108.638 139.824C106.503 139.244 104.625 137.962 103.306 136.185C103.244 136.111 103.167 136.051 103.079 136.011L102.919 135.931H102.812C102.703 135.962 102.603 136.018 102.52 136.094C102.436 136.17 102.372 136.265 102.332 136.371C102.307 136.489 102.311 136.611 102.344 136.728C102.376 136.844 102.436 136.95 102.519 137.038C102.808 137.449 103.138 137.829 103.506 138.171C104.537 139.195 105.764 140 107.113 140.541C108.462 141.081 109.905 141.345 111.358 141.317C112.02 141.282 112.674 141.161 113.305 140.957C114.227 140.681 115.05 140.143 115.674 139.41C116.299 138.677 116.698 137.779 116.824 136.825C116.837 136.669 116.837 136.513 116.824 136.358C116.821 135.802 116.643 135.262 116.318 134.811C116.057 134.465 115.729 134.174 115.353 133.956C114.977 133.739 114.562 133.599 114.131 133.545C113.757 133.495 113.378 133.52 113.014 133.618C112.65 133.717 112.309 133.887 112.011 134.118C111.674 134.394 111.396 134.734 111.192 135.118C110.988 135.503 110.863 135.924 110.825 136.358C110.691 137.085 110.835 137.836 111.227 138.463C111.619 139.089 112.232 139.547 112.945 139.744V139.744ZM114.278 138.704C113.941 138.727 113.603 138.671 113.291 138.541C112.979 138.412 112.701 138.212 112.478 137.958C112.231 137.637 112.1 137.243 112.105 136.838C112.107 136.649 112.129 136.462 112.171 136.278C112.228 135.986 112.355 135.712 112.541 135.48C112.726 135.248 112.966 135.064 113.238 134.945C113.528 134.85 113.838 134.83 114.139 134.885C114.439 134.941 114.721 135.072 114.958 135.265C115.258 135.415 115.49 135.672 115.609 135.986C115.728 136.3 115.724 136.647 115.598 136.958C115.496 137.292 115.366 137.618 115.211 137.931L115.064 138.264C115.021 138.422 114.92 138.558 114.783 138.647C114.645 138.735 114.479 138.77 114.318 138.744L114.278 138.704Z" fill="white"/>
</svg>
