<svg width="168" height="151" viewBox="0 0 168 151" fill="none" xmlns="http://www.w3.org/2000/svg">
<circle cx="84" cy="73" r="67" fill="#F0E8FF"/>
<path d="M61 69C61.8472 69.058 62.6855 69.2066 63.5005 69.443C68.4645 71.3677 72.5047 75.0885 74.8033 79.8523C75.2845 80.7603 75.6793 81.7108 75.9824 82.6913C76.0841 83.0537 75.7181 83.557 75.5758 84C75.2099 83.8188 74.6407 83.698 74.5391 83.4362C74.1325 82.349 73.177 82.1678 72.3029 81.8054C68.5344 80.3614 65.2858 77.8379 62.9719 74.557C61.7797 72.9357 61.0941 71.0036 61 69V69ZM72.3435 79.6107C71.4708 77.6646 70.1944 75.9221 68.5974 74.4965C67.0003 73.0708 65.1183 71.9939 63.0736 71.3356C63.9772 73.2616 65.2639 74.9872 66.8568 76.4091C68.4496 77.831 70.3158 78.92 72.3435 79.6107V79.6107Z" fill="#985BE7"/>
<path d="M110.918 65.5845C110.988 65.9002 111.089 66.2083 111.219 66.5044C113.277 70.4503 113.799 75.017 112.682 79.3237C110.945 87.6727 107.288 95.5049 101.999 102.202C100.683 103.675 99.2634 105.052 97.7504 106.322C97.1958 106.77 96.7503 107.337 96.4477 107.982C95.3453 111.162 94.4434 114.382 93.4012 117.382C93.8678 117.934 94.2341 118.563 94.4835 119.241C94.899 120.962 94.8548 122.762 94.3554 124.46C93.856 126.159 92.9188 127.697 91.6375 128.921C89.6474 130.594 88.2433 132.857 87.629 135.381C87.6138 135.603 87.5375 135.818 87.4085 136.001C85.4043 138 85.6047 140.64 85.4043 143.16C85.3621 143.888 85.2274 144.607 85.0034 145.3C84.9098 145.48 84.7764 145.637 84.6132 145.758C84.45 145.879 84.2614 145.962 84.0615 146C83.8602 145.974 83.6681 145.9 83.5008 145.786C83.3336 145.671 83.196 145.518 83.0994 145.34C82.9037 144.689 82.7827 144.018 82.7387 143.34C82.5583 141.88 82.4581 140.42 82.1975 138.98C82.1979 138.466 82.0829 137.959 81.8609 137.495C81.639 137.031 81.3157 136.623 80.9148 136.301C80.5741 136.061 80.4538 135.401 80.3336 134.921C79.8166 132.759 78.6317 130.814 76.9464 129.361C75.5773 128.175 74.5439 126.652 73.9496 124.942C73.3552 123.233 73.2206 121.399 73.5592 119.621C73.7999 118.77 74.1573 117.956 74.6215 117.202C73.6995 114.242 72.7375 111.042 71.6953 107.842C71.5238 107.365 71.2174 106.949 70.8134 106.642C62.7965 99.9426 58.4874 91.123 55.9219 81.2836C55.5275 79.8701 55.2592 78.4245 55.1202 76.9638C54.7996 72.4041 54.4388 71.6841 57.1245 65.5045C56.7945 65.4325 56.4595 65.3857 56.1224 65.3645C53.458 65.4034 50.8341 64.7115 48.5368 63.3644C46.2396 62.0172 44.3571 60.0665 43.0948 57.7249C42.0992 55.4172 40.4027 53.4795 38.2445 52.1852C38.1029 52.089 37.9857 51.9612 37.9022 51.8119C37.8187 51.6627 37.7712 51.496 37.7635 51.3252C37.8838 50.9853 38.2846 50.5053 38.5853 50.4853C40.6904 50.2889 42.8044 50.2021 44.9187 50.2253C46.0908 50.3441 47.2426 50.613 48.3459 51.0253C49.1165 51.2796 49.9319 51.3701 50.7397 51.2908C51.5474 51.2116 52.3296 50.9645 53.0358 50.5653C53.6171 50.2653 54.2183 49.9653 54.7795 49.6253C58.6076 47.3455 62.4558 46.7055 66.4241 49.6253C67.0134 48.3749 67.1273 46.9535 66.7448 45.6256C65.3205 36.3013 60.6173 27.7872 53.4768 21.6069C47.91 16.6294 41.019 13.365 33.6348 12.2074C28.2008 11.3942 22.6561 11.7289 17.3599 13.1896C12.0637 14.6503 7.13392 17.2045 2.88977 20.6869C2.40113 21.1274 1.87841 21.5286 1.32646 21.8869C1.14738 21.9814 0.947841 22.0309 0.745231 22.0309C0.54262 22.0309 0.343082 21.9814 0.164001 21.8869C-0.0564651 21.6669 -0.0163807 21.1069 0.0637889 20.7069C0.156641 20.4283 0.322763 20.1797 0.544806 19.987C8.56176 10.3275 18.3425 3.4279 30.8689 0.868039C35.9922 -0.199616 41.2843 -0.168711 46.3947 0.958717C51.5051 2.08614 56.317 4.28435 60.5117 7.40767C66.0183 11.2721 70.5752 16.332 73.8398 22.2069C77.8073 29.1679 80.5207 36.7693 81.8568 44.6656C81.8568 45.1656 82.0372 45.6656 82.1574 46.1655C82.2777 46.6655 82.3578 46.8655 82.4781 47.3255C82.9792 47.3255 83.4602 47.5055 83.9612 47.5255C84.4623 47.5455 84.8431 47.5255 85.4845 47.5255C85.7651 46.4055 86.0857 45.3056 86.2862 44.1656C87.6296 36.1866 90.472 28.5327 94.6639 21.6069C97.4781 16.5769 101.281 12.1652 105.844 8.63609C110.407 5.10694 115.637 2.53288 121.22 1.06802C129.661 -0.966115 138.545 -0.0775898 146.413 3.58788C154.607 7.13125 161.805 12.6246 167.378 19.587C167.598 19.887 167.939 20.167 167.999 20.4869C168.007 20.9565 167.967 21.4256 167.879 21.8869C167.464 21.8903 167.052 21.8296 166.656 21.7069C166.161 21.3934 165.697 21.0316 165.273 20.6269C156.194 13.5873 145.952 10.2075 134.528 12.2074C128.275 13.1389 122.342 15.5759 117.244 19.3077C112.146 23.0395 108.035 27.9539 105.266 33.6262C103.099 37.5665 101.737 41.8964 101.258 46.3655C101.258 47.4055 101.258 48.4854 101.258 49.8253L102.561 49.1054C103.775 48.3264 105.167 47.8665 106.607 47.7686C108.047 47.6707 109.489 47.9379 110.798 48.5454C111.823 48.9568 112.809 49.4587 113.744 50.0453C114.742 50.735 115.892 51.1734 117.096 51.3232C118.3 51.4729 119.522 51.3295 120.659 50.9053C123.233 49.9927 126.014 49.8331 128.676 50.4453C128.966 50.4793 129.254 50.5327 129.538 50.6053C130.46 50.9453 130.68 51.8252 129.878 52.2052C127.233 53.5051 126.09 55.965 124.647 58.2049C123.371 60.4109 121.532 62.2407 119.318 63.5087C117.104 64.7767 114.593 65.4376 112.041 65.4245C111.72 65.4845 111.479 65.5445 110.918 65.5845ZM96.2072 104.682C98.033 103.953 99.6067 102.709 100.737 101.102C105.771 94.565 109.277 86.9873 110.998 78.9237C111.59 76.6455 111.67 74.2653 111.233 71.9527C110.797 69.6401 109.854 67.452 108.473 65.5444C107.74 64.5453 107.215 63.4097 106.93 62.2046C106.068 58.0049 102.921 55.385 100.556 52.2052L98.5521 52.9052C96.2738 53.8441 93.7154 53.8441 91.4371 52.9052C89.4974 52.0471 87.6219 51.0513 85.8252 49.9253C84.3421 49.0254 83.8209 48.9254 82.2977 49.9253C82.0171 50.1253 81.7365 50.3653 81.4159 50.5653C77.4074 53.2651 73.0582 54.5651 68.3282 52.3052C68.0198 52.2318 67.7032 52.1982 67.3862 52.2052C66.2839 53.5851 65.2417 54.925 64.1393 56.205C62.7208 57.8962 61.6881 59.8752 61.1129 62.0047C60.7659 63.3534 60.1749 64.6275 59.3692 65.7644C58.1318 67.4776 57.2678 69.4305 56.8328 71.4972C56.3979 73.5639 56.4017 75.6986 56.8439 77.7638C58.4004 86.4675 62.1063 94.6469 67.6267 101.562C68.7334 103.009 70.2072 104.134 71.8957 104.822L75.6436 96.7027C77.3309 93.0503 78.1117 89.0461 77.9198 85.0289C77.7279 81.0117 76.5691 77.0997 74.5413 73.624C72.7493 69.4695 69.4895 66.1172 65.382 64.2045C64.9949 63.9614 64.6497 63.6575 64.3598 63.3046C65.1214 62.3846 65.8229 62.7246 66.4843 62.9846C68.7344 63.913 70.7328 65.3589 72.3166 67.2044C75.959 71.2833 78.3823 76.2995 79.3114 81.6836C79.6948 83.767 79.8093 85.8908 79.6521 88.0032C79.1591 93.0097 77.5939 97.852 75.0624 102.202C74.1695 103.633 73.6584 105.269 73.5777 106.952C73.497 108.636 73.8495 110.312 74.6014 111.822C74.9422 112.562 75.1426 113.342 75.4432 114.102C75.6933 114.792 76.0869 115.421 76.5982 115.948C77.1094 116.476 77.7267 116.889 78.4095 117.162C81.8071 118.389 85.5098 118.494 88.9718 117.462C89.9076 117.222 90.7627 116.738 91.4494 116.059C92.1362 115.381 92.6299 114.533 92.8801 113.602C93.2609 112.422 93.7019 111.262 94.1227 110.082C94.5347 109.022 94.7069 107.885 94.6272 106.751C94.5475 105.617 94.2179 104.514 93.6618 103.522C92.382 100.962 91.2314 98.3384 90.2145 95.6628C88.8362 92.5114 88.1527 89.1013 88.2102 85.6633C88.5292 78.6991 91.3131 72.0734 96.0669 66.9644C97.5308 65.2634 99.3786 63.9337 101.458 63.0846C101.934 62.8968 102.433 62.7756 102.941 62.7246C103.122 62.7246 103.402 63.0246 103.523 63.2446C103.549 63.3499 103.548 63.4603 103.52 63.5653C103.492 63.6702 103.438 63.7663 103.362 63.8445C103.142 64.0329 102.892 64.1818 102.621 64.2845C98.8795 65.9294 95.8412 68.8407 94.0426 72.5041C91.2191 77.0147 89.8223 82.2692 90.0341 87.5832C90.5151 93.8029 93.4413 99.2026 96.2072 104.682ZM104.926 54.925C106.882 56.9724 108.216 59.5312 108.774 62.3046C108.994 63.2646 109.816 63.4446 110.638 63.5646C112.45 63.8989 114.317 63.7738 116.068 63.2007C117.819 62.6277 119.397 61.625 120.659 60.2847C122.847 57.6483 124.855 54.8689 126.672 51.9652C124.731 51.6721 122.748 51.8928 120.919 52.6052C119.602 53.0941 118.186 53.2604 116.791 53.0898C115.396 52.9193 114.063 52.417 112.902 51.6252C111.283 50.497 109.424 49.7578 107.471 49.4653C106.509 49.3078 105.522 49.4407 104.636 49.8469C103.751 50.2531 103.007 50.9142 102.5 51.7452L103.944 53.5051C104.977 52.6922 106.209 52.1691 107.512 51.9898C108.816 51.8105 110.144 51.9815 111.359 52.4852C113.885 53.3651 116.209 55.045 119.116 54.4851C119.336 54.4851 119.797 54.885 119.817 55.145C119.797 55.3142 119.737 55.4763 119.643 55.6186C119.549 55.7609 119.424 55.8795 119.276 55.965C118.816 56.1917 118.304 56.2886 117.793 56.245C116.438 56.0003 115.099 55.673 113.784 55.265C112.462 54.845 111.219 54.1451 109.896 53.7451C109.043 53.4308 108.116 53.3751 107.232 53.5851C106.348 53.795 105.545 54.2612 104.926 54.925ZM65.7026 51.7052C64.8876 50.6565 63.7471 49.9071 62.4597 49.5741C61.1722 49.2412 59.8105 49.3436 58.5876 49.8653C57.2872 50.3708 56.0388 51.0004 54.8597 51.7452C53.7494 52.4704 52.4866 52.9307 51.1693 53.0902C49.852 53.2498 48.5155 53.1043 47.2636 52.6652C46.1398 52.3044 44.9862 52.0434 43.8163 51.8852C43.0559 51.8255 42.2919 51.8255 41.5315 51.8852C42.7541 53.8851 43.7763 55.625 44.8786 57.3249C46.0591 59.3772 47.7934 61.0576 49.8839 62.1749C51.9744 63.2921 54.3373 63.8013 56.7036 63.6446C58.9083 63.5246 59.1688 63.3246 59.6699 61.1447C60.138 59.2946 60.9917 57.5638 62.1752 56.065C62.4758 55.665 62.7364 55.245 63.037 54.7851C62.8129 54.5523 62.5643 54.3445 62.2954 54.1651C61.6573 53.7953 60.9435 53.5745 60.2077 53.519C59.4718 53.4636 58.733 53.5751 58.0464 53.8451C56.6034 54.3651 55.2004 55.025 53.7774 55.605C52.3156 56.3288 50.6347 56.4787 49.0674 56.025C48.7668 56.025 48.5263 55.405 48.4662 55.025C48.406 54.6451 48.9873 54.4451 49.2278 54.4851C51.5934 54.614 53.9424 54.0211 55.962 52.7852C57.2157 52.1429 58.6168 51.8416 60.0243 51.9119C61.4318 51.9821 62.7958 52.4213 63.979 53.1851C64.0792 53.1851 64.2596 53.1851 64.5402 53.1851L65.7026 51.7052ZM75.0424 120.321C74.8681 121.686 75.0145 123.072 75.4703 124.37C75.926 125.669 76.6784 126.843 77.6679 127.801C79.1857 129.076 80.4153 130.657 81.2756 132.441C82.1574 134.441 83.1195 136.241 84.0615 138.16C85.0235 136.161 85.8853 134.161 86.9275 132.281C87.6328 131.089 88.4373 129.958 89.3326 128.901C89.8738 128.201 90.5953 127.681 91.1765 127.001C91.9365 126.089 92.4881 125.022 92.7927 123.875C93.0973 122.729 93.1476 121.53 92.9402 120.361C91.4371 121.481 90.1143 122.481 88.571 123.601C88.4485 124.377 88.2812 125.145 88.0699 125.901C87.5898 127.509 87.0279 129.09 86.3864 130.641C86.226 131.041 85.4644 131.561 85.1437 131.461C84.322 131.261 84.7028 130.561 84.9233 130.021C85.1437 129.481 85.4845 128.841 85.725 128.221C86.2802 126.913 86.6056 125.519 86.687 124.101H81.2756C81.6163 125.441 81.937 126.621 82.2176 127.821C82.4982 129.021 83.7007 130.041 83.2197 131.441C82.1173 131.801 81.7766 131.061 81.5562 130.401C80.8948 128.401 80.3737 126.401 79.7323 124.541C79.5512 123.952 79.2277 123.416 78.7903 122.981C77.688 122.081 76.4654 121.321 75.0424 120.321ZM43.9767 2.02797C43.8679 3.85863 43.6538 5.68153 43.3353 7.48767C42.8278 9.1303 42.2186 10.74 41.5115 12.3074L47.3438 15.0073C49.0378 13.8823 50.4019 12.3285 51.2963 10.5047C52.1908 8.68097 52.5836 6.65281 52.4346 4.62782L43.9767 2.02797ZM115.748 4.80782C115.6 6.81408 116.001 8.82285 116.908 10.6194C117.816 12.4159 119.195 13.9325 120.899 15.0073L126.912 12.1274C124.567 9.14757 124.447 5.74777 124.166 2.28796C121.25 2.70384 118.413 3.55321 115.748 4.80782ZM63.1572 30.2064C63.9153 31.4929 64.5849 32.8292 65.1615 34.2062C65.3149 34.8099 65.6758 35.3408 66.1812 35.7062C66.6867 36.0717 67.3046 36.2486 67.9273 36.2061C70.579 36.3355 73.2235 35.8352 75.6436 34.7462C76.2406 34.4293 76.8045 34.0542 77.3272 33.6262C76.4599 31.1707 75.3662 28.8006 74.0603 26.5466C70.8941 28.865 67.084 30.1439 63.1572 30.2064ZM104.906 30.2064C100.937 30.1308 97.0916 28.8236 93.9023 26.4666C92.82 28.9665 91.898 31.2864 90.7356 33.8462C93.917 35.871 97.7322 36.6608 101.458 36.0661C101.667 36.0251 101.866 35.9419 102.042 35.8215C102.218 35.7012 102.367 35.5462 102.48 35.3661C103.302 33.7462 104.044 32.2063 104.906 30.2064ZM48.9071 15.9672C50.0896 16.8072 51.1318 17.4671 52.0538 18.2471C52.3936 18.5777 52.84 18.7772 53.3134 18.8102C53.7869 18.8431 54.2567 18.7074 54.6392 18.4271C57.7665 16.5793 60.111 13.6568 61.2332 10.2075C59.0026 8.35268 56.5277 6.81175 53.8776 5.62777C53.9263 7.62041 53.5013 9.59623 52.6373 11.3934C51.7734 13.1906 50.4951 14.758 48.9071 15.9672ZM107.03 10.2875C107.642 12.2442 108.677 14.0429 110.063 15.5565C111.448 17.0701 113.15 18.2617 115.047 19.047L119.396 15.9872C117.853 14.7773 116.595 13.2437 115.712 11.495C114.829 9.74626 114.342 7.82518 114.285 5.86776C111.543 6.75517 109.031 8.23718 106.93 10.2075L107.03 10.2875ZM88.4307 41.9258C89.8505 43.081 91.5074 43.9108 93.2841 44.3566C95.0607 44.8024 96.9139 44.8533 98.7124 44.5056C99.0933 44.5056 99.6544 44.1656 99.7547 43.8657C100.316 41.8658 100.777 40.0059 101.318 37.866C97.4632 38.1478 93.6071 37.3367 90.1944 35.5261C89.5731 37.766 89.032 39.7259 88.4307 41.9258ZM77.9084 35.4261C74.5216 37.3266 70.666 38.2347 66.7849 38.046L68.4484 44.2456C70.3652 44.8134 72.3958 44.8817 74.3465 44.4441C76.2973 44.0064 78.1032 43.0775 79.592 41.7458C79.0709 39.8259 78.5298 37.806 77.9084 35.4261ZM100.075 16.6472C101.113 18.4451 102.521 20.0025 104.207 21.2161C105.893 22.4297 107.819 23.2719 109.856 23.6868C110.938 22.5868 111.981 21.4869 113.163 20.247C109.644 18.2017 106.929 15.0201 105.467 11.2275L100.075 16.6472ZM54.8597 20.207C55.9019 21.2669 56.8639 22.2069 57.7658 23.1068C57.9579 23.2523 58.1785 23.356 58.4133 23.4111C58.648 23.4662 58.8918 23.4716 59.1287 23.4268C62.9461 22.3555 66.1866 19.8262 68.1478 16.3872L62.576 11.5074C61.0488 15.1852 58.3326 18.2475 54.8597 20.207ZM108.233 25.4067C106.49 24.5424 104.81 23.5602 103.202 22.4668C101.667 21.1429 100.221 19.7199 98.8728 18.2071C97.4097 20.5669 96.0668 22.7068 94.8643 24.8067C96.8122 26.7219 99.3162 27.9746 102.019 28.3865C105.627 29.0265 106.329 28.7265 108.293 25.6467C108.3 25.6047 108.299 25.5616 108.289 25.5202C108.278 25.4788 108.259 25.4401 108.233 25.4067ZM73.3989 24.8867C71.9158 22.5668 70.5729 20.4269 69.0697 18.0471C66.8069 21.4759 63.4091 24.0028 59.4694 25.1867C60.3112 26.3066 60.9125 27.1866 61.5939 28.0265C61.8424 28.2877 62.1768 28.451 62.5359 28.4865C66.4907 28.7608 70.3943 27.4673 73.3989 24.8867ZM125.99 1.96798C125.99 5.66777 126.211 8.86759 128.756 11.5674L133.526 10.4075C133.435 8.98237 133.435 7.55287 133.526 6.12774C133.793 4.7729 134.148 3.43681 134.588 2.12796C131.749 1.61518 128.846 1.56117 125.99 1.96798ZM33.4344 2.20796C33.8731 3.51585 34.2213 4.85226 34.4766 6.20774C34.5676 7.62621 34.5676 9.04904 34.4766 10.4675L39.387 11.6074C41.5106 8.95704 42.517 5.58589 42.1929 2.20796C39.3133 1.52662 36.314 1.52662 33.4344 2.20796ZM79.9127 43.9057C76.5405 45.9562 72.5573 46.7695 68.6489 46.2055C68.8292 47.8654 68.9896 49.2854 69.1499 50.7253C73.6194 52.9452 77.3072 51.3252 81.015 48.8854L79.9127 43.9057ZM99.454 46.2055C95.5505 46.773 91.5705 45.9745 88.1902 43.9457L87.148 49.0254C90.3548 50.9053 93.4012 52.6052 97.1692 51.4652C99.0331 50.9253 99.0331 50.9253 99.1734 48.9254C99.2536 48.2054 99.3137 47.3255 99.454 46.2055ZM24.5957 4.20785C25.0567 6.20774 25.4775 7.96765 25.9185 9.86754H32.3922C32.8929 8.63034 33.0565 7.28295 32.8664 5.96224C32.6763 4.64152 32.1393 3.39454 31.3099 2.34795L24.5957 4.20785ZM136.833 2.20796C136.019 3.26694 135.497 4.5197 135.318 5.84216C135.138 7.16461 135.308 8.51087 135.811 9.74754H142.184L143.547 4.20785L136.833 2.20796ZM152.867 8.6876L145.552 5.00781C144.973 5.70204 144.559 6.51758 144.341 7.39364C144.122 8.2697 144.104 9.1837 144.289 10.0675L151.564 11.4474C151.965 10.5875 152.306 9.86754 152.827 8.8276L152.867 8.6876ZM24.0145 9.90753C24.1466 9.00895 24.0805 8.09242 23.8209 7.22196C23.5612 6.35149 23.1143 5.54808 22.5113 4.86782L15.276 8.8676C15.7971 9.88754 16.1779 10.6475 16.5988 11.4474L24.0145 9.90753ZM91.4371 118.881C89.0034 119.373 86.5393 119.701 84.0615 119.861C81.571 119.706 79.0936 119.385 76.6458 118.901C77.3796 120.041 78.4174 120.953 79.6425 121.536C80.8676 122.119 82.2313 122.349 83.5804 122.201C86.4866 122.341 89.4328 122.041 91.4371 118.881ZM13.9331 9.86754C11.5843 11.2816 9.49072 13.0799 7.74003 15.1872L14.9152 11.9474C14.5945 11.2475 14.3139 10.6875 13.9331 9.86754ZM153.248 11.9674L160.663 15.3272L160.864 14.9873L154.19 9.70755C153.789 10.7075 153.568 11.3275 153.248 11.9674Z" fill="#985BE7"/>
<path d="M107 69C106.787 71.089 106.025 73.0843 104.79 74.7831C102.488 77.9453 99.3296 80.3839 95.6867 81.8112C94.8025 82.1727 93.8781 82.3735 93.4762 83.4378C93.4762 83.7189 92.793 83.8193 92.4313 84C92.2907 83.5783 91.8888 83.0361 92.0294 82.7349C92.6671 81.0159 93.4678 79.3618 94.4207 77.7952C96.7348 73.9703 100.276 71.0403 104.468 69.4819C105.298 69.2565 106.145 69.0954 107 69V69ZM95.124 79.9237C99.8463 78.4177 104.287 74.1406 104.428 71.1285C100.486 73.0206 97.2331 76.0954 95.124 79.9237Z" fill="#985BE7"/>
<path d="M92 105.038C91.7066 105.467 91.3766 106.496 90.7532 106.839C89.1764 107.68 87.5531 108.397 85.8944 108.984C85.7348 109.02 85.5694 108.995 85.4231 108.912C85.2769 108.828 85.1576 108.692 85.0832 108.523C85.0089 108.354 84.9834 108.161 85.0106 107.973C85.0379 107.786 85.1164 107.614 85.2344 107.483C86.6828 106.089 88.113 104.673 89.6531 103.43C90.8082 102.486 91.9633 103.129 92 105.038Z" fill="#985BE7"/>
<path d="M83 108.351C82.5454 108.637 82.1635 109.077 81.9271 108.989C80.2911 108.354 78.6827 107.62 77.1081 106.789C76.5935 106.434 76.2146 105.85 76.0533 105.161C75.9874 104.829 75.9825 104.483 76.0391 104.149C76.0957 103.814 76.2123 103.499 76.3806 103.225C76.708 102.873 77.4717 102.983 77.9991 103.225C78.4227 103.447 78.8059 103.769 79.1266 104.171C80.1631 105.161 81.1997 106.151 82.218 107.185C82.5083 107.543 82.7701 107.933 83 108.351V108.351Z" fill="#985BE7"/>
<path d="M150.434 103.062L151.468 104.256C151.654 104.426 151.806 104.632 151.917 104.863C151.965 104.952 151.99 105.053 151.99 105.156C151.99 105.259 151.965 105.359 151.917 105.449C151.832 105.494 151.739 105.517 151.644 105.517C151.549 105.517 151.455 105.494 151.371 105.449C150.974 105.079 150.596 104.687 150.239 104.276L149.673 103.75C149.613 104.016 149.573 104.286 149.556 104.559C149.556 106.34 149.556 108.12 149.556 109.88C149.556 110.305 149.693 110.831 149.088 110.973C148.483 111.115 148.483 110.69 148.483 109.901V104.964C148.505 104.556 148.438 104.148 148.288 103.77L147.195 104.883C147.04 105.085 146.863 105.268 146.668 105.429C146.58 105.474 146.483 105.497 146.385 105.497C146.287 105.497 146.191 105.474 146.102 105.429C146.06 105.341 146.037 105.244 146.037 105.146C146.037 105.047 146.06 104.95 146.102 104.863C146.308 104.561 146.536 104.276 146.785 104.013L147.878 102.819H144.346C144.029 102.86 143.708 102.86 143.39 102.819C143.234 102.819 143 102.556 143 102.414C143.01 102.311 143.046 102.211 143.105 102.126C143.163 102.041 143.241 101.973 143.332 101.929C143.649 101.888 143.97 101.888 144.288 101.929H147.566V101.686L145.868 99.9053C145.595 99.6018 145.088 99.2578 145.537 98.8127C145.985 98.3675 146.298 98.8127 146.59 99.1769L148.385 101.018C148.385 100.553 148.385 100.269 148.385 99.9862C148.385 98.4485 148.385 96.8905 148.385 95.3325C148.385 94.8469 148.21 94.2197 148.893 94.0376C149.576 93.8555 149.439 94.3411 149.439 95.373V101.018C149.998 100.595 150.515 100.113 150.98 99.5816C151.19 99.3268 151.426 99.0962 151.683 98.8936C151.8 98.8401 151.926 98.8124 152.054 98.8124C152.181 98.8124 152.308 98.8401 152.424 98.8936C152.737 99.0959 152.58 99.4197 152.424 99.6423C151.917 100.209 151.371 100.755 150.844 101.301C150.688 101.463 150.571 101.625 150.317 101.949H152.912H154.298C154.629 101.949 155 101.949 155 102.455C155 102.961 154.629 102.94 154.298 102.94H150.512L150.434 103.062Z" fill="#985BE7"/>
<path d="M18.4946 45.0282C18.8684 45.4348 19.2421 45.8212 19.5962 46.2279C19.7815 46.4063 19.9406 46.6118 20.0683 46.8379C20.1132 46.9292 20.1366 47.0302 20.1366 47.1327C20.1366 47.2352 20.1132 47.3362 20.0683 47.4275C19.9829 47.4722 19.8886 47.4955 19.7929 47.4955C19.6972 47.4955 19.6029 47.4722 19.5175 47.4275C19.1044 47.0615 18.7504 46.6549 18.3569 46.2482L17.7865 45.7195C17.7253 45.9868 17.6859 46.2588 17.6685 46.5329V51.8806C17.6685 52.3076 17.7865 52.8567 17.1964 52.9787C16.6062 53.1007 16.5866 52.694 16.5866 51.901C16.5866 50.2539 16.5866 48.6272 16.5866 46.9802C16.6106 46.568 16.5362 46.1561 16.3702 45.7805L15.2883 46.8989C15.1297 47.1069 14.9444 47.2917 14.7375 47.4479C14.6521 47.4926 14.5578 47.5158 14.4621 47.5158C14.3664 47.5158 14.2721 47.4926 14.1867 47.4479C14.1384 47.3613 14.1129 47.2632 14.1129 47.1632C14.1129 47.0633 14.1384 46.9651 14.1867 46.8785C14.3936 46.5752 14.6238 46.2896 14.8752 46.0245C15.1702 45.6788 15.485 45.3535 15.9768 44.8248H12.377C12.0503 44.8659 11.7201 44.8659 11.3934 44.8248C11.3028 44.7914 11.2205 44.7376 11.1524 44.6673C11.0844 44.5969 11.0323 44.5118 11 44.4182C11.0181 44.3166 11.0575 44.2204 11.1152 44.1361C11.173 44.0518 11.2478 43.9815 11.3344 43.9301C11.6545 43.8893 11.9782 43.8893 12.2983 43.9301H15.4456V43.6862C14.8752 43.0965 14.2851 42.5068 13.7343 41.8968C13.1835 41.2868 12.9474 41.2461 13.3802 40.7988C13.813 40.3514 14.1474 40.7988 14.4424 41.1648L16.2521 43.0151C16.2521 42.5475 16.3505 42.2628 16.3505 41.9984C16.3505 40.4328 16.3505 38.8671 16.3505 37.3014C16.3505 36.8133 16.1931 36.183 16.8816 36C17.2554 36 17.4127 36.305 17.4127 37.342C17.4127 38.8061 17.4127 40.2498 17.4127 41.7138V43.0151C17.9681 42.5787 18.4879 42.0959 18.9667 41.5714C19.1712 41.3158 19.4021 41.0839 19.6552 40.8801C19.773 40.8263 19.9003 40.7985 20.029 40.7985C20.1577 40.7985 20.285 40.8263 20.4027 40.8801C20.7371 41.0834 20.5798 41.4088 20.4027 41.6528L18.7897 43.2998L18.2586 43.9505H20.8748H22.2911C22.6059 43.9505 22.9796 43.9505 22.9993 44.4588C23.019 44.9672 22.6255 44.9468 22.2911 44.9468H18.3569L18.4946 45.0282Z" fill="#985BE7"/>
<path d="M19.5118 124.983C19.5613 124.42 19.4623 123.855 19.2232 123.335C18.9841 122.814 18.612 122.355 18.1383 121.995C17.2085 121.241 16.1234 120.667 14.9473 120.307C14.7285 120.256 14.5161 120.184 14.3134 120.093C14.2212 120.061 14.1419 120.004 14.0859 119.929C14.03 119.855 14 119.766 14 119.676C14 119.585 14.03 119.497 14.0859 119.422C14.1419 119.348 14.2212 119.291 14.3134 119.259C14.5681 119.18 14.8297 119.122 15.0953 119.084C15.6244 119 16.1468 118.883 16.659 118.735C17.4152 118.511 18.0772 118.077 18.554 117.493C19.0308 116.909 19.299 116.204 19.3217 115.475C19.3244 115.123 19.3598 114.773 19.4273 114.427C19.4734 114.32 19.5477 114.225 19.6436 114.15C19.7395 114.076 19.8539 114.024 19.9768 114C20.0958 114.028 20.205 114.084 20.2938 114.162C20.3826 114.241 20.4481 114.338 20.4839 114.446C20.5831 114.861 20.6397 115.283 20.653 115.708C20.7217 116.439 21.041 117.131 21.5649 117.686C22.0888 118.24 22.7905 118.628 23.5692 118.793C24.0472 118.926 24.5343 119.03 25.0273 119.103C25.4288 119.103 25.9782 119.103 25.9994 119.686C26.0205 120.268 25.5133 120.151 25.1752 120.287C24.2647 120.658 23.376 121.073 22.5126 121.529C21.8325 121.887 21.2805 122.418 20.924 123.059C20.5675 123.7 20.4219 124.423 20.505 125.138C20.5156 125.242 20.5156 125.346 20.505 125.449C20.505 125.779 20.3149 126.05 19.9768 125.992C19.6386 125.934 19.533 125.662 19.4062 125.449C19.2794 125.235 19.4907 125.099 19.5118 124.983ZM16.8281 119.783L20.0401 122.363L23.2311 119.899C22.6459 119.601 22.0813 119.271 21.5405 118.909C21.002 118.466 20.4939 117.993 20.019 117.493C19.2254 118.529 18.115 119.326 16.8281 119.783V119.783Z" fill="#985BE7"/>
<path d="M127.45 40.8718C127.499 40.2612 127.402 39.6479 127.167 39.0823C126.933 38.5167 126.568 38.015 126.103 37.6187C125.18 36.8151 124.116 36.1918 122.965 35.7809C122.736 35.7401 122.516 35.6616 122.312 35.5485C122.22 35.5135 122.141 35.4513 122.086 35.3702C122.03 35.2891 122 35.1929 122 35.0943C122 34.9958 122.03 34.8996 122.086 34.8185C122.141 34.7374 122.22 34.6752 122.312 34.6402C122.567 34.5569 122.827 34.4934 123.091 34.45C123.616 34.3827 124.137 34.284 124.65 34.1543C125.413 33.9183 126.085 33.45 126.572 32.8142C127.058 32.1784 127.336 31.4065 127.366 30.6054C127.324 30.2264 127.324 29.8438 127.366 29.4647C127.412 29.3479 127.486 29.2444 127.582 29.1633C127.677 29.0822 127.791 29.0261 127.914 29C128.033 29.0289 128.143 29.0891 128.232 29.1744C128.321 29.2598 128.385 29.3673 128.419 29.4859C128.518 29.9373 128.574 30.397 128.587 30.8589C128.674 31.6551 129.01 32.4032 129.547 32.9954C130.085 33.5877 130.796 33.9935 131.578 34.1543C132.062 34.297 132.554 34.4099 133.052 34.4923C133.452 34.4923 133.978 34.4923 133.999 35.126C134.02 35.7597 133.536 35.633 133.199 35.7809C132.281 36.1834 131.387 36.642 130.525 37.1539C129.827 37.5229 129.255 38.0912 128.88 38.787C128.505 39.4828 128.345 40.2745 128.419 41.0619C128.429 41.1743 128.429 41.2875 128.419 41.3999C128.419 41.759 128.208 42.0548 127.872 41.9914C127.535 41.928 127.429 41.6323 127.303 41.3999C127.177 41.1676 127.45 40.9986 127.45 40.8718ZM124.797 35.2105L127.977 38.02L131.178 35.2528C130.588 34.929 130.018 34.5692 129.472 34.1754C128.937 33.6985 128.437 33.1831 127.977 32.6334C127.193 33.7875 126.087 34.684 124.797 35.2105Z" fill="#985BE7"/>
<path d="M46.6227 115C46.2423 114.562 46.0099 114.395 45.9465 114.186C45.8831 113.977 45.9465 113.497 45.9465 113.163C45.7548 112.222 45.5006 111.294 45.1857 110.386C45.028 109.995 44.7937 109.639 44.4963 109.339C44.1989 109.038 43.8443 108.798 43.4529 108.632C43.1359 108.465 42.8189 108.34 42.523 108.152C41.8257 107.693 41.8257 107.192 42.523 106.712C43.2204 106.231 43.5585 106.044 44.0023 105.647C44.62 105.139 45.1137 104.499 45.4466 103.776C45.7796 103.053 45.9432 102.265 45.9254 101.471C45.9254 101.2 45.9254 100.929 45.9254 100.657C45.9254 100.386 46.1156 99.9265 46.5382 100.01C46.9608 100.094 46.9397 100.407 47.0454 100.636C47.0769 100.823 47.0769 101.013 47.0454 101.2C47.0303 102.195 47.2728 103.178 47.7499 104.055C48.227 104.932 48.9228 105.674 49.7715 106.211L50.3632 106.566C51.2085 107.15 51.2507 107.756 50.2575 108.152C49.2229 108.598 48.3563 109.354 47.7799 110.313C47.2036 111.272 46.9467 112.386 47.0454 113.497C47.0768 113.767 47.0768 114.041 47.0454 114.311C46.9349 114.558 46.7929 114.789 46.6227 115V115ZM46.4114 110.261C46.8313 109.647 47.2827 109.055 47.7639 108.486C48.2337 108.082 48.7277 107.705 49.2432 107.359L46.4959 104.269L43.6853 107.401C44.9164 107.994 45.8858 109.011 46.4114 110.261V110.261Z" fill="#985BE7"/>
<path d="M147 81C147 81.1978 146.941 81.3911 146.831 81.5556C146.722 81.72 146.565 81.8482 146.383 81.9239C146.2 81.9996 145.999 82.0194 145.805 81.9808C145.611 81.9422 145.433 81.847 145.293 81.7071C145.153 81.5673 145.058 81.3891 145.019 81.1951C144.981 81.0011 145 80.8 145.076 80.6173C145.152 80.4346 145.28 80.2784 145.444 80.1685C145.609 80.0586 145.802 80 146 80C146.265 80 146.52 80.1054 146.707 80.2929C146.895 80.4804 147 80.7348 147 81Z" fill="#985BE7"/>
<path d="M30 56.5C30 56.7967 29.9414 57.0867 29.8315 57.3334C29.7216 57.58 29.5654 57.7723 29.3827 57.8858C29.2 57.9993 28.9989 58.0291 28.8049 57.9712C28.6109 57.9133 28.4327 57.7704 28.2929 57.5607C28.153 57.3509 28.0578 57.0836 28.0192 56.7926C27.9806 56.5017 28.0004 56.2001 28.0761 55.926C28.1518 55.6519 28.28 55.4176 28.4444 55.2528C28.6089 55.088 28.8022 55 29 55C29.2652 55 29.5196 55.158 29.7071 55.4393C29.8946 55.7207 30 56.1022 30 56.5Z" fill="#985BE7"/>
<path d="M12 53C11.9954 53.2668 11.887 53.5212 11.6983 53.7082C11.5096 53.8953 11.2557 54 10.9912 54C10.7283 54 10.4762 53.8946 10.2903 53.7071C10.1044 53.5196 10 53.2652 10 53C10 52.7348 10.1044 52.4804 10.2903 52.2929C10.4762 52.1054 10.7283 52 10.9912 52C11.2557 52 11.5096 52.1047 11.6983 52.2918C11.887 52.4788 11.9954 52.7332 12 53V53Z" fill="#985BE7"/>
<path d="M33 131C33.5523 131 34 130.328 34 129.5C34 128.672 33.5523 128 33 128C32.4477 128 32 128.672 32 129.5C32 130.328 32.4477 131 33 131Z" fill="#985BE7"/>
<path d="M41 12.5C41 12.7967 40.912 13.0867 40.7472 13.3334C40.5824 13.58 40.3481 13.7723 40.074 13.8858C39.7999 13.9993 39.4983 14.0291 39.2074 13.9712C38.9164 13.9133 38.6491 13.7704 38.4393 13.5607C38.2296 13.3509 38.0867 13.0836 38.0288 12.7926C37.9709 12.5017 38.0006 12.2001 38.1142 11.926C38.2277 11.6519 38.42 11.4176 38.6666 11.2528C38.9133 11.088 39.2033 11 39.5 11C39.8978 11 40.2794 11.158 40.5607 11.4393C40.842 11.7206 41 12.1022 41 12.5Z" fill="#985BE7"/>
<path d="M140 45C140 45.2652 139.895 45.5196 139.707 45.7071C139.52 45.8946 139.265 46 139 46C138.735 46 138.48 45.8946 138.293 45.7071C138.105 45.5196 138 45.2652 138 45C138 44.7348 138.105 44.4804 138.293 44.2929C138.48 44.1054 138.735 44 139 44C139.265 44 139.52 44.1054 139.707 44.2929C139.895 44.4804 140 44.7348 140 45Z" fill="#985BE7"/>
<path d="M125 118.5C125 118.797 124.912 119.087 124.747 119.333C124.582 119.58 124.348 119.772 124.074 119.886C123.8 119.999 123.498 120.029 123.207 119.971C122.916 119.913 122.649 119.77 122.439 119.561C122.23 119.351 122.087 119.084 122.029 118.793C121.971 118.502 122.001 118.2 122.114 117.926C122.228 117.652 122.42 117.418 122.667 117.253C122.913 117.088 123.203 117 123.5 117C123.697 117 123.892 117.039 124.074 117.114C124.256 117.19 124.421 117.3 124.561 117.439C124.7 117.579 124.81 117.744 124.886 117.926C124.961 118.108 125 118.303 125 118.5V118.5Z" fill="#985BE7"/>
<path d="M128 87.9912C128 88.2557 127.896 88.5096 127.711 88.6983C127.525 88.887 127.273 88.9954 127.009 89C126.743 88.9954 126.489 88.8877 126.301 88.6995C126.112 88.5113 126.005 88.2573 126 87.9912C126.005 87.7267 126.113 87.4746 126.302 87.2892C126.49 87.1038 126.744 87 127.009 87C127.272 87 127.524 87.1044 127.71 87.2903C127.896 87.4762 128 87.7283 128 87.9912V87.9912Z" fill="#985BE7"/>
<circle cx="118" cy="133" r="18" fill="#8840E3"/>
<path d="M124.908 133.271C124.495 133.034 124.021 132.926 123.546 132.959C123.072 132.992 122.617 133.166 122.242 133.458C121.574 133.907 121.036 134.523 120.682 135.245L121.042 133.445C121.282 132.218 121.535 130.938 121.722 129.671C121.961 128.366 121.888 127.023 121.508 125.751C121.449 125.462 121.322 125.191 121.139 124.96C120.957 124.728 120.722 124.543 120.455 124.418C120.182 124.333 119.894 124.312 119.612 124.356C119.33 124.4 119.062 124.507 118.828 124.671C118.223 125.021 117.682 125.472 117.228 126.005C116.745 126.561 116.299 127.149 115.895 127.765L115.375 128.511C115.375 128.351 115.375 128.191 115.375 128.045L115.282 127.605C115.175 127.005 115.014 126.416 114.802 125.845C114.744 125.653 114.643 125.477 114.508 125.33C114.373 125.183 114.206 125.068 114.021 124.993C113.835 124.919 113.635 124.888 113.436 124.901C113.236 124.915 113.042 124.973 112.868 125.071C111.913 125.492 111.148 126.252 110.722 127.205C110.685 127.284 110.667 127.371 110.667 127.458C110.667 127.545 110.685 127.632 110.722 127.711C110.719 127.756 110.719 127.8 110.722 127.845L110.788 128.098L111.042 128.018H111.148C111.282 127.996 111.409 127.946 111.522 127.871C111.609 127.784 111.685 127.685 111.748 127.578C111.77 127.535 111.797 127.495 111.828 127.458L111.988 127.245C112.162 127.045 112.322 126.845 112.495 126.671C113.002 126.205 113.268 126.151 113.402 126.191C113.535 126.231 113.708 126.405 113.882 127.058V127.138C113.943 127.319 113.978 127.507 113.988 127.698C113.988 127.951 113.988 128.218 113.988 128.485C114.055 129.234 114.082 129.986 114.068 130.738C114.068 131.871 113.948 133.031 113.868 134.151L113.948 135.831C113.908 136.088 113.908 136.348 113.948 136.605C113.977 136.707 114.035 136.798 114.116 136.867C114.197 136.936 114.296 136.979 114.402 136.991C114.512 137.006 114.625 136.987 114.724 136.937C114.824 136.887 114.907 136.808 114.962 136.711C115.04 136.54 115.081 136.353 115.082 136.165V135.431C115.082 134.965 115.082 134.498 115.202 134.098C115.263 133.678 115.299 133.255 115.308 132.831C115.279 132.128 115.388 131.426 115.628 130.765C116.259 129.201 117.187 127.775 118.362 126.565C118.695 126.246 119.072 125.977 119.482 125.765C119.632 125.667 119.809 125.621 119.988 125.631C120.137 125.752 120.236 125.923 120.268 126.111C120.4 126.504 120.481 126.911 120.508 127.325C120.611 128.559 120.549 129.801 120.322 131.018C120.215 131.551 120.108 132.071 119.988 132.605C119.788 133.538 119.588 134.498 119.428 135.471C119.278 136.205 119.306 136.964 119.508 137.685C119.596 137.942 119.63 138.214 119.607 138.485C119.584 138.756 119.505 139.019 119.375 139.258C119.122 139.751 118.855 140.205 118.588 140.591C118.291 141.108 117.888 141.556 117.406 141.905C116.923 142.254 116.372 142.497 115.788 142.618C115.531 142.658 115.282 142.744 115.055 142.871C114.931 142.946 114.829 143.052 114.759 143.178C114.689 143.304 114.653 143.447 114.655 143.591C114.666 143.67 114.695 143.746 114.739 143.813C114.782 143.879 114.84 143.936 114.908 143.978C115.002 144.031 115.107 144.059 115.215 144.058C115.325 144.055 115.433 144.032 115.535 143.991L116.468 143.698C117.534 143.462 118.481 142.852 119.135 141.978C119.533 141.41 119.903 140.823 120.242 140.218C120.375 139.991 120.495 139.765 120.628 139.551C120.694 139.431 120.752 139.306 120.802 139.178H120.922C121.334 139.4 121.797 139.509 122.266 139.495C122.734 139.481 123.19 139.344 123.588 139.098C124.176 138.757 124.689 138.299 125.094 137.754C125.5 137.208 125.791 136.586 125.948 135.925C126.081 135.429 126.052 134.904 125.865 134.427C125.677 133.949 125.342 133.544 124.908 133.271V133.271ZM124.015 137.111C123.803 137.422 123.531 137.687 123.215 137.891C122.899 138.095 122.545 138.233 122.175 138.298C121.975 138.31 121.775 138.281 121.586 138.212C121.398 138.143 121.226 138.036 121.082 137.898C121.227 136.945 121.577 136.036 122.108 135.231C122.404 134.777 122.832 134.423 123.335 134.218C123.475 134.155 123.628 134.123 123.782 134.123C123.935 134.123 124.088 134.155 124.228 134.218C124.361 134.301 124.473 134.412 124.558 134.544C124.644 134.675 124.699 134.823 124.722 134.978C124.754 135.363 124.709 135.75 124.587 136.117C124.466 136.484 124.271 136.822 124.015 137.111V137.111Z" fill="white"/>
<path d="M118.307 148.92C115.214 148.923 112.191 148.008 109.619 146.291C107.047 144.574 105.042 142.133 103.858 139.276C102.674 136.42 102.364 133.276 102.967 130.243C103.571 127.21 105.061 124.425 107.248 122.239C109.436 120.053 112.223 118.566 115.256 117.965C118.29 117.364 121.433 117.676 124.289 118.863C127.145 120.049 129.584 122.056 131.299 124.63C133.013 127.203 133.925 130.228 133.92 133.32C133.906 137.455 132.256 141.417 129.331 144.34C126.405 147.263 122.442 148.909 118.307 148.92V148.92ZM118.307 118.893C115.459 118.893 112.675 119.738 110.307 121.32C107.938 122.902 106.093 125.151 105.003 127.783C103.913 130.414 103.628 133.309 104.183 136.103C104.739 138.896 106.111 141.462 108.124 143.476C110.138 145.49 112.704 146.861 115.497 147.417C118.291 147.972 121.186 147.687 123.817 146.597C126.449 145.507 128.698 143.662 130.28 141.294C131.862 138.925 132.707 136.141 132.707 133.293C132.696 129.48 131.175 125.826 128.476 123.132C125.777 120.438 122.12 118.924 118.307 118.92V118.893Z" fill="white"/>
</svg>
