<svg width="155" height="151" viewBox="0 0 155 151" fill="none" xmlns="http://www.w3.org/2000/svg">
<circle cx="78" cy="73" r="67" fill="#F0E8FF"/>
<path d="M0 50.7058C1.88102 48.2727 7.17649 46.8619 14.3121 46.7802C14.3427 46.2831 14.3427 45.7846 14.3121 45.2876C13.9314 42.2103 14.5707 39.0932 16.1318 36.4141C16.8065 35.1669 17.5426 33.9402 18.1764 32.6725C18.7954 31.4666 19.1684 30.1497 19.2737 28.7983C19.379 27.4469 19.2145 26.0881 18.7897 24.8009C18.5853 24.1261 18.5035 23.431 18.2991 22.3474C20.459 22.7443 22.4239 23.8527 23.8807 25.496C25.2974 27.0476 26.6153 28.6864 27.8268 30.403C28.6037 24.8826 30.5052 19.6281 28.1335 14.2508C29.258 13.3512 29.8305 13.9032 30.4234 14.7006C31.5684 16.1932 32.693 17.6857 33.9402 19.076C36.5046 21.8871 40.0765 23.5701 43.8768 23.7581C43.9791 23.4719 44.1426 23.2674 44.1017 23.0834C43.5164 19.683 43.6699 16.1964 44.5516 12.8605C44.609 12.4174 44.7259 11.9842 44.8991 11.5724C44.9593 11.4111 45.0624 11.2695 45.1975 11.1628C45.3326 11.0562 45.4943 10.9886 45.6651 10.9676C45.8359 10.9465 46.0092 10.9726 46.1661 11.0432C46.3231 11.1138 46.4577 11.2262 46.5552 11.3679C46.8082 11.647 47.0152 11.9644 47.1686 12.3084C49.4009 16.3425 53.0398 19.4137 57.3915 20.9366C59.4361 21.734 61.3171 22.3883 63.2185 23.2674C64.7111 23.9217 66.1014 24.8009 67.7371 25.7005C67.7371 24.0239 67.9212 22.4087 68.0438 20.8139C68.1665 19.2191 68.3505 17.5426 68.4936 15.9069C68.4936 15.682 68.4936 15.4367 68.4936 15.2322C68.6572 14.6393 68.8821 14.0463 69.0866 13.4739C69.6304 13.6255 70.1476 13.86 70.62 14.169C72.6646 15.9887 74.5456 17.8902 76.488 19.7507L76.8355 19.9961C78.6961 18.2786 80.5772 16.4998 82.4991 14.7619C83.1329 14.2099 83.6236 13.0649 84.6663 13.5148C85.7091 13.9646 85.0752 15.0891 85.1365 15.9274L85.4433 19.0556C85.6477 21.2228 85.8521 23.3697 86.0974 25.8232C89.7777 22.9198 94.2758 21.9998 98.365 20.037C101.902 18.4854 104.818 15.7932 106.646 12.3902C106.646 12.2062 106.809 11.9404 106.973 11.8177C107.136 11.6951 107.811 11.0204 108.179 11.0612C108.547 11.1021 109.017 11.6746 109.119 12.104C109.519 13.6251 109.786 15.178 109.917 16.7452C110.06 18.9738 109.917 21.2228 109.917 23.6763C110.352 23.7164 110.79 23.7164 111.225 23.6763C114.827 23.1652 118.108 21.3278 120.426 18.524C121.489 17.2563 122.471 15.9069 123.473 14.6188C124.127 13.7805 124.147 13.801 125.681 14.2304C123.35 19.6281 125.231 24.9235 126.335 30.3417C126.703 29.7283 127.071 29.1354 127.419 28.522C128.994 26.0314 131.231 24.028 133.88 22.7358C134.066 22.6407 134.273 22.5911 134.483 22.5911C134.692 22.5911 134.899 22.6407 135.086 22.7358C135.352 22.9198 135.413 23.5332 135.352 23.9217C135.188 24.7191 134.799 25.4756 134.677 26.2934C134.287 28.5318 134.639 30.8364 135.679 32.8565C136.251 33.981 136.905 35.0851 137.519 36.1892C139.075 38.7852 139.789 41.7992 139.563 44.8173C139.563 45.4716 139.563 46.1259 139.563 46.5757C142.467 46.9846 145.288 47.23 148.028 47.782C149.698 48.2229 151.321 48.8255 152.874 49.5812C153.06 49.6773 153.22 49.8166 153.341 49.9873C153.462 50.1581 153.54 50.3554 153.569 50.5626C153.569 50.8284 153.017 51.2578 152.669 51.3191C148.007 52.0961 144.757 55.0812 141.751 58.4138C138.746 61.7465 136.19 65.8357 132.203 68.6368C133.287 69.8022 134.247 70.6813 135.086 71.765C138.774 76.4309 140.835 82.1752 140.954 88.1217C140.964 90.9642 140.8 93.8046 140.463 96.6271C140.463 97.1383 139.952 97.6085 139.686 98.0788C139.277 97.7312 138.705 97.445 138.5 96.9952C137.56 94.9348 136.161 93.1165 134.411 91.6792C133.204 90.5453 131.61 89.9162 129.954 89.9209C131.406 92.0247 132.416 94.4016 132.923 96.9076C133.429 99.4135 133.42 101.996 132.898 104.499C131.561 103.511 130.153 102.622 128.686 101.841C127.2 101.301 125.676 100.871 124.127 100.553C124.392 103.776 123.994 107.019 122.956 110.082C121.919 113.145 120.264 115.963 118.095 118.361C116.971 117.911 117.257 117.012 117.196 116.316C117.04 114.825 116.482 113.404 115.582 112.205C114.682 111.006 113.473 110.074 112.084 109.508C111.832 111.293 112.177 113.112 113.066 114.681C113.331 115.212 113.679 115.703 113.965 116.235C114.251 116.766 115.335 117.645 114.579 118.279C114.219 118.429 113.833 118.507 113.444 118.507C113.054 118.507 112.669 118.429 112.309 118.279C110.551 117.768 108.833 117.073 106.932 116.419C106.932 116.95 106.932 117.441 106.932 117.932C106.902 121.488 105.734 124.942 103.599 127.787C102.311 129.545 101.064 131.324 99.7349 133.041C99.4078 133.45 98.7739 133.982 98.365 133.9C97.4858 133.757 97.7312 132.878 97.7721 132.244C97.7407 132.02 97.7407 131.793 97.7721 131.569C98.1269 129.755 98.0043 127.88 97.4165 126.127C96.8287 124.374 95.7958 122.805 94.4189 121.571C93.2944 120.406 92.0472 119.383 90.4729 117.932C90.5475 119.048 90.5475 120.168 90.4729 121.285C90.1424 123.118 89.7193 124.933 89.2053 126.723C89.0621 127.173 88.4283 127.48 88.0194 127.868C87.6922 127.419 87.3038 126.989 87.0175 126.519C86.7704 125.974 86.5587 125.414 86.3837 124.842C84.8205 129.412 82.5658 133.715 79.698 137.601C78.4637 139.404 77.8271 141.55 77.8783 143.734C77.9363 144.1 77.8939 144.475 77.7556 144.818C77.6572 144.964 77.527 145.086 77.3748 145.175C77.2225 145.263 77.0521 145.316 76.8765 145.329C76.7085 145.287 76.5518 145.208 76.4176 145.098C76.2834 144.989 76.1749 144.851 76.0995 144.695C76.0268 144.331 76.0268 143.956 76.0995 143.591C76.0838 141.404 75.4223 139.27 74.1981 137.458C71.3373 133.608 69.089 129.338 67.5327 124.802C67.3278 125.571 67.0611 126.324 66.7353 127.051C66.5273 127.407 66.1908 127.67 65.7947 127.787C65.5698 127.787 65.0588 127.48 64.977 127.194C64.4068 125.505 63.9358 123.785 63.5662 122.041C63.4636 120.851 63.4636 119.654 63.5662 118.463C61.2161 119.546 59.2459 121.31 57.9114 123.527C56.5769 125.744 55.9399 128.311 56.083 130.894C56.2198 131.472 56.3088 132.06 56.3488 132.653C56.2853 133.133 56.0534 133.575 55.6945 133.9C55.5309 134.023 54.8153 133.695 54.5904 133.409C50.9715 128.318 46.5553 123.554 46.9846 116.623C46.9846 116.623 46.9846 116.501 46.821 116.316C45.7579 116.787 44.7764 117.339 43.611 117.748C42.6883 118.07 41.7365 118.303 40.769 118.443C40.3192 118.443 39.4401 118.443 39.3787 118.218C39.2482 117.677 39.3286 117.107 39.6036 116.623C41.2837 114.44 42.1252 111.727 41.9754 108.976C40.1393 109.766 38.6759 111.23 37.8862 113.066C37.1899 114.86 36.6093 116.697 36.1482 118.566C33.9075 116.224 32.1994 113.426 31.1407 110.363C30.0821 107.3 29.6978 104.044 30.0145 100.819C28.4828 100.811 26.9661 101.12 25.5589 101.725C24.1518 102.33 22.8844 103.218 21.8362 104.335C19.7916 101.964 20.7321 96.0342 24.0034 90.0231C22.7242 89.961 21.4664 90.3681 20.4663 91.1681C18.4115 92.5741 16.7843 94.5197 15.7638 96.7907C15.4367 97.445 15.3345 98.2628 14.0055 98.1401C12.6969 92.9463 12.6969 87.5089 14.0055 82.315C15.1475 77.034 17.9573 72.26 22.0202 68.6981C18.7564 66.075 15.849 63.0369 13.3717 59.661C11.8486 57.9097 10.2018 56.2698 8.44415 54.754C6.59615 53.0809 4.32713 51.9428 1.88098 51.4622C1.23229 51.2678 0.602715 51.0146 0 50.7058V50.7058ZM91.4952 105.766L92.0063 106.134C92.6291 105.063 93.1756 103.95 93.642 102.802C93.9941 101.732 94.1871 100.616 94.2145 99.4896C94.3901 95.1973 95.6491 91.0193 97.8743 87.3447C99.5508 84.5028 101.248 81.6812 102.802 78.7575C106.052 73.0895 106.955 66.3746 105.317 60.0495C105.032 59.2434 105.024 58.3656 105.295 57.5546C105.565 56.7437 106.098 56.046 106.809 55.5719C109.522 53.295 111.689 50.437 113.147 47.2095C114.045 45.1313 114.328 42.8398 113.965 40.6055C113.761 38.9289 112.922 38.2951 111.225 38.2747C110.696 38.2571 110.166 38.3121 109.651 38.4382C106.789 39.2561 103.885 39.9921 101.064 40.9735C98.9543 41.7783 96.6844 42.0725 94.4394 41.8323L91.7815 41.4642C89.3723 41.0493 86.903 41.1442 84.5328 41.7429C82.1627 42.3416 79.9445 43.4308 78.0214 44.94C77.882 45.0873 77.7139 45.2046 77.5276 45.2847C77.3413 45.3649 77.1406 45.4062 76.9377 45.4062C76.7349 45.4062 76.5343 45.3649 76.348 45.2847C76.1617 45.2046 75.9937 45.0873 75.8542 44.94C73.9755 43.4266 71.7894 42.3408 69.4484 41.7581C67.1073 41.1755 64.6675 41.1101 62.2986 41.5665C58.374 42.2671 54.3303 41.8052 50.6649 40.2375C48.2129 39.3161 45.6594 38.6915 43.059 38.3769C41.0144 38.0702 40.3193 38.8063 39.9513 40.7691C39.5374 42.9196 39.8165 45.146 40.7486 47.1277C42.0969 50.3125 44.2025 53.1199 46.8823 55.3061C47.725 55.8639 48.3498 56.695 48.6515 57.6595C48.9531 58.624 48.9131 59.663 48.5384 60.6015C47.7321 63.5818 47.6063 66.7054 48.1704 69.7408C48.7216 73.3402 49.9347 76.8063 51.7484 79.9638C53.4454 82.9693 55.2447 85.9135 56.8804 88.9395C58.5045 91.8296 59.442 95.0546 59.6202 98.365C59.752 100.079 60.0464 101.777 60.4993 103.436C60.6556 104.088 60.9427 104.701 61.3434 105.239C61.7441 105.777 62.25 106.228 62.8302 106.564C62.4622 105.705 62.2985 105.317 62.1145 104.928C61.0142 102.592 60.8389 99.9257 61.6238 97.4654C62.7483 93.9078 63.9956 90.3707 65.2223 86.8336C65.9175 84.789 66.8171 82.7444 67.4305 80.6998C68.6404 77.2967 69.2088 73.6988 69.1069 70.0884C69.0831 68.7886 68.722 67.5172 68.0589 66.3989C67.3959 65.2806 66.4536 64.3538 65.3245 63.7093C63.8933 62.9119 62.4212 62.135 60.9286 61.4603C59.4361 60.7856 57.5959 60.0904 55.9398 59.4157C55.3673 59.1703 54.7132 58.8432 55.163 58.1276C55.3061 57.8822 56.1034 57.78 56.4714 57.9436C59.7837 59.3543 63.1163 60.7038 66.3059 62.3394C67.6516 63.0409 68.7823 64.0937 69.5779 65.386C70.3735 66.6784 70.8043 68.162 70.8245 69.6795C70.997 71.4694 70.9004 73.275 70.5382 75.0363C69.5977 78.9006 68.4936 82.6831 67.2055 86.4656C65.9174 90.248 64.6294 93.8056 63.4231 97.5063C63.0364 98.5664 62.8559 99.6907 62.8915 100.819C63.0186 103.243 64.0883 105.521 65.8722 107.168C67.6562 108.814 70.013 109.698 72.4396 109.631C73.4824 109.631 74.4843 109.631 75.5884 109.631C75.8746 109.631 76.1199 110.04 76.4061 110.265C76.1199 110.551 75.8746 111.082 75.5679 111.103C72.9072 111.649 70.1451 111.415 67.6144 110.428C67.1302 110.193 66.6317 109.988 66.1219 109.815C66.1926 110.952 66.5527 112.052 67.1682 113.011C67.7837 113.97 68.634 114.756 69.6386 115.294C71.9269 116.451 74.4552 117.054 77.0195 117.054C79.5837 117.054 82.1122 116.451 84.4005 115.294C85.3973 114.762 86.2371 113.978 86.8362 113.02C87.4353 112.062 87.7728 110.964 87.815 109.835C84.9987 111.32 81.7592 111.796 78.6348 111.185C78.2668 111.185 77.9601 110.735 77.6125 110.51C77.9601 110.203 78.2668 109.692 78.6348 109.651C79.7593 109.528 80.8838 109.651 82.0083 109.651C83.3982 109.634 84.7657 109.298 86.0063 108.671C87.2469 108.044 88.3279 107.142 89.1663 106.033C90.0048 104.925 90.5786 103.639 90.844 102.274C91.1095 100.91 91.0594 99.5028 90.6978 98.1606C89.6959 94.6235 88.4283 91.1681 87.2424 87.6923C86.5268 85.6477 85.6272 83.6031 84.9934 81.5585C83.7318 78.0945 83.0413 74.4486 82.9488 70.7631C82.8862 69.3319 83.1564 67.9057 83.7383 66.5966C84.3201 65.2875 85.1977 64.1312 86.302 63.2186C89.8645 60.8041 93.783 58.9621 97.9152 57.7596C98.2219 57.7596 98.6922 58.0663 99.1011 58.2094V58.7205L96.7907 59.8655C94.0919 61.1331 91.3521 62.3394 88.6124 63.7093C87.5707 64.2438 86.6824 65.0349 86.0313 66.0079C85.3802 66.9809 84.9879 68.1038 84.8912 69.2706C84.697 70.7568 84.697 72.262 84.8912 73.7482C85.5343 77.7492 86.6247 81.6653 88.142 85.4228C89.5528 89.1235 90.8204 92.906 92.1085 96.6476C93.0903 99.3072 92.9802 102.247 91.8019 104.826C91.7406 105.092 91.6383 105.439 91.4952 105.766ZM122.818 20.1597C122.164 21.0184 121.776 21.4682 121.448 21.9589C119.525 24.8526 116.815 27.1367 113.638 28.5424C111.471 29.5443 109.181 30.3008 107.014 31.3231C105.045 32.2138 103.169 33.2958 101.411 34.5535C99.6479 35.9037 98.4872 37.8944 98.181 40.0944C99.6736 39.5219 100.859 39.113 102.025 38.6427C104.808 37.5248 107.745 36.8354 110.735 36.5981C111.346 36.4502 111.982 36.445 112.596 36.5831C113.209 36.7212 113.782 36.9988 114.271 37.3944C114.759 37.79 115.15 38.2928 115.412 38.8639C115.675 39.435 115.803 40.059 115.785 40.6873C116.17 43.3812 115.721 46.1284 114.497 48.5589C113.145 51.2135 111.37 53.6305 109.242 55.715C108.792 56.1443 108.404 56.6351 107.77 57.3302C109.773 57.2787 111.741 56.7902 113.536 55.899C117.233 54.2468 120.317 51.475 122.353 47.9751C124.389 44.4751 125.274 40.4239 124.883 36.3937C124.495 31.18 123.575 25.9254 122.818 20.1597V20.1597ZM45.6761 57.4938L45.86 57.044C45.3489 56.5124 44.8582 55.9603 44.3266 55.4492C42.1668 53.2547 40.4152 50.693 39.1539 47.8842C38.1531 45.7711 37.7771 43.4159 38.0702 41.0962C38.52 37.4364 40.1148 36.2096 43.8768 36.5981C47.1532 37.0194 50.3537 37.9004 53.3841 39.2152C54.0792 39.481 54.8358 39.6854 55.8581 40.0126C55.5718 39.1743 55.4696 38.7245 55.306 38.336C54.5885 36.8036 53.5739 35.4289 52.3209 34.2917C51.0679 33.1545 49.6016 32.2775 48.0069 31.7116C46.1259 30.9551 44.204 30.3008 42.3434 29.5238C38.1477 27.9632 34.5641 25.0963 32.1205 21.3455C31.9256 20.9823 31.7549 20.6066 31.6093 20.221L31.0777 20.6299C30.3621 25.8232 29.4829 30.9755 29.0331 36.1892C28.5558 41.1894 30.0195 46.1816 33.1214 50.1323C36.2233 54.083 40.7259 56.6894 45.6965 57.412L45.6761 57.4938ZM131.16 67.2056C132.366 66.0606 133.982 64.7112 135.392 63.1164C136.803 61.5216 138.173 59.7837 139.584 58.1276C142.059 55.0099 145.167 52.4524 148.703 50.624C148.969 50.5013 149.152 50.2151 149.5 49.8879C146.193 48.6518 142.629 48.2651 139.134 48.7634C135.812 49.3676 132.63 50.5806 129.749 52.3414C126.56 54.1407 123.37 55.9603 120.099 57.596C116.959 59.2558 113.42 60.0131 109.876 59.7837C109.61 59.7837 109.365 59.7837 109.099 59.7837C109.564 60.6166 110.279 61.2819 111.144 61.6852C113.332 62.6316 115.579 63.4375 117.87 64.0978C122.041 65.3041 126.294 66.1424 131.16 67.2056ZM4.39591 50.0106C4.62081 50.2559 4.72304 50.4808 4.90705 50.5626C8.78672 52.5152 12.1815 55.3092 14.8437 58.741C16.1113 60.2949 17.3382 61.9305 18.7285 63.3822C20.1188 64.8338 21.6726 66.1015 23.0016 67.3078C25.2711 66.674 27.0908 66.0606 29.1353 65.6108C31.5479 65.0383 33.981 64.6498 36.3936 64.1387C39.0566 63.6528 41.5862 62.6075 43.8154 61.0718C44.2848 60.648 44.7222 60.1902 45.124 59.7019C39.8581 60.0338 34.6233 58.6803 30.1781 55.8377C28.1335 54.6927 26.0889 53.3842 24.0443 52.2596C22.2763 51.2817 20.4459 50.4211 18.5649 49.6835C13.9789 48.0306 8.94129 48.1473 4.43671 50.0106H4.39591ZM138.93 89.7573C139.037 89.4373 139.119 89.1091 139.175 88.7759C139.175 82.8871 137.194 77.1695 133.552 72.5419C131.717 70.1316 129.075 68.4623 126.11 67.8394C123.248 67.2464 120.385 66.6535 117.543 66.0197C114.365 65.4433 111.351 64.1803 108.711 62.319C108.343 62.0521 107.961 61.8064 107.566 61.5829C107.566 64.0978 107.566 66.49 107.566 68.8617C107.509 69.4138 107.59 69.9713 107.8 70.4849C108.01 70.9985 108.344 71.4522 108.772 71.8059C111.076 73.8872 113.903 75.301 116.95 75.895C119.588 76.4266 122.246 76.8151 124.924 77.1423C127.428 77.4183 129.825 78.3095 131.901 79.7364C133.978 81.1634 135.668 83.0817 136.824 85.3206C137.539 86.6905 138.153 88.0603 138.93 89.7573ZM14.8437 89.7573C15.6002 88.2443 16.3158 86.6905 17.1541 85.2184C18.3013 83.011 19.9771 81.1219 22.0321 79.7199C24.087 78.3178 26.4572 77.4463 28.9309 77.1831C30.9755 76.9378 32.7952 76.6924 34.7171 76.3857C38.4506 75.962 41.9806 74.4633 44.8787 72.0717C45.4047 71.6611 45.8084 71.1146 46.0462 70.4911C46.2841 69.8677 46.3469 69.1911 46.228 68.5345C46.1053 66.8261 46.1053 65.1111 46.228 63.4026V61.358C42.6101 64.2503 38.254 66.0707 33.6539 66.6126C31.8751 66.9602 30.1372 67.3896 28.3584 67.6963C26.3603 68.0779 24.4686 68.8877 22.8133 70.0701C21.158 71.2525 19.7783 72.7793 18.7693 74.5456C15.928 79.1042 14.5839 84.4375 14.9254 89.7982L14.8437 89.7573ZM102.352 83.0102C100.962 85.4228 99.878 87.3652 98.7534 89.2666C98.4985 89.6789 98.3437 90.145 98.3011 90.6279C98.2585 91.1107 98.3293 91.5967 98.5081 92.0473C99.3999 95.0524 100.91 97.838 102.942 100.225C104.973 102.612 107.481 104.549 110.305 105.91C113.436 107.225 116.089 109.465 117.911 112.33C117.911 112.33 118.177 112.33 118.586 112.514C118.852 109.876 119.24 107.3 119.363 104.703C119.492 102.592 119.107 100.481 118.242 98.5511C117.377 96.6211 116.057 94.9297 114.395 93.6216C112.861 92.3131 111.103 91.2703 109.549 89.9822C107.504 88.2239 105.46 86.3429 103.415 84.5028C103.046 84.0485 102.718 83.5628 102.434 83.0511L102.352 83.0102ZM51.728 83.5009L51.1146 83.2351C50.9971 83.6025 50.8321 83.9531 50.6239 84.2778C48.7109 86.5838 46.4562 88.5834 43.9381 90.2071C42.5069 91.1886 41.0961 92.2517 39.8489 93.2536C38.0217 94.6523 36.5818 96.4945 35.6658 98.6056C34.7498 100.717 34.3881 103.027 34.6148 105.317C34.7579 107.239 35.0034 109.181 35.2283 111.103C35.3721 111.71 35.5635 112.305 35.8007 112.882C37.4151 109.836 40.0286 107.439 43.2021 106.094C43.6723 105.869 44.1426 105.603 44.5924 105.358C47.1653 103.952 49.4359 102.053 51.2742 99.7689C53.1126 97.485 54.4825 94.8611 55.306 92.0473C55.561 91.3544 55.561 90.5933 55.306 89.9005C54.2633 87.7536 53.057 85.6682 51.8098 83.5418L51.728 83.5009ZM65.5289 124.209C66.0752 123.448 66.6622 122.718 67.2874 122.021C67.7439 121.69 68.2468 121.428 68.7799 121.244C68.9843 121.755 69.3932 122.287 69.3523 122.777C69.2502 124.667 69.6901 126.547 70.62 128.196C72.6646 131.712 74.7092 135.168 76.8765 138.766C78.2463 136.721 79.5344 134.82 80.6794 132.919C82.724 129.586 84.8912 126.335 84.6254 122.144C84.6254 121.203 85.4637 120.855 86.1793 121.53C86.9075 122.287 87.5902 123.085 88.2239 123.922C88.8271 122.571 89.0525 121.082 88.8761 119.613C88.6996 118.144 88.128 116.75 87.2221 115.58C84.2308 117.696 80.6631 118.845 76.9991 118.872C73.2679 118.813 69.6412 117.63 66.5921 115.478C65.7986 116.772 65.293 118.221 65.1095 119.728C64.926 121.234 65.069 122.762 65.5289 124.209ZM99.7554 129.32C102.269 127.182 104.025 124.29 104.762 121.074C105.498 117.858 105.177 114.489 103.845 111.471C103.065 109.877 102.198 108.328 101.248 106.83C99.8 104.45 98.9836 101.741 98.8761 98.958C98.7109 97.0613 98.0634 95.2384 96.9951 93.6625C96.7293 94.7461 96.484 95.4413 96.3818 96.1773C96.1978 97.6494 96.0955 99.142 95.9319 100.635C95.8897 102.404 95.3795 104.131 94.4529 105.64C93.5263 107.148 92.2165 108.384 90.657 109.222C90.235 109.507 89.8742 109.873 89.5957 110.299C89.3172 110.726 89.1267 111.203 89.0353 111.704C88.9439 112.205 88.9534 112.719 89.0634 113.216C89.1733 113.713 89.3814 114.183 89.6755 114.599C91.1549 116.181 92.718 117.682 94.3576 119.097C95.9015 120.348 97.1758 121.899 98.1035 123.656C99.0313 125.413 99.5932 127.34 99.7554 129.32V129.32ZM54.0179 129.177C54.1362 128.746 54.2317 128.309 54.3042 127.868C54.8383 124.82 56.3616 122.032 58.6387 119.935C60.3766 118.279 62.2576 116.766 63.8933 115.028C64.3214 114.595 64.6398 114.066 64.8221 113.485C65.0044 112.904 65.0452 112.288 64.9412 111.688C64.8371 111.088 64.5913 110.521 64.2241 110.035C63.8569 109.55 63.3791 109.158 62.8302 108.895C61.7391 108.3 60.7889 107.477 60.0445 106.482C59.3 105.487 58.7787 104.343 58.516 103.129C58.148 101.391 57.9845 99.5918 57.78 97.813C57.7613 96.3265 57.3447 94.8721 56.5736 93.6012C55.9095 95.0789 55.4223 96.6299 55.1221 98.2219C54.9612 101.298 54.0862 104.294 52.5663 106.973C51.7076 108.465 50.8079 109.937 50.0923 111.491C48.7689 114.468 48.436 117.791 49.1427 120.971C49.8494 124.151 51.5583 127.02 54.0179 129.156V129.177ZM105.541 77.4694C110.408 84.0938 116.214 88.5306 124.883 87.6923C129.545 87.2834 134.023 87.8354 137.437 91.7815C137.152 89.757 136.404 87.8258 135.249 86.1384C134.223 84.1685 132.727 82.4816 130.894 81.2265C129.061 79.9714 126.948 79.1866 124.74 78.9415C123.861 78.9415 122.961 78.6552 122.082 78.5735C116.725 78.361 111.581 76.4168 107.423 73.0326C107.423 73.0326 107.157 73.0326 106.973 73.0326C106.502 74.5047 106.032 75.9155 105.541 77.4489V77.4694ZM16.4589 91.9041C16.9905 91.4543 17.4403 91.0863 17.8697 90.6978C19.9165 88.787 22.614 87.727 25.4142 87.7332C27.4588 87.7332 29.3194 87.7332 31.2618 87.7332C32.537 87.7471 33.8106 87.6375 35.0647 87.4061C40.6873 86.2406 44.5107 82.4991 47.8638 78.1441C48.0039 77.9402 48.1014 77.7103 48.1506 77.4679C48.1998 77.2255 48.1995 76.9756 48.15 76.7333C47.8024 75.4657 47.2913 74.2389 46.8415 72.9508C40.4829 77.2649 38.9493 77.817 31.1799 78.7166C30.1372 78.8392 29.1354 78.9824 28.0722 79.1868C25.1056 79.9399 22.4246 81.5458 20.3606 83.8059C18.2967 86.0661 16.9402 88.8815 16.4589 91.9041V91.9041ZM75.118 41.8527C74.934 41.3824 74.8114 40.8917 74.5865 40.4419C73.094 37.5182 71.581 34.5944 70.0884 31.6502C68.4615 28.3923 65.6537 25.8771 62.2372 24.6168C60.3562 23.8808 58.4547 23.1856 56.5941 22.4496C52.7633 21.0283 49.4113 18.5551 46.9233 15.314C46.7271 14.9938 46.5562 14.6589 46.4121 14.3121C45.1928 17.4134 45.1928 20.8613 46.4121 23.9626C56.0217 24.7804 61.0922 30.9346 64.0569 39.5423C67.8735 39.4413 71.6609 40.2324 75.118 41.8527V41.8527ZM107.463 23.9626C108.083 22.5009 108.402 20.9295 108.402 19.3418C108.402 17.7542 108.083 16.1828 107.463 14.7211C104.172 19.5258 99.2851 21.9384 94.0714 23.7172C92.595 24.2443 91.154 24.8658 89.7573 25.5778C87.6365 26.5899 85.8798 28.2322 84.7276 30.2803C82.867 33.6948 81.1087 37.1502 79.3299 40.5033C79.1566 40.9505 79.0399 41.4175 78.9823 41.8936C80.7589 41.1545 82.5745 40.5129 84.421 39.9717C86.2213 39.6681 88.0368 39.4633 89.8595 39.3583C92.8242 30.771 98.0378 24.8009 107.463 23.9626V23.9626ZM70.4564 16.3363C70.1906 19.1987 69.8635 21.55 69.8022 23.9012C69.7244 25.2954 69.9475 26.6901 70.4564 27.9904C72.501 32.3045 74.6887 36.4959 76.9173 40.8917C77.1328 40.6325 77.3309 40.3593 77.5103 40.0739C79.0028 37.1297 80.2704 34.0628 82.0083 31.3026C84.932 26.6001 84.2983 21.7544 83.276 16.3772C81.3629 17.9222 79.6093 19.6552 78.0418 21.55C77.1217 22.9198 76.8151 22.9198 75.8542 21.55C74.2689 19.6034 72.4568 17.8531 70.4564 16.3363V16.3363ZM115.253 57.228L115.355 57.4733C115.837 57.4177 116.31 57.3079 116.766 57.1462C119.404 55.899 122.062 54.6927 124.638 53.3433C127.214 51.9938 129.545 50.4604 132.101 49.2541C132.652 49.0445 133.12 48.6627 133.437 48.1654C133.754 47.6681 133.902 47.0819 133.859 46.4939C133.923 44.0197 133.514 41.5561 132.653 39.2356C131.123 35.3094 131 30.9747 132.305 26.9681C132.346 26.7245 132.346 26.4757 132.305 26.2321L131.876 26.0072C130.863 27.0602 129.914 28.1731 129.034 29.3398C127.386 31.9991 126.56 35.0864 126.662 38.2133C126.705 41.8768 125.782 45.4869 123.988 48.6811C122.194 51.8752 119.59 54.5409 116.439 56.4101L115.253 57.228ZM38.3155 57.7596C38.4177 57.6165 38.4995 57.4529 38.6018 57.2893L36.9252 56.2261C34.6017 54.7627 32.5967 52.8462 31.03 50.591C29.4633 48.3358 28.367 45.7881 27.8064 43.0999C27.4182 41.1192 27.2128 39.1071 27.193 37.0888C27.1454 34.1675 26.2427 31.3242 24.5964 28.9105C23.7795 27.6141 22.6089 26.5784 21.2228 25.9254C22.9586 30.2913 22.9586 35.1559 21.2228 39.5219C20.8923 40.2801 20.6588 41.0769 20.5277 41.8936C20.3061 43.739 20.1968 45.5962 20.2005 47.4549C20.2412 47.7721 20.3523 48.0763 20.5256 48.3452C20.6989 48.614 20.9301 48.8407 21.2023 49.0088C25.1075 51.2373 29.0331 53.4251 32.9996 55.5105C34.6557 56.2466 36.5367 56.9008 38.3155 57.7596ZM95.9933 40.2579C96.2182 39.6854 96.3613 39.3583 96.484 39.0107C97.0228 37.2888 97.9035 35.6932 99.0734 34.3196C100.243 32.9459 101.678 31.8225 103.292 31.0164C104.683 30.3008 106.175 29.8101 107.607 29.1558C110.203 27.9904 112.8 26.8454 115.335 25.5778C116.185 25.0584 116.985 24.463 117.727 23.799C115.928 24.1057 114.354 24.76 112.718 25.1075C110.952 25.4241 109.171 25.6493 107.382 25.7823C99.5304 26.5388 94.8892 31.2617 92.0677 38.2133C91.9141 38.6874 91.7978 39.1728 91.7201 39.665L95.9933 40.2579ZM62.2781 39.6854C62.2048 39.2919 62.1092 38.9028 61.9918 38.52C58.8841 30.3417 53.5068 26.0685 45.3284 25.68C42.7006 25.5763 40.1118 25.0087 37.6817 24.0035C37.3785 23.8944 37.0624 23.8257 36.7413 23.799C37.3541 24.663 38.168 25.3648 39.1129 25.8436C41.9753 27.1726 44.8377 28.4607 47.7615 29.6056C50.0965 30.3311 52.2206 31.6125 53.9514 33.3397C55.6821 35.0669 56.9679 37.1883 57.6983 39.5219C57.8088 39.7597 57.9534 39.9801 58.1275 40.1761L62.2781 39.6854ZM120.528 111.021C120.876 110.612 121.08 110.469 121.142 110.265C122.373 106.898 122.781 103.286 122.333 99.7292C121.885 96.1726 120.593 92.7747 118.565 89.8187C118.155 89.3055 117.599 88.9278 116.971 88.735C114.457 87.9595 112.141 86.6481 110.183 84.8912C108.281 83.2147 106.502 81.395 104.683 79.6366C103.313 81.3132 103.19 81.5177 104.54 82.9489C106.246 84.7237 108.055 86.3963 109.958 87.9581C111.818 89.4915 113.883 90.7387 115.724 92.2722C117.551 93.7795 118.992 95.7012 119.927 97.8775C120.862 100.054 121.265 102.422 121.101 104.785C121.019 106.83 120.733 108.731 120.528 111.021ZM49.3563 79.4117L47.7411 81.211C44.8613 84.6971 41.0974 87.3452 36.8435 88.8782C36.1658 89.1272 35.5903 89.5948 35.2078 90.2071C32.1691 94.8333 30.9257 100.41 31.7115 105.889C31.7771 107.708 32.3978 109.463 33.4903 110.919C33.3063 109.712 33.2245 108.874 33.1018 108.24C32.3381 104.802 32.6779 101.211 34.0727 97.9772C35.4676 94.7433 37.8465 92.0316 40.8712 90.2276C42.2343 89.328 43.5973 88.3875 44.9604 87.4061C47.1767 85.8057 49.0706 83.8009 50.5422 81.4972L49.3563 79.4117ZM33.2245 89.4711C31.4457 89.4711 29.7896 89.4711 28.154 89.4711C27.6362 89.4228 27.1149 89.5106 26.6415 89.7258C26.1681 89.9409 25.7592 90.276 25.4551 90.6978C23.508 93.2738 22.4336 96.4039 22.3882 99.6327C22.4024 100.042 22.4711 100.448 22.5926 100.839L29.8101 98.6513C30.9142 95.6866 32.0386 92.7015 33.2245 89.4711V89.4711ZM131.549 100.9C131.717 99.0231 131.503 97.1312 130.92 95.339C130.336 93.5468 129.396 91.8914 128.155 90.4729C127.724 89.9714 127.116 89.6563 126.458 89.5938C124.556 89.4711 122.655 89.5938 120.712 89.5938C121.912 92.8651 123.043 95.9184 124.106 98.7535L131.549 100.9ZM111.9 116.316C110.643 113.719 110.126 110.826 110.408 107.954C106.858 106.345 103.687 104.004 101.105 101.084C101.247 102.812 101.816 104.477 102.761 105.93C103.937 107.667 104.924 109.524 105.705 111.471C106.707 114.619 109.242 115.396 111.9 116.316V116.316ZM42.3843 116.153C43.4477 116.002 44.4685 115.634 45.3832 115.071C46.2979 114.509 47.0867 113.763 47.7002 112.882C48.8861 110.469 50.1127 108.077 51.3395 105.685C52.2496 104.293 52.772 102.684 52.8526 101.023C50.4316 103.866 47.4259 106.153 44.0404 107.729C43.3862 110.919 42.8341 113.515 42.3434 116.153H42.3843ZM135.74 47.5366C137.417 47.2504 137.601 47.0255 137.785 45.2672C138.521 40.033 135.392 36.1892 133.123 32.0387C133.032 34.2024 133.395 36.3612 134.186 38.3769C135.217 41.0256 135.69 43.8585 135.576 46.6984C135.602 46.9827 135.656 47.2637 135.74 47.5366V47.5366ZM18.2991 47.5366C18.1177 44.2807 18.6407 41.0239 19.8325 37.9884C20.2423 36.7898 20.5501 35.5587 20.7526 34.3082C20.817 33.4165 20.817 32.5214 20.7526 31.6298C19.5463 33.8788 18.5648 35.7189 17.6448 37.4159C16.146 40.0415 15.6451 43.1197 16.234 46.085C16.245 46.3285 16.3116 46.5663 16.4288 46.78C16.546 46.9937 16.7106 47.1778 16.91 47.3179C17.1094 47.4581 17.3383 47.5507 17.5791 47.5886C17.8199 47.6266 18.0662 47.6088 18.2991 47.5366V47.5366Z" fill="#985BE7"/>
<path d="M78.0006 105.439V107.934C76.0786 108.506 75.956 108.404 75.956 106.727C75.956 106.216 75.956 105.705 75.956 105.399C73.8092 104.356 71.8668 103.354 69.9449 102.454C69.3736 102.162 68.8862 101.729 68.5285 101.196C68.1708 100.663 67.9546 100.047 67.9003 99.4079C67.7615 99.0722 67.7145 98.7056 67.7644 98.3457C67.8143 97.9859 67.9591 97.6459 68.184 97.3606C68.4088 97.0753 68.7057 96.8551 69.0439 96.7226C69.3821 96.5901 69.7497 96.5501 70.1085 96.6068C70.7925 96.5618 71.4794 96.603 72.1531 96.7295C75.3307 97.3021 78.5849 97.3021 81.7625 96.7295H82.4373C83.8071 96.7295 85.218 96.4841 85.954 97.9971C86.1465 98.7537 86.1026 99.5512 85.8285 100.282C85.5544 101.013 85.0631 101.643 84.4206 102.086C82.4578 103.272 80.4132 104.192 78.0006 105.439ZM84.1343 98.406C81.7626 98.5491 79.3908 98.8149 77.0191 98.8149C74.6474 98.8149 72.1939 98.5696 69.1884 98.3856C69.6006 99.2532 70.1229 100.064 70.7423 100.798C72.5072 102.226 74.7084 103.004 76.9783 103.004C79.2482 103.004 81.4493 102.226 83.2142 100.798C83.61 100.558 83.9125 100.19 84.0722 99.7559C84.2319 99.3213 84.2393 98.8454 84.0934 98.406H84.1343Z" fill="#985BE7"/>
<path d="M64.2614 71.8467C61.8816 71.6783 59.61 70.7873 57.7503 69.293C55.8906 67.7986 54.5314 65.7721 53.8546 63.4844C53.78 63.2919 53.7562 63.0836 53.7852 62.8793C53.8142 62.675 53.895 62.4815 54.0202 62.3174C54.1453 62.1533 54.3105 62.024 54.4999 61.942C54.6892 61.8599 54.8964 61.8278 55.1017 61.8487C57.5361 61.89 59.9156 62.5783 61.996 63.8431C64.0764 65.1079 65.7827 66.9035 66.9398 69.0457C67.635 70.7222 67.3079 71.3765 65.57 71.765C65.1357 71.8173 64.6988 71.8446 64.2614 71.8467V71.8467ZM56.0831 63.9137C56.6774 65.8355 57.9291 67.4869 59.6188 68.5785C61.3085 69.67 63.3284 70.1322 65.3247 69.8839C64.5865 68.0568 63.3032 66.5015 61.6497 65.4296C59.9961 64.3577 58.0524 63.8212 56.0831 63.8933V63.9137Z" fill="#985BE7"/>
<path d="M89.5526 71.8466C89.0918 71.7906 88.6345 71.7087 88.1828 71.6013C86.6494 71.1719 86.3835 70.6403 86.9969 69.1478C87.8781 67.0694 89.3864 65.3182 91.3111 64.1386C93.5051 62.8554 95.9557 62.0734 98.4875 61.8486C99.8573 61.6646 100.532 62.4007 99.9801 63.7501C99.2671 65.9973 97.8882 67.9748 96.0261 69.4207C94.1639 70.8666 91.9064 71.7126 89.5526 71.8466ZM88.7349 69.8021C90.6859 70.0443 92.6597 69.5879 94.3064 68.5138C95.9531 67.4397 97.1663 65.8173 97.731 63.9341C95.7973 63.8591 93.889 64.393 92.275 65.4605C90.6609 66.5279 89.4227 68.0751 88.7349 69.8838V69.8021Z" fill="#985BE7"/>
<path d="M54.2021 45.6148C53.0571 46.7188 52.6073 45.8601 51.9939 45.6148C49.7857 44.4289 47.5367 43.243 45.2673 42.1594C44.4325 41.8811 43.5678 41.7027 42.6911 41.6278C42.6911 42.7319 42.6911 43.6724 42.4662 44.4698C42.4662 44.7765 42.0777 45.0218 41.8528 45.3081C41.5461 45.0423 40.9532 44.7969 40.9532 44.5516C40.9182 43.3027 41.0279 42.054 41.2803 40.8304C41.2803 40.442 42.139 40.1148 42.6706 39.9717C43.1911 39.8915 43.7231 39.9335 44.2245 40.0944C47.2936 40.7885 50.1749 42.142 52.6686 44.0609C53.2308 44.5259 53.7445 45.0465 54.2021 45.6148V45.6148Z" fill="#985BE7"/>
<path d="M99.8372 45.7578C100.178 45.1592 100.597 44.609 101.084 44.1221C103.672 42.0926 106.695 40.6927 109.917 40.033C110.919 39.849 112.084 39.5423 112.677 40.7895C112.99 41.4218 113.165 42.1136 113.189 42.8186C113.214 43.5237 113.088 44.226 112.82 44.8786C112.743 44.9957 112.636 45.0898 112.51 45.151C112.384 45.2121 112.244 45.2381 112.105 45.2262C111.947 45.1523 111.806 45.0472 111.69 44.9171C111.574 44.7871 111.485 44.6349 111.43 44.4697C111.287 43.611 111.287 42.7114 111.205 41.5255C109.992 41.7174 108.801 42.0255 107.647 42.4456C105.603 43.4065 103.742 44.4902 101.8 45.676C101.33 45.9418 100.859 46.1667 100.389 46.4121L99.8372 45.7578Z" fill="#985BE7"/>
<path d="M131.078 11.5928C131.116 11.0008 131.016 10.4082 130.785 9.86171C130.555 9.31523 130.2 8.82991 129.749 8.44414C128.852 7.64308 127.802 7.03115 126.662 6.6449C126.447 6.58229 126.235 6.50719 126.028 6.42C125.939 6.38612 125.862 6.32593 125.808 6.24742C125.754 6.16891 125.725 6.07579 125.725 5.98041C125.725 5.88503 125.754 5.79191 125.808 5.7134C125.862 5.63489 125.939 5.5747 126.028 5.54082C126.27 5.43927 126.525 5.37051 126.785 5.33637C127.298 5.25482 127.804 5.13174 128.298 4.96834C129.039 4.74648 129.692 4.29773 130.166 3.68524C130.639 3.07275 130.908 2.32734 130.935 1.55389C130.894 1.18019 130.894 0.803061 130.935 0.429361C130.978 0.31695 131.049 0.217888 131.143 0.142407C131.236 0.0669256 131.348 0.0177645 131.467 0C131.63 0 131.896 0.265795 131.958 0.470254C132.038 0.909149 132.085 1.35334 132.101 1.79923C132.177 2.56936 132.492 3.29637 133.002 3.87905C133.511 4.46173 134.19 4.87109 134.943 5.05013C135.405 5.18366 135.877 5.28612 136.353 5.35681C136.742 5.35681 137.253 5.35681 137.294 5.97019C137.335 6.58356 136.824 6.46089 136.496 6.62446C135.605 7.00712 134.738 7.44412 133.9 7.93299C133.228 8.29625 132.677 8.84757 132.314 9.51941C131.951 10.1913 131.791 10.9544 131.855 11.7155C131.865 11.8311 131.865 11.9474 131.855 12.0631C131.855 12.4106 131.671 12.6969 131.324 12.6151C130.976 12.5333 130.915 12.288 130.772 12.0426C130.629 11.7973 131.058 11.7155 131.078 11.5928ZM128.482 6.11331L131.589 8.83261C132.591 7.93299 133.634 7.03337 134.677 6.13376C134.108 5.83202 133.562 5.49041 133.041 5.11146C132.525 4.63971 132.034 4.14153 131.569 3.61892C130.803 4.73113 129.73 5.5975 128.482 6.11331V6.11331Z" fill="#985BE7"/>
<path d="M149.622 78.4303C149.254 78.0009 149.03 77.8373 148.968 77.6329C148.907 77.4284 148.968 76.9582 148.968 76.631C148.811 75.6774 148.593 74.735 148.314 73.8095C147.997 73.0355 147.387 72.4182 146.617 72.092C146.316 71.9513 146.022 71.7943 145.738 71.6218C145.063 71.172 145.063 70.6813 145.738 70.211C146.241 69.8918 146.726 69.5436 147.189 69.1683C147.789 68.6724 148.269 68.0466 148.591 67.3381C148.913 66.6297 149.07 65.8572 149.05 65.0791C149.03 64.8205 149.03 64.5607 149.05 64.3022C149.05 63.9341 149.214 63.5661 149.643 63.6683C150.072 63.7706 150.011 64.0364 150.134 64.2817C150.165 64.4644 150.165 64.651 150.134 64.8338C150.111 65.81 150.342 66.7753 150.805 67.6354C151.267 68.4955 151.945 69.2209 152.771 69.7408C152.955 69.8839 153.16 69.9861 153.344 70.1088C154.182 70.6608 154.202 71.2742 153.344 71.6627C152.341 72.0971 151.501 72.8369 150.943 73.7767C150.385 74.7164 150.137 75.8083 150.236 76.8968C150.267 77.1549 150.267 77.4157 150.236 77.6738C150.066 77.9523 149.86 78.2067 149.622 78.4303V78.4303ZM149.398 73.7686C149.803 73.1682 150.247 72.5945 150.727 72.0511C151.172 71.6438 151.651 71.2744 152.158 70.9471L149.479 67.9824L146.781 71.0697C147.954 71.619 148.885 72.5792 149.398 73.7686V73.7686Z" fill="#985BE7"/>
<path d="M18.0947 123.534L19.7099 125.251C19.9799 125.499 20.2078 125.789 20.3846 126.11C20.4294 126.247 20.4416 126.392 20.4203 126.534C20.399 126.676 20.3448 126.811 20.2619 126.928C20.137 126.998 19.9962 127.034 19.853 127.034C19.7098 127.034 19.569 126.998 19.4441 126.928C18.8511 126.417 18.34 125.824 17.7675 125.251L16.9293 124.495C16.8472 124.872 16.7925 125.255 16.7657 125.64C16.7657 128.175 16.7657 130.71 16.7657 133.225C16.7657 133.839 16.9496 134.595 16.0704 134.779C15.498 134.902 15.1913 134.391 15.1913 133.246C15.1913 130.935 15.1913 128.605 15.1913 126.294C15.2243 125.706 15.1193 125.117 14.8847 124.577L13.2898 126.192C13.0497 126.47 12.7825 126.723 12.4924 126.948C12.3663 127.015 12.2261 127.049 12.0836 127.049C11.9411 127.049 11.8008 127.015 11.6747 126.948C11.6084 126.826 11.5737 126.689 11.5737 126.55C11.5737 126.411 11.6084 126.273 11.6747 126.151C11.9686 125.717 12.3041 125.313 12.6765 124.945L14.2099 123.186H9.13939C8.67004 123.228 8.19798 123.228 7.72863 123.186C7.58789 123.15 7.46317 123.068 7.37409 122.954C7.28501 122.839 7.23657 122.698 7.23657 122.553C7.23657 122.407 7.28501 122.266 7.37409 122.151C7.46317 122.037 7.58789 121.955 7.72863 121.919C8.18997 121.856 8.65758 121.856 9.11893 121.919H13.8215L13.9441 121.592C13.1058 120.733 12.2676 119.915 11.4498 119.056C11.0204 118.627 10.3048 118.116 10.9386 117.502C11.5725 116.889 12.0631 117.502 12.4924 118.034C13.3103 118.811 14.1282 119.629 15.13 120.631C15.13 119.956 15.2732 119.567 15.2732 119.179C15.2732 116.971 15.2732 114.763 15.2732 112.534C15.2732 111.859 15.0278 110.96 16.0296 110.714C16.6021 110.571 16.8474 111.144 16.8474 112.616V120.631C17.6696 120.026 18.4299 119.341 19.117 118.586C19.4214 118.223 19.7642 117.894 20.1393 117.605C20.3126 117.526 20.5007 117.485 20.6912 117.485C20.8817 117.485 21.07 117.526 21.2433 117.605C21.6931 117.891 21.4682 118.361 21.2433 118.668C20.4868 119.465 19.6894 120.242 18.9124 121.019C18.6875 121.244 18.5035 121.489 18.1355 121.939H21.9589C22.6336 121.939 23.3287 121.939 24.0034 121.939C24.6782 121.939 25.0257 121.939 25.0257 122.655C25.0257 123.37 24.4941 123.329 24.0034 123.329C22.6336 123.329 21.2637 123.329 19.9143 123.329C19.4236 123.329 18.9124 123.329 18.4013 123.329L18.0947 123.534Z" fill="#985BE7"/>
<path d="M5.58196 102.454C5.58196 102.681 5.51472 102.902 5.38891 103.09C5.2631 103.279 5.08435 103.425 4.87514 103.512C4.66592 103.599 4.43572 103.621 4.21362 103.577C3.99152 103.533 3.78747 103.424 3.62735 103.264C3.46722 103.104 3.35818 102.9 3.314 102.678C3.26982 102.455 3.29248 102.225 3.37914 102.016C3.4658 101.807 3.61252 101.628 3.80081 101.502C3.9891 101.376 4.21042 101.309 4.43687 101.309C4.74054 101.309 5.0318 101.43 5.24652 101.645C5.46124 101.859 5.58196 102.151 5.58196 102.454V102.454Z" fill="#985BE7"/>
<path d="M26.0074 131.365C26.002 131.67 25.8768 131.961 25.6588 132.176C25.4408 132.39 25.1475 132.51 24.8419 132.51C24.5383 132.51 24.247 132.389 24.0323 132.174C23.8176 131.96 23.697 131.668 23.697 131.365C23.697 131.061 23.8176 130.77 24.0323 130.555C24.247 130.34 24.5383 130.22 24.8419 130.22C25.1475 130.22 25.4408 130.34 25.6588 130.554C25.8768 130.768 26.002 131.059 26.0074 131.365V131.365Z" fill="#985BE7"/>
<path d="M3.29218 135.904C3.92453 135.904 4.43714 135.391 4.43714 134.759C4.43714 134.126 3.92453 133.614 3.29218 133.614C2.65983 133.614 2.14722 134.126 2.14722 134.759C2.14722 135.391 2.65983 135.904 3.29218 135.904Z" fill="#985BE7"/>
<path d="M20.0779 6.21552C20.0779 6.44197 20.0108 6.66334 19.8849 6.85163C19.7591 7.03992 19.5803 7.18667 19.371 7.27333C19.1618 7.35999 18.9316 7.38267 18.7095 7.33849C18.4874 7.29431 18.2834 7.18525 18.1233 7.02513C17.9631 6.865 17.8541 6.66099 17.8099 6.43889C17.7657 6.21679 17.7884 5.98658 17.875 5.77736C17.9617 5.56815 18.1086 5.38932 18.2968 5.26351C18.4851 5.1377 18.7065 5.07055 18.9329 5.07055C19.2366 5.07055 19.5278 5.19118 19.7426 5.4059C19.9573 5.62063 20.0779 5.91186 20.0779 6.21552V6.21552Z" fill="#985BE7"/>
<path d="M155 87.9172C155 88.2209 154.879 88.5121 154.665 88.7268C154.45 88.9415 154.159 89.0621 153.855 89.0621C153.551 89.0621 153.26 88.9415 153.045 88.7268C152.831 88.5121 152.71 88.2209 152.71 87.9172C152.71 87.6135 152.831 87.3223 153.045 87.1076C153.26 86.8928 153.551 86.7722 153.855 86.7722C154.159 86.7722 154.45 86.8928 154.665 87.1076C154.879 87.3223 155 87.6135 155 87.9172Z" fill="#985BE7"/>
<path d="M123.432 125.354C124.064 125.354 124.577 124.841 124.577 124.209C124.577 123.576 124.064 123.064 123.432 123.064C122.799 123.064 122.287 123.576 122.287 124.209C122.287 124.841 122.799 125.354 123.432 125.354Z" fill="#985BE7"/>
<path d="M140.402 114.067C140.402 114.294 140.334 114.515 140.209 114.703C140.083 114.892 139.904 115.039 139.695 115.125C139.486 115.212 139.255 115.235 139.033 115.19C138.811 115.146 138.607 115.037 138.447 114.877C138.287 114.717 138.178 114.513 138.134 114.291C138.09 114.069 138.112 113.838 138.199 113.629C138.286 113.42 138.432 113.241 138.621 113.115C138.809 112.99 139.03 112.922 139.257 112.922C139.56 112.922 139.852 113.043 140.066 113.258C140.281 113.472 140.402 113.764 140.402 114.067V114.067Z" fill="#985BE7"/>
<path d="M140.402 130.404C140.402 130.63 140.334 130.851 140.209 131.04C140.083 131.228 139.904 131.375 139.695 131.461C139.486 131.548 139.255 131.571 139.033 131.527C138.811 131.482 138.607 131.373 138.447 131.213C138.287 131.053 138.178 130.849 138.134 130.627C138.09 130.405 138.112 130.175 138.199 129.965C138.286 129.756 138.432 129.577 138.621 129.452C138.809 129.326 139.03 129.259 139.257 129.259C139.56 129.259 139.852 129.379 140.066 129.594C140.281 129.809 140.402 130.1 140.402 130.404V130.404Z" fill="#985BE7"/>
<circle cx="112" cy="133" r="18" fill="#8840E3"/>
<path d="M111.625 148.25C108.536 148.25 105.517 147.335 102.948 145.619C100.38 143.904 98.377 141.466 97.1932 138.614C96.0094 135.761 95.6977 132.621 96.2973 129.591C96.897 126.562 98.3811 123.777 100.562 121.591C102.744 119.404 105.524 117.913 108.552 117.305C111.581 116.698 114.721 117.001 117.577 118.178C120.432 119.354 122.876 121.351 124.597 123.915C126.319 126.479 127.242 129.496 127.25 132.585C127.253 134.64 126.852 136.675 126.068 138.575C125.285 140.474 124.135 142.201 122.684 143.655C121.233 145.11 119.509 146.265 117.612 147.053C115.714 147.842 113.68 148.248 111.625 148.25V148.25ZM111.625 118.227C108.772 118.224 105.982 119.068 103.609 120.653C101.236 122.237 99.3869 124.49 98.2956 127.126C97.2044 129.763 96.9202 132.663 97.4792 135.461C98.0381 138.259 99.4149 140.828 101.435 142.843C103.456 144.858 106.028 146.228 108.828 146.779C111.627 147.33 114.527 147.038 117.161 145.939C119.794 144.84 122.042 142.985 123.62 140.608C125.197 138.23 126.034 135.438 126.023 132.585C126.009 128.774 124.487 125.124 121.788 122.433C119.09 119.743 115.436 118.23 111.625 118.227V118.227Z" fill="white"/>
<path d="M117.611 138.278C117.568 138.209 117.51 138.151 117.44 138.109C117.371 138.067 117.292 138.043 117.211 138.038C116.704 137.971 116.611 138.384 116.571 138.571V138.704L116.358 139.264C116.215 139.7 116.027 140.12 115.798 140.518C115.698 140.697 115.563 140.853 115.399 140.977C115.235 141.101 115.047 141.189 114.848 141.235C114.648 141.281 114.44 141.286 114.239 141.247C114.038 141.208 113.846 141.128 113.678 141.011C113.391 140.849 113.142 140.627 112.948 140.36C112.755 140.093 112.622 139.788 112.558 139.464C112.418 138.792 112.418 138.097 112.558 137.425C112.831 136.091 113.279 134.8 113.891 133.585L114.051 133.252C114.518 132.252 115.011 131.225 115.385 130.185C115.914 128.921 116.146 127.553 116.065 126.186C116.046 125.175 115.7 124.197 115.078 123.399C114.729 122.905 114.258 122.51 113.712 122.251C113.166 121.991 112.562 121.877 111.958 121.919C111.047 122.002 110.182 122.362 109.482 122.951C108.781 123.54 108.277 124.329 108.039 125.212C107.782 126.179 107.755 127.193 107.959 128.172C108.105 129.025 108.279 129.892 108.465 130.839L108.625 131.665C108.507 131.632 108.387 131.605 108.265 131.585C107.612 131.424 106.929 131.419 106.273 131.572C105.617 131.725 105.007 132.031 104.492 132.465C103.956 132.884 103.576 133.471 103.413 134.132C103.249 134.78 103.289 135.464 103.527 136.089C103.766 136.714 104.191 137.25 104.746 137.624C105.33 137.981 106.006 138.16 106.69 138.139C107.374 138.118 108.038 137.897 108.599 137.504C109.393 136.923 109.97 136.093 110.238 135.146C110.506 134.199 110.45 133.19 110.078 132.278C109.445 130.647 109.059 128.931 108.932 127.186C108.824 126.488 108.923 125.774 109.217 125.131C109.511 124.489 109.987 123.947 110.585 123.573C110.9 123.354 111.258 123.205 111.634 123.133C112.011 123.062 112.398 123.071 112.771 123.159C113.121 123.258 113.447 123.427 113.729 123.657C114.011 123.886 114.243 124.17 114.411 124.493C114.667 125.001 114.825 125.553 114.878 126.119C114.997 127.3 114.819 128.492 114.358 129.585C114.118 130.185 113.838 130.785 113.571 131.358C113.305 131.932 113.131 132.318 112.931 132.798C112.438 133.958 111.958 135.091 111.518 136.251C111.213 137.221 111.149 138.251 111.332 139.251C111.416 140.178 111.861 141.036 112.572 141.637C113.103 142.106 113.783 142.371 114.491 142.384C114.651 142.404 114.812 142.404 114.971 142.384C115.381 142.3 115.767 142.125 116.099 141.871C116.432 141.617 116.702 141.291 116.891 140.917C117.158 140.395 117.381 139.851 117.558 139.291V139.078C117.631 138.959 117.675 138.824 117.684 138.684C117.693 138.545 117.668 138.405 117.611 138.278V138.278ZM109.319 133.838C109.32 134.356 109.2 134.867 108.968 135.329C108.737 135.792 108.4 136.195 107.985 136.505C107.688 136.716 107.343 136.85 106.981 136.895C106.62 136.94 106.252 136.894 105.913 136.762C105.573 136.63 105.271 136.415 105.035 136.138C104.799 135.86 104.635 135.528 104.559 135.171C104.487 134.904 104.479 134.622 104.537 134.351C104.595 134.08 104.717 133.826 104.892 133.612C105.184 133.239 105.556 132.938 105.981 132.73C106.406 132.523 106.872 132.414 107.345 132.412C107.974 132.424 108.59 132.584 109.145 132.878C109.332 132.985 109.359 133.145 109.359 133.478C109.357 133.599 109.343 133.72 109.319 133.838V133.838Z" fill="white"/>
</svg>
