<svg width="151" height="151" viewBox="0 0 151 151" fill="none" xmlns="http://www.w3.org/2000/svg">
<circle cx="81" cy="73.0001" r="67" fill="#F0E8FF"/>
<path d="M143.396 64.198C143.396 64.435 143.326 64.6666 143.194 64.8636C143.063 65.0607 142.875 65.2142 142.657 65.3049C142.438 65.3956 142.197 65.4193 141.964 65.3731C141.732 65.3269 141.518 65.2127 141.351 65.0452C141.183 64.8776 141.069 64.6642 141.023 64.4318C140.977 64.1994 141.001 63.9585 141.091 63.7396C141.182 63.5206 141.335 63.3335 141.532 63.2019C141.729 63.0702 141.961 63 142.198 63C142.516 63 142.821 63.1262 143.045 63.3509C143.27 63.5756 143.396 63.8803 143.396 64.198V64.198Z" fill="#985BE7"/>
<path d="M75.5472 52.58C74.5546 52.8646 73.5457 53.0888 72.5261 53.2513C71.7395 53.4143 70.9207 53.2965 70.212 52.9185C69.5032 52.5405 68.9494 51.926 68.6466 51.182C68.3438 50.438 68.3113 49.6115 68.5547 48.846C68.7981 48.0805 69.302 47.4244 69.9789 46.9919C70.3669 46.664 70.853 46.4744 71.3605 46.453C71.8681 46.4315 72.3684 46.5794 72.7828 46.8734C73.1511 47.1587 73.3926 47.5772 73.4554 48.0389C73.5182 48.5005 73.3972 48.9684 73.1184 49.3417C72.6445 49.9538 72.2101 49.7958 70.9661 48.3544C70.7292 49.1442 70.275 49.8748 70.4725 50.3289C70.6478 50.6122 70.8808 50.8553 71.1564 51.0425C71.432 51.2296 71.744 51.3565 72.0719 51.415C72.7312 51.4937 73.3996 51.3942 74.0074 51.1268C74.6151 50.8594 75.1401 50.4338 75.5274 49.8945C76.337 48.8283 75.7446 47.8015 75.2312 46.8537C74.7203 45.9324 73.9782 45.1602 73.0779 44.6131C72.1777 44.066 71.1504 43.763 70.0973 43.7339C68.1228 43.5364 66.1482 43.4377 64.3118 43.3784L42.0584 42.5294C41.5253 42.5294 40.9921 42.5294 40.301 42.5294V61.0311C40.6762 61.2483 41.1304 61.4853 41.5648 61.7815C42.3382 62.2444 42.9349 62.9523 43.2604 63.7929C43.5859 64.6334 43.6215 65.5586 43.3616 66.4217C43.205 66.8036 43.1517 67.22 43.2072 67.6291C43.2626 68.0381 43.4249 68.4253 43.6776 68.7517C47.1001 73.4512 50.4767 78.1704 53.8071 82.9094C54.0168 83.2763 54.3273 83.5755 54.7017 83.7714C55.0761 83.9674 55.4989 84.052 55.9199 84.0152C57.0041 83.9263 58.0937 83.9263 59.1779 84.0152C60.3824 84.0152 60.7576 84.6273 60.264 85.6738C59.4945 87.3671 58.6173 89.0094 57.6378 90.5905C57.3021 91.1236 56.4333 91.3606 55.4658 91.9529C55.367 92.5651 55.2485 93.6313 55.0511 94.6778C54.8358 96.0552 54.519 97.4148 54.1033 98.7454C53.8049 99.7604 53.2123 100.664 52.4004 101.342C51.5886 102.021 50.5939 102.443 49.542 102.556C42.4977 103.644 35.3405 103.797 28.2561 103.011C24.307 102.438 22.7866 100.602 22.4904 96.6919C22.3719 95.0728 22.2534 93.4734 22.1152 91.6765C20.1406 91.9332 19.1336 90.6497 18.1661 89.2675C17.1985 87.8853 16.6062 87.1547 15.8756 86.049C15.145 84.9432 15.4807 84.2718 16.7641 84.1929C18.3099 84.1138 19.8586 84.1138 21.4044 84.1929C21.8594 84.2384 22.3183 84.1596 22.7321 83.9648C23.1459 83.7701 23.4991 83.4668 23.7541 83.0871C27.3083 78.3086 30.9613 73.5894 34.5353 68.8307C34.9769 68.3217 35.2159 67.6681 35.2066 66.9943C34.9135 65.822 35.0588 64.583 35.6152 63.5103C36.1715 62.4376 37.1006 61.605 38.2277 61.1693V42.5886C37.6291 42.4556 37.0222 42.3632 36.4111 42.3122C31.0008 42.3122 25.5905 42.3122 20.1801 42.1344C18.8396 42.1219 17.5085 41.9089 16.231 41.5026C14.5706 41.0242 13.1397 39.9605 12.2031 38.5085C11.2666 37.0564 10.8877 35.3142 11.1366 33.6043C11.32 31.8589 12.0795 30.2243 13.2952 28.9585C14.5109 27.6928 16.1135 26.8679 17.8501 26.6143C18.7346 26.4836 19.6367 26.5409 20.4975 26.7825C21.3583 27.0241 22.1585 27.4445 22.8458 28.0163C23.3832 28.4899 23.7913 29.0924 24.0319 29.7671C24.2725 30.4418 24.3376 31.1666 24.2211 31.8734C24.1046 32.5802 23.8104 33.2458 23.366 33.8076C22.9217 34.3694 22.3418 34.8091 21.6808 35.0852C21.2213 35.3015 20.7056 35.3683 20.2062 35.2762C19.7068 35.1841 19.2488 34.9377 18.8967 34.5718C18.5807 34.2559 18.6005 33.6438 18.4623 33.1699C18.9129 33.0463 19.3773 32.98 19.8445 32.9724C20.1799 33.0578 20.4908 33.2201 20.7528 33.4463C21.3007 33.2777 21.7697 32.9176 22.0742 32.4318C22.3787 31.9461 22.4984 31.3671 22.4114 30.8004C22.2732 29.5169 21.2859 29.043 20.2196 28.6876C19.0023 28.3485 17.7058 28.4335 16.5432 28.9286C15.3806 29.4238 14.4209 30.2998 13.822 31.4125C13.1108 32.4917 12.8094 33.7899 12.9724 35.072C13.1354 36.3542 13.752 37.5356 14.7106 38.4025C15.6164 39.202 16.6993 39.7748 17.87 40.0735C19.0408 40.3721 20.2657 40.3882 21.4439 40.1204C27.4862 38.8575 32.9023 35.5352 36.7665 30.7214C38.4054 28.8456 39.9061 26.8908 41.5648 25.0347C44.7892 21.2403 48.9183 18.3201 53.5702 16.544C55.5524 15.9187 57.5994 15.5212 59.6716 15.3592C61.2907 15.142 62.278 16.0701 63.0876 17.551C64.3467 19.7609 65.7312 21.8969 67.2342 23.9486C67.738 24.6368 68.3517 25.2372 69.0508 25.7258C70.6305 26.9105 72.1509 28.4112 74.4414 27.1474C75.7895 26.5357 76.9338 25.5502 77.7388 24.3077C78.5437 23.0653 78.9755 21.6181 78.9829 20.1377C78.8848 19.3698 78.6001 18.6376 78.1536 18.0052C77.4309 16.9867 77.0427 15.7688 77.0427 14.52C77.0427 13.2713 77.4309 12.0534 78.1536 11.0349C78.2721 10.8375 78.3905 10.64 78.5288 10.4426C79.4902 9.35246 80.0173 7.94692 80.0097 6.49343C80.0097 6.11826 80.5428 5.7036 80.839 5.28894C81.1747 5.64436 81.846 6.03928 81.7868 6.33546C81.5301 8.31003 82.7741 9.67247 83.7614 11.1929C84.4371 12.1966 84.798 13.3792 84.798 14.5892C84.798 15.7992 84.4371 16.9817 83.7614 17.9854C83.0613 19.1921 82.7988 20.6033 83.0182 21.981C83.2377 23.3587 83.9255 24.6186 84.9659 25.548L85.1436 25.706C88.4609 28.115 89.0927 28.7271 92.8247 25.706C95.3732 23.6543 97.3518 20.9822 98.5707 17.9459C98.7824 17.0641 99.3305 16.3 100.098 15.8168C100.865 15.3335 101.791 15.1693 102.678 15.3592C104.893 15.6545 107.071 16.1841 109.174 16.9389C113.405 18.715 117.159 21.4612 120.133 24.9557C121.772 26.792 123.312 28.7468 124.911 30.6227C128.377 34.8555 133.002 37.9849 138.22 39.6268C140.27 40.368 142.502 40.444 144.598 39.844C145.807 39.5231 146.878 38.818 147.651 37.835C148.424 36.8519 148.856 35.6443 148.883 34.3941C148.852 33.0688 148.393 31.7891 147.574 30.7463C146.755 29.7035 145.621 28.9536 144.341 28.6086C143.443 28.4212 142.515 28.4212 141.616 28.6086C141.073 28.6548 140.558 28.8702 140.144 29.2244C139.729 29.5786 139.436 30.0538 139.306 30.5832C139.203 31.1484 139.301 31.7319 139.582 32.2329C139.863 32.7339 140.31 33.1211 140.846 33.3279C141.185 33.0982 141.558 32.9248 141.952 32.8145C142.347 32.8145 142.979 32.8145 143.117 33.0119C143.219 33.2034 143.272 33.417 143.272 33.6339C143.272 33.8509 143.219 34.0645 143.117 34.2559C142.755 34.7174 142.242 35.0372 141.669 35.1599C141.095 35.2825 140.497 35.2002 139.977 34.9273C139.291 34.6374 138.7 34.159 138.274 33.5475C137.848 32.936 137.603 32.2164 137.568 31.4718C137.445 30.7399 137.541 29.988 137.843 29.3101C138.145 28.6322 138.64 28.0585 139.267 27.6608C140.162 27.0441 141.193 26.6522 142.273 26.5182C143.352 26.3841 144.447 26.5119 145.467 26.8907C146.965 27.4554 148.262 28.4539 149.19 29.7587C150.119 31.0636 150.637 32.6155 150.68 34.2164C150.768 35.7396 150.359 37.2502 149.515 38.5212C148.671 39.7923 147.438 40.7554 146 41.2657C144.468 41.7929 142.861 42.0664 141.241 42.0752C135.614 42.2529 129.966 42.2727 124.319 42.3714C124.085 42.4278 123.86 42.5141 123.648 42.6281C123.292 48.6703 123.47 54.8507 123.411 61.0509C124.576 61.4767 125.545 62.3145 126.134 63.4059C126.723 64.4974 126.893 65.7669 126.61 66.9746C126.588 67.6462 126.805 68.3037 127.222 68.8307C130.835 73.6684 134.528 78.4469 138.161 83.2846C138.369 83.6111 138.664 83.873 139.013 84.0405C139.362 84.208 139.751 84.2745 140.135 84.2324C141.597 84.2324 143.078 84.2324 144.539 84.2324C145.111 84.2324 145.901 84.4298 146.138 84.8247C146.375 85.2196 146 85.9305 145.723 86.4044C145.072 87.4509 144.243 88.379 143.591 89.4452C143.267 90.1989 142.706 90.8263 141.994 91.2325C141.281 91.6388 140.455 91.8015 139.642 91.6962C139.642 92.802 139.642 93.7893 139.484 94.7766C139.326 95.7639 139.306 96.7511 139.227 97.7779C139.212 99.0019 138.754 100.179 137.937 101.09C137.12 102.002 135.999 102.586 134.784 102.734C131.746 103.262 128.667 103.527 125.583 103.524C121.397 103.524 117.23 103.07 113.084 102.754C111.671 102.701 110.32 102.158 109.264 101.218C108.208 100.277 107.513 98.9979 107.298 97.6002C106.864 95.6257 106.647 93.7893 106.291 91.6765C104.771 91.6765 104.02 90.63 103.428 89.307C102.836 87.984 102.303 87.3324 101.809 86.2267C101.039 84.6273 101.315 84.1139 103.033 83.9954C103.42 83.9461 103.811 83.9461 104.198 83.9954C106.508 84.4693 107.812 83.2846 109.075 81.4482C112.175 76.8474 115.513 72.3652 118.711 67.8829C117.941 64.7038 117.902 63.1439 121.555 60.9521V42.6281C121.052 42.5428 120.544 42.4966 120.034 42.4899C112.307 42.7663 104.58 43.0559 96.8528 43.3587C95.0702 43.4011 93.2908 43.5329 91.5214 43.7536C90.3893 43.8012 89.2946 44.1725 88.3672 44.8235C87.4397 45.4745 86.7184 46.3778 86.2888 47.4263C86.0041 47.8946 85.8936 48.4482 85.9766 48.9899C86.0597 49.5316 86.331 50.0267 86.743 50.3882C87.2618 50.8755 87.9067 51.2078 88.6047 51.3474C89.3027 51.487 90.0258 51.4283 90.6921 51.178C91.6202 50.6844 91.6597 50.2499 90.8698 48.7098C90.7514 48.7098 90.5144 48.7098 90.4947 48.7098C90.1985 49.2429 89.9418 50.092 89.2309 49.6378C88.9841 49.4298 88.792 49.1644 88.6715 48.8649C88.5511 48.5654 88.5058 48.241 88.5398 47.92C88.6978 46.5575 90.3367 46.0639 91.6597 46.8734C92.2388 47.2665 92.703 47.8064 93.0049 48.4379C93.3067 49.0693 93.4353 49.7696 93.3775 50.4671C93.2731 51.109 92.972 51.7026 92.5157 52.166C92.0594 52.6294 91.4705 52.9396 90.8303 53.0538C90.0707 53.1627 89.2995 53.1627 88.5398 53.0538C87.8095 52.9151 87.0902 52.7238 86.3876 52.4812C84.413 69.2256 84.6302 85.6145 89.5864 101.747C92.5877 102.339 95.5101 102.793 98.3337 103.504C100.816 104.102 103.256 104.861 105.64 105.775C107.352 106.478 108.975 107.379 110.477 108.46C114.051 111.008 114.644 114.384 112.452 118.215C111.061 120.849 108.738 122.87 105.936 123.882C101.87 125.353 97.7149 126.567 93.496 127.515C82.1912 129.743 70.4994 128.959 59.5926 125.244C57.2704 124.425 55.0455 123.352 52.958 122.045C51.0003 120.74 49.5395 118.813 48.8114 116.576C48.1884 115.299 48.0451 113.841 48.4075 112.467C48.77 111.093 49.6141 109.896 50.786 109.092C52.498 107.782 54.3608 106.682 56.3346 105.814C60.8449 103.945 65.5988 102.728 70.4528 102.201C71.0845 102.178 71.689 101.937 72.1638 101.52C72.6387 101.103 72.955 100.534 73.0592 99.9105C75.9806 89.1346 77.2063 77.9696 76.6924 66.8166C76.5147 63.2624 76.2777 59.7279 76.0211 56.1737C75.8631 55.0284 75.7051 53.9622 75.5472 52.58ZM133.6 40.1401C133.461 39.9032 133.402 39.7255 133.303 39.6662C128.625 37.0858 124.578 33.4977 121.456 29.1615C119.171 26.136 116.441 23.4731 113.36 21.2632C110.877 19.4104 108.052 18.0682 105.047 17.3141C101.671 16.5637 101.197 16.8204 99.6764 19.8613C99.673 19.9336 99.673 20.0061 99.6764 20.0785C96.8528 24.9754 93.3776 29.0825 87.5328 30.445C83.9028 31.2631 80.1503 31.3837 76.4752 30.8004C74.2028 30.5115 72.0163 29.7489 70.0571 28.5618C68.0979 27.3747 66.4097 25.7897 65.1017 23.9091C63.909 22.2954 62.8648 20.5771 61.9818 18.7752C61.35 17.4325 60.5404 16.8007 59.1187 17.0969C57.2978 17.3899 55.5069 17.8459 53.7676 18.4593C50.3153 19.8792 47.2103 22.0278 44.6648 24.7582C42.6903 26.7328 40.8539 29.0233 39.0373 31.2151C36.3531 34.5376 33.0549 37.3129 29.3224 39.3898C28.9496 39.6359 28.5934 39.9064 28.2561 40.1994C30.0019 40.6622 31.8401 40.6461 33.5774 40.1526C35.3148 39.6592 36.8871 38.7068 38.129 37.3955C40.5775 35.0457 42.9865 32.6565 45.4152 30.2475C46.9526 28.5093 48.6086 26.8796 50.3714 25.3703C52.689 23.7224 55.1393 22.2694 57.697 21.0263C59.1187 20.2957 59.6716 20.5919 60.264 21.9741C61.5342 24.6048 63.3221 26.9522 65.5206 28.876C67.7191 30.7997 70.2831 32.2601 73.0592 33.1699C73.8095 33.4266 75.0338 33.5648 74.8166 34.6113C74.5994 35.6579 73.2961 35.184 72.4471 34.9273C70.7517 34.2755 68.8961 34.1651 67.1355 34.6113C66.262 34.8196 65.4681 35.2779 64.8509 35.9301C64.2337 36.5824 63.8199 37.4004 63.6602 38.284C63.5309 38.6531 63.4919 39.0478 63.5464 39.435C63.601 39.8223 63.7475 40.1909 63.9737 40.5099C64.1999 40.8289 64.4992 41.0891 64.8466 41.2687C65.194 41.4483 65.5794 41.542 65.9705 41.5421C67.3527 41.7001 68.7546 41.7001 70.1368 41.8185C72.0022 41.9159 73.7875 42.6079 75.2312 43.7931C76.1199 44.4334 76.8138 45.3075 77.2355 46.3184C77.6573 47.3293 77.7906 48.4373 77.6205 49.5194C77.3251 51.2643 77.3251 53.0465 77.6205 54.7915C79.165 66.778 78.9388 78.9265 76.9491 90.8472C75.6009 99.265 72.8933 107.408 68.9323 114.957C68.6298 115.58 68.2518 116.163 67.8068 116.694C67.6257 116.806 67.4219 116.877 67.2102 116.901C66.9985 116.925 66.7842 116.901 66.5826 116.833C66.4246 116.833 66.2864 116.161 66.3456 115.845C66.5197 115.416 66.7381 115.005 66.9973 114.621C68.3005 111.817 69.6234 109.033 70.9464 106.209C71.2348 105.466 71.4852 104.708 71.6967 103.939C71.3224 103.903 70.9456 103.903 70.5712 103.939C65.5847 104.566 60.7119 105.896 56.0976 107.888C54.6313 108.585 53.2527 109.453 51.9905 110.474C51.0944 111.062 50.4564 111.97 50.2069 113.012C49.9573 114.054 50.115 115.152 50.6478 116.082C51.4671 118.435 53.1171 120.408 55.288 121.631C56.8095 122.391 58.3794 123.051 59.9875 123.605C70.8212 127.123 82.3686 127.843 93.5553 125.698C97.7557 124.991 101.858 123.792 105.778 122.124C108.263 120.981 110.234 118.954 111.307 116.438C111.893 115.465 112.076 114.301 111.818 113.195C111.56 112.089 110.88 111.127 109.924 110.514C108.513 109.434 106.983 108.52 105.363 107.789C100.942 105.933 96.2941 104.671 91.5412 104.037C91.1475 103.993 90.7501 103.993 90.3564 104.037C91.5946 107.911 93.2359 111.643 95.2534 115.174C95.6088 115.786 96.1814 116.438 95.2534 116.971C94.3253 117.504 94.0094 116.754 93.6342 116.161C93.5429 116.041 93.4697 115.908 93.417 115.766C91.2613 111.486 89.3623 107.082 87.7303 102.576C83.4313 87.845 82.175 72.3931 84.0378 57.1609C84.6745 54.5729 84.7351 51.8767 84.2155 49.2627C84.0936 48.3443 84.2447 47.4103 84.6499 46.5772C85.2186 45.2104 86.1692 44.0365 87.3879 43.196C88.6066 42.3555 90.0417 41.8841 91.5214 41.8383C92.9826 41.6408 94.4636 41.6803 95.9247 41.5026C96.2792 41.5099 96.6305 41.4355 96.9516 41.2852C97.2726 41.135 97.5548 40.9129 97.7763 40.636C97.9977 40.3592 98.1525 40.0352 98.2286 39.6889C98.3047 39.3427 98.3002 38.9836 98.2153 38.6395C98.15 37.7389 97.8131 36.8792 97.249 36.1742C96.685 35.4691 95.9202 34.9517 95.0559 34.6903C93.357 34.1285 91.5223 34.1285 89.8233 34.6903C88.9775 34.8976 88.1204 35.0559 87.2564 35.1642L86.9602 34.7101C87.1971 34.3151 87.3354 33.7623 87.6908 33.5451C88.3215 33.2178 88.9829 32.9533 89.6654 32.7552C92.2765 31.8638 94.6843 30.462 96.7487 28.6315C98.8131 26.801 100.493 24.5782 101.69 22.0925C102.54 20.3549 103.112 20.3549 104.81 20.9473C105.166 21.0658 105.501 21.2632 105.857 21.4212C109.571 23.1931 112.884 25.7063 115.591 28.8061C118.356 31.7087 121.239 34.5126 124.122 37.3165C125.303 38.5944 126.806 39.5308 128.474 40.0277C130.141 40.5245 131.912 40.5633 133.6 40.1401V40.1401ZM108.226 91.479C108.542 93.4536 108.72 95.211 109.115 96.9288C109.253 97.9761 109.764 98.9384 110.555 99.6386C111.346 100.339 112.363 100.73 113.419 100.74C118.435 101.016 123.431 101.332 128.446 101.47C130.369 101.466 132.287 101.274 134.172 100.898C134.919 100.865 135.634 100.589 136.208 100.111C136.782 99.6327 137.184 98.9798 137.351 98.2518C137.707 96.0798 137.845 93.8683 138.082 91.479H108.226ZM23.8528 91.479C23.9713 93.2759 24.0306 94.8753 24.2083 96.455C24.5834 99.6143 25.551 100.681 28.6511 101.075C35.4096 101.747 42.2242 101.608 48.9497 100.661C49.8119 100.6 50.6303 100.258 51.2795 99.6874C51.9286 99.1167 52.3727 98.3488 52.5434 97.5015C53.0568 95.5269 53.2937 93.5523 53.6689 91.479H23.8528ZM18.6202 85.8515C20.1801 89.4057 20.3973 89.5637 23.6554 89.5637L44.0922 89.5045C47.5675 89.5045 51.0625 89.5045 54.5377 89.5045C55.0334 89.5767 55.5389 89.4771 55.97 89.222C56.4012 88.9669 56.7319 88.5718 56.9072 88.1025C57.1836 87.4114 57.5391 86.7598 57.9537 85.9502L18.6202 85.8515ZM104.099 85.8515C105.383 89.5045 105.383 89.5045 108.602 89.5045L138.793 89.6822C141.34 89.6822 142.228 88.8923 142.939 85.9897L104.099 85.8515ZM136.305 83.8769C135.831 83.1463 135.515 82.6527 135.16 82.1788L130.124 75.6825C128.624 73.7079 127.162 71.7333 125.603 69.7587C125.429 69.5859 125.216 69.4565 124.983 69.381C124.75 69.3055 124.502 69.2861 124.26 69.3243C123.885 69.4231 123.608 70.0154 123.371 70.4301C123.32 70.6576 123.32 70.8937 123.371 71.1212C123.371 74.8926 123.371 78.6838 123.371 82.4552C123.41 82.961 123.489 83.4628 123.608 83.9559L136.305 83.8769ZM38.4252 83.8769C38.4252 79.2169 38.4252 74.6754 38.4252 70.1536C38.4252 69.0676 37.201 68.7517 36.4506 69.502C36.2385 69.7211 36.0469 69.959 35.878 70.2129L26.479 82.554C26.2223 82.9094 26.0051 83.2845 25.63 83.8769H38.4252ZM40.6762 83.7782C44.4528 84.1941 48.2694 84.0678 52.0102 83.403C48.693 78.7825 45.4349 74.2015 42.1374 69.581C41.9202 69.2848 41.1896 68.9689 41.0316 69.0874C40.8358 69.2365 40.672 69.4235 40.5499 69.6372C40.4278 69.8509 40.3499 70.0869 40.3208 70.3313C40.3208 74.5767 40.3208 78.8418 40.4393 83.0871C40.4799 83.3541 40.5598 83.6135 40.6762 83.8572V83.7782ZM121.397 69.3836C120.153 68.5937 119.758 69.5415 119.304 70.1931C116.368 74.2608 113.446 78.3415 110.537 82.4355C110.309 82.8245 110.104 83.2267 109.924 83.64C113.732 84.1414 117.589 84.1414 121.397 83.64V69.3836ZM61.5277 38.6987C62.3373 37.0006 61.35 36.7241 60.4614 36.4477L48.8707 32.2418L46.5012 31.3928L42.552 35.7566L61.5277 38.6987ZM63.601 34.2164L52.9383 25.1926C51.0428 26.5462 49.3362 28.1466 47.8636 29.9513L62.0608 35.184C62.9296 35.5789 63.3443 35.184 63.601 34.2164ZM100.308 38.5407C106.587 37.7707 112.788 36.8426 119.323 35.6579L115.374 31.4323L104.87 35.184L101.138 36.4872C100.19 36.8426 99.7554 37.3165 100.308 38.6197V38.5407ZM108.996 25.0939L98.2547 34.2559C98.6891 35.4012 99.321 35.3617 100.229 35.0457C103.191 33.94 106.153 32.8935 109.135 31.8074C110.695 31.2348 112.235 30.5832 114.17 29.8329L108.996 25.0939ZM124.497 40.3376C122.522 38.1458 120.864 37.0006 118.099 37.7312C115.46 38.2926 112.79 38.6948 110.102 38.9356L101.157 40.1599C100.506 40.1599 99.7554 40.1599 99.8541 41.6211L124.497 40.3376ZM62.357 41.5223C61.4882 39.8637 60.3824 40.1204 59.4544 39.9822C53.9453 39.1726 48.4165 38.5605 42.947 37.593C40.3405 37.1388 38.9978 38.5407 37.4182 40.3178C45.8298 40.8115 53.8663 41.4829 62.357 41.6013V41.5223ZM54.9524 23.9289C55.0497 24.2056 55.1896 24.4654 55.367 24.699L64.6278 32.7552C65.5361 33.5648 66.2074 32.9527 67.3724 32.4788C63.4185 30.0787 60.2646 26.5606 58.3091 22.369L54.9524 23.9289ZM96.5961 33.2686C100.32 30.4136 103.856 27.3202 107.18 24.0079L103.527 22.369C101.536 26.5765 98.3671 30.1159 94.4043 32.5578L96.5961 33.2686ZM80.7995 21.7964C80.3137 23.1204 79.7056 24.3962 78.9829 25.6073C78.0536 26.6837 77.0365 27.681 75.9421 28.5889C79.106 29.5546 82.4956 29.4854 85.6175 28.3914C82.9321 26.0812 82.9321 26.0812 80.9575 21.8753L80.7995 21.7964ZM80.7995 19.0517C84.0576 14.4312 83.0308 12.5948 80.6416 10.3636C77.8377 13.3254 78.667 16.2478 80.9575 19.1307L80.7995 19.0517ZM38.9978 63.1439C38.435 63.2429 37.9263 63.5404 37.564 63.9824C37.2017 64.4244 37.0099 64.9816 37.0232 65.5529C37.0581 66.0855 37.2934 66.5853 37.6817 66.9516C38.07 67.3179 38.5825 67.5236 39.1163 67.5275C39.6873 67.5571 40.2485 67.3702 40.6877 67.0042C41.127 66.6382 41.412 66.1199 41.4858 65.5529C41.4259 64.9209 41.1424 64.331 40.6863 63.8894C40.2302 63.4478 39.6314 63.1834 38.9978 63.1439V63.1439ZM122.779 63.1439C122.152 63.1884 121.564 63.4668 121.133 63.9239C120.701 64.381 120.457 64.9835 120.449 65.6121C120.468 65.9016 120.546 66.1842 120.679 66.4424C120.811 66.7007 120.995 66.9292 121.218 67.1141C121.442 67.2989 121.701 67.4362 121.979 67.5174C122.258 67.5987 122.55 67.6223 122.838 67.5867C123.108 67.5872 123.375 67.5325 123.622 67.4259C123.87 67.3194 124.093 67.1632 124.278 66.9671C124.463 66.771 124.606 66.5391 124.698 66.2857C124.79 66.0323 124.829 65.7627 124.813 65.4936C124.84 64.9177 124.644 64.3535 124.265 63.9191C123.886 63.4847 123.353 63.214 122.779 63.1637V63.1439Z" fill="#985BE7"/>
<path d="M12.657 64.2299C12.6975 63.6597 12.6044 63.0878 12.385 62.5599C12.1656 62.032 11.826 61.5626 11.3933 61.1891C10.5206 60.4326 9.50747 59.8555 8.41166 59.4909C8.1991 59.436 7.99368 59.3565 7.79954 59.254C7.71344 59.2213 7.63932 59.1631 7.58702 59.0873C7.53472 59.0115 7.50671 58.9216 7.50671 58.8294C7.50671 58.7373 7.53472 58.6474 7.58702 58.5716C7.63932 58.4958 7.71344 58.4376 7.79954 58.4049C8.03081 58.3249 8.26868 58.2655 8.51039 58.2272C9.01083 58.1391 9.5054 58.0204 9.99132 57.8718C10.7074 57.6512 11.3373 57.2134 11.7936 56.6191C12.25 56.0248 12.5103 55.3033 12.5385 54.5545C12.4986 54.2002 12.4986 53.8425 12.5385 53.4882C12.5844 53.3809 12.6547 53.2857 12.7438 53.2103C12.8329 53.1349 12.9384 53.0813 13.0519 53.0538C13.2296 53.0538 13.4863 53.3303 13.5258 53.508C13.6185 53.9299 13.6713 54.3596 13.6838 54.7914C13.7651 55.546 14.0845 56.2551 14.5957 56.816C15.1069 57.3769 15.7834 57.7605 16.5272 57.9113C16.9813 58.0495 17.4552 58.1087 17.9094 58.2075C18.3635 58.3062 18.7782 58.2075 18.7979 58.7998C18.8177 59.3922 18.3635 59.2737 18.0476 59.4317C17.1829 59.7933 16.3449 60.2156 15.5399 60.6954C14.8859 61.0403 14.3491 61.5716 13.9976 62.2219C13.6461 62.8723 13.4956 63.6124 13.5653 64.3484C13.5751 64.4535 13.5751 64.5592 13.5653 64.6643C13.5653 65 13.3678 65.2764 13.0519 65.2172C12.736 65.158 12.6372 64.8815 12.5188 64.6643C12.4003 64.4471 12.657 64.3484 12.657 64.2299ZM10.169 58.9381L13.1506 61.5642L16.152 58.9775C15.5945 58.6821 15.0599 58.3455 14.5526 57.9705C14.0509 57.5247 13.5823 57.043 13.1506 56.5291C12.4154 57.6079 11.3783 58.4459 10.169 58.9381V58.9381Z" fill="#985BE7"/>
<path d="M134.28 126.27C133.905 125.856 133.688 125.698 133.628 125.5C133.569 125.303 133.628 124.849 133.628 124.533C133.46 123.613 133.243 122.704 132.977 121.808C132.672 121.066 132.091 120.472 131.358 120.149C131.058 120.017 130.768 119.866 130.489 119.695C129.837 119.26 129.837 118.787 130.489 118.332C131.14 117.878 131.456 117.701 131.871 117.325C132.451 116.847 132.915 116.243 133.226 115.559C133.538 114.874 133.689 114.128 133.668 113.376C133.668 113.12 133.668 112.883 133.668 112.626C133.668 112.369 133.845 111.915 134.24 112.014C134.635 112.113 134.616 112.369 134.714 112.606C134.813 112.843 134.714 112.962 134.714 113.139C134.697 114.084 134.924 115.016 135.374 115.847C135.823 116.677 136.481 117.377 137.281 117.878C137.459 118.017 137.656 118.115 137.834 118.234C138.624 118.767 138.663 119.359 137.834 119.734C136.866 120.154 136.054 120.868 135.515 121.776C134.976 122.684 134.737 123.738 134.833 124.789C134.863 125.039 134.863 125.29 134.833 125.54C134.673 125.801 134.488 126.045 134.28 126.27ZM134.063 121.768C134.455 121.194 134.876 120.64 135.326 120.11C135.76 119.721 136.222 119.364 136.709 119.043L134.142 116.101L131.515 119.083C132.664 119.636 133.571 120.592 134.063 121.768Z" fill="#985BE7"/>
<path d="M130.584 12.4406L132.144 14.0993C132.404 14.3385 132.625 14.6186 132.795 14.9286C132.838 15.0604 132.85 15.2004 132.83 15.3376C132.809 15.4747 132.757 15.6051 132.677 15.7184C132.556 15.7859 132.42 15.8213 132.282 15.8213C132.144 15.8213 132.008 15.7859 131.887 15.7184C131.314 15.2248 130.821 14.6522 130.268 14.0993L129.458 13.3687C129.38 13.7332 129.327 14.1026 129.3 14.4744C129.3 16.9229 129.3 19.3714 129.3 21.8001C129.3 22.3925 129.478 23.1231 128.629 23.3008C127.78 23.4785 127.78 22.9256 127.78 21.8198C127.78 19.5886 127.78 17.3376 127.78 15.1063C127.812 14.5379 127.71 13.9699 127.484 13.4477L125.943 15.0076C125.687 15.2445 125.489 15.5802 125.173 15.7382C125.055 15.8021 124.923 15.8356 124.788 15.8356C124.654 15.8356 124.522 15.8021 124.403 15.7382C124.334 15.6218 124.297 15.4887 124.297 15.3531C124.297 15.2175 124.334 15.0844 124.403 14.9681C124.692 14.553 125.016 14.1632 125.371 13.8031L126.931 12.1642H121.915C121.463 12.2139 121.006 12.2139 120.553 12.1642C120.423 12.1183 120.305 12.0426 120.209 11.9432C120.113 11.8438 120.041 11.7234 120 11.5916C120.017 11.4539 120.069 11.3231 120.152 11.2121C120.235 11.1012 120.346 11.0141 120.474 10.9597C120.913 10.8502 121.366 10.8103 121.817 10.8412H126.358L126.477 10.5253C125.667 9.69595 124.857 8.90614 124.068 8.07682C123.653 7.66216 122.962 7.18824 123.574 6.57613C124.186 5.96401 124.66 6.57615 125.075 7.08953C125.884 7.83987 126.654 8.62971 127.622 9.59725C127.622 8.94564 127.76 8.57046 127.76 8.19529C127.76 6.06275 127.76 3.9302 127.76 1.79766C127.76 1.12631 127.543 0.257508 128.51 0.020559C129.063 -0.117661 129.28 0.435205 129.28 1.8569V9.59725C130.075 9.01314 130.809 8.35171 131.472 7.62268C131.766 7.27214 132.097 6.95435 132.46 6.67486C132.627 6.59844 132.809 6.55889 132.993 6.55889C133.177 6.55889 133.358 6.59844 133.526 6.67486C133.98 6.9513 133.763 7.40545 133.526 7.72138C132.795 8.47172 132.025 9.22206 131.275 9.97239C131.058 10.1896 130.9 10.4266 130.524 10.861H134.217C134.869 10.861 135.54 10.861 136.191 10.861C136.843 10.861 137.179 10.861 137.199 11.5521C137.218 12.2432 136.665 12.2037 136.191 12.2234H130.682L130.584 12.4406Z" fill="#985BE7"/>
<path d="M23.6949 119.123L25.2548 120.782C25.5269 121.015 25.7544 121.296 25.9262 121.611C25.9679 121.743 25.9789 121.883 25.9584 122.02C25.9379 122.157 25.8863 122.287 25.8077 122.401C25.6854 122.463 25.5501 122.496 25.4128 122.496C25.2755 122.496 25.1401 122.463 25.0179 122.401C24.4452 121.907 23.9516 121.315 23.3987 120.782C23.2012 120.565 22.9643 120.387 22.5891 120.051C22.5891 120.525 22.4312 120.841 22.4114 121.157C22.4114 123.605 22.4114 126.034 22.4114 128.483C22.4114 129.055 22.5891 129.786 21.7401 129.983C21.1872 130.102 20.891 129.588 20.891 128.502C20.891 126.251 20.891 124.02 20.891 121.789C20.9229 121.22 20.8214 120.652 20.5948 120.13L19.0546 121.67C18.8282 121.95 18.5697 122.202 18.2846 122.421C18.1628 122.485 18.0272 122.518 17.8896 122.518C17.7521 122.518 17.6165 122.485 17.4947 122.421C17.4308 122.302 17.3973 122.17 17.3973 122.036C17.3973 121.901 17.4308 121.769 17.4947 121.651C17.7786 121.232 18.1026 120.842 18.4623 120.486L20.0222 118.827H15.0068C14.5535 118.866 14.0976 118.866 13.6443 118.827C13.4074 118.827 13.0914 118.452 13.0914 118.254C13.1066 118.116 13.1561 117.984 13.2354 117.871C13.3148 117.757 13.4214 117.665 13.5456 117.603C13.9926 117.504 14.4507 117.464 14.908 117.484H19.4496L19.568 117.149L17.1591 114.72C16.7444 114.285 16.0335 113.812 16.6654 113.199C17.2973 112.587 17.7514 113.318 18.1661 113.713L20.7133 116.24C20.7133 115.589 20.8318 115.213 20.8515 114.838C20.8515 112.706 20.8515 110.553 20.8515 108.421C20.8515 107.75 20.6146 106.901 21.5821 106.664C22.135 106.525 22.3522 107.058 22.3719 108.5V116.24C23.166 115.656 23.9002 114.995 24.5637 114.266C24.8577 113.915 25.1887 113.597 25.551 113.318C25.7096 113.222 25.888 113.163 26.0728 113.146C26.2575 113.129 26.4437 113.154 26.6173 113.219C27.0517 113.476 26.8345 113.93 26.6173 114.246L24.3465 116.517L23.5962 117.405H27.3084H29.2829C29.7371 117.405 30.2702 117.405 30.2702 118.096C30.2702 118.787 29.7568 118.768 29.2829 118.768H23.6949V119.123Z" fill="#985BE7"/>
<path d="M24.9586 49.1442C24.9586 49.4374 24.8421 49.7187 24.6347 49.9261C24.4274 50.1334 24.1461 50.2499 23.8528 50.2499C23.5596 50.2499 23.2783 50.1334 23.0709 49.9261C22.8636 49.7187 22.7471 49.4374 22.7471 49.1442C22.7471 48.8509 22.8636 48.5696 23.0709 48.3623C23.2783 48.1549 23.5596 48.0384 23.8528 48.0384C24.1461 48.0384 24.4274 48.1549 24.6347 48.3623C24.8421 48.5696 24.9586 48.8509 24.9586 49.1442Z" fill="#985BE7"/>
<path d="M139.089 19.7033C139.089 19.922 139.024 20.1358 138.902 20.3176C138.781 20.4995 138.608 20.6412 138.406 20.7249C138.204 20.8086 137.982 20.8305 137.767 20.7878C137.553 20.7451 137.356 20.6398 137.201 20.4852C137.047 20.3305 136.941 20.1335 136.899 19.919C136.856 19.7045 136.878 19.4822 136.961 19.2801C137.045 19.0781 137.187 18.9054 137.369 18.7839C137.551 18.6624 137.764 18.5975 137.983 18.5975C138.128 18.5975 138.272 18.6261 138.406 18.6817C138.54 18.7373 138.662 18.8187 138.765 18.9214C138.868 19.0241 138.949 19.146 139.005 19.2801C139.06 19.4143 139.089 19.5581 139.089 19.7033V19.7033Z" fill="#985BE7"/>
<path d="M145.23 107.69C145.23 107.909 145.165 108.123 145.043 108.305C144.922 108.487 144.749 108.628 144.547 108.712C144.345 108.796 144.123 108.818 143.908 108.775C143.694 108.732 143.497 108.627 143.342 108.472C143.187 108.318 143.082 108.121 143.039 107.906C142.997 107.692 143.019 107.469 143.102 107.267C143.186 107.065 143.328 106.892 143.51 106.771C143.691 106.649 143.905 106.585 144.124 106.585C144.417 106.585 144.698 106.701 144.906 106.909C145.113 107.116 145.23 107.397 145.23 107.69Z" fill="#985BE7"/>
<path d="M31.7708 8.547C31.7708 8.7657 31.706 8.9795 31.5845 9.16134C31.463 9.34319 31.2903 9.48491 31.0882 9.56861C30.8862 9.6523 30.6639 9.67418 30.4494 9.63152C30.2349 9.58885 30.0378 9.48354 29.8832 9.32889C29.7286 9.17425 29.6232 8.97723 29.5806 8.76273C29.5379 8.54823 29.5598 8.32588 29.6435 8.12383C29.7272 7.92178 29.8689 7.7491 30.0508 7.6276C30.2326 7.50609 30.4464 7.44125 30.6651 7.44125C30.9584 7.44125 31.2396 7.55774 31.447 7.76511C31.6543 7.97248 31.7708 8.25374 31.7708 8.547V8.547Z" fill="#985BE7"/>
<path d="M10.0704 9.73171C10.6811 9.73171 11.1761 9.23662 11.1761 8.62593C11.1761 8.01523 10.6811 7.52017 10.0704 7.52017C9.45967 7.52017 8.9646 8.01523 8.9646 8.62593C8.9646 9.23662 9.45967 9.73171 10.0704 9.73171Z" fill="#985BE7"/>
<path d="M3.31724 108.796C3.31724 109.015 3.25238 109.229 3.13088 109.41C3.00938 109.592 2.83668 109.734 2.63463 109.818C2.43258 109.901 2.21025 109.923 1.99575 109.881C1.78125 109.838 1.58423 109.733 1.42958 109.578C1.27494 109.423 1.16963 109.226 1.12696 109.012C1.08429 108.797 1.10619 108.575 1.18988 108.373C1.27358 108.171 1.41531 107.998 1.59715 107.877C1.77899 107.755 1.99278 107.69 2.21147 107.69C2.50474 107.69 2.78599 107.807 2.99337 108.014C3.20074 108.222 3.31724 108.503 3.31724 108.796Z" fill="#985BE7"/>
<path d="M2.21152 69.581C2.21152 69.7997 2.14667 70.0134 2.02517 70.1953C1.90367 70.3771 1.73097 70.5188 1.52892 70.6025C1.32687 70.6862 1.10453 70.7081 0.890038 70.6655C0.675541 70.6228 0.478514 70.5175 0.32387 70.3628C0.169227 70.2082 0.0639134 70.0112 0.0212474 69.7967C-0.0214186 69.5822 0.000479109 69.3598 0.0841715 69.1578C0.167864 68.9557 0.309592 68.7831 0.491434 68.6615C0.673275 68.54 0.887062 68.4752 1.10576 68.4752C1.39903 68.4752 1.68028 68.5917 1.88765 68.7991C2.09502 69.0064 2.21152 69.2877 2.21152 69.581V69.581Z" fill="#985BE7"/>
<path d="M124.26 114.542C124.26 114.761 124.195 114.975 124.074 115.156C123.952 115.338 123.779 115.48 123.577 115.564C123.375 115.647 123.153 115.669 122.938 115.627C122.724 115.584 122.527 115.479 122.372 115.324C122.218 115.169 122.112 114.972 122.07 114.758C122.027 114.543 122.049 114.321 122.133 114.119C122.216 113.917 122.358 113.744 122.54 113.623C122.722 113.501 122.935 113.436 123.154 113.436C123.447 113.436 123.729 113.553 123.936 113.76C124.143 113.968 124.26 114.249 124.26 114.542Z" fill="#985BE7"/>
<path d="M22.7471 69.5811C23.3578 69.5811 23.8529 69.086 23.8529 68.4753C23.8529 67.8646 23.3578 67.3695 22.7471 67.3695C22.1364 67.3695 21.6414 67.8646 21.6414 68.4753C21.6414 69.086 22.1364 69.5811 22.7471 69.5811Z" fill="#985BE7"/>
<circle cx="115" cy="133" r="18" fill="#8840E3"/>
<path d="M105.906 136.545C106.077 136.544 106.247 136.521 106.412 136.478H106.692L109.719 136.371H111.372C111.571 136.351 111.767 136.31 111.959 136.251C112.119 136.251 112.452 136.038 112.479 135.771C112.476 135.549 112.401 135.334 112.265 135.158C112.195 135.044 112.086 134.959 111.959 134.918V134.918C111.081 134.327 110.388 133.499 109.959 132.532C109.428 131.474 109.314 130.256 109.639 129.119C110.098 127.67 111.102 126.456 112.439 125.732C113.114 125.317 113.892 125.098 114.685 125.098C115.478 125.098 116.256 125.317 116.931 125.732C117.909 126.267 118.721 127.06 119.278 128.025C119.805 128.848 120.031 129.828 119.918 130.799C119.806 131.635 119.513 132.437 119.059 133.148C118.606 133.86 118.002 134.464 117.291 134.918C117.291 134.918 116.798 135.265 116.811 135.638C116.825 136.011 117.345 136.225 117.625 136.251H119.078C119.851 136.251 120.624 136.251 121.398 136.318C121.902 136.34 122.405 136.389 122.904 136.465H123.277H123.437C123.59 136.48 123.744 136.436 123.865 136.342C123.987 136.247 124.067 136.11 124.091 135.958C124.184 135.585 123.984 135.318 123.517 135.198C123.373 135.164 123.226 135.141 123.077 135.131L119.078 134.958L119.398 134.585C120.232 133.693 120.787 132.577 120.996 131.374C121.204 130.17 121.057 128.933 120.571 127.812C119.99 126.576 119.064 125.534 117.905 124.812C117.291 124.371 116.593 124.061 115.855 123.903C115.116 123.744 114.352 123.741 113.612 123.893C112.466 124.098 111.395 124.601 110.504 125.349C109.613 126.097 108.933 127.066 108.532 128.159C108.183 128.926 108.045 129.773 108.132 130.612C108.285 132.238 108.991 133.763 110.132 134.931V134.931H108.879L106.213 135.038C105.993 135.042 105.774 135.069 105.559 135.118C105.459 135.138 105.364 135.179 105.281 135.239C105.198 135.299 105.129 135.376 105.079 135.465C105.046 135.533 105.029 135.608 105.029 135.685C105.029 135.761 105.046 135.836 105.079 135.905C105.132 136.085 105.241 136.243 105.389 136.358C105.538 136.473 105.718 136.538 105.906 136.545V136.545Z" fill="white"/>
<path d="M124.037 138.291C123.813 138.201 123.573 138.156 123.331 138.158L116.745 137.811L114.772 137.704L112.945 137.798L106.213 138.144C105.882 138.162 105.555 138.22 105.239 138.318C105.16 138.356 105.09 138.41 105.032 138.476C104.975 138.543 104.932 138.62 104.906 138.704L104.839 138.824L104.706 139.051L104.946 139.184H105.039C105.092 139.237 105.154 139.278 105.223 139.305C105.292 139.333 105.365 139.346 105.439 139.344C105.641 139.335 105.841 139.313 106.039 139.278H106.519C110.519 139.038 114.012 138.958 117.185 139.051C118.651 139.051 120.104 139.144 121.558 139.211C122.078 139.211 122.611 139.291 123.131 139.344H123.757H123.957C124.107 139.352 124.254 139.304 124.371 139.211C124.419 139.162 124.456 139.103 124.481 139.039C124.507 138.975 124.519 138.906 124.517 138.838C124.531 138.611 124.211 138.371 124.037 138.291Z" fill="white"/>
<path d="M114.625 148.25C111.535 148.25 108.514 147.334 105.944 145.617C103.375 143.9 101.372 141.46 100.189 138.604C99.0068 135.749 98.6973 132.608 99.3002 129.577C99.9031 126.546 101.391 123.762 103.576 121.576C105.762 119.391 108.546 117.903 111.577 117.3C114.608 116.697 117.749 117.007 120.604 118.189C123.46 119.372 125.9 121.375 127.617 123.944C129.334 126.514 130.25 129.535 130.25 132.625C130.243 136.767 128.594 140.737 125.666 143.666C122.737 146.594 118.767 148.243 114.625 148.25V148.25ZM114.625 118.227C111.777 118.227 108.993 119.071 106.626 120.653C104.258 122.235 102.412 124.484 101.323 127.115C100.233 129.746 99.9476 132.641 100.503 135.434C101.059 138.227 102.43 140.793 104.444 142.806C106.457 144.82 109.023 146.191 111.816 146.747C114.609 147.302 117.504 147.017 120.135 145.927C122.766 144.838 125.015 142.992 126.597 140.624C128.179 138.257 129.023 135.473 129.023 132.625C129.03 130.729 128.663 128.85 127.943 127.097C127.223 125.343 126.163 123.748 124.826 122.405C123.488 121.061 121.899 119.994 120.148 119.266C118.398 118.537 116.521 118.162 114.625 118.16V118.227Z" fill="white"/>
</svg>
