<svg width="185" height="151" viewBox="0 0 185 151" fill="none" xmlns="http://www.w3.org/2000/svg">
<circle cx="92" cy="73" r="67" fill="#F0E8FF"/>
<path d="M154.594 62.9214C155.155 64.0424 155.736 65.1427 156.317 66.2637C157.189 67.9452 158.165 69.5851 158.933 71.3082C159.262 71.9195 159.378 72.6234 159.261 73.308C159.145 73.9926 158.803 74.6185 158.289 75.0864C158.047 75.3686 157.871 75.7015 157.774 76.0607C157.677 76.42 157.661 76.7964 157.729 77.1623C158.115 79.2416 157.965 81.3848 157.293 83.3901C157.206 84.1184 156.852 84.7886 156.3 85.2716C155.748 85.7546 155.037 86.0161 154.304 86.0058C153.539 85.8471 152.789 85.6249 152.062 85.3415C151.937 85.6944 151.812 86.0265 151.709 86.3794C150.913 89.4857 149.608 92.4388 147.847 95.1191C145.886 98.1277 144.755 101.601 144.568 105.187C144.235 108.841 143.924 112.474 143.55 116.107C142.995 121.897 141.354 127.531 138.713 132.714C138.265 133.674 137.677 134.562 136.97 135.351C136.77 135.617 136.497 135.818 136.183 135.928C135.869 136.039 135.53 136.054 135.208 135.972C134.886 135.89 134.595 135.714 134.373 135.466C134.151 135.219 134.007 134.912 133.959 134.583C133.733 133.78 133.642 132.945 133.69 132.112C133.69 130.825 133.897 129.538 134.063 128.251C134.271 126.59 134.395 125.012 132.278 124.39C131.904 124.286 131.655 123.767 131.344 123.435C130.878 122.859 130.357 122.33 129.787 121.857C129.187 121.512 128.709 120.989 128.419 120.361C128.129 119.732 128.041 119.029 128.168 118.349C128.479 116.626 128.977 114.944 129.372 113.242C129.372 112.785 129.538 112.308 129.662 111.623C128.687 112.162 127.981 112.619 127.233 112.993C124.821 114.319 122.152 115.112 119.407 115.318C117.933 115.318 116.625 114.965 116.231 113.346C116.082 112.669 115.702 112.065 115.157 111.637C114.612 111.209 113.935 110.984 113.242 111C112.411 111 111.581 110.751 110.751 110.751C106.723 110.647 103.775 108.343 100.869 105.976C100.661 105.836 100.489 105.649 100.367 105.43C100.245 105.211 100.176 104.966 100.166 104.715C100.156 104.465 100.205 104.215 100.309 103.987C100.413 103.759 100.569 103.559 100.765 103.402C101.336 102.794 102.05 102.337 102.841 102.073C104.805 101.492 106.811 101.062 108.841 100.786C112.017 100.454 115.235 100.433 118.411 100.184C123.38 99.8123 128.16 98.1211 132.257 95.2852C135.599 93.0016 137.821 90.0746 136.534 85.6529C136.305 84.8432 136.222 83.9921 135.973 83.2033C135.688 82.3916 135.363 81.5948 134.997 80.8159L133.274 84.0959C132.198 86.2159 130.504 87.9602 128.417 89.0989C127.626 89.6354 126.925 90.2941 126.341 91.0503C125.677 91.7769 125.199 92.6695 124.493 93.3753C124.203 93.6867 123.372 93.9358 123.144 93.7698C122.786 93.3419 122.549 92.8257 122.459 92.2751C122.439 92.044 122.489 91.8123 122.604 91.6108C123.186 89.589 123.342 87.4681 123.061 85.383C122.662 81.9133 122.873 78.4005 123.684 75.0033C124.124 72.8334 123.988 70.5859 123.289 68.4849C122.833 66.7619 121.213 66.409 120.092 65.4125C119.717 65.1008 119.271 64.885 118.794 64.7837C118.317 64.6825 117.822 64.6988 117.352 64.8313C116.308 64.9804 115.243 64.8066 114.3 64.333C110.554 62.5791 107.338 59.8646 104.98 56.4653C102.073 51.8982 100.246 47.0821 101.575 41.5601C101.698 40.8741 101.774 40.1805 101.803 39.4842C99.3672 39.3879 96.9564 40.0086 94.8697 41.2695C93.1045 42.5013 90.9782 43.1077 88.8287 42.9925C88.2682 42.9925 87.3963 42.5773 87.2302 42.1206C86.8981 41.2695 87.8115 41.0826 88.4551 40.8335C89.6219 40.5077 90.7496 40.0553 91.8181 39.4842C94.4731 37.5705 97.3351 35.9619 100.35 34.6887C100.755 34.5643 101.115 34.3258 101.387 34.0017C101.66 33.6777 101.833 33.282 101.886 32.862C101.956 31.6057 102.326 30.3845 102.966 29.3009C103.605 28.2173 104.495 27.3028 105.561 26.6342C105.486 23.6519 104.293 20.8066 102.218 18.6626C100.747 16.8156 99.4413 14.8428 98.3157 12.7669C98.1928 12.5147 98.1288 12.2379 98.1288 11.9573C98.1288 11.6768 98.1928 11.3999 98.3157 11.1477C98.8762 10.4834 99.5612 10.9194 100.08 11.4383C100.866 12.3653 101.712 13.2392 102.613 14.054C105.693 16.6772 108.274 19.8348 110.232 23.3749C110.576 23.848 110.951 24.2987 111.353 24.7243L118.598 23.0843C121.2 22.4073 123.94 22.472 126.507 23.2711C129.373 24.2742 132.18 25.4386 134.914 26.7587C135.961 27.1363 136.922 27.7204 137.738 28.4765C138.555 29.2325 139.211 30.145 139.668 31.1597C140.499 33.9207 142.741 34.9794 144.547 36.5986C145.612 37.457 146.593 38.4164 147.474 39.4634C148.348 40.7185 149.537 41.7209 150.922 42.3697C152.307 43.0184 153.839 43.2905 155.362 43.1585C157.525 43.0467 159.652 43.7338 161.341 45.0892C164.481 47.5179 168.14 49.1875 172.032 49.9676C176.33 51.0846 180.332 53.1249 183.761 55.9463C184.218 56.2992 184.405 57.0258 184.716 57.5655C184.135 57.8354 183.574 58.126 182.972 58.3751C181.678 58.7324 180.425 59.2265 179.235 59.849C177.366 61.1733 175.247 62.1054 173.008 62.5893C172.111 62.7939 171.24 63.1004 170.413 63.5027C168.584 64.37 166.594 64.8458 164.571 64.8994C162.547 64.953 160.535 64.5833 158.663 63.8141C157.465 63.3915 156.245 63.0312 155.009 62.7346L154.594 62.9214ZM128.002 46.4385C135.173 46.2255 142.325 47.2724 149.134 49.5317L151.21 50.2167H151.439C151.211 46.2309 144.941 38.2594 139.897 35.6852C137.032 38.5915 133.129 39.4427 129.372 40.6467C126.839 41.4771 124.369 42.4735 121.857 43.3039C121.366 43.4301 120.921 43.6916 120.573 44.0587C120.224 44.4258 119.986 44.8836 119.885 45.3798C119.452 46.9889 119.181 48.637 119.075 50.2998C119.075 52.0228 119.469 53.7665 119.594 55.5103C119.76 57.9184 119.822 60.3265 119.968 63.2951L123.559 65.7654C127.068 68.0703 130.228 70.8667 132.942 74.0692C136.472 78.3226 138.475 83.6361 138.63 89.1612C138.793 93.0513 138.259 96.9392 137.053 100.641C136.534 102.198 136.077 103.776 135.537 105.54C139.72 102.455 143.308 98.6359 146.124 94.268C145.395 95.0098 144.619 95.7032 143.799 96.3439C143.613 96.4404 143.407 96.4907 143.197 96.4907C142.988 96.4907 142.781 96.4404 142.595 96.3439C142.346 96.1778 142.325 95.555 142.388 95.1606C142.503 94.7988 142.67 94.456 142.886 94.1434C145.226 89.6793 146.208 84.6275 145.709 79.6119C144.917 69.7088 140.355 60.4873 132.963 53.8496C130.883 52.1962 128.698 50.6777 126.424 49.3033L124.514 47.9332C125.697 46.2309 126.922 46.48 128.002 46.4385V46.4385ZM118.224 24.8073C115.774 25.3678 113.345 25.9491 110.875 26.4473C110.253 26.5626 109.671 26.8375 109.188 27.2451C108.704 27.6526 108.334 28.1789 108.114 28.7724C107.147 30.6637 106 32.4573 104.689 34.1283C104.125 34.8216 103.811 35.6843 103.796 36.5779C103.805 38.2573 103.645 39.9334 103.319 41.5809C102.866 43.8633 102.881 46.2138 103.363 48.4902C103.845 50.7667 104.783 52.9218 106.121 54.8253C108.254 58.1001 111.25 60.7222 114.778 62.4024C116.999 63.5857 118.037 63.0045 118.162 60.4303C118.265 58.7073 117.954 56.9635 117.892 55.199C117.67 52.6311 117.594 50.0529 117.663 47.4765C117.671 46.0095 118.154 44.5846 119.042 43.4165C119.929 42.2483 121.172 41.4001 122.583 40.9996C125.324 40.1069 128.085 39.235 130.887 38.3009C132.634 37.7555 134.347 37.1038 136.015 36.3495C139.419 34.6472 139.648 32.9035 136.326 29.6443C131.261 26.3435 125.448 23.1466 118.224 24.8073V24.8073ZM136.907 54.5139C137.572 55.4688 137.966 55.9878 138.34 56.5898C140.125 59.3923 141.91 62.2156 143.737 64.8935C144.169 65.6926 144.754 66.3982 145.46 66.9695C148.346 68.9209 151.293 70.7684 154.221 72.6575C154.446 72.8565 154.697 73.024 154.968 73.1557C155.591 73.3633 156.4 73.8408 156.795 73.6124C157.708 73.1142 157.355 72.1386 157.002 71.3705C156.649 70.6024 155.985 69.2945 155.425 68.3603C154.864 67.4262 154.387 66.6788 153.909 65.8277C152.913 64.0632 152.082 62.2986 153.619 60.2642C148.438 57.3785 142.787 55.4318 136.928 54.5139H136.907ZM168.897 59.6414C170.138 60.3326 171.557 60.6349 172.971 60.509C174.385 60.3831 175.729 59.8349 176.827 58.9356C177.99 58.126 179.215 57.3787 180.606 56.486C177.05 53.14 172.348 51.2828 167.465 51.2962C166.323 51.3719 165.187 51.5106 164.06 51.7114C160.964 52.203 157.803 52.1115 154.74 51.4415C159.057 55.1367 164.185 57.0465 168.897 59.6414ZM134.395 52.2511C134.799 52.4611 135.248 52.5681 135.703 52.5625C141.773 53.2673 147.659 55.0977 153.058 57.9599C154.947 58.9149 156.961 59.6415 158.912 60.4303C159.333 60.5513 159.764 60.6347 160.199 60.6794C160.383 60.078 160.373 59.4343 160.172 58.8386C159.971 58.2429 159.589 57.7252 159.078 57.3579C157.167 55.3773 154.88 53.7966 152.352 52.7078C145.296 49.7916 137.753 48.2283 130.119 48.0993C129.911 48.0993 129.704 48.0993 128.936 48.3069C131.032 49.7808 132.714 50.9848 134.458 52.2511H134.395ZM130.015 98.7312C126.332 100.743 122.248 101.913 118.058 102.156C115.421 102.343 112.764 102.406 110.107 102.592C108.67 102.667 107.241 102.848 105.831 103.132C104.553 103.499 103.298 103.943 102.073 104.461C102.458 105.001 102.957 105.451 103.534 105.777C104.112 106.104 104.754 106.299 105.415 106.35C109.959 106.878 114.561 106.526 118.971 105.312C125.001 103.606 130.642 100.743 135.579 96.8836C136.409 96.2193 136.409 96.2193 136.409 94.9323C134.229 96.0948 132.153 97.4234 130.015 98.7312ZM137.219 131.78C139.431 127.43 140.877 122.733 141.495 117.892C142.139 112.536 142.637 107.16 143.239 101.471C142.139 102.094 141.35 102.675 141.163 103.755C139.315 112.619 137.489 121.463 135.703 130.348C135.567 131.436 135.505 132.531 135.516 133.628L136.056 133.794C136.43 133.026 136.887 132.382 137.219 131.676V131.78ZM147.287 73.3426C149.974 75.8446 151.969 78.998 153.079 82.4974C153.434 83.2936 153.858 84.0576 154.345 84.781C156.649 81.6463 156.213 78.657 155.57 75.5638C152.29 73.6955 149.529 70.8722 145.647 69.336C145.709 70.7914 146.291 72.1762 147.287 73.2388V73.3426ZM127.171 86.2341C127.433 85.3644 127.58 84.4641 127.607 83.5562C127.773 81.7294 127.752 79.8818 128.064 78.0965C128.482 76.3039 129.002 74.5365 129.621 72.8028L125.718 69.336L125.282 69.4814C126.112 72.5745 125.012 75.5016 124.825 78.4909C124.597 81.9577 124.825 85.4453 124.825 88.8706L125.552 89.0989C126.163 88.1502 126.705 87.158 127.171 86.1303V86.2341ZM116.169 109.962C116.617 110.005 117.069 109.956 117.497 109.817C122.57 108.774 127.388 106.742 131.676 103.838C133.48 102.849 134.866 101.242 135.579 99.3125C127.275 104.648 118.971 108.467 109.484 108.675C111.706 109.111 113.927 109.464 116.169 109.858V109.962ZM153.369 48.9089C156.907 50.364 160.828 50.6049 164.517 49.5939C160.864 46.1687 156.774 43.8851 151.252 44.7155L153.369 48.9089ZM138.838 106.142L138.34 105.893C137.709 106.494 137.183 107.196 136.783 107.969C135.537 111.623 134.395 115.339 133.254 119.055C133.098 119.562 132.994 120.083 132.942 120.612C132.631 122.687 132.693 122.687 135.018 123.601C136.43 117.622 137.758 111.913 138.838 106.122V106.142ZM120.03 113.491C123.127 113.119 126.082 111.977 128.624 110.17C129.978 109.203 131.262 108.142 132.465 106.993C133.037 106.373 133.437 105.615 133.627 104.793C128.792 107.987 123.419 110.28 117.767 111.56C118.245 113.47 118.39 113.636 120.03 113.47V113.491ZM134.167 78.7193L131.24 74.5674C128.956 78.3871 129.579 82.2898 129.309 86.068C131.738 84.1997 132.465 81.2104 134.167 78.6985V78.7193ZM147.64 83.2863C147.495 85.5283 147.017 87.7495 146.623 90.3237C148.564 87.9399 150.03 85.2056 150.941 82.2691C151.042 81.9873 151.042 81.679 150.941 81.3972C150.23 79.4045 149.072 77.6008 147.557 76.1243C147.536 78.7193 147.764 81.0028 147.64 83.2655V83.2863ZM162.171 58.0637C162.358 59.7245 162.773 61.2191 160.822 62.3609C163.642 63.2439 166.688 63.0516 169.375 61.8212L162.171 58.0637ZM134.271 109.837C131.912 112 130.433 114.956 130.119 118.141C130.119 119.221 130.119 119.221 131.095 120.425L134.271 109.837ZM109.235 25.0772L106.91 21.3821L106.516 21.4858C106.765 22.8352 107.014 24.2053 107.325 25.866L109.235 25.0772ZM101.949 37.3875C101.949 36.8892 101.949 36.4118 101.949 35.706L98.1704 37.429L98.2742 37.7404L101.949 37.3875ZM106.412 28.1496C105.715 28.5697 105.122 29.1433 104.68 29.8268C104.237 30.5102 103.956 31.2856 103.858 32.0938C105.169 31.1408 106.079 29.7353 106.412 28.1496V28.1496Z" fill="#985BE7"/>
<path d="M125.303 51.3794L124.306 51.2548C124.306 51.67 124.078 52.1683 124.306 52.4589C124.834 53.1665 125.065 54.0511 124.953 54.9263C124.841 55.8015 124.393 56.5989 123.704 57.1505C123.497 57.3373 123.704 57.9186 123.704 58.313C124.057 58.313 124.472 58.4375 124.742 58.313C125.273 57.9219 125.714 57.4214 126.035 56.8454C126.356 56.2694 126.549 55.6312 126.602 54.9739C126.655 54.3167 126.567 53.6557 126.343 53.0355C126.118 52.4154 125.764 51.8507 125.303 51.3794V51.3794Z" fill="#985BE7"/>
<path d="M129.455 62.2572C130.015 62.2572 130.41 62.444 130.68 62.2572C131.535 61.6969 132.194 60.8841 132.566 59.9316C132.938 58.9792 133.005 57.9345 132.755 56.9428C132.61 56.5484 132.07 56.2993 131.697 55.9879C131.51 56.3615 131.115 56.7559 131.178 57.0673C131.288 57.7457 131.238 58.4405 131.033 59.0963C130.827 59.7521 130.472 60.3511 129.994 60.8455C129.78 61.3024 129.6 61.7741 129.455 62.2572Z" fill="#985BE7"/>
<path d="M125.781 58.5205C125.89 59.5487 125.89 60.5854 125.781 61.6136C125.426 62.5091 124.966 63.3592 124.411 64.1462C126.03 64.4369 126.902 63.7933 127.442 62.0703C127.684 61.3789 127.645 60.6203 127.335 59.9568C127.024 59.2934 126.467 58.7778 125.781 58.5205V58.5205Z" fill="#985BE7"/>
<path d="M135.227 66.1392C135.927 66.2711 136.651 66.1292 137.249 65.743C137.848 65.3568 138.276 64.7555 138.444 64.0633C138.756 63.1083 138.673 62.2987 137.365 61.9873C137.053 62.7554 136.783 63.5028 136.431 64.2086C136.067 64.8749 135.665 65.5195 135.227 66.1392V66.1392Z" fill="#985BE7"/>
<path d="M134.499 70.8516C134.499 71.1215 134.209 71.6612 134.375 71.8688C134.531 71.9985 134.718 72.0858 134.918 72.1221C135.118 72.1585 135.324 72.1427 135.516 72.0764C136.139 71.6936 136.699 71.2175 137.177 70.6647C137.322 70.5402 137.177 70.0627 137.177 69.8966C137.076 69.8024 136.952 69.7358 136.817 69.7031C136.683 69.6704 136.542 69.6727 136.409 69.7098C135.786 70.0004 135.226 70.3949 134.499 70.8516Z" fill="#985BE7"/>
<path d="M142.886 72.1594C142.263 72.8859 141.724 73.4049 141.308 74.0069C141.142 74.2561 141.308 74.692 141.205 75.0242C141.62 75.0242 142.097 75.2318 142.409 75.0242C143.571 74.4637 143.758 73.6125 142.886 72.1594Z" fill="#985BE7"/>
<path d="M131.531 65.0597C131.033 66.0562 130.576 66.9281 130.12 67.8623C131.448 68.5266 131.884 67.7377 132.195 67.0526C132.507 66.3676 132.839 65.641 131.531 65.0597Z" fill="#985BE7"/>
<path d="M139.834 79.2383C139.834 78.6155 140.084 78.0965 139.834 77.8266C139.378 77.1416 138.734 77.4945 138.36 77.9512C137.987 78.4079 138.36 78.7193 138.215 79.0929L139.834 79.2383Z" fill="#985BE7"/>
<path d="M140.914 82.7674C141.205 83.4317 141.288 84.0129 141.516 84.0752C141.969 84.1793 142.445 84.1281 142.865 83.9299C143.031 83.9299 142.865 83.2863 143.031 82.9542L140.914 82.7674Z" fill="#985BE7"/>
<path d="M109.194 41.1865C109.402 41.5918 109.589 42.0076 109.755 42.432C110.957 46.1493 110.877 50.1628 109.526 53.8289C109.41 54.1864 109.249 54.5281 109.049 54.8461C108.281 55.9878 107.43 56.0501 106.786 54.8461C106.024 53.4546 105.412 51.9864 104.959 50.4659C104.564 48.8749 104.492 47.2208 104.749 45.6017C105.006 43.9826 105.586 42.4317 106.454 41.0412C107.118 39.8579 108.011 39.7541 108.82 40.6259C108.958 40.8041 109.082 40.9914 109.194 41.1865V41.1865ZM107.907 52.5418C109.173 49.3697 109.173 45.8325 107.907 42.6604C106.931 44.1234 106.411 45.8426 106.411 47.6011C106.411 49.3596 106.931 51.0787 107.907 52.5418V52.5418Z" fill="#985BE7"/>
<path d="M114.923 27.963C116.72 26.8252 118.748 26.1025 120.86 25.8475C122.971 25.5925 125.113 25.8117 127.13 26.4891C127.496 26.6028 127.84 26.7783 128.147 27.008C129.102 27.7346 129.122 28.565 128.147 29.084C127.167 29.6591 126.13 30.1321 125.054 30.4956C121.745 31.679 118.128 31.679 114.819 30.4956C113.511 30.0389 113.387 29.4161 114.342 28.4197C114.362 28.3367 114.591 28.1498 114.923 27.963ZM116.874 29.0217C118.359 29.5734 119.951 29.7725 121.525 29.6032C123.1 29.4338 124.613 28.9007 125.946 28.046C124.439 27.5459 122.842 27.3743 121.263 27.5426C119.684 27.7109 118.159 28.2152 116.791 29.0217H116.874Z" fill="#985BE7"/>
<path d="M54.929 34.6681C57.3164 33.6716 59.517 32.5922 61.7797 31.8864C63.015 31.5265 64.2922 31.331 65.5786 31.3051C66.1962 31.2068 66.8279 31.3505 67.3422 31.7062C67.8565 32.062 68.2138 32.6024 68.3396 33.215C68.4757 33.8923 68.8455 34.5004 69.3843 34.9329C69.9231 35.3655 70.5966 35.5951 71.2874 35.5815C71.5157 35.5815 71.7441 35.5815 71.9725 35.5815C76.2001 35.6383 80.2553 37.2663 83.3485 40.1486C84.6564 41.2488 84.8224 42.6189 83.3485 43.5116C82.069 44.3016 80.6654 44.8701 79.1967 45.1931C77.1367 45.5563 75.0572 45.7989 72.9689 45.9196C70.6023 46.1065 68.2358 46.148 65.89 46.3556C61.1741 46.8131 56.6416 48.4166 52.6871 51.0264C52.2347 51.3141 51.7981 51.6259 51.3793 51.9606C48.556 54.3479 46.9991 57.1712 48.1616 60.9909C48.5976 62.4025 48.9297 63.8349 49.3241 65.2673H49.8223C50.2583 64.4992 50.7565 63.7519 51.1302 62.963C52.2125 60.5035 54.112 58.4939 56.5068 57.275C57.2048 56.8273 57.8165 56.2578 58.3128 55.5935C58.9148 54.8877 59.3301 54.0365 59.9737 53.4137C60.2003 53.1886 60.4691 53.0103 60.7648 52.8892C61.0605 52.7681 61.3771 52.7065 61.6966 52.7079C62.5477 52.8533 62.3609 53.7251 62.2571 54.4102C62.2688 54.4859 62.2688 54.5629 62.2571 54.6385C61.561 57.059 61.3982 59.6017 61.7797 62.0912C62.0508 65.133 61.8618 68.1982 61.2192 71.1837C60.9765 72.6025 60.8791 74.0424 60.9285 75.4809C60.9737 76.8554 61.4315 78.1844 62.2423 79.2951C63.0531 80.4059 64.1795 81.2469 65.4748 81.7087C65.9401 81.935 66.4732 81.9795 66.9695 81.8332C68.2472 81.5233 69.5954 81.7244 70.727 82.3938C73.7748 83.8912 76.4645 86.0271 78.6137 88.6563C80.7629 91.2854 82.3212 94.3463 83.1826 97.6311C83.7059 99.7103 83.7625 101.88 83.3485 103.983C83.1825 105.001 83.058 106.059 82.9127 107.18C85.3532 107.257 87.7651 106.638 89.867 105.395C91.5079 104.257 93.4545 103.642 95.4512 103.631C95.9803 103.601 96.5098 103.679 97.0082 103.859C97.1711 103.911 97.315 104.01 97.422 104.144C97.529 104.277 97.5943 104.44 97.6098 104.61C97.6253 104.78 97.5903 104.952 97.5092 105.102C97.4281 105.253 97.3043 105.376 97.1535 105.457C96.96 105.577 96.7503 105.668 96.5308 105.727C94.0524 106.483 91.7363 107.694 89.7009 109.298C88.2058 110.204 86.6364 110.982 85.0094 111.623C84.4063 111.835 83.8746 112.212 83.4747 112.711C83.0748 113.21 82.8226 113.811 82.7466 114.446C82.6608 115.589 82.2887 116.692 81.6648 117.653C81.0408 118.615 80.185 119.404 79.176 119.947C79.244 122.563 80.1786 125.082 81.8331 127.109C83.481 129.202 84.9794 131.408 86.3171 133.711C86.6908 134.292 87.1891 134.915 86.5248 135.517C85.8605 136.119 85.1131 135.683 84.4488 135.122C80.2674 131.458 76.6999 127.148 73.8823 122.355C73.8823 122.231 73.6747 122.169 73.3841 121.919L67.3016 123.29C59.1432 125.241 52.355 122.293 46.314 117.062C45.4614 116.033 44.7622 114.886 44.2381 113.657C43.9449 113.074 43.5514 112.547 43.0756 112.1C40.5135 110.322 38.1841 108.23 36.1419 105.873C35.1712 104.931 34.0003 104.222 32.7167 103.797C31.8509 103.496 30.9308 103.382 30.0179 103.464C27.3252 103.568 24.6904 102.666 22.6276 100.932C20.0927 98.9586 17.1379 97.5948 13.9918 96.946C9.74513 95.9944 5.74787 94.1549 2.26269 91.5486C1.43232 90.9258 0.685057 90.1992 0 89.618C0.145315 88.4555 0.788813 88.2271 1.51539 88.2479C3.20651 88.2082 4.83015 87.5764 6.10324 86.4626C7.66474 85.3422 9.44872 84.5705 11.3345 84.1998C12.4331 83.9143 13.5088 83.5465 14.5523 83.0996C16.2944 82.3133 18.1759 81.8827 20.0865 81.8328C21.9971 81.7829 23.8985 82.1147 25.6793 82.8089C27.0607 83.5042 28.5975 83.833 30.1424 83.7638C29.229 82.1239 28.3987 80.6915 27.6306 79.2383C26.8625 77.7852 26.136 76.4151 25.5547 74.9411C25.2742 74.3904 25.1912 73.7601 25.3197 73.1555C25.4481 72.5509 25.7802 72.0088 26.2604 71.6197C26.6251 71.3317 26.8826 70.9297 26.9918 70.4781C27.1009 70.0265 27.0555 69.5513 26.8625 69.1286C26.4383 67.0424 26.633 64.8777 27.423 62.9008C28.025 60.5965 29.665 60.119 32.4882 61.2815C32.6342 60.972 32.759 60.653 32.8619 60.3266C33.6882 57.076 35.0567 53.988 36.91 51.1925C38.6626 48.5 39.7053 45.4077 39.9409 42.2037C40.3561 38.0519 40.709 33.9 41.145 29.7482C41.7353 24.283 43.3182 18.9716 45.8158 14.0749C46.2123 13.1676 46.7366 12.3217 47.3728 11.563C47.6226 11.3008 47.9266 11.0963 48.2636 10.9636C48.6006 10.8309 48.9626 10.7734 49.3241 10.7949C49.6625 10.9376 49.9637 11.1559 50.2047 11.4329C50.4458 11.71 50.6204 12.0385 50.715 12.3934C50.9131 13.4331 50.955 14.4966 50.8395 15.5488C50.8395 16.9189 50.5697 18.289 50.4659 19.7006C50.3812 20.1533 50.4494 20.6213 50.6599 21.031C50.8703 21.4406 51.2111 21.7686 51.6284 21.9634C52.286 22.4299 52.8854 22.9735 53.4137 23.5826C53.7873 23.9563 54.0779 24.4753 54.5346 24.6829C55.2851 25.0432 55.8831 25.6586 56.2216 26.4192C56.56 27.1798 56.6169 28.036 56.3822 28.8347C55.9878 30.7238 55.448 32.6337 54.929 34.6681ZM48.8466 41.4149L48.4107 41.1658C44.7118 44.3554 41.4269 47.9959 38.633 52.0021C38.9771 51.8789 39.2891 51.6803 39.5465 51.4209C39.8994 51.1302 40.1692 50.6943 40.5636 50.5282C41.0318 50.413 41.515 50.371 41.996 50.4037C42.0477 50.8242 42.0477 51.2495 41.996 51.67C41.9074 51.9587 41.7743 52.2318 41.6016 52.4796C39.1477 57.1663 38.157 62.4816 38.7576 67.7377C39.1476 71.5271 40.0847 75.2401 41.5394 78.7609C44.3418 86.0194 49.4462 92.1593 56.0709 96.2402C56.9843 96.78 57.9185 97.3197 58.7904 97.9217C59.1398 98.262 59.4527 98.6377 59.7244 99.0427C59.3227 99.4376 58.8511 99.7544 58.3336 99.9769C57.5138 100.14 56.678 100.21 55.8425 100.184C48.8253 100.281 41.8422 99.1935 35.187 96.9668L32.4882 96.1364C35.4361 102.364 38.7161 107.782 44.6325 111.021C46.5437 109.17 48.8937 107.834 51.4623 107.139C55.0121 105.976 58.4996 104.689 62.0702 103.61C62.917 103.373 63.6667 102.874 64.2114 102.183C64.7561 101.493 65.0677 100.648 65.1012 99.7693C65.3399 97.4296 65.3399 95.0716 65.1012 92.7319C64.5167 89.7393 64.4815 86.6653 64.9974 83.6601C64.5407 83.3487 64.167 83.0996 63.8141 82.8297C60.7209 80.5046 57.4409 78.3872 54.5554 75.7923C51.5427 73.1938 49.1892 69.9179 47.688 66.2335C46.1868 62.549 45.5807 58.5611 45.9196 54.597C46.0913 51.4729 46.6848 48.3864 47.6841 45.4214C48.0785 44.1136 48.4937 42.6812 48.8466 41.4149V41.4149ZM75.4808 87.9988C73.8823 86.8985 72.0762 85.4869 70.1041 84.3451C67.5922 82.8712 66.4712 83.5355 66.3467 86.4211C66.3331 87.8719 66.4233 89.3218 66.6165 90.7598C66.7411 92.2752 67.0733 93.7698 67.0941 95.2853C67.1231 96.9557 66.984 98.6249 66.6789 100.268C66.5183 101.407 66.0454 102.479 65.3125 103.366C64.5796 104.253 63.6155 104.919 62.527 105.291C60.4511 105.997 58.3752 106.786 56.2992 107.492C54.2233 108.198 52.521 108.613 50.6526 109.298C49.4467 109.752 48.2973 110.344 47.2274 111.062C46.8695 111.221 46.5575 111.467 46.3202 111.779C46.083 112.09 45.9281 112.456 45.8702 112.844C45.8122 113.231 45.853 113.626 45.9886 113.994C46.1243 114.361 46.3504 114.688 46.6461 114.944C47.5416 116.076 48.6059 117.063 49.8016 117.871C52.6489 119.787 55.8435 121.127 59.2055 121.816C60.9176 122.181 62.6786 122.258 64.4161 122.044C67.7168 121.525 70.9553 120.653 74.2353 119.968C74.7235 119.887 75.1782 119.668 75.5461 119.337C75.9139 119.006 76.1794 118.577 76.3112 118.1C77.0609 115.934 78.3047 113.972 79.9441 112.37C80.232 112.075 80.4562 111.723 80.6026 111.338C80.749 110.952 80.8145 110.54 80.7952 110.128C80.8416 108.305 81.015 106.488 81.3142 104.689C82.622 98.1085 79.7572 93.0433 75.4808 87.9988ZM47.2482 91.7562C44.5403 88.3327 42.2282 84.6139 40.3561 80.6707C40.1119 80.2927 39.7667 79.9907 39.3596 79.7988L29.9764 73.7786C29.2499 73.3219 28.5233 72.3462 27.6099 73.0936C26.6964 73.8409 27.3192 74.7751 27.6099 75.6262C27.7884 76.0419 27.9965 76.4443 28.2326 76.8302C29.1045 78.3457 30.0179 79.8404 30.8691 81.3558C31.4407 82.0562 31.7528 82.9325 31.7528 83.8365C31.7528 84.7406 31.4407 85.6169 30.8691 86.3173C35.9224 89.1966 41.4964 91.0452 47.2689 91.7562H47.2482ZM4.04809 90.0332C4.38615 90.4076 4.74655 90.7612 5.12749 91.0919C6.99096 92.6623 9.15887 93.8306 11.4952 94.5236C13.8315 95.2167 16.2858 95.4194 18.7042 95.1192C21.5445 94.5283 24.4644 94.423 27.34 94.8078L29.8519 95.2022C29.5906 94.89 29.2984 94.6048 28.9799 94.3511C26.5719 92.644 24.0151 91.1572 21.3405 89.9086C19.2646 89.0782 17.2925 87.8327 15.258 86.7947C14.1331 86.2195 12.8715 85.9655 11.6116 86.0607C10.3517 86.1559 9.14248 86.5966 8.11683 87.3345C6.85052 88.1441 5.60493 89.016 4.06874 90.0332H4.04809ZM55.6971 98.3369C53.6212 96.8007 51.919 95.5136 50.1544 94.185C49.8128 94.0153 49.4356 93.9299 49.0543 93.9359C42.6082 93.2269 36.3688 91.2365 30.703 88.0818C29.4223 87.4114 28.0976 86.8288 26.738 86.338C25.8656 86.1324 24.976 86.0073 24.0807 85.9644C24.0439 86.6594 24.1823 87.3526 24.4834 87.9801C24.7845 88.6077 25.2386 89.1495 25.8038 89.5557C27.9988 91.5583 30.5376 93.1476 33.2979 94.2473C39.7785 96.732 46.6234 98.1347 53.559 98.3992C54.1818 98.4822 54.7215 98.4199 55.7179 98.3992L55.6971 98.3369ZM82.2691 42.0584C81.8377 41.4607 81.265 40.9791 80.6021 40.6567C79.9392 40.3343 79.2067 40.1811 78.4702 40.2108C67.1978 39.2351 57.607 43.2832 48.8258 49.9262C48.6529 50.0121 48.5003 50.1336 48.3776 50.2827C48.255 50.4318 48.1652 50.6052 48.1142 50.7914C48.0633 50.9776 48.0523 51.1725 48.0819 51.3632C48.1115 51.554 48.1812 51.7363 48.2862 51.8983C48.6183 51.67 48.8673 51.5247 49.0957 51.3378C53.3574 47.8501 58.4888 45.5895 63.9386 44.7986C66.4298 44.4457 68.9416 44.3835 71.4327 44.1759C73.9238 43.9683 75.8544 43.8852 78.0342 43.6361C79.5602 43.5089 81.0269 42.9866 82.2899 42.1207L82.2691 42.0584ZM49.0543 12.9954L48.5975 12.8708C48.435 13.0125 48.2825 13.1651 48.1408 13.3275C47.8087 13.9296 47.4557 14.5108 47.1651 15.1336C44.8327 19.9263 43.3573 25.0902 42.8057 30.3917C42.3282 35.021 41.83 39.6296 41.3733 44.2381C41.3831 44.5108 41.4465 44.7789 41.56 45.027C42.1333 44.6799 42.6188 44.2052 42.9789 43.64C43.3389 43.0747 43.5637 42.4341 43.636 41.7678C44.6532 36.6402 45.878 31.5335 46.9368 26.4059C47.6633 22.8976 48.3069 19.3892 49.0127 15.8809C49.0994 14.9494 49.127 14.0134 49.0957 13.0784L49.0543 12.9954ZM30.2048 61.7797C29.7584 62.3387 29.3624 62.9361 29.0215 63.5651C28.8224 64.2425 28.6903 64.9378 28.627 65.641C28.2119 68.4227 28.1703 71.0176 31.2012 72.5746C32.1976 73.0936 33.0073 73.9447 33.983 74.6505C35.4867 75.8626 37.1854 76.8103 39.0067 77.453C38.5707 75.9584 38.4878 74.5675 37.3668 73.5918C34.6879 71.0881 32.6758 67.9558 31.5126 64.4785C31.1408 63.5831 30.718 62.7098 30.2463 61.8628L30.2048 61.7797ZM54.8461 73.5295C56.1323 75.0804 57.6862 76.3882 59.4339 77.3908C58.7623 74.7912 58.8053 72.0586 59.5585 69.4815C60.3681 65.4957 59.5585 61.5722 59.5585 57.3788C58.7351 57.9114 58.0684 58.6537 57.627 59.5293C57.1855 60.4049 56.9851 61.3823 57.0465 62.361C57.1597 66.2244 56.4227 70.0654 54.8876 73.6125L54.8461 73.5295ZM75.7715 38.2387V37.7612C74.1068 37.7015 72.452 37.479 70.8307 37.0969C68.4873 36.4285 65.9842 36.5973 63.7517 37.5744C61.6758 38.2594 59.7452 38.986 57.8146 39.8372C55.0773 40.9931 52.5784 42.6472 50.4451 44.7156C49.9084 45.3647 49.4291 46.0593 49.0127 46.7915C57.3579 41.8923 65.89 38.0519 75.8129 38.5293L75.7715 38.2387ZM19.8667 96.7592C25.3679 101.347 28.1703 102.406 33.2771 101.7C32.6958 100.537 32.1354 99.3749 31.5334 98.2331C31.3392 97.8424 31.0269 97.5228 30.6408 97.3197C27.1791 96.1352 23.4437 96.0052 19.9081 96.946L19.8667 96.7592ZM45.5874 40.2731C46.2193 40.1185 46.7937 39.786 47.2425 39.3151C47.6913 38.8442 47.9959 38.2545 48.1201 37.6159C48.7428 35.3532 49.594 33.1527 50.196 30.8899C50.7449 29.1576 51.2022 27.3975 51.566 25.617C51.919 23.6657 51.7114 23.5411 49.3656 23.0429C48.1823 28.9593 46.916 34.7096 45.6289 40.4599L45.5874 40.2731ZM66.6789 34.8549C66.3883 32.9035 66.2013 32.779 64.3953 32.9451C59.6203 33.6719 55.231 35.9909 51.9397 39.5258C51.4973 40.098 51.1081 40.7095 50.7772 41.3526L51.1094 41.8301C55.7957 38.5263 61.1083 36.2162 66.7204 35.0418L66.6789 34.8549ZM55.5519 60.3266C55.0952 60.5965 54.7215 60.7003 54.5762 60.9286C53.2891 63.0045 52.002 65.2258 50.7772 67.3848C50.7008 67.5508 50.6612 67.7314 50.6612 67.9141C50.6612 68.0969 50.7008 68.2775 50.7772 68.4435C51.3933 69.7594 52.2938 70.9222 53.4137 71.848C55.5934 68.2567 54.9707 64.3331 55.5519 60.3266ZM37.1176 70.5609C37.1176 67.9037 36.827 65.6202 36.9515 63.3782C37.0761 61.1362 37.5743 58.8527 37.9479 56.1955C36.1186 58.573 34.714 61.2489 33.7961 64.1048C33.6711 64.4609 33.6711 64.849 33.7961 65.2051C34.5036 67.2092 35.6368 69.0364 37.1176 70.5609V70.5609ZM15.5903 84.9471L22.0672 88.3309C22.4408 86.7947 22.7522 85.4661 23.0843 84.1791C21.8542 83.7559 20.5467 83.6054 19.2527 83.738C17.9586 83.8707 16.7089 84.2832 15.5903 84.9471V84.9471ZM53.4966 26.3228L50.4035 36.7025C52.8122 34.3969 54.2898 31.2866 54.5554 27.9628C54.595 27.7856 54.5989 27.6022 54.5669 27.4234C54.535 27.2446 54.4678 27.0739 54.3693 26.9213C54.2707 26.7687 54.1429 26.6371 53.9931 26.5344C53.8433 26.4317 53.6745 26.3598 53.4966 26.3228V26.3228ZM75.4808 121.567L78.1587 125.718L78.3664 125.615C78.055 124.099 77.7228 122.584 77.3698 120.965L75.4808 121.567ZM82.7881 110.959L86.5663 109.236V108.903L82.8089 109.298C82.6428 109.838 82.6635 110.253 82.6842 110.896L82.7881 110.959ZM78.2833 117.913L78.6155 118.245C79.2768 117.828 79.8069 117.233 80.1448 116.527C80.4827 115.822 80.6146 115.036 80.5253 114.259C79.6327 115.629 78.8438 116.73 78.1795 117.851L78.2833 117.913ZM80.6706 128.832L79.9441 128.106L80.6706 128.832Z" fill="#985BE7"/>
<path d="M59.4129 88.7252C59.6757 88.4983 59.9692 88.3096 60.2847 88.1647C60.4199 88.1269 60.5622 88.1222 60.6996 88.1511C60.8369 88.18 60.9652 88.2417 61.0736 88.3308C61.2397 88.4969 61.2189 88.8705 61.1774 89.1404C61.0999 89.3599 60.9634 89.5538 60.7829 89.7009C60.1783 90.1907 59.782 90.8916 59.6742 91.6623C59.5663 92.4329 59.7549 93.2157 60.2018 93.8527C60.2018 93.9773 60.4508 94.1019 60.4301 94.2264C60.376 94.6316 60.2998 95.0336 60.2018 95.4305C59.8073 95.3059 59.2676 95.3059 59.0185 95.036C58.3995 94.2629 58.0436 93.3123 58.0025 92.3228C57.9615 91.3333 58.2374 90.3566 58.7901 89.5348C58.8732 89.265 59.1638 89.0366 59.4129 88.7252Z" fill="#985BE7"/>
<path d="M55.2198 84.5526C54.582 85.434 54.0393 86.3803 53.6006 87.3759C53.3744 88.4548 53.2561 89.5535 53.2476 90.6559C52.7286 90.4275 52.0851 90.3029 52.0643 90.0953C51.8275 89.0919 51.8275 88.0472 52.0643 87.0437C52.5933 85.9992 53.2952 85.0516 54.1403 84.2412C54.1818 84.1997 54.7216 84.4073 55.2198 84.5526Z" fill="#985BE7"/>
<path d="M58.3544 82.6012C58.3544 82.6012 58.5827 82.3106 58.7696 82.2898C58.9564 82.2691 59.5584 82.1445 59.766 82.2898C59.8657 82.4255 59.9296 82.5843 59.9513 82.7513C59.9731 82.9183 59.9522 83.088 59.8905 83.2447C59.3927 83.7082 59.0368 84.3034 58.8641 84.9613C58.6914 85.6191 58.709 86.3125 58.9149 86.9607C58.9149 87.189 58.6242 87.5627 58.4581 87.8741C58.1052 87.6665 57.607 87.5627 57.4409 87.2513C57.1007 86.4756 57.0058 85.6143 57.169 84.7831C57.3323 83.9519 57.7459 83.1906 58.3544 82.6012V82.6012Z" fill="#985BE7"/>
<path d="M49.0958 80.5046C48.5353 81.8124 48.0787 82.9542 47.5182 84.0544C47.471 84.1815 47.386 84.2912 47.2747 84.3686C47.1633 84.4461 47.0309 84.4875 46.8953 84.4875C46.7597 84.4875 46.6274 84.4461 46.5161 84.3686C46.4047 84.2912 46.3197 84.1815 46.2725 84.0544C45.6705 83.1825 46.065 82.3729 46.584 81.5841C47.5182 80.2762 47.5596 80.2347 49.0958 80.5046Z" fill="#985BE7"/>
<path d="M41.6635 74.339C41.02 72.6575 41.4351 71.6818 42.4108 71.3912C42.5461 71.3475 42.6898 71.336 42.8303 71.3576C42.9709 71.3793 43.1045 71.4334 43.2204 71.5158C43.3865 71.6611 43.511 72.1385 43.3864 72.2838C42.8674 72.9897 42.2655 73.654 41.6635 74.339Z" fill="#985BE7"/>
<path d="M47.4353 76.851C47.5599 75.5224 48.4733 74.4014 49.5112 74.4014C49.655 74.385 49.8004 74.412 49.9287 74.4787C50.0571 74.5455 50.1627 74.6491 50.2318 74.7762C50.3009 74.9033 50.3305 75.0482 50.3168 75.1922C50.3031 75.3362 50.2466 75.4729 50.1548 75.5847C49.3244 76.1244 48.6601 77.1209 47.4353 76.851Z" fill="#985BE7"/>
<path d="M54.4729 78.657C54.0785 79.9233 53.8709 81.0235 52.6045 81.4387C51.7949 79.6534 52.4178 78.6155 54.4729 78.657Z" fill="#985BE7"/>
<path d="M46.6872 67.3432C46.3966 68.0283 46.3551 68.5472 46.0852 68.6925C45.6498 68.833 45.1931 68.8962 44.7358 68.8794C44.7358 68.4227 44.7359 67.7999 45.0265 67.5508C45.3171 67.3017 45.8984 67.4262 46.6872 67.3432Z" fill="#985BE7"/>
<path d="M43.138 61.9873C43.138 62.6724 43.138 63.1914 43.138 63.2952C42.7203 63.5081 42.2722 63.6552 41.8095 63.7311C41.8095 63.399 41.5811 62.9007 41.8095 62.7762C42.2154 62.4555 42.6621 62.1902 43.138 61.9873V61.9873Z" fill="#985BE7"/>
<path d="M77.8475 105.997C77.7308 106.164 77.5755 106.3 77.3948 106.395C77.2141 106.489 77.0133 106.538 76.8096 106.538C76.6058 106.538 76.405 106.489 76.2243 106.395C76.0436 106.3 75.8883 106.164 75.7716 105.997C75.3442 105.361 75.0218 104.66 74.8166 103.921C73.7391 100.409 73.7972 96.6455 74.9827 93.1678C75.1909 92.5158 75.522 91.9098 75.9584 91.3825C76.046 91.2317 76.1717 91.1065 76.3229 91.0195C76.4741 90.9325 76.6455 90.8867 76.82 90.8867C76.9944 90.8867 77.1657 90.9325 77.3169 91.0195C77.4681 91.1065 77.5938 91.2317 77.6814 91.3825C80.567 94.8286 80.7745 102.343 78.0343 105.914L77.8475 105.997ZM76.8303 104.149C78.9063 100.184 78.7401 96.4685 76.6019 94.0397C75.3356 97.3068 75.4178 100.943 76.8303 104.149V104.149Z" fill="#985BE7"/>
<path d="M69.7094 118.536C68.9195 119.092 68.0866 119.585 67.2184 120.009C65.4786 120.691 63.6202 121.018 61.7523 120.972C59.8843 120.925 58.0445 120.507 56.3406 119.74C55.8466 119.551 55.3897 119.277 54.9912 118.93C54.0985 118.12 54.14 117.249 55.2195 116.854C57.4096 115.863 59.8024 115.4 62.2042 115.505C64.606 115.61 66.9496 116.278 69.0453 117.456C69.1734 117.532 69.2804 117.639 69.3566 117.768C69.4924 118.015 69.6103 118.271 69.7094 118.536V118.536ZM56.8802 117.975C60.5131 119.677 64.3537 119.636 66.2012 117.975C63.1746 116.811 59.8238 116.811 56.7972 117.975H56.8802Z" fill="#985BE7"/>
<path d="M22.6279 127.794C22.6755 127.194 22.58 126.591 22.349 126.036C22.118 125.48 21.7582 124.987 21.2994 124.597C20.3754 123.795 19.3034 123.182 18.1439 122.791C17.9319 122.728 17.724 122.651 17.5211 122.563C17.4306 122.528 17.3526 122.467 17.2976 122.388C17.2427 122.308 17.2133 122.213 17.2133 122.116C17.2133 122.02 17.2427 121.925 17.2976 121.845C17.3526 121.766 17.4306 121.705 17.5211 121.67C17.7714 121.586 18.0283 121.523 18.2892 121.483C18.8095 121.386 19.3227 121.254 19.8254 121.089C20.5805 120.864 21.2465 120.41 21.7304 119.788C22.2143 119.166 22.4918 118.409 22.5241 117.622C22.4821 117.25 22.4821 116.874 22.5241 116.501C22.5694 116.386 22.6424 116.285 22.7366 116.205C22.8308 116.125 22.9432 116.07 23.0638 116.044C23.1808 116.075 23.2881 116.134 23.3753 116.218C23.4625 116.302 23.5268 116.406 23.5621 116.522C23.6595 116.965 23.7151 117.417 23.7282 117.871C23.8018 118.651 24.1176 119.389 24.6313 119.981C25.145 120.573 25.8309 120.989 26.593 121.172C27.063 121.307 27.5415 121.412 28.0254 121.483C28.4198 121.587 28.9594 121.483 28.9802 122.106C29.001 122.729 28.5028 122.604 28.1707 122.77C27.2762 123.167 26.4031 123.611 25.555 124.099C24.8711 124.466 24.3099 125.025 23.9409 125.708C23.5719 126.39 23.4113 127.166 23.4791 127.939C23.4791 128.064 23.4791 128.168 23.4791 128.292C23.4791 128.417 23.2714 128.936 22.9393 128.853C22.6071 128.77 22.5033 128.521 22.3788 128.272C22.2542 128.023 22.6279 128.002 22.6279 127.794ZM20.0123 122.231L23.1468 124.992L26.2815 122.251C25.7069 121.94 25.1523 121.594 24.6208 121.213C24.0811 120.757 23.6244 120.196 23.1262 119.698C22.373 120.862 21.2884 121.773 20.0123 122.314V122.231Z" fill="#985BE7"/>
<path d="M162.67 121.567C162.296 121.131 162.047 120.964 162.005 120.757C161.984 120.418 161.984 120.078 162.005 119.74C161.846 118.771 161.624 117.815 161.341 116.875C161.185 116.484 160.952 116.128 160.656 115.829C160.36 115.529 160.007 115.292 159.618 115.131C159.308 114.997 159.009 114.837 158.725 114.654C158.04 114.197 158.019 113.699 158.725 113.221C159.431 112.744 159.742 112.557 160.199 112.163C160.808 111.66 161.293 111.024 161.617 110.304C161.941 109.584 162.095 108.8 162.068 108.011C162.068 107.741 162.068 107.471 162.068 107.222C162.068 106.973 162.234 106.475 162.67 106.578C163.105 106.682 163.043 106.952 163.147 107.201C163.251 107.45 163.147 107.575 163.147 107.762C163.124 108.753 163.359 109.733 163.828 110.606C164.298 111.479 164.986 112.216 165.825 112.744C166.012 112.889 166.219 112.993 166.406 113.117C167.257 113.678 167.278 114.301 166.406 114.695C165.384 115.131 164.527 115.881 163.96 116.837C163.392 117.792 163.144 118.903 163.251 120.01C163.272 120.272 163.272 120.536 163.251 120.798C163.08 121.071 162.885 121.328 162.67 121.567ZM162.441 116.833C162.848 116.22 163.299 115.637 163.79 115.09C164.23 114.67 164.71 114.295 165.223 113.969L162.524 110.876L159.763 114.01C160.96 114.57 161.907 115.554 162.42 116.771L162.441 116.833Z" fill="#985BE7"/>
<path d="M161.715 15.0712L163.355 16.8149C163.629 17.0664 163.86 17.3609 164.04 17.6869C164.084 17.8256 164.095 17.9725 164.074 18.1164C164.052 18.2604 163.998 18.3974 163.915 18.5172C163.788 18.5881 163.645 18.6254 163.5 18.6254C163.355 18.6254 163.212 18.5881 163.085 18.5172C162.483 17.9982 161.964 17.3754 161.383 16.8149C161.175 16.5866 160.926 16.3998 160.531 16.0469C160.447 16.4296 160.391 16.8182 160.365 17.2094C160.365 19.7835 160.365 22.3577 160.365 24.9111C160.365 25.5131 160.552 26.2812 159.66 26.4888C159.078 26.6133 158.767 26.0736 158.767 24.9318C158.767 22.586 158.767 20.2195 158.767 17.8737C158.8 17.2761 158.694 16.679 158.455 16.1299L156.836 17.7491C156.598 18.0428 156.326 18.3076 156.027 18.538C155.899 18.6052 155.756 18.6404 155.611 18.6404C155.467 18.6404 155.324 18.6052 155.196 18.538C155.129 18.4136 155.094 18.2745 155.094 18.1332C155.094 17.9918 155.129 17.8527 155.196 17.7284C155.495 17.288 155.835 16.8778 156.214 16.5036L157.854 14.7598H152.705C152.229 14.8119 151.749 14.8119 151.273 14.7598C151.136 14.7115 151.012 14.632 150.911 14.5275C150.81 14.423 150.735 14.2964 150.692 14.1577C150.708 14.01 150.762 13.869 150.849 13.7488C150.937 13.6287 151.054 13.5334 151.19 13.4727C151.654 13.3776 152.128 13.3358 152.601 13.3481H157.376L157.501 12.9952L154.968 10.4418C154.532 9.98514 153.805 9.48691 154.449 8.84337C155.092 8.19983 155.591 8.96794 156.027 9.40388C156.857 10.1927 157.688 11.0231 158.705 12.0403C158.705 11.3553 158.85 10.9608 158.85 10.5664C158.85 8.32439 158.85 6.06163 158.85 3.81962C158.85 3.11381 158.601 2.22116 159.618 1.97205C160.199 1.82673 160.448 2.40801 160.448 3.90268V12.0403C161.283 11.4262 162.055 10.7308 162.753 9.96439C163.062 9.59586 163.41 9.26176 163.791 8.96792C163.959 8.87093 164.146 8.81146 164.34 8.79354C164.533 8.77563 164.728 8.79972 164.912 8.86415C165.368 9.13402 165.14 9.61146 164.912 9.94361C164.144 10.7532 163.334 11.5421 162.545 12.3309C162.317 12.5593 162.13 12.8084 161.756 13.2651H165.638H167.714C168.192 13.2651 168.752 13.2651 168.752 14.0124C168.752 14.7598 168.212 14.6975 167.714 14.6975H162.005L161.715 15.0712Z" fill="#985BE7"/>
<path d="M35.5608 111.996C35.5608 112.226 35.4925 112.451 35.3648 112.642C35.237 112.833 35.0556 112.982 34.8431 113.07C34.6307 113.158 34.397 113.181 34.1715 113.137C33.946 113.092 33.7388 112.981 33.5762 112.818C33.4136 112.656 33.3029 112.449 33.2581 112.223C33.2132 111.998 33.2362 111.764 33.3242 111.552C33.4122 111.339 33.5612 111.158 33.7523 111.03C33.9435 110.902 34.1684 110.834 34.3983 110.834C34.7066 110.834 35.0022 110.956 35.2202 111.174C35.4382 111.392 35.5608 111.688 35.5608 111.996V111.996Z" fill="#985BE7"/>
<path d="M137.925 3.81963C137.925 4.04955 137.856 4.27433 137.729 4.46551C137.601 4.65668 137.419 4.80568 137.207 4.89367C136.994 4.98166 136.761 5.00467 136.535 4.95981C136.31 4.91496 136.103 4.80424 135.94 4.64166C135.777 4.47908 135.667 4.27194 135.622 4.04643C135.577 3.82092 135.6 3.58719 135.688 3.37477C135.776 3.16234 135.925 2.98077 136.116 2.85303C136.307 2.72529 136.532 2.65711 136.762 2.65711C137.07 2.65711 137.366 2.77958 137.584 2.9976C137.802 3.21561 137.925 3.51131 137.925 3.81963V3.81963Z" fill="#985BE7"/>
<path d="M171.368 23.8731C171.368 24.1815 171.246 24.4772 171.028 24.6952C170.81 24.9132 170.514 25.0357 170.206 25.0357C169.897 25.0357 169.602 24.9132 169.384 24.6952C169.166 24.4772 169.043 24.1815 169.043 23.8731C169.043 23.5648 169.166 23.2691 169.384 23.0511C169.602 22.8331 169.897 22.7106 170.206 22.7106C170.514 22.7106 170.81 22.8331 171.028 23.0511C171.246 23.2691 171.368 23.5648 171.368 23.8731V23.8731Z" fill="#985BE7"/>
<path d="M177.202 99.4372C177.202 99.6671 177.133 99.8919 177.006 100.083C176.878 100.274 176.696 100.423 176.484 100.511C176.271 100.599 176.038 100.622 175.812 100.577C175.587 100.533 175.38 100.422 175.217 100.259C175.054 100.097 174.944 99.8895 174.899 99.664C174.854 99.4385 174.877 99.2048 174.965 98.9923C175.053 98.7799 175.202 98.5983 175.393 98.4706C175.584 98.3429 175.809 98.2747 176.039 98.2747C176.347 98.2747 176.643 98.3971 176.861 98.6152C177.079 98.8332 177.202 99.1289 177.202 99.4372V99.4372Z" fill="#985BE7"/>
<path d="M11.646 133.503C11.646 133.811 11.5235 134.107 11.3055 134.325C11.0875 134.543 10.7918 134.666 10.4834 134.666C10.1751 134.666 9.87939 134.543 9.66138 134.325C9.44336 134.107 9.32092 133.811 9.32092 133.503C9.32092 133.195 9.44336 132.899 9.66138 132.681C9.87939 132.463 10.1751 132.34 10.4834 132.34C10.7918 132.34 11.0875 132.463 11.3055 132.681C11.5235 132.899 11.646 133.195 11.646 133.503V133.503Z" fill="#985BE7"/>
<path d="M155.176 106.641C155.176 106.87 155.108 107.095 154.98 107.286C154.852 107.478 154.671 107.627 154.458 107.715C154.246 107.803 154.012 107.826 153.786 107.781C153.561 107.736 153.354 107.625 153.191 107.463C153.029 107.3 152.918 107.093 152.873 106.867C152.828 106.642 152.851 106.408 152.939 106.196C153.027 105.983 153.176 105.802 153.367 105.674C153.559 105.546 153.783 105.478 154.013 105.478C154.322 105.478 154.617 105.6 154.835 105.818C155.053 106.036 155.176 106.332 155.176 106.641V106.641Z" fill="#985BE7"/>
<path d="M17.6245 29.665C17.2508 29.2291 17.0225 29.063 16.9602 28.8554C16.8979 28.6478 16.9602 28.1704 16.9602 27.8382C16.8026 26.8764 16.5807 25.9263 16.2959 24.9942C16.1395 24.6033 15.9066 24.2476 15.6106 23.9482C15.3147 23.6487 14.9618 23.4114 14.5728 23.2504C14.2822 23.0844 13.95 22.939 13.6802 22.7522C12.9951 22.3162 12.9744 21.818 13.6802 21.3406C14.386 20.8631 14.6974 20.6763 15.1541 20.2611C15.7655 19.7607 16.2525 19.1253 16.5766 18.4049C16.9008 17.6845 17.0535 16.8986 17.0225 16.1092C17.0225 15.8393 17.0225 15.5695 17.0225 15.2996C17.0225 15.0297 17.1886 14.573 17.6245 14.6561C18.0604 14.7391 17.9981 15.0505 18.1227 15.2789C18.1537 15.4644 18.1537 15.6538 18.1227 15.8394C18.1023 16.833 18.338 17.8151 18.807 18.6913C19.276 19.5675 19.9625 20.3082 20.8006 20.8423L21.3819 21.1952C22.2331 21.7765 22.2538 22.3785 21.3819 22.773C20.3637 23.2141 19.5105 23.9652 18.944 24.9194C18.3774 25.8736 18.1263 26.9822 18.2265 28.0873C18.2479 28.3499 18.2479 28.6137 18.2265 28.8762C18.0501 29.1568 17.8486 29.4208 17.6245 29.665V29.665ZM17.3962 24.9527C17.8032 24.333 18.2541 23.7433 18.7455 23.1881C19.2001 22.7862 19.6784 22.4119 20.1778 22.0672C19.2022 20.9462 18.3095 19.9912 17.4792 18.9948L14.7181 22.1087C15.9201 22.6957 16.8602 23.7097 17.3546 24.9527H17.3962Z" fill="#985BE7"/>
<path d="M28.3572 36.7024C28.3517 37.0126 28.2247 37.3083 28.0034 37.5257C27.7821 37.7432 27.4841 37.865 27.1739 37.8649C26.8655 37.8649 26.5699 37.7424 26.3519 37.5244C26.1339 37.3064 26.0114 37.0107 26.0114 36.7024C26.0114 36.3941 26.1339 36.0984 26.3519 35.8804C26.5699 35.6624 26.8655 35.5399 27.1739 35.5399C27.4841 35.5398 27.7821 35.6617 28.0034 35.8791C28.2247 36.0965 28.3517 36.3922 28.3572 36.7024Z" fill="#985BE7"/>
<path d="M10.1509 14.8014C10.1465 15.033 10.0729 15.2579 9.93973 15.4474C9.80655 15.6369 9.61976 15.7823 9.40339 15.865C9.18702 15.9476 8.95087 15.9638 8.72527 15.9113C8.49967 15.8589 8.29495 15.7402 8.13723 15.5706C7.97951 15.401 7.87603 15.1881 7.84011 14.9593C7.80418 14.7305 7.8375 14.4962 7.93564 14.2864C8.03379 14.0766 8.19235 13.9009 8.39102 13.7818C8.58969 13.6628 8.81936 13.6058 9.05064 13.6181C9.35167 13.6342 9.63462 13.7666 9.83989 13.9874C10.0452 14.2081 10.1568 14.5 10.1509 14.8014Z" fill="#985BE7"/>
<path d="M9.05086 48.0992C9.05086 48.4075 8.92842 48.7032 8.71041 48.9213C8.49239 49.1393 8.19667 49.2617 7.88835 49.2617C7.58003 49.2617 7.2843 49.1393 7.06629 48.9213C6.84827 48.7032 6.72583 48.4075 6.72583 48.0992C6.72583 47.7909 6.84827 47.4952 7.06629 47.2772C7.2843 47.0592 7.58003 46.9367 7.88835 46.9367C8.19667 46.9367 8.49239 47.0592 8.71041 47.2772C8.92842 47.4952 9.05086 47.7909 9.05086 48.0992V48.0992Z" fill="#985BE7"/>
<path d="M172.531 1.16252C172.531 1.39244 172.463 1.61722 172.335 1.80839C172.207 1.99957 172.026 2.14857 171.813 2.23656C171.601 2.32455 171.367 2.34756 171.141 2.3027C170.916 2.25784 170.709 2.14713 170.546 1.98454C170.384 1.82196 170.273 1.61482 170.228 1.38932C170.183 1.16381 170.206 0.930047 170.294 0.717624C170.382 0.505201 170.531 0.323657 170.722 0.195917C170.914 0.0681777 171.138 0 171.368 0C171.677 0 171.972 0.122472 172.19 0.340487C172.408 0.558502 172.531 0.854196 172.531 1.16252V1.16252Z" fill="#985BE7"/>
<path d="M34.3982 132.32C34.3982 132.63 34.2764 132.928 34.059 133.149C33.8416 133.371 33.5459 133.498 33.2357 133.503C32.9235 133.498 32.6256 133.371 32.4049 133.151C32.1841 132.93 32.0577 132.632 32.0524 132.32C32.0578 132.009 32.1848 131.714 32.4061 131.496C32.6274 131.279 32.9254 131.157 33.2357 131.157C33.544 131.157 33.8396 131.28 34.0576 131.498C34.2756 131.716 34.3982 132.011 34.3982 132.32V132.32Z" fill="#985BE7"/>
<circle cx="126" cy="133" r="18" fill="#8840E3"/>
<path d="M125.625 148.25C122.535 148.25 119.514 147.334 116.944 145.617C114.375 143.9 112.372 141.46 111.189 138.604C110.007 135.749 109.697 132.608 110.3 129.577C110.903 126.546 112.391 123.762 114.576 121.576C116.762 119.391 119.546 117.903 122.577 117.3C125.608 116.697 128.749 117.007 131.604 118.189C134.46 119.372 136.9 121.375 138.617 123.944C140.334 126.514 141.25 129.535 141.25 132.625C141.243 136.767 139.595 140.737 136.666 143.666C133.737 146.595 129.767 148.243 125.625 148.25V148.25ZM125.625 118.227C122.777 118.227 119.993 119.071 117.626 120.653C115.258 122.235 113.412 124.484 112.323 127.115C111.233 129.746 110.948 132.641 111.503 135.434C112.059 138.227 113.43 140.793 115.444 142.806C117.457 144.82 120.023 146.191 122.816 146.747C125.609 147.302 128.504 147.017 131.135 145.927C133.766 144.838 136.015 142.992 137.597 140.624C139.179 138.257 140.023 135.473 140.023 132.625C140.02 128.807 138.502 125.147 135.802 122.448C133.103 119.748 129.443 118.23 125.625 118.227V118.227Z" fill="white"/>
<path d="M133.237 133.158H131.558H131.118V132.638C131.118 132.118 131.118 131.612 131.224 131.118C131.404 129.622 131.735 128.148 132.211 126.719L132.318 126.372C132.394 126.166 132.444 125.951 132.464 125.732C132.456 125.564 132.39 125.404 132.278 125.279L132.198 125.172L132.064 124.919L131.824 125.092L131.718 125.159C131.583 125.226 131.468 125.327 131.384 125.452C131.311 125.615 131.253 125.785 131.211 125.959C131.217 126.026 131.217 126.092 131.211 126.159C130.574 127.968 130.162 129.849 129.984 131.758L129.904 133.092H121.425V132.558C121.425 132.358 121.425 132.145 121.425 131.945C121.419 131.448 121.366 130.952 121.265 130.465C120.932 128.945 120.519 127.412 120.119 125.932L119.999 125.479C119.936 125.318 119.811 125.188 119.652 125.119L119.546 125.052L119.306 124.866L119.159 125.132V125.239C119.055 125.364 118.99 125.517 118.972 125.679C118.98 125.866 119.015 126.05 119.079 126.226C119.079 126.292 119.079 126.346 119.079 126.412C119.172 126.826 119.279 127.239 119.386 127.639C119.639 128.572 119.879 129.545 120.066 130.492C120.246 131.368 120.308 132.265 120.252 133.158H117.759C117.654 133.148 117.547 133.159 117.447 133.191C117.346 133.223 117.252 133.275 117.173 133.345C117.118 133.401 117.076 133.468 117.048 133.542C117.021 133.615 117.009 133.693 117.013 133.771C117.013 133.945 117.093 134.358 117.759 134.385H120.132C120.132 134.478 120.132 134.558 120.132 134.611L120.012 135.051C119.746 135.985 119.479 136.918 119.199 137.838C119.079 138.198 118.946 138.531 118.812 138.878L118.532 139.624C118.319 140.251 118.639 140.464 118.839 140.544H119.079C119.149 140.561 119.222 140.561 119.292 140.544C119.386 140.494 119.468 140.426 119.535 140.344C119.601 140.261 119.65 140.166 119.679 140.064C119.826 139.651 119.986 139.251 120.132 138.851C120.613 137.7 120.993 136.509 121.265 135.291L121.425 134.425H130.158C130.402 136.013 130.85 137.564 131.491 139.038L131.611 139.344L131.691 139.584C131.75 139.79 131.835 139.987 131.944 140.171C132.018 140.293 132.121 140.393 132.245 140.464C132.369 140.534 132.509 140.571 132.651 140.571C132.725 140.561 132.797 140.535 132.861 140.496C132.925 140.457 132.981 140.406 133.024 140.344C133.065 140.249 133.086 140.147 133.086 140.044C133.086 139.941 133.065 139.839 133.024 139.744C133.024 139.584 132.904 139.424 132.851 139.251L132.491 138.291C132.251 137.651 132.011 136.958 131.784 136.345C131.562 135.721 131.423 135.071 131.371 134.411H132.184C132.544 134.411 132.904 134.411 133.264 134.411H133.451C133.731 134.411 134.237 134.411 134.397 133.865C134.42 133.795 134.424 133.72 134.41 133.648C134.396 133.576 134.364 133.508 134.317 133.452C134.117 133.238 133.824 133.158 133.237 133.158Z" fill="white"/>
</svg>
