<svg width="156" height="151" viewBox="0 0 156 151" fill="none" xmlns="http://www.w3.org/2000/svg">
<circle cx="67" cy="73" r="67" fill="#F0E8FF"/>
<path d="M106.09 78.9332C104.547 78.3467 103.152 77.4259 102.007 76.2369C100.861 75.0479 99.9935 73.6201 99.465 72.056C99.2879 71.4864 98.9454 70.9822 98.481 70.6077C98.0166 70.2332 97.4514 70.0053 96.8571 69.9529C94.7376 69.5588 92.6889 68.8499 90.779 67.8498C84.7968 64.7473 79.8923 59.9088 76.7091 53.9691C75.4451 51.936 74.6611 49.6416 74.4167 47.2601C74.4276 46.771 74.2677 46.2935 73.9644 45.9096C73.6612 45.5258 73.2335 45.2596 72.7552 45.157C70.4837 44.3765 68.4887 42.9515 67.0137 41.0559C66.7824 40.7404 66.4248 40.467 66.3617 40.1095C65.878 38.0064 64.1534 37.8381 62.4499 37.796C59.8271 37.8241 57.2346 38.3597 54.8155 39.3734C50.0233 41.3067 44.9036 42.2992 39.7361 42.2967C35.7777 42.3607 31.8876 41.2607 28.5488 39.1333C25.21 37.0059 22.5695 33.9448 20.9552 30.3299C19.3386 27.3365 18.351 24.0444 18.0528 20.6555C18.0541 20.1228 17.9542 19.5946 17.7584 19.0992C17.2573 18.0891 17.0602 16.9553 17.1909 15.8354C17.3215 14.7154 17.7744 13.6574 18.4945 12.7898C19.4829 11.2545 20.7448 9.86646 21.7964 8.3522C23.4579 5.97567 25.0563 3.53604 26.6757 1.09641C26.8439 0.844037 26.907 0.486515 27.1384 0.318265C27.4168 0.093075 27.7694 -0.0195164 28.1268 0.0027759C28.2828 0.0914148 28.4157 0.215778 28.5144 0.365663C28.6131 0.515548 28.6749 0.686695 28.6947 0.865067C28.6835 1.58201 28.5556 2.29235 28.3161 2.9682C27.6011 5.07133 26.8649 7.34272 26.0237 9.48791C24.859 11.8258 24.0644 14.3303 23.6682 16.912C23.4523 19.2004 23.7019 21.5088 24.4017 23.6983C25.1015 25.8878 26.2372 27.913 27.7404 29.6519C29.2436 31.3909 31.0831 32.8077 33.1483 33.8169C35.2135 34.8262 37.4616 35.4071 39.7572 35.5246C43.0637 35.8308 46.3974 35.4293 49.5367 34.3469C51.8712 33.5687 54.1846 32.7065 56.519 31.9704C60.3044 30.713 64.3534 30.4708 68.2617 31.268C72.1699 32.0651 75.8007 33.8737 78.7912 36.5131C80.3014 37.7418 81.7082 39.0923 82.9975 40.5511C84.1332 41.813 83.9229 42.4229 82.4086 43.1169C81.9667 43.2243 81.5508 43.4196 81.186 43.6912C80.8211 43.9627 80.5147 44.305 80.2851 44.6976C80.0554 45.0901 79.9072 45.525 79.8493 45.9761C79.7914 46.4272 79.8249 46.8853 79.9479 47.3232C80.1353 49.3286 80.9026 51.236 82.1562 52.8124C84.9767 56.4777 88.2645 59.7583 91.9358 62.5709C93.5804 63.8446 95.5783 64.5791 97.6563 64.674C98.4985 64.829 99.368 64.6591 100.09 64.1987C100.812 63.7382 101.333 63.0213 101.547 62.1923C102.031 60.7202 102.851 60.5309 103.966 61.5193C110.843 67.5343 114.902 74.8111 113.535 84.2542C112.996 86.7376 112.294 89.1826 111.432 91.5731C110.78 93.6762 109.918 95.7793 109.476 97.8825C108.822 100.586 108.732 103.395 109.214 106.135C109.695 108.874 110.736 111.485 112.273 113.803C114.414 116.747 117.442 118.927 120.913 120.025C124.383 121.122 128.114 121.079 131.559 119.902C133.283 119.229 134.882 118.304 136.627 117.799C138.73 117.063 140.834 116.474 143.042 115.948C143.484 115.822 144.051 116.285 144.577 116.474C144.283 116.874 144.093 117.421 143.715 117.673C141.612 119.124 139.277 120.449 137.132 121.879C135.681 122.889 134.398 124.109 132.926 125.16C130.549 126.927 128.089 128.21 125.039 126.653C124.355 126.46 123.647 126.361 122.936 126.359C117.323 125.639 112.085 123.149 107.983 119.25C104.625 116.007 102.574 111.644 102.22 106.989C101.83 101.753 102.547 96.4931 104.323 91.552C105.017 89.4489 105.753 87.472 106.258 85.3899C106.86 83.2706 106.801 81.0183 106.09 78.9332V78.9332ZM19.8615 20.6555C20.219 24.1507 21.3389 27.525 23.1424 30.5402C24.7333 33.6081 27.1541 36.1672 30.1289 37.9261C33.1036 39.6849 36.5126 40.5726 39.9674 40.488C44.6652 40.4451 49.3197 39.584 53.7219 37.9433C55.8942 37.1976 58.1146 36.6003 60.3678 36.1556C61.7623 35.9764 63.1686 35.9061 64.5741 35.9453C64.4327 35.6336 64.2711 35.3315 64.0903 35.0409C63.3896 34.2102 62.4564 33.6082 61.4108 33.3121C60.3651 33.016 59.2548 33.0395 58.2226 33.3795C55.8882 34.0945 53.5537 34.9148 51.2402 35.7139C47.7739 37.0002 44.0797 37.5586 40.3881 37.3544C31.7652 36.6814 24.3622 31.8021 22.4694 22.6325C22.0698 21.1813 21.3127 20.7817 19.7774 20.6555H19.8615ZM123.819 124.445C123.945 122.91 123.146 122.342 121.716 122.068C118.488 121.42 115.507 119.88 113.109 117.624C110.712 115.368 108.994 112.485 108.151 109.302C106.821 104.921 106.821 100.244 108.151 95.8634C108.887 93.2766 109.875 90.7528 110.696 88.2081C111.041 87.2673 111.295 86.2953 111.453 85.3057C111.652 84.2618 111.469 83.181 110.935 82.2616C110.402 81.3422 109.556 80.6458 108.551 80.3003C108.769 83.9002 108.142 87.5013 106.721 90.816C104.871 95.497 103.998 100.507 104.155 105.538C104.215 109.028 105.305 112.424 107.289 115.296C109.198 117.868 111.614 120.02 114.389 121.619C117.164 123.218 120.238 124.23 123.42 124.592C123.42 124.655 123.588 124.529 123.735 124.445H123.819ZM80.9575 41.161C76.5199 35.7981 68.3387 31.718 64.8264 32.9378C65.7577 34.3085 66.567 35.7582 67.245 37.2702C69.0958 42.4439 73.6806 43.5797 77.7607 45.0098L80.9575 41.161ZM103.44 63.5804L99.4439 66.9033C100.243 68.7751 101.021 70.689 101.884 72.5608C102.736 74.4217 104.229 75.9144 106.09 76.767C108.025 77.7345 109.939 78.744 112.063 79.8376C111.804 76.6756 110.897 73.6006 109.399 70.8039C107.901 68.0071 105.844 65.5484 103.356 63.5804H103.44ZM125.607 122.615C126.364 125.56 127.247 126.043 129.687 125.034C130.191 124.836 130.671 124.582 131.117 124.277C132 123.667 132.863 123.015 133.683 122.342C134.503 121.669 135.302 120.954 136.102 120.239C132.8 121.821 129.183 122.633 125.523 122.615H125.607ZM24.0468 8.8149L23.8364 8.58355C22.3147 10.6554 20.9104 12.811 19.6302 15.0402C18.4104 17.3536 19.2095 18.4683 21.5861 18.7627C22.2801 15.4187 23.1214 12.1168 23.9626 8.8149H24.0468ZM77.1508 51.1509C77.7817 52.1184 78.3285 53.0017 78.9595 53.8008C78.9595 53.906 79.6956 53.5485 80.0741 53.4012C79.0646 50.8775 79.0646 50.8775 77.0667 51.1509H77.1508ZM91.2417 64.2324C90.6318 66.1252 91.1366 66.63 93.5972 66.9665C94.144 64.9475 92.2092 65.1157 91.1576 64.2324H91.2417ZM78.1393 49.2581C78.1393 47.1549 78.1393 47.155 76.0361 47.0288C76.1623 47.7228 76.2885 48.3537 76.4567 49.2581H78.1393ZM97.7404 68.1862C97.5511 66.672 96.9623 65.957 95.5321 66.3986C95.427 68.1863 95.427 68.1863 97.6563 68.2704L97.7404 68.1862ZM81.4411 57.3762C81.7776 56.5139 82.2193 55.9671 82.1142 55.5675C82.0868 55.4159 82.0204 55.2741 81.9214 55.1562C81.8223 55.0382 81.6942 54.9482 81.5497 54.8951C81.4051 54.842 81.2492 54.8275 81.0973 54.8532C80.9455 54.879 80.803 54.9439 80.684 55.0417C80.4409 55.2236 80.2091 55.4203 79.99 55.6306L81.4411 57.3762ZM88.8862 64.4637C89.7065 63.7487 90.0009 62.9915 89.0124 62.3606C88.718 62.1924 88.024 62.7181 87.1827 63.0336L88.8862 64.4637ZM87.0565 59.963C86.2363 60.1944 85.6895 60.2154 85.4161 60.4888C85.3056 60.6505 85.238 60.8376 85.2196 61.0326C85.2012 61.2275 85.2326 61.424 85.3109 61.6035C85.6895 62.2134 86.2573 62.0451 86.6359 61.6035C86.817 61.102 86.9302 60.5786 86.9724 60.0471L87.0565 59.963ZM84.3645 57.3341C83.6074 57.6706 83.0816 57.7547 82.8503 58.0492C82.6189 58.3436 82.8503 58.8063 82.8503 59.1849C83.2873 59.1622 83.7159 59.0551 84.1122 58.8694C84.2594 58.7853 84.1752 58.2385 84.2804 57.4182L84.3645 57.3341Z" fill="#985BE7"/>
<path d="M114.65 30.33C114.478 30.8025 114.267 31.2597 114.019 31.6971C110.554 36.7694 109.059 42.9309 109.812 49.0269C109.844 49.4118 109.844 49.7987 109.812 50.1836C109.812 51.3403 109.139 51.8451 108.004 51.5927C106.868 51.3403 106.09 50.9828 105.122 50.7514C103.007 50.125 100.766 50.0492 98.613 50.5314C96.4598 51.0135 94.4655 52.0376 92.8191 53.5065C91.0525 55.0839 89.1807 56.5771 87.4982 58.2386C74.1012 71.5935 42.6173 103.161 29.1783 116.495C28.5371 116.961 28.0747 117.633 27.8681 118.398C27.6615 119.163 27.7231 119.976 28.0427 120.702C28.4457 121.524 28.557 122.46 28.3582 123.354C28.1595 124.248 27.6625 125.048 26.949 125.623C25.6451 127.053 24.4674 128.567 23.1634 129.976C22.9994 130.164 22.7951 130.313 22.5658 130.411C22.3364 130.51 22.0878 130.555 21.8384 130.544C21.4599 130.544 21.1234 129.808 20.9972 129.345C20.5766 127.81 20.2611 126.212 19.8825 124.529C18.2421 124.151 16.6858 123.814 15.1294 123.415C14.6457 123.288 13.8886 122.931 13.8886 122.636C13.8952 122.355 13.9582 122.078 14.0738 121.822C14.1894 121.565 14.3553 121.334 14.5616 121.143C16.3283 119.524 18.2001 118.052 19.9667 116.453C20.266 116.16 20.6417 115.958 21.0509 115.868C21.46 115.779 21.886 115.807 22.2801 115.948C26.9911 117.147 25.6031 117.358 28.947 114.014C42.5333 100.49 74.2064 68.8173 87.8347 55.126C89.4893 53.4153 91.0015 51.5724 92.3564 49.6158C93.2656 48.2239 93.8769 46.6589 94.152 45.0193C94.4271 43.3797 94.3599 41.7009 93.9548 40.0886C93.7445 38.8898 93.3238 37.7331 93.0294 36.5343C92.6298 34.957 93.0294 34.4312 94.7119 34.4312C95.2587 34.4312 95.7845 34.4312 96.3313 34.5784C102.124 35.1522 107.934 33.6626 112.736 30.3721C113.221 30.1027 113.736 29.891 114.271 29.7412L114.65 30.33ZM110.612 34.0526C107.941 34.8518 105.711 35.7141 103.398 36.1557C101.084 36.5974 98.7499 36.6394 96.5206 36.8498C97.6142 39.2053 98.6238 41.4767 99.7594 43.727C99.9471 44.1275 100.256 44.4587 100.643 44.6734C102.935 45.8091 105.27 46.7765 107.835 48.0594C107.568 43.2313 108.523 38.4138 110.612 34.0526V34.0526ZM19.6302 119.839C20.3106 120.129 21.0141 120.361 21.7333 120.533C22.2906 120.572 22.8172 120.803 23.2236 121.187C23.63 121.57 23.8911 122.082 23.9626 122.636C24.158 123.354 24.404 124.057 24.6987 124.74C27.0542 122.426 27.3276 123.583 25.7082 118.43C23.6051 118.283 21.2917 116.621 19.6302 119.839ZM97.6353 48.1225L104.66 48.2487C103.398 47.7019 101.968 47.0079 100.453 46.5242C99.8797 46.451 99.2997 46.6017 98.8341 46.9448C98.3907 47.2902 97.9885 47.6853 97.6353 48.1225V48.1225ZM96.2892 46.7555C96.7868 46.3064 97.2507 45.8213 97.6773 45.3043C97.8095 45.1332 97.9041 44.9361 97.9548 44.7259C98.0056 44.5157 98.0114 44.2971 97.9718 44.0845C97.6875 42.7185 97.145 41.4193 96.3734 40.2568C96.3523 42.2127 96.2472 44.5262 96.2472 46.7976L96.2892 46.7555ZM17.4219 121.332C17.4219 121.543 17.4219 121.774 17.4219 122.006C17.9699 122.208 18.5324 122.37 19.1044 122.489C19.874 122.57 20.5913 122.916 21.1326 123.469C21.674 124.022 22.0055 124.747 22.0698 125.518C22.2206 126.132 22.4102 126.736 22.6376 127.326L23.2055 127.158C23.3343 126.371 23.2921 125.565 23.0817 124.796C22.8712 124.026 22.4973 123.311 21.9857 122.7C21.3753 122.147 20.6473 121.74 19.8566 121.511C19.0658 121.281 18.2332 121.235 17.4219 121.375V121.332Z" fill="#985BE7"/>
<path d="M19.4037 18.5901L17.8114 18.7294L26.443 117.389L28.0353 117.25L19.4037 18.5901Z" fill="#985BE7"/>
<path d="M31.4728 115.877L31.3289 117.475L130.365 126.389L130.509 124.79L31.4728 115.877Z" fill="#985BE7"/>
<path d="M6.5066 95.2747C6.54559 94.6658 6.44239 94.0562 6.20513 93.4941C5.96787 92.9319 5.60306 92.4327 5.13957 92.0359C4.21424 91.2194 3.13434 90.5972 1.96389 90.2062C1.74227 90.1417 1.52452 90.0645 1.31186 89.9748C1.22015 89.94 1.14126 89.8781 1.08556 89.7973C1.02985 89.7166 1 89.6207 1 89.5226C1 89.4245 1.02985 89.3288 1.08556 89.248C1.14126 89.1672 1.22015 89.1053 1.31186 89.0705C1.56072 88.966 1.82248 88.8953 2.09007 88.8602C2.61823 88.7763 3.13869 88.6497 3.64637 88.4816C4.40906 88.2534 5.081 87.7918 5.56767 87.1618C6.05434 86.5317 6.33126 85.765 6.35943 84.9694C6.35165 84.5811 6.38689 84.1932 6.46456 83.8127C6.50813 83.697 6.58177 83.5951 6.6779 83.5175C6.77403 83.4398 6.88918 83.3893 7.01139 83.371C7.17964 83.371 7.45303 83.6444 7.51612 83.8547C7.59857 84.3062 7.64779 84.7631 7.66336 85.2217C7.74237 86.0139 8.06643 86.7617 8.59041 87.3611C9.11438 87.9605 9.81216 88.3816 10.5867 88.5657C11.0628 88.7031 11.5476 88.8085 12.0378 88.8812C12.4374 88.9864 12.9633 88.8812 13.0053 89.5121C13.0474 90.1431 12.5216 90.0169 12.1851 90.1851C11.2729 90.5745 10.3876 91.0242 9.53511 91.5311C8.84586 91.9068 8.2804 92.4744 7.90712 93.1649C7.53384 93.8555 7.36877 94.6395 7.43198 95.4219C7.44213 95.5409 7.44213 95.6605 7.43198 95.7795C7.43198 96.137 7.24274 96.4314 6.88521 96.3473C6.52768 96.2632 6.46454 96.0108 6.31732 95.7584C6.1701 95.506 6.48557 95.4009 6.5066 95.2747ZM3.83564 89.6383L7.03238 92.4355C8.06291 91.5101 9.13553 90.5847 10.2081 89.6593C9.62317 89.349 9.06096 88.9976 8.52565 88.6078C7.99472 88.1225 7.48928 87.6101 7.01139 87.0725C6.22287 88.2166 5.11983 89.1078 3.83564 89.6383V89.6383Z" fill="#985BE7"/>
<path d="M151.581 77.2508C151.181 76.8092 150.95 76.6409 150.887 76.4306C150.823 76.2203 150.887 75.7366 150.887 75.4001C150.708 74.4209 150.476 73.452 150.193 72.4978C149.867 71.7135 149.248 71.0872 148.468 70.7522C148.152 70.5839 147.837 70.4367 147.543 70.2474C146.849 69.7847 146.849 69.301 147.543 68.7963C148.055 68.4695 148.547 68.1112 149.015 67.7237C149.633 67.2146 150.127 66.571 150.459 65.8421C150.79 65.1131 150.951 64.318 150.929 63.5174C150.929 63.265 150.929 62.9916 150.929 62.7182C150.929 62.4448 151.118 61.9611 151.539 62.0662C151.959 62.1714 151.938 62.4448 152.043 62.6972C152.148 62.9495 152.043 63.0757 152.043 63.265C152.027 64.2733 152.27 65.2688 152.748 66.1563C153.227 67.0438 153.926 67.7935 154.777 68.3336L155.366 68.6911C156.207 69.28 156.25 69.8899 155.261 70.2895C154.229 70.7363 153.365 71.4973 152.791 72.464C152.217 73.4307 151.963 74.5538 152.064 75.6735C152.096 75.9389 152.096 76.2072 152.064 76.4727C151.927 76.7464 151.765 77.0069 151.581 77.2508V77.2508ZM151.349 72.4557C151.767 71.8437 152.216 71.254 152.695 70.6891C153.157 70.2748 153.649 69.8952 154.167 69.5534L151.433 66.4197L148.636 69.5955C149.86 70.1849 150.825 71.2025 151.349 72.4557V72.4557Z" fill="#985BE7"/>
<path d="M140.918 48.501L142.579 50.2677C142.863 50.5169 143.098 50.8164 143.273 51.151C143.328 51.2888 143.347 51.438 143.328 51.585C143.31 51.732 143.255 51.8721 143.168 51.9922C143.039 52.064 142.895 52.1018 142.747 52.1018C142.6 52.1018 142.455 52.064 142.327 51.9922C141.717 51.4664 141.17 50.8565 140.602 50.2677L139.74 49.4895C139.652 49.8776 139.589 50.2711 139.551 50.6673C139.551 53.2751 139.551 55.883 139.551 58.4698C139.551 59.1008 139.74 59.8789 138.836 60.0682C138.247 60.1944 137.931 59.6686 137.931 58.4909C137.931 56.1143 137.931 53.7168 137.931 51.3402C137.974 50.7364 137.873 50.1309 137.637 49.5736L135.996 51.2351C135.755 51.5262 135.48 51.7874 135.176 52.0133C135.046 52.0814 134.902 52.117 134.756 52.117C134.609 52.117 134.465 52.0814 134.335 52.0133C134.267 51.8873 134.231 51.7463 134.231 51.6031C134.231 51.4599 134.267 51.319 134.335 51.193C134.637 50.7469 134.982 50.3313 135.365 49.9522L137.027 48.2066H131.811C131.329 48.2595 130.842 48.2595 130.36 48.2066C130.108 48.2066 129.771 47.828 129.771 47.5967C129.789 47.4529 129.842 47.3159 129.927 47.1983C130.011 47.0806 130.124 46.9862 130.255 46.9237C130.729 46.8079 131.219 46.7654 131.706 46.7975H136.543L136.669 46.461C135.807 45.5777 134.945 44.7364 134.104 43.8531C133.662 43.4114 132.905 42.9067 133.578 42.2547C134.251 41.6028 134.735 42.2547 135.176 42.8015C136.017 43.6007 136.838 44.442 137.889 45.4725C137.889 44.7785 138.015 44.3789 138.015 43.9793C138.015 41.7079 138.015 39.4365 138.015 37.1651C138.015 36.4501 137.763 35.5247 138.794 35.2723C139.382 35.1251 139.614 35.714 139.614 37.2283C139.614 39.3314 139.614 41.4345 139.614 43.5376V45.4515C140.46 44.8293 141.242 44.1248 141.948 43.3483C142.256 42.97 142.609 42.631 143 42.3388C143.178 42.2575 143.372 42.2153 143.568 42.2153C143.764 42.2153 143.957 42.2575 144.135 42.3388C144.598 42.6333 144.367 43.117 144.135 43.4535L141.717 45.8511L140.918 46.7975H144.872C145.566 46.7975 146.281 46.7975 146.975 46.7975C147.669 46.7975 148.026 46.7975 148.026 47.5336C148.026 48.2697 147.479 48.2276 146.975 48.2486H141.044L140.918 48.501Z" fill="#985BE7"/>
<path d="M36.3713 72.7502C36.3713 72.9831 36.3022 73.2108 36.1728 73.4045C36.0433 73.5982 35.8594 73.7491 35.6442 73.8383C35.429 73.9274 35.1922 73.9507 34.9637 73.9053C34.7353 73.8599 34.5254 73.7477 34.3607 73.5829C34.196 73.4182 34.0838 73.2084 34.0384 72.9799C33.9929 72.7515 34.0163 72.5147 34.1054 72.2995C34.1946 72.0842 34.3455 71.9003 34.5392 71.7709C34.7329 71.6415 34.9606 71.5724 35.1935 71.5724C35.5059 71.5724 35.8054 71.6965 36.0263 71.9174C36.2472 72.1382 36.3713 72.4378 36.3713 72.7502Z" fill="#985BE7"/>
<path d="M93.4501 20.6556C93.4501 20.8885 93.381 21.1162 93.2516 21.3099C93.1222 21.5036 92.9383 21.6545 92.7231 21.7437C92.5079 21.8328 92.2711 21.8562 92.0426 21.8107C91.8142 21.7653 91.6043 21.6531 91.4396 21.4884C91.2749 21.3237 91.1627 21.1138 91.1172 20.8854C91.0718 20.6569 91.0951 20.4201 91.1842 20.2049C91.2734 19.9897 91.4244 19.8057 91.6181 19.6763C91.8117 19.5469 92.0394 19.4778 92.2723 19.4778C92.5847 19.4778 92.8843 19.6019 93.1052 19.8228C93.326 20.0437 93.4501 20.3432 93.4501 20.6556Z" fill="#985BE7"/>
<path d="M141.149 16.218C141.149 16.4509 141.08 16.6786 140.951 16.8723C140.821 17.066 140.637 17.2169 140.422 17.3061C140.207 17.3952 139.97 17.4185 139.742 17.3731C139.513 17.3276 139.303 17.2155 139.139 17.0508C138.974 16.8861 138.862 16.6762 138.816 16.4477C138.771 16.2193 138.794 15.9825 138.883 15.7672C138.972 15.552 139.123 15.3681 139.317 15.2387C139.511 15.1093 139.738 15.0402 139.971 15.0402C140.284 15.0402 140.583 15.1643 140.804 15.3852C141.025 15.606 141.149 15.9056 141.149 16.218Z" fill="#985BE7"/>
<path d="M138.751 97.8194C138.751 98.1318 138.627 98.4314 138.406 98.6522C138.186 98.8731 137.886 98.9972 137.574 98.9972C137.261 98.9972 136.962 98.8731 136.741 98.6522C136.52 98.4314 136.396 98.1318 136.396 97.8194C136.396 97.5071 136.52 97.2075 136.741 96.9866C136.962 96.7658 137.261 96.6417 137.574 96.6417C137.886 96.6417 138.186 96.7658 138.406 96.9866C138.627 97.2075 138.751 97.5071 138.751 97.8194Z" fill="#985BE7"/>
<path d="M17.1275 80.4265C17.1275 80.7388 17.0034 81.0384 16.7825 81.2593C16.5617 81.4802 16.2621 81.6042 15.9498 81.6042C15.6374 81.6042 15.3378 81.4802 15.117 81.2593C14.8961 81.0384 14.772 80.7388 14.772 80.4265C14.772 80.1141 14.8961 79.8146 15.117 79.5937C15.3378 79.3728 15.6374 79.2487 15.9498 79.2487C16.2621 79.2487 16.5617 79.3728 16.7825 79.5937C17.0034 79.8146 17.1275 80.1141 17.1275 80.4265V80.4265Z" fill="#985BE7"/>
<path d="M8.21025 62.4869C8.17186 62.7748 8.03018 63.0391 7.81162 63.2304C7.59305 63.4218 7.31248 63.5272 7.02198 63.5272C6.73149 63.5272 6.45084 63.4218 6.23228 63.2304C6.01372 63.0391 5.8721 62.7748 5.83371 62.4869C5.81113 62.3176 5.82495 62.1454 5.87434 61.9819C5.92372 61.8184 6.00751 61.6673 6.12003 61.5388C6.23254 61.4103 6.3712 61.3073 6.52675 61.2367C6.6823 61.1662 6.85117 61.1297 7.02198 61.1297C7.19279 61.1297 7.36159 61.1662 7.51715 61.2367C7.6727 61.3073 7.81136 61.4103 7.92387 61.5388C8.03639 61.6673 8.12018 61.8184 8.16956 61.9819C8.21894 62.1454 8.23283 62.3176 8.21025 62.4869Z" fill="#985BE7"/>
<path d="M125.691 61.0566C125.691 61.2895 125.622 61.5172 125.493 61.7109C125.363 61.9046 125.179 62.0556 124.964 62.1447C124.749 62.2338 124.512 62.2571 124.284 62.2117C124.055 62.1663 123.845 62.0541 123.681 61.8894C123.516 61.7247 123.404 61.5148 123.358 61.2864C123.313 61.0579 123.336 60.8211 123.425 60.6059C123.514 60.3907 123.665 60.2067 123.859 60.0773C124.053 59.9479 124.28 59.8788 124.513 59.8788C124.826 59.8788 125.125 60.0029 125.346 60.2238C125.567 60.4447 125.691 60.7442 125.691 61.0566Z" fill="#985BE7"/>
<circle cx="101" cy="133" r="18" fill="#8840E3"/>
<path d="M108.877 127.052L106.531 126.279L105.024 125.786L102.611 124.999C102.425 124.999 101.891 124.773 101.691 125.292C101.638 125.43 101.638 125.582 101.691 125.719C101.785 125.932 102.025 126.012 102.225 126.092L103.131 126.412L107.131 127.879L98.0252 134.545L97.7319 134.158L97.3186 133.532L96.7454 132.692C96.6214 132.496 96.4633 132.325 96.2787 132.185C96.1821 132.12 96.0684 132.086 95.9521 132.086C95.8358 132.086 95.7221 132.12 95.6255 132.185C95.5466 132.264 95.4893 132.362 95.459 132.469C95.4286 132.576 95.4263 132.69 95.4522 132.798C95.5049 132.921 95.572 133.038 95.6521 133.145L95.7321 133.252L97.0653 135.345L96.692 135.678L94.9589 137.011L92.2125 139.238H92.1325C92.0427 139.292 91.9645 139.363 91.9027 139.448C91.8409 139.533 91.7966 139.629 91.7725 139.731C91.7643 139.804 91.7707 139.879 91.7913 139.95C91.8118 140.02 91.8463 140.087 91.8925 140.144C91.9415 140.213 92.0052 140.271 92.0789 140.312C92.1527 140.353 92.2347 140.378 92.3192 140.384C92.5109 140.361 92.6917 140.282 92.8391 140.158H92.9058H92.9857L97.8386 136.331L99.1718 138.358C99.3422 138.618 99.5292 138.868 99.7317 139.104C99.8625 139.228 100.032 139.304 100.212 139.318H100.372L100.665 139.398V139.091C100.659 139.042 100.659 138.993 100.665 138.944C100.705 138.782 100.705 138.613 100.665 138.451C100.612 138.282 100.52 138.127 100.398 137.998C100.37 137.951 100.339 137.907 100.305 137.864L98.7051 135.545C100.145 134.212 106.411 129.745 108.037 128.759C107.877 129.905 107.731 131.039 107.558 132.185C107.558 132.332 107.558 132.478 107.478 132.625C107.417 132.857 107.377 133.093 107.358 133.332C107.351 133.478 107.381 133.623 107.447 133.754C107.512 133.884 107.61 133.996 107.731 134.078C107.802 134.111 107.879 134.129 107.957 134.129C108.036 134.129 108.113 134.111 108.184 134.078C108.28 134.024 108.364 133.949 108.428 133.859C108.493 133.77 108.537 133.667 108.557 133.558C108.593 133.455 108.615 133.347 108.624 133.238L108.704 132.732C108.704 132.412 108.811 132.092 108.851 131.772C109.011 130.505 109.171 129.239 109.317 127.959C109.352 127.78 109.328 127.596 109.248 127.432C109.169 127.269 109.039 127.135 108.877 127.052V127.052Z" fill="white"/>
<path d="M100.625 148.25C97.5341 148.25 94.5126 147.333 91.9428 145.616C89.373 143.898 87.3703 141.457 86.1881 138.601C85.0059 135.745 84.6972 132.603 85.3012 129.572C85.9052 126.54 87.3947 123.756 89.5812 121.572C91.7677 119.387 94.5531 117.9 97.5849 117.299C100.617 116.697 103.759 117.009 106.614 118.193C109.469 119.378 111.908 121.383 113.623 123.954C115.338 126.525 116.253 129.547 116.25 132.638C116.243 136.779 114.594 140.748 111.665 143.674C108.736 146.601 104.766 148.246 100.625 148.25V148.25ZM100.625 118.24C97.7773 118.24 94.9935 119.084 92.6257 120.666C90.2578 122.249 88.4123 124.497 87.3226 127.128C86.2328 129.759 85.9476 132.654 86.5032 135.447C87.0588 138.24 88.4301 140.806 90.4438 142.82C92.4574 144.833 95.023 146.205 97.816 146.76C100.609 147.316 103.504 147.031 106.135 145.941C108.766 144.851 111.015 143.005 112.597 140.638C114.179 138.27 115.023 135.486 115.023 132.638C115.02 128.821 113.502 125.16 110.802 122.461C108.103 119.762 104.443 118.243 100.625 118.24V118.24Z" fill="white"/>
</svg>
