<svg width="152" height="151" viewBox="0 0 152 151" fill="none" xmlns="http://www.w3.org/2000/svg">
<circle cx="76" cy="73" r="67" fill="#F0E8FF"/>
<path d="M62.7787 89.852L69.7032 83.9012V81.7373C66.6507 82.7404 63.4145 83.0581 60.2252 82.6678C57.6028 82.5541 55.0696 81.6822 52.9328 80.1576C51.2095 78.8988 49.5553 77.548 47.9774 76.1111C47.3915 75.5653 46.9397 74.8913 46.6574 74.1419C46.1597 72.9301 46.7873 71.978 48.1072 72.1728C48.733 72.2467 49.3409 72.4298 49.9033 72.7137C51.483 73.4711 52.9977 74.3367 54.5774 75.0724C56.7413 76.0462 58.7321 76.9983 60.8744 77.8206C61.535 78.0074 62.2405 77.9537 62.8652 77.6691C64.6829 76.9117 66.4357 75.9813 68.2101 75.1157V70.3551C66.5222 70.658 64.9642 70.8095 63.4711 71.199C61.4634 71.8339 59.3358 71.9943 57.2556 71.6676C55.1754 71.341 53.1994 70.5361 51.483 69.3164C48.7922 67.6325 46.3519 65.5783 44.2338 63.2141C43.563 62.3702 42.5892 61.3964 43.4548 60.2712C44.3204 59.1459 45.4889 59.86 46.4843 60.2712C47.3576 60.6357 48.2037 61.0624 49.0161 61.5479C51.8508 63.1275 54.6639 64.7288 57.4338 66.3085C60.8095 64.6639 63.9255 62.6515 67.5826 63.041V57.0253C65.5485 57.5013 63.4927 58.0207 61.4154 58.4751C60.1012 58.7597 58.7718 58.9692 57.4338 59.1027C55.7603 59.3562 54.0528 58.9699 52.6515 58.0207C47.7277 54.8252 43.5682 50.5844 40.4686 45.5997C39.9276 44.7125 38.8889 43.6522 39.8627 42.6135C40.8365 41.5748 42.0266 42.6135 42.8489 43.1545C44.7419 44.2901 46.4864 45.6567 48.0423 47.2227C49.9276 49.5867 52.4176 51.3963 55.2482 52.4594C57.7248 51.0546 60.5699 50.4358 63.4062 50.685C62.0862 50.1873 60.7229 49.7761 59.4246 49.2135C57.6934 48.4778 55.9623 47.6771 54.2744 46.7899C53.4737 46.4327 52.7855 45.8642 52.2836 45.1453C51.0681 43.4104 49.5152 41.9384 47.7177 40.8175C46.8522 40.1034 46.0948 39.2811 45.2725 38.5454C43.341 36.7428 42.0759 34.3399 41.6831 31.7273C41.2902 29.1148 41.7926 26.4461 43.1086 24.1552L43.8659 22.792C40.923 18.594 39.3433 14.1362 41.2692 8.94282C41.9267 7.2335 42.9343 5.68056 44.2275 4.38371C45.5206 3.08685 47.0706 2.07474 48.7781 1.41237C54.4475 -1.03287 61.2639 0.0923701 62.7137 3.94416C60.7662 4.76645 58.256 4.72318 57.1092 6.93039C56.7125 7.59285 56.4549 8.3291 56.3518 9.09431C56.3289 10.2937 56.3794 11.4933 56.5033 12.6864C57.9934 12.8702 59.5056 12.7294 60.9362 12.2737C62.3667 11.818 63.6818 11.0582 64.7911 10.0464C65.718 9.27529 66.3985 8.24941 66.7485 7.09561C67.0985 5.94182 67.1026 4.71073 66.7603 3.55464C66.6099 2.84242 66.523 2.11828 66.5006 1.39071C67.7557 1.0012 68.1452 1.60711 68.3399 2.34284C69.5517 6.97364 70.6553 11.6477 69.1189 16.3867C68.2392 19.0394 66.7088 21.4293 64.6675 23.3383C62.6263 25.2472 60.1393 26.6143 57.4338 27.3146C56.698 27.5742 55.919 27.7041 54.8587 27.9854C55.0534 29.6516 55.14 31.2962 55.4646 32.8975C55.8156 34.1792 56.5754 35.3113 57.6285 36.1217C60.7878 38.9132 63.7308 41.8994 66.7603 44.7774C67.0849 45.0804 67.3662 45.4483 67.9288 46.0974C69.2921 41.1853 72.9924 38.2857 76.3032 34.7585C75.2862 33.5467 74.3773 32.3782 73.4035 31.2746C70.8718 28.31 70.6986 26.9467 72.8193 23.6142C74.1638 21.8415 74.9204 19.6927 74.9832 17.4687C74.9832 16.7979 75.113 16.1054 75.9786 16.1703C76.8442 16.2352 76.8442 16.9493 76.8658 17.6202C76.9698 19.6117 76.4313 21.5841 75.3294 23.2464C72.2783 27.7906 72.6245 27.5742 75.8704 31.3178C76.3681 31.9237 76.8874 32.4864 77.4068 33.0922C78.5969 32.3782 78.7484 31.2529 79.1379 30.2359C79.2894 29.8031 79.7871 29.5001 80.1333 29.1539C80.4975 29.4948 80.8174 29.8801 81.0855 30.3008C81.5399 31.188 81.8645 32.1401 82.3838 33.4168C83.9467 31.9108 85.3532 30.2506 86.5818 28.4614C86.8258 28.0446 86.9396 27.5645 86.9088 27.0825C86.8779 26.6006 86.7038 26.1388 86.4087 25.7565C85.8352 24.7141 85.2068 23.7028 84.5261 22.727C83.6017 21.1363 83.1793 19.3035 83.3143 17.4687C83.3143 16.8195 83.5091 16.0622 84.3097 16.192C84.5417 16.2999 84.7416 16.4664 84.8896 16.6751C85.0376 16.8838 85.1286 17.1275 85.1536 17.3822C85.3065 19.8485 86.2045 22.2103 87.7287 24.1552C88.1376 24.6302 88.4478 25.1818 88.6411 25.778C88.8344 26.3741 88.907 27.0028 88.8546 27.6273C88.8022 28.2518 88.626 28.8597 88.336 29.4153C88.0461 29.9709 87.6484 30.4632 87.1661 30.8634L84.0717 34.8883C87.2743 38.3939 91.0612 41.2502 92.4028 46.1624C92.9871 45.5348 93.3766 45.0804 93.831 44.6476C96.6657 41.8994 99.3923 38.9998 102.487 36.468C103.296 35.8452 103.969 35.063 104.464 34.1697C104.959 33.2764 105.266 32.291 105.365 31.2746C105.419 30.2005 105.419 29.1244 105.365 28.0503L103.201 27.466C99.4524 26.6303 96.1232 24.4891 93.8082 21.4248C91.4932 18.3606 90.3431 14.573 90.5635 10.7389C90.807 8.13405 91.2117 5.5468 91.7753 2.99203C91.8454 2.52116 92.0313 2.07507 92.3162 1.69369C92.4434 1.56088 92.5991 1.4587 92.7715 1.39497C92.944 1.33123 93.1287 1.30758 93.3117 1.32579C93.4734 1.4156 93.611 1.5432 93.7127 1.69769C93.8144 1.85217 93.8773 2.02897 93.8959 2.21301C93.8575 2.68127 93.748 3.14097 93.5713 3.5763C93.2359 4.77355 93.2623 6.04331 93.6474 7.22554C94.0325 8.40778 94.759 9.44955 95.7352 10.2195C97.8577 12.0357 100.609 12.945 103.396 12.7513C103.844 11.9976 104.108 11.148 104.164 10.2725C104.22 9.39707 104.068 8.52079 103.719 7.71578C103.371 6.91076 102.836 6.20005 102.159 5.64216C101.482 5.08426 100.682 4.69511 99.8251 4.50677C99.0244 4.31201 97.6612 4.50677 97.8126 3.35989C97.8126 2.71071 98.7647 1.95336 99.4572 1.52057C101.979 0.120414 104.919 -0.33241 107.745 0.24383C110.442 0.55054 112.99 1.64322 115.071 3.38604C117.153 5.12886 118.676 7.44494 119.452 10.0464C120.305 13.1439 119.965 16.4489 118.5 19.308C117.937 20.4549 117.245 21.4719 116.595 22.6621C117.115 23.8739 117.721 25.0641 118.132 26.3191C118.859 28.3098 118.999 30.4674 118.535 32.5353C118.07 34.6031 117.022 36.4939 115.514 37.9827C114.589 38.972 113.599 39.8974 112.549 40.7525C110.84 41.9846 109.305 43.4402 107.983 45.0804C106.38 46.8719 104.289 48.1577 101.967 48.7807L97.8343 50.3171L105.581 52.2646C108.102 51.308 110.295 49.6482 111.9 47.4823C113.618 45.3222 115.85 43.6262 118.392 42.5486C119.062 42.2673 119.863 41.7912 120.317 42.5486C120.565 43.1817 120.565 43.8847 120.317 44.5178C119.993 45.2986 119.555 46.0277 119.019 46.6817C116.574 49.8627 114.41 53.3466 110.645 55.3374C110.255 55.5538 110.017 56.0299 109.671 56.3761C108.721 57.3992 107.531 58.1687 106.208 58.6147C104.886 59.0606 103.472 59.1689 102.097 58.9295C99.6087 58.4751 97.1418 57.9125 94.6533 57.3931L92.6841 56.9387V62.7164C94.3634 62.9572 96.0257 63.3041 97.6611 63.7551C99.4359 64.4741 101.17 65.2904 102.855 66.2003C105.495 64.7072 108.221 63.1275 110.969 61.6128C112.204 60.8939 113.501 60.2856 114.843 59.7951C115.162 59.7046 115.498 59.6887 115.824 59.7487C116.151 59.8088 116.459 59.9431 116.725 60.1413C117.028 60.5525 116.725 61.4613 116.725 62.1105C116.725 62.7597 116.314 62.7813 116.076 63.1059C113.369 66.2245 110.066 68.7702 106.36 70.5931C103.842 71.8372 100.958 72.1218 98.2454 71.3937L92.1431 70.2036C92.1431 71.1557 92.1431 71.9347 92.1431 72.6921C92.1431 73.4495 92.0133 74.0987 91.9484 74.856C93.8959 75.8082 95.8434 76.8035 97.8559 77.7124C98.359 77.896 98.9108 77.896 99.4139 77.7124C101.578 76.8468 103.634 75.9163 105.711 74.9642C107.356 74.1852 108.957 73.298 110.601 72.519C111.168 72.2354 111.787 72.0732 112.419 72.0429C112.64 72.0066 112.866 72.0332 113.073 72.1198C113.279 72.2064 113.457 72.3494 113.586 72.5324C113.715 72.7154 113.789 72.9309 113.801 73.1544C113.813 73.3779 113.761 73.6001 113.653 73.7957C113.261 74.7495 112.696 75.6226 111.986 76.3708C109.505 79.132 106.287 81.1266 102.71 82.1195C99.1326 83.1125 95.3464 83.0625 91.7969 81.9753L90.7366 81.694C90.6202 82.0557 90.5262 82.4243 90.4553 82.7976C90.432 83.0857 90.432 83.3751 90.4553 83.6632L97.5097 89.6573C99.9982 89.0081 102.66 88.2507 105.343 87.6448C106.766 87.3465 108.217 87.1943 109.671 87.1904C110.212 87.1904 111.077 87.5799 111.207 87.991C111.291 88.3181 111.303 88.6593 111.243 88.9916C111.184 89.3238 111.053 89.6394 110.861 89.9169C110.315 90.5968 109.647 91.1691 108.892 91.6048C105.991 93.2842 102.721 94.2209 99.3707 94.3314C97.8607 94.276 96.3821 93.8842 95.0428 93.1845C92.8789 92.2324 90.715 91.0205 88.551 89.9819C86.9064 91.8645 85.2402 93.8336 83.5091 95.7595C82.2768 97.1146 80.7206 98.1347 78.9864 98.7241C78.3521 98.9653 77.813 99.4057 77.4501 99.9792C77.0157 100.919 76.3629 101.741 75.546 102.378C74.7291 103.014 73.772 103.445 72.7544 103.636C72.1701 103.766 71.6508 104.372 71.1314 104.783C70.2552 105.581 69.3142 106.305 68.3183 106.947C67.4744 107.38 66.7819 107.986 66.0246 108.44C63.2764 110.085 62.3459 113.374 59.7708 115.127C59.402 115.523 59.1412 116.007 59.0134 116.533C58.8907 117.07 58.7316 117.598 58.5374 118.113C56.8495 121.402 58.0613 124.302 59.6842 127.158C59.9891 127.616 60.2363 128.111 60.42 128.63C60.8641 129.764 61.4929 130.817 62.2809 131.746C63.6658 133.91 66.479 133.91 67.9721 135.749C68.0962 135.837 68.2392 135.894 68.3895 135.917C68.5398 135.939 68.6933 135.926 68.8377 135.879C70.3308 135.273 71.5858 136.074 72.9707 136.333C74.6652 136.958 76.5365 136.896 78.1858 136.16C79.2574 135.724 80.3652 135.384 81.4966 135.143C83.4692 134.202 85.1622 132.762 86.4087 130.967C87.4082 129.479 88.2632 127.899 88.9621 126.249C90.109 124.28 89.8494 121.921 90.5635 119.909C90.7562 119.383 90.7671 118.807 90.5945 118.273C90.422 117.74 90.0759 117.28 89.6113 116.966C89.22 116.693 88.8702 116.365 88.5727 115.992C87.589 114.855 86.4615 113.852 85.2186 113.006C83.0546 111.773 81.7346 111.924 80.2415 113.763C79.3976 114.802 78.8566 115.927 77.2337 116.165C76.7792 116.165 76.2599 117.356 76.0652 118.07C75.9135 118.645 75.8787 119.246 75.9627 119.835C76.0468 120.424 76.2481 120.991 76.5547 121.501C76.8612 122.011 77.2669 122.455 77.7477 122.806C78.2286 123.157 78.7749 123.408 79.3543 123.544C80.155 123.739 80.9989 123.782 81.0855 124.799C81.172 125.816 80.3065 126.271 79.5058 126.639C77.2102 127.626 74.6164 127.661 72.2952 126.735C69.9739 125.81 68.1153 124.001 67.1281 121.705C66.141 119.409 66.1063 116.816 67.0315 114.494C67.9568 112.173 69.7663 110.314 72.0619 109.327C74.2258 108.18 76.3898 106.969 78.4022 105.779C81.2455 105.082 84.2147 105.082 87.0579 105.779C87.6961 106.047 88.3546 106.264 89.0271 106.428C89.4959 106.503 89.9587 106.611 90.412 106.752C92.8008 108.599 94.764 110.939 96.168 113.612C96.332 114.356 96.6652 115.052 97.1418 115.646C97.7097 116.151 98.1004 116.826 98.2562 117.57C98.412 118.314 98.3248 119.088 98.0074 119.779C97.8397 120.115 97.7525 120.486 97.7525 120.861C97.7525 121.237 97.8397 121.607 98.0074 121.943C98.1588 122.203 98.3536 122.592 98.267 122.83C97.3365 125.362 97.3366 128.197 95.9517 130.577C95.5589 131.042 95.2446 131.569 95.0211 132.135C94.749 133.457 93.9729 134.621 92.8572 135.381C92.458 135.736 92.1278 136.161 91.8835 136.636C91.8835 136.636 91.8835 136.961 91.7536 137.069C91.3425 137.653 90.9963 138.605 90.4985 138.714C87.7287 139.298 87.1012 142.933 84.0068 143.041C83.2182 143.087 82.4628 143.374 81.8428 143.864C81.281 144.299 80.6363 144.616 79.9481 144.795C79.2598 144.974 78.5424 145.01 77.8396 144.902C76.9139 144.888 75.9883 144.939 75.0697 145.054C74.3556 145.054 73.4901 145.487 72.9058 145.184C70.5904 143.864 67.799 145.292 65.5918 143.777C64.5754 143.053 63.4177 142.552 62.1944 142.306C61.0908 141.927 60.1311 141.216 59.4462 140.271C58.7754 139.471 58.2993 138.605 57.1308 138.475C56.8089 138.43 56.5117 138.277 56.2869 138.043C55.8108 137.631 55.0967 137.22 54.9885 136.701C54.4475 134.191 51.3964 133.347 51.0718 130.685C50.8851 129.917 50.5706 129.185 50.1413 128.521C49.9682 128.154 49.6004 127.851 49.5571 127.504C49.319 125.578 49.3407 123.588 48.9295 121.705C48.6692 120.747 48.6254 119.743 48.8013 118.766C48.9773 117.79 49.3685 116.864 49.9466 116.057C50.2287 115.598 50.3434 115.055 50.2712 114.521C50.1392 113.61 50.2497 112.68 50.5916 111.825C50.9335 110.97 51.4947 110.221 52.2187 109.652C52.5612 109.4 52.8437 109.075 53.0457 108.701C53.2478 108.327 53.3644 107.913 53.3872 107.488C53.416 106.607 53.7132 105.755 54.2391 105.048C54.7651 104.34 55.4946 103.81 56.3301 103.528C56.7096 103.435 57.0568 103.241 57.3349 102.967C57.613 102.693 57.8117 102.348 57.9098 101.97C58.1247 101.2 58.5373 100.499 59.1067 99.9369C59.676 99.3751 60.3824 98.9719 61.1557 98.7674C61.5393 98.6883 61.8969 98.5142 62.1956 98.2608C62.4943 98.0075 62.7246 97.6831 62.8652 97.3176C62.9208 97.0818 63.0495 96.8697 63.2331 96.7117C65.7432 95.3051 67.4311 92.6219 70.3957 91.9943C71.8022 91.6914 72.235 90.9989 71.997 89.4625C71.3089 89.9548 70.5856 90.396 69.833 90.7825C67.1714 91.9727 64.4665 93.0763 61.7616 94.2232C61.5341 94.2783 61.2967 94.2783 61.0691 94.2232C57.3258 94.0158 53.6979 92.8537 50.5308 90.8474C49.5787 90.155 48.3669 89.376 48.8863 87.991C49.4056 86.6061 50.8554 86.8875 52.0023 87.0173C53.4588 87.2024 54.9038 87.4697 56.3301 87.8179C58.6455 88.6402 60.7013 89.2894 62.7787 89.852ZM74.2475 89.5924L73.5334 92.3406C73.2231 93.1424 73.2243 94.0313 73.5367 94.8323C73.8491 95.6333 74.45 96.2884 75.2212 96.6684C75.982 97.2017 76.906 97.4505 77.8316 97.3714C78.7573 97.2923 79.6256 96.8903 80.2848 96.2356C82.0474 94.6533 83.7164 92.9698 85.2835 91.1937C85.5987 90.6949 85.8462 90.1564 86.0192 89.5924C85.3917 89.7222 85.1104 89.852 84.8074 89.8737C84.0068 89.8737 82.8599 90.4796 82.6435 89.1812C82.4271 87.8829 83.6172 88.2075 84.3313 87.9694C88.4212 86.6061 89.6979 83.4035 87.7071 79.3137C87.0362 79.4868 86.3655 79.7248 85.673 79.833C84.4229 79.97 83.1648 80.0206 81.9078 79.9845C81.1504 79.9845 80.5012 79.6166 80.8907 78.3832C81.5399 78.3832 82.2973 78.2101 83.0546 78.0586C84.3115 77.8638 85.5547 77.5892 86.7766 77.2363C87.9039 76.9215 88.8756 76.2024 89.5063 75.2165C90.137 74.2306 90.3824 73.0468 90.1956 71.8914C89.8927 69.7275 89.2218 67.5636 88.7241 65.3997C83.0115 66.5555 77.1253 66.5555 71.4127 65.3997C70.8934 67.5636 70.2658 69.7275 69.9629 71.74C69.7556 72.891 69.9812 74.0781 70.5964 75.0728C71.2116 76.0675 72.1729 76.7995 73.2953 77.1281C74.7206 77.5199 76.1651 77.8377 77.6232 78.0803C78.2724 78.2101 78.8783 78.4049 79.5058 78.578V79.2704C77.1904 81.0665 74.7235 79.1406 72.1917 79.2704C72.068 79.6243 71.9668 79.9857 71.8888 80.3524C70.915 84.6802 72.0619 86.5845 76.2166 87.9261C76.5196 87.9261 76.8874 87.9261 77.1038 88.2291C77.3202 88.532 77.6881 88.8999 77.6448 89.1596C77.5715 89.3331 77.4559 89.4854 77.3084 89.6026C77.161 89.7198 76.9865 89.7982 76.8009 89.8304C75.9453 89.8102 75.0921 89.7307 74.2475 89.5924V89.5924ZM71.0881 54.6449C70.7203 55.5105 70.2226 56.5925 69.833 57.6961C68.578 61.0934 69.595 63.0193 73.1439 63.7767C74.8317 64.1229 76.6061 64.1879 78.3156 64.4259C81.534 64.6197 84.7635 64.3427 87.9018 63.6036C88.4512 63.486 88.9682 63.2497 89.4166 62.9112C90.0929 62.5622 90.6181 61.9778 90.8932 61.2682C91.1682 60.5587 91.1741 59.773 90.9097 59.0594C90.4336 57.4797 89.7845 55.9649 89.1786 54.342C88.6057 54.5237 88.0197 54.6612 87.4258 54.7531C85.7812 54.883 84.115 55.0128 82.4704 54.9912C82.0809 54.9912 81.6914 54.3853 81.3235 54.0607C81.713 53.7578 82.0592 53.2817 82.4704 53.1951C83.4009 53.0436 84.3746 53.1951 85.3268 53.0653C89.6546 52.6758 91.5589 49.4515 89.6546 45.2319C89.092 45.2319 88.4645 45.1021 87.8586 44.9722C86.7121 44.7991 85.6248 44.3503 84.69 43.6643C83.7552 42.9783 83.001 42.0757 82.492 41.0339C81.9399 39.6509 81.6042 38.1912 81.4966 36.706C81.3451 35.4293 81.3235 34.1959 80.0468 33.5034C79.6035 33.8578 79.2535 34.315 79.0273 34.8355C78.801 35.3559 78.7052 35.9237 78.7484 36.4896C78.5969 41.8129 76.3032 44.323 70.9366 45.1453C70.7855 45.1842 70.6401 45.2424 70.5039 45.3184C68.7078 49.3 70.5039 52.5892 74.7019 53.0437C75.6324 53.0437 76.5845 53.0437 77.5366 53.0437C78.4887 53.0437 78.9215 53.0437 78.9215 53.9309C78.9215 54.8181 78.2724 54.9695 77.6015 54.9479L71.0881 54.6449ZM92.5759 10.1763C92.4896 10.7783 92.4462 11.3858 92.4461 11.994C92.5269 14.6717 93.3673 17.2712 94.8691 19.4896C96.371 21.7079 98.4725 23.4536 100.929 24.5231C103.007 25.6667 105.404 26.0956 107.75 25.7437C110.096 25.3918 112.261 24.2786 113.912 22.5756C113.695 21.3621 113.188 20.2189 112.435 19.2432C111.681 18.2675 110.703 17.488 109.584 16.971C107.262 15.7481 104.714 15.0118 102.097 14.8071C98.4308 14.5794 95.0019 12.9156 92.5543 10.1763H92.5759ZM46.4626 23.1598C48.6266 24.112 50.942 25.0857 53.1925 25.9946C53.6536 26.1146 54.1379 26.1146 54.599 25.9946C57.2045 25.6899 59.6891 24.725 61.8173 23.1913C63.9455 21.6576 65.6469 19.606 66.7603 17.2307C67.8613 15.0457 68.2112 12.5586 67.7557 10.1546C67.5451 10.2194 67.3419 10.3064 67.1498 10.4143C66.0906 11.7017 64.7728 12.7521 63.2817 13.4977C61.7906 14.2432 60.1595 14.6672 58.4941 14.7422C55.8138 14.9387 53.2009 15.6748 50.8122 16.9061C49.6059 17.4594 48.5668 18.3207 47.7994 19.4034C47.0321 20.4861 46.5635 21.7519 46.441 23.0733L46.4626 23.1598ZM59.1432 3.03531C54.7072 0.871387 47.3066 3.03531 44.2987 7.36317C42.9328 9.29075 42.2617 11.625 42.3954 13.9837C42.5291 16.3423 43.4595 18.5858 45.0345 20.3467C46.8089 16.192 50.6174 14.7638 54.599 13.3573C53.7767 8.94284 54.4043 5.17758 59.1216 2.94874L59.1432 3.03531ZM105.949 13.2923C107.857 14.0377 109.702 14.935 111.467 15.9756C113.032 17.2909 114.48 18.7389 115.795 20.3034C117.36 18.2806 118.157 15.7689 118.047 13.2139C117.936 10.6589 116.923 8.22571 115.189 6.34612C112.246 3.07859 105.192 0.806455 101.686 3.12186C104.91 5.48054 106.338 5.93497 105.927 13.2058L105.949 13.2923ZM115.146 24.8044C112.982 25.7349 110.818 26.6438 108.654 27.4877C108.288 27.636 107.969 27.8818 107.732 28.1984C107.496 28.515 107.351 28.8904 107.312 29.2838C107.009 31.4477 106.62 33.6116 106.252 35.7755L110.428 40.1034C111.532 39.0647 112.787 37.9394 113.934 36.7925C115.552 35.2599 116.563 33.1952 116.782 30.9772C117 28.7593 116.412 26.5369 115.124 24.7179L115.146 24.8044ZM45.2725 24.8044C41.7669 29.7165 43.4981 36.4247 50.1846 39.8437L54.0797 35.7972C53.7334 33.6332 53.3656 31.6424 53.1059 29.63C53.0999 29.1618 52.9547 28.706 52.6888 28.3207C52.4229 27.9353 52.0483 27.6378 51.6128 27.466C49.4489 26.5355 47.2849 25.6267 45.2508 24.7395L45.2725 24.8044ZM92.1431 50.7715C95.0861 49.603 97.8126 48.6076 100.496 47.4607C102.241 46.7216 103.939 45.876 105.581 44.9289C106.229 44.5333 106.766 43.981 107.145 43.323C107.523 42.665 107.729 41.9224 107.745 41.1637C107.875 39.3676 106.382 38.7834 105.3 37.9395C104.218 37.0955 103.655 37.9394 103.136 38.5886C100.972 40.5361 98.808 42.4621 96.6441 44.5178C94.7886 46.2693 93.2575 48.3352 92.1215 50.62L92.1431 50.7715ZM68.3399 50.7715C65.4345 45.7449 61.4782 41.4047 56.7413 38.0476C56.5637 37.9061 56.358 37.8039 56.1379 37.748C55.9177 37.692 55.6882 37.6835 55.4646 37.7231C54.963 37.8384 54.4925 38.0615 54.0857 38.3768C53.6789 38.6922 53.3456 39.0922 53.1088 39.5493C52.8721 40.0063 52.7376 40.5093 52.7147 41.0235C52.6918 41.5377 52.781 42.0507 52.9761 42.527C53.4632 43.5284 54.2106 44.3804 55.14 44.9938C56.5113 45.8497 57.9604 46.5743 59.4679 47.1578C62.281 48.3696 65.2239 49.4732 68.275 50.685L68.3399 50.7715ZM75.6756 115.105L71.8455 111.838C70.3216 112.864 69.2338 114.42 68.7938 116.204C68.3539 117.988 68.5932 119.871 69.4652 121.489C70.125 122.958 71.2869 124.144 72.7423 124.834C74.1978 125.524 75.8515 125.673 77.4068 125.254C73.8796 122.181 72.9275 118.935 75.6107 115.019L75.6756 115.105ZM53.3656 56.679C54.5327 57.042 55.7383 57.2671 56.9577 57.3498C60.594 57.0298 64.173 56.2369 67.6042 54.9912C62.8436 51.6587 58.7754 52.0699 53.3007 56.5276L53.3656 56.679ZM106.641 56.4627C102.162 52.2646 96.9903 51.7237 92.6408 55.2509C96.3195 55.9866 99.6952 56.7223 103.093 57.4148C103.719 57.4961 104.355 57.4394 104.957 57.2487C105.559 57.0581 106.111 56.7381 106.577 56.3112L106.641 56.4627ZM104.045 69.8141C99.1326 66.1787 94.0474 63.9715 90.715 65.6593C90.9746 66.5682 91.2559 67.5203 91.5589 68.4941C95.6703 68.6239 99.4572 70.3767 103.98 69.6626L104.045 69.8141ZM69.6599 65.4862C65.8514 64.4043 58.3426 66.9577 56.8279 69.8141C60.961 70.3983 64.7695 68.7105 68.7511 68.3859C68.9675 67.8665 69.2055 67.4554 69.3354 67.0226C69.4652 66.5898 69.4868 65.8974 69.595 65.378L69.6599 65.4862ZM71.456 94.2015C68.1452 94.5694 67.4744 95.911 69.2921 98.5294C70.2009 99.7845 71.1314 101.04 72.0403 102.251C74.6153 101.645 75.0481 101.278 75.7838 99.2002C72.4514 96.8848 72.4298 96.8632 71.3911 94.0933L71.456 94.2015ZM57.7367 105.389C55.1833 106.514 54.4908 108.202 55.7675 110.453C56.5838 111.658 57.4802 112.808 58.4508 113.893C59.2082 113.222 59.8141 112.768 60.355 112.205C61.74 110.734 61.7183 109.825 60.355 108.332C59.4462 107.315 58.6239 106.363 57.6718 105.281L57.7367 105.389ZM67.3013 105.389C70.1144 104.285 70.5255 103.225 68.9675 100.953L66.2626 97.1444C64.0987 98.3779 63.6442 99.6546 64.7262 101.472C65.397 102.814 66.3059 104.004 67.2363 105.346L67.3013 105.389ZM62.9734 108.505C65.1373 107.055 65.5701 106.341 64.6829 104.848C63.7957 103.355 62.9518 102.121 62.0862 100.78C59.2514 101.992 58.7321 103.939 60.6364 106.06C61.3505 106.817 62.1295 107.596 62.9518 108.462L62.9734 108.505ZM53.7767 111.167C50.6174 112.941 51.959 116.533 56.1138 118.308C57.4987 116.014 57.477 115.646 55.8757 113.698L53.7767 111.167ZM60.4416 138.714C60.9177 140.012 61.6318 141.029 62.995 140.877C65.159 140.769 65.5701 138.822 66.5872 137.437C66.3742 137.148 66.1429 136.873 65.8947 136.615C64.1419 135.1 63.4711 135.121 61.9347 136.853C61.4803 137.523 61.0042 138.129 60.5065 138.714H60.4416ZM51.6128 117.247C50.4443 118.914 49.9682 120.342 50.9636 121.748C52.197 123.566 54.0797 123.112 55.9839 122.895C56.2003 119.628 53.1708 119.195 51.6128 117.247ZM71.8671 138.173C69.9196 137.415 69.2272 137.48 68.1885 138.714C67.1498 139.947 66.6521 140.877 65.8947 141.959C69.1622 144.275 70.7203 143.279 71.8455 138.173H71.8671ZM52.8679 130.382C54.058 133.801 55.2265 133.823 58.8403 130.707C58.4724 128.11 58.1046 127.894 55.9839 128.933C54.9885 129.43 53.9715 129.863 52.8462 130.382H52.8679ZM98.3103 80.3308C96.709 79.5085 95.1293 78.6645 93.5064 77.8639C92.8706 77.5491 92.2033 77.3025 91.5156 77.1281C91.3449 77.0686 91.163 77.0481 90.9833 77.0681C90.8036 77.088 90.6307 77.1479 90.4772 77.2433C90.3236 77.3388 90.1934 77.4673 90.096 77.6196C89.9986 77.772 89.9365 77.9441 89.9143 78.1235C89.9157 78.4135 89.9873 78.6988 90.123 78.955C90.2586 79.2112 90.4543 79.4309 90.6933 79.595C93.0363 80.8339 95.7735 81.0982 98.3103 80.3308ZM62.0429 80.3308L62.1728 80.8717C64.721 81.1812 67.3045 80.7531 69.6167 79.6383C70.0278 79.4652 70.5471 78.4481 70.374 78.1885C69.9628 77.6912 69.4006 77.3418 68.7727 77.1931C68.4914 77.0849 68.0154 77.3445 67.6691 77.5177C65.7865 78.3832 63.9039 79.3353 62.0429 80.2875V80.3308ZM84.1799 136.247C81.3884 136.247 81.3668 138.411 83.1845 141.7C86.8199 141.375 86.4087 138.843 84.1799 136.247ZM61.6534 134.472C60.5931 132.481 60.1819 132.308 58.5157 133.434L56.0272 135.078C57.6718 138.259 58.9269 138.108 61.6534 134.364V134.472ZM51.18 124.497C50.8895 125.078 50.7999 125.74 50.9252 126.378C51.0505 127.016 51.3835 127.595 51.8725 128.024C52.7597 128.759 53.6685 128.24 54.5124 127.786L57.1741 126.249C55.378 124.042 53.041 125.427 51.18 124.388V124.497ZM87.7071 138.324C90.9097 137.199 90.8448 135.835 87.5556 132.957C85.5215 134.256 85.5431 134.97 87.7071 138.216V138.324ZM72.1052 143.496C75.5891 144.34 76.6927 142.803 75.6973 138.8C74.4422 138.281 73.793 138.951 73.3603 140.012C72.9275 141.072 72.5812 142.089 72.1052 143.388V143.496ZM77.8612 143.388C80.5012 143.755 81.3668 142.868 80.696 140.553C80.4579 139.731 80.1766 138.93 79.917 138.129C78.2074 138.302 77.9911 138.411 77.8829 139.731C77.7747 141.05 77.8612 141.938 77.8612 143.279V143.388ZM94.5235 114.997C94.5235 113.785 94.2854 112.552 92.987 112.162C91.6887 111.773 90.5635 112.919 89.5248 113.634C90.3904 116.014 91.5156 116.317 94.5235 114.889V114.997ZM91.6238 134.083C92.5326 133.672 93.3116 133.001 93.052 131.919C92.6192 130.209 90.8881 129.755 89.6546 129.019C88.5727 131.291 88.6809 131.551 91.6238 134.083ZM95.3458 91.0638C94.0254 88.9464 92.1559 87.2264 89.9359 86.0868C89.6114 86.5845 89.3084 86.9957 88.9621 87.4934C90.7439 89.2268 92.9426 90.4715 95.3458 91.1071V91.0638ZM92.273 121.359C91.5805 123.285 92.0999 123.847 95.6703 125.081C97.2067 122.527 96.2762 121.489 92.273 121.359V121.359ZM91.1044 110.063C90.6933 109.024 90.0008 108.245 88.8323 108.419C87.1661 108.657 86.6684 110.128 86.0841 111.34C88.01 112.314 88.5727 112.162 91.1044 110.063V110.063ZM64.5964 90.8042L64.9858 91.3019C67.3435 90.4545 69.5123 89.1533 71.3695 87.4717L70.0278 85.8271C68.1235 87.6448 66.3708 89.2678 64.5964 90.8042ZM94.2421 129.755C95.93 127.591 95.0428 126.293 91.3641 125.427C91.1596 125.579 90.9973 125.78 90.8927 126.012C90.788 126.244 90.7444 126.5 90.7661 126.753C90.7878 127.007 90.874 127.251 91.0165 127.462C91.1591 127.673 91.3532 127.844 91.5805 127.959L94.2421 129.755ZM78.1858 113.547C78.4888 111.535 76.9957 110.496 76.4763 108.938C76.0597 109.053 75.6541 109.205 75.2645 109.392C73.6199 110.496 73.7065 111.556 75.5025 112.487C76.3248 112.941 77.1904 113.244 78.1858 113.634V113.547ZM43.3466 45.8811C44.8767 48.5116 46.8286 50.8728 49.1243 52.8705C49.3407 52.1997 49.5787 51.7886 49.4705 51.6587C47.8695 49.3371 45.7791 47.3945 43.3466 45.9676V45.8811ZM88.3995 42.8299C87.1037 40.7774 85.5061 38.9318 83.6605 37.3552C83.5789 38.0321 83.6397 38.7187 83.8391 39.3708C84.0384 40.0228 84.3719 40.626 84.8182 41.1415C85.2645 41.6571 85.8136 42.0736 86.4304 42.3644C87.0471 42.6551 87.7179 42.8137 88.3995 42.8299V42.8299ZM111.056 53.1086C113.414 51.0008 115.468 48.5757 117.158 45.9027C114.676 47.3533 112.523 49.3064 110.839 51.6371C110.731 51.8535 110.904 52.2214 111.056 53.1086ZM92.1215 117.767C92.9005 119.931 94.5667 119.736 96.0382 119.931C96.6008 118.308 96.6874 117.767 96.0382 117.507C95.3421 117.274 94.6043 117.193 93.8743 117.269C93.2754 117.378 92.6885 117.545 92.1215 117.767V117.767ZM71.9104 42.8299C72.5896 42.8174 73.2585 42.6617 73.8733 42.3729C74.4881 42.0841 75.0351 41.6687 75.4783 41.1539C75.9216 40.6392 76.2512 40.0367 76.4455 39.3858C76.6399 38.7349 76.6946 38.0503 76.6061 37.3768C74.7736 38.946 73.1903 40.7848 71.9104 42.8299V42.8299ZM79.9386 111.513C81.5832 110.301 81.2369 108.808 81.3884 107.402C80.2415 106.947 79.2245 107.099 78.7701 107.986C77.9261 109.392 79.3327 110.28 79.9386 111.513V111.513ZM102.335 91.7996C104.603 91.7388 106.781 90.8982 108.502 89.4192C106.432 89.286 104.364 89.7042 102.508 90.631C102.335 90.8042 102.4 91.2802 102.335 91.7996V91.7996ZM58.0829 91.7996C57.8233 91.0855 57.7583 90.4147 57.5203 90.3281C55.6472 89.5484 53.6105 89.2436 51.5912 89.4409C53.5133 90.8073 55.758 91.65 58.1046 91.8861L58.0829 91.7996ZM86.4087 107.12C85.3484 107.12 84.4828 106.861 83.9851 107.12C82.8383 107.834 83.033 109.089 83.1412 110.474C85.0022 110.279 85.4133 108.786 86.4087 107.207V107.12ZM55.0102 79.2271C55.1616 78.3832 55.3564 77.9504 55.2482 77.8422C53.7712 76.4582 51.8754 75.6055 49.86 75.4186L55.0102 79.2271ZM110.342 75.6567L109.996 75.0724C108.437 75.8947 106.879 76.717 105.365 77.6259C105.127 77.7773 105.213 78.4481 105.127 78.8593L105.624 79.1406L110.342 75.6567ZM47.0036 62.6731L46.5708 63.1276C47.6744 64.0797 48.7348 65.0751 49.9249 65.9623C50.6607 66.5033 51.0502 66.1138 51.1151 65.1833L47.0036 62.6731ZM113.241 62.6731L108.914 65.3564C110.255 66.2436 111.077 65.7675 113.241 62.6731V62.6731ZM108.156 67.3472C107.953 67.1241 107.706 66.9458 107.43 66.8238C107.155 66.7018 106.856 66.6388 106.555 66.6388C106.253 66.6388 105.955 66.7018 105.679 66.8238C105.404 66.9458 105.156 67.1241 104.954 67.3472L106.62 68.9052L108.156 67.3472ZM52.5 67.001C53.8849 68.6456 53.8849 68.6456 55.2915 67.1741C55.1202 66.9785 54.9118 66.8187 54.6785 66.704C54.4451 66.5893 54.1913 66.522 53.9318 66.5059C53.6723 66.4898 53.4121 66.5253 53.1664 66.6102C52.9207 66.6952 52.6942 66.828 52.5 67.001V67.001ZM107.356 53.3682V53.9525C107.853 54.2987 108.308 55.121 109 54.2122C109.173 53.9958 109 53.5414 109 53.1735L107.356 53.3682ZM103.287 78.7294L100.691 79.4219C102.162 80.5904 102.703 80.2009 103.287 78.7727V78.7294ZM51.0718 52.6325C51.2449 53.5414 51.3531 53.9958 51.4397 54.4719L52.9761 54.0823V53.6063L51.0718 52.6325ZM59.4029 79.2921L56.7846 78.7727C57.6934 80.136 58.2344 80.8501 59.4029 79.3353V79.2921Z" fill="#985BE7"/>
<path d="M129.917 56.1813C129.966 55.5559 129.867 54.9276 129.626 54.3482C129.385 53.7688 129.01 53.2549 128.532 52.8489C127.576 52.0135 126.466 51.3738 125.264 50.9662C125.035 50.9034 124.811 50.8239 124.593 50.7282C124.499 50.6924 124.418 50.6287 124.361 50.5456C124.303 50.4625 124.273 50.3639 124.273 50.263C124.273 50.162 124.303 50.0635 124.361 49.9804C124.418 49.8973 124.499 49.8336 124.593 49.7977C124.843 49.693 125.105 49.6203 125.372 49.5813C125.923 49.4951 126.466 49.3648 126.995 49.1918C127.78 48.957 128.471 48.4821 128.972 47.8338C129.473 47.1856 129.758 46.3967 129.787 45.5781C129.743 45.1826 129.743 44.7834 129.787 44.3879C129.838 44.2733 129.916 44.1725 130.014 44.0936C130.112 44.0146 130.227 43.9598 130.349 43.9335C130.472 43.9631 130.585 44.0247 130.676 44.1122C130.768 44.1996 130.834 44.3097 130.869 44.4312C130.972 44.8934 131.03 45.3644 131.042 45.8377C131.119 46.651 131.448 47.42 131.983 48.0369C132.519 48.6539 133.234 49.0879 134.028 49.2784C134.526 49.4175 135.032 49.5259 135.543 49.603C135.954 49.603 136.495 49.603 136.517 50.2521C136.538 50.9013 136.041 50.7715 135.694 50.9446C134.751 51.3496 133.833 51.8121 132.946 52.3295C132.253 52.7269 131.691 53.3164 131.326 54.0268C130.961 54.7373 130.81 55.5382 130.89 56.3328C130.901 56.4552 130.901 56.5783 130.89 56.7007C130.89 57.0685 130.674 57.3715 130.328 57.2849C129.982 57.1983 129.873 56.9387 129.744 56.679C129.614 56.4193 129.917 56.3761 129.917 56.1813ZM127.19 50.382L130.458 53.26L133.747 50.4036C133.141 50.0795 132.555 49.7182 131.994 49.3217C131.455 48.8222 130.942 48.2949 130.458 47.742C129.656 48.9432 128.52 49.8834 127.19 50.4469V50.382Z" fill="#985BE7"/>
<path d="M147.445 42.2024C147.055 41.748 146.795 41.5748 146.73 41.3584C146.666 41.1421 146.73 40.6444 146.73 40.2981C146.546 39.2906 146.308 38.2938 146.016 37.3119C145.682 36.4994 145.046 35.8479 144.242 35.4942C143.914 35.3499 143.596 35.1837 143.29 34.9965C142.576 34.5205 142.576 34.0228 143.29 33.5034C144.004 32.9841 144.35 32.8109 144.805 32.3998C145.441 31.876 145.949 31.2139 146.29 30.4638C146.631 29.7138 146.797 28.8957 146.774 28.0719C146.774 27.7906 146.774 27.531 146.774 27.2497C146.774 26.9684 146.969 26.4707 147.401 26.5789C147.834 26.6871 147.812 26.9683 147.921 27.228C148.029 27.4877 147.921 27.6175 147.921 27.8123C147.901 28.8472 148.15 29.8694 148.643 30.7795C149.136 31.6896 149.856 32.4566 150.734 33.0057C150.929 33.1572 151.145 33.2654 151.34 33.3952C152.227 33.9795 152.248 34.6286 151.231 35.0398C150.17 35.4996 149.281 36.2825 148.69 37.2772C148.1 38.2718 147.838 39.4274 147.942 40.5794C147.975 40.8525 147.975 41.1286 147.942 41.4017C147.801 41.6834 147.635 41.9514 147.445 42.2024V42.2024ZM147.207 37.2686C147.636 36.6389 148.098 36.0322 148.591 35.4509C149.067 35.0247 149.573 34.6342 150.106 34.2824L147.293 31.0582L144.415 34.3257C145.674 34.9322 146.667 35.9792 147.207 37.2686V37.2686Z" fill="#985BE7"/>
<path d="M4.64702 55.1643C4.25751 54.7315 4.0195 54.5584 3.95458 54.342C3.88966 54.1256 3.95458 53.628 3.95458 53.2817C3.78816 52.2725 3.55685 51.275 3.26211 50.2955C3.10057 49.8906 2.86066 49.5216 2.55616 49.2097C2.25166 48.8978 1.88857 48.6491 1.4877 48.4778C1.15949 48.3335 0.841382 48.1673 0.535572 47.9801C-0.178524 47.504 -0.178524 46.9847 0.535572 46.487C1.06859 46.1491 1.58159 45.7806 2.07197 45.3834C2.70691 44.8585 3.21412 44.1962 3.55528 43.4464C3.89644 42.6966 4.06257 41.879 4.04112 41.0555C4.01948 40.7819 4.01948 40.5069 4.04112 40.2333C4.04112 39.8437 4.21425 39.4542 4.66868 39.5624C5.1231 39.6706 5.05816 39.9519 5.188 40.2116C5.22069 40.405 5.22069 40.6025 5.188 40.7959C5.16859 41.8307 5.41751 42.853 5.91049 43.7631C6.40346 44.6732 7.12372 45.4402 8.00111 45.9893C8.19586 46.1407 8.41225 46.249 8.60701 46.3788C9.47258 46.9631 9.51586 47.6122 8.60701 48.0234C7.54557 48.4832 6.65627 49.2661 6.06571 50.2608C5.47514 51.2554 5.21345 52.411 5.31786 53.563C5.35094 53.8361 5.35094 54.1122 5.31786 54.3853C5.13676 54.6788 4.91033 54.9417 4.64702 55.1643V55.1643ZM4.43065 50.2522C4.84779 49.6137 5.31064 49.0062 5.81556 48.4345C6.28134 47.9968 6.78865 47.6054 7.3303 47.266L4.51719 44.0418L1.63916 47.3093C2.89831 47.9158 3.89147 48.9628 4.43065 50.2522V50.2522Z" fill="#985BE7"/>
<path d="M23.9276 105.541C24.4902 106.146 25.0744 106.752 25.6154 107.358C25.9137 107.614 26.1629 107.922 26.3511 108.267C26.3969 108.412 26.409 108.565 26.3865 108.715C26.364 108.865 26.3075 109.008 26.2213 109.133C26.089 109.207 25.94 109.245 25.7885 109.245C25.637 109.245 25.488 109.207 25.3558 109.133C24.7282 108.592 24.1872 107.964 23.5813 107.358L22.6941 106.558C22.6941 107.077 22.521 107.423 22.4994 107.769C22.4994 110.453 22.4994 113.136 22.4994 115.798C22.4994 116.447 22.6941 117.226 21.7636 117.442C21.1577 117.572 20.8332 117.031 20.8332 115.819C20.8332 113.374 20.8332 110.907 20.8332 108.462C20.8681 107.839 20.7569 107.216 20.5085 106.644L18.8207 108.332C18.5725 108.638 18.2892 108.914 17.9768 109.154C17.8433 109.224 17.6948 109.261 17.544 109.261C17.3932 109.261 17.2447 109.224 17.1112 109.154C17.0411 109.025 17.0044 108.88 17.0044 108.732C17.0044 108.585 17.0411 108.44 17.1112 108.31C17.4223 107.851 17.7774 107.424 18.1715 107.034L19.881 105.238H14.5145C14.0183 105.292 13.5176 105.292 13.0214 105.238C12.8724 105.199 12.7404 105.113 12.6461 104.991C12.5518 104.87 12.5007 104.72 12.5007 104.567C12.5007 104.413 12.5518 104.264 12.6461 104.142C12.7404 104.021 12.8724 103.934 13.0214 103.896C13.5053 103.797 13.999 103.753 14.4928 103.766H19.4699L19.5997 103.398C18.7125 102.511 17.8253 101.645 16.9597 100.737C16.5053 100.261 15.7479 99.7412 16.4187 99.092C17.0895 98.4429 17.6089 99.2002 18.0633 99.6547C18.9289 100.477 19.7945 101.343 20.8548 102.403C20.8548 101.689 20.9846 101.278 21.0063 100.866C21.0063 98.5294 21.0063 96.1924 21.0063 93.8337C21.0063 93.1196 20.7466 92.1675 21.8069 91.9078C22.4128 91.7563 22.6725 92.3622 22.6725 93.9203V102.403C23.5427 101.763 24.3473 101.038 25.0744 100.239C25.3967 99.8548 25.7594 99.5065 26.1564 99.2002C26.3319 99.0991 26.5272 99.0371 26.7288 99.0184C26.9305 98.9998 27.1339 99.0249 27.3249 99.092C27.801 99.395 27.563 99.8927 27.3249 100.217C26.5243 101.061 25.6803 101.884 24.8581 102.706C24.62 102.944 24.4253 103.203 24.0141 103.68H28.0823C28.7964 103.68 29.5321 103.68 30.2462 103.68C30.9603 103.68 31.3282 103.68 31.3282 104.437C31.3282 105.194 30.7656 105.151 30.2462 105.151H24.2954L23.9276 105.541Z" fill="#985BE7"/>
<path d="M123.425 33.7631C123.425 34.0845 123.297 34.3928 123.07 34.62C122.843 34.8473 122.535 34.9749 122.213 34.9749C121.892 34.9749 121.584 34.8473 121.356 34.62C121.129 34.3928 121.001 34.0845 121.001 33.7631C121.001 33.4418 121.129 33.1335 121.356 32.9063C121.584 32.679 121.892 32.5513 122.213 32.5513C122.372 32.5513 122.53 32.5827 122.677 32.6436C122.824 32.7045 122.957 32.7937 123.07 32.9063C123.183 33.0188 123.272 33.1524 123.333 33.2994C123.394 33.4464 123.425 33.604 123.425 33.7631V33.7631Z" fill="#985BE7"/>
<path d="M135.651 76.1977C136.32 76.1977 136.863 75.6552 136.863 74.9859C136.863 74.3166 136.32 73.7741 135.651 73.7741C134.982 73.7741 134.439 74.3166 134.439 74.9859C134.439 75.6552 134.982 76.1977 135.651 76.1977Z" fill="#985BE7"/>
<path d="M140.585 12.7297C140.585 12.9694 140.514 13.2037 140.381 13.403C140.247 13.6023 140.058 13.7576 139.837 13.8493C139.615 13.941 139.372 13.965 139.137 13.9183C138.902 13.8715 138.686 13.7561 138.516 13.5866C138.347 13.4171 138.231 13.2012 138.184 12.9662C138.138 12.7311 138.162 12.4874 138.253 12.266C138.345 12.0446 138.5 11.8553 138.7 11.7222C138.899 11.589 139.133 11.5179 139.373 11.5179C139.694 11.5179 140.003 11.6456 140.23 11.8729C140.457 12.1001 140.585 12.4083 140.585 12.7297Z" fill="#985BE7"/>
<path d="M13.108 91.8861C13.108 92.2075 12.9803 92.5158 12.7531 92.743C12.5258 92.9703 12.2176 93.0979 11.8962 93.0979C11.5748 93.0979 11.2666 92.9703 11.0393 92.743C10.8121 92.5158 10.6844 92.2075 10.6844 91.8861C10.6844 91.5648 10.8121 91.2565 11.0393 91.0293C11.2666 90.802 11.5748 90.6744 11.8962 90.6744C12.2176 90.6744 12.5258 90.802 12.7531 91.0293C12.9803 91.2565 13.108 91.5648 13.108 91.8861V91.8861Z" fill="#985BE7"/>
<path d="M35.1584 129.755C35.1584 129.995 35.0873 130.229 34.9542 130.428C34.821 130.627 34.6318 130.783 34.4103 130.874C34.1889 130.966 33.9453 130.99 33.7102 130.943C33.4751 130.897 33.2592 130.781 33.0897 130.612C32.9203 130.442 32.8048 130.226 32.7581 129.991C32.7113 129.756 32.7353 129.513 32.827 129.291C32.9188 129.07 33.0741 128.88 33.2734 128.747C33.4726 128.614 33.7069 128.543 33.9466 128.543C34.268 128.543 34.5762 128.671 34.8035 128.898C35.0307 129.125 35.1584 129.433 35.1584 129.755Z" fill="#985BE7"/>
<path d="M5.72907 121.943C5.72907 122.183 5.658 122.417 5.52485 122.616C5.39169 122.816 5.20245 122.971 4.98103 123.063C4.7596 123.154 4.51593 123.178 4.28086 123.132C4.04579 123.085 3.82988 122.969 3.6604 122.8C3.49093 122.63 3.37552 122.414 3.32876 122.179C3.282 121.944 3.30602 121.701 3.39774 121.479C3.48946 121.258 3.64477 121.069 3.84405 120.935C4.04333 120.802 4.27761 120.731 4.51728 120.731C4.83867 120.731 5.14689 120.859 5.37415 121.086C5.60141 121.313 5.72907 121.622 5.72907 121.943Z" fill="#985BE7"/>
<path d="M22.9105 57.3715C22.9105 57.6112 22.8395 57.8454 22.7063 58.0447C22.5732 58.244 22.3839 58.3993 22.1625 58.491C21.9411 58.5828 21.6974 58.6068 21.4623 58.56C21.2273 58.5133 21.0113 58.3978 20.8419 58.2284C20.6724 58.0589 20.557 57.843 20.5102 57.6079C20.4635 57.3729 20.4875 57.1292 20.5792 56.9078C20.6709 56.6863 20.8262 56.4971 21.0255 56.3639C21.2248 56.2308 21.4591 56.1597 21.6987 56.1597C22.0201 56.1597 22.3284 56.2874 22.5556 56.5146C22.7829 56.7419 22.9105 57.0501 22.9105 57.3715V57.3715Z" fill="#985BE7"/>
<circle cx="110" cy="133" r="18" fill="#8840E3"/>
<path d="M117.277 137.304C117.078 137.198 116.851 137.304 116.704 137.438C116.628 137.489 116.572 137.564 116.544 137.651L115.944 138.198C115.438 138.664 114.918 139.144 114.371 139.531C114.211 139.651 113.998 139.784 113.838 139.731C113.678 139.678 113.585 139.518 113.491 139.238C113.378 138.898 113.324 138.542 113.331 138.184C113.361 136.84 113.517 135.5 113.798 134.185C113.865 133.852 113.931 133.505 113.984 133.172V132.785C114.278 131.025 114.584 129.199 114.838 127.452C114.942 126.783 114.924 126.101 114.784 125.439C114.764 125.223 114.698 125.013 114.59 124.824C114.482 124.636 114.334 124.473 114.158 124.346C113.967 124.244 113.755 124.185 113.539 124.173C113.322 124.162 113.106 124.198 112.905 124.279C112.353 124.431 111.837 124.689 111.385 125.039C110.825 125.536 110.292 126.061 109.785 126.612L109.198 127.212C109.147 127.254 109.102 127.304 109.065 127.359V127.359C108.758 126.426 108.345 125.879 107.732 125.692C107.371 125.619 106.997 125.633 106.643 125.733C106.288 125.832 105.962 126.015 105.692 126.266L105.492 126.426L104.945 126.919L104.865 126.746C104.679 126.412 104.506 126.079 104.292 125.772C104.147 125.521 103.918 125.328 103.645 125.228C103.372 125.128 103.073 125.127 102.799 125.226C101.599 125.662 100.602 126.526 99.9993 127.652C99.9633 127.732 99.9446 127.818 99.9446 127.906C99.9446 127.993 99.9633 128.079 99.9993 128.159V128.292V128.545H100.266H100.373C100.518 128.539 100.658 128.488 100.773 128.399C100.876 128.305 100.966 128.197 101.039 128.079C101.089 127.998 101.147 127.922 101.213 127.852L101.479 127.599C101.791 127.277 102.13 126.983 102.492 126.719C102.799 126.519 103.012 126.439 103.132 126.466C103.252 126.492 103.386 126.692 103.559 127.079C103.654 127.291 103.717 127.515 103.746 127.746V128.092C103.823 128.595 103.854 129.104 103.839 129.612C103.839 130.945 103.679 132.185 103.586 133.452L103.466 135.118C103.466 135.611 103.466 136.091 103.372 136.585C103.358 136.688 103.368 136.793 103.4 136.893C103.432 136.992 103.487 137.082 103.559 137.158C103.613 137.206 103.676 137.243 103.745 137.266C103.814 137.289 103.887 137.297 103.959 137.291C104.097 137.256 104.223 137.186 104.326 137.088C104.428 136.99 104.504 136.867 104.546 136.731C104.609 136.478 104.641 136.219 104.639 135.958L105.079 128.852C105.079 128.785 105.079 128.705 105.079 128.665C105.437 127.874 106.093 127.255 106.905 126.946C107.225 126.826 107.319 126.866 107.439 127.186C107.636 127.607 107.766 128.057 107.825 128.519C107.825 129.852 107.905 131.305 107.825 133.105C107.825 133.807 107.799 134.514 107.745 135.225C107.745 135.665 107.745 136.105 107.745 136.558C107.745 137.211 108.105 137.331 108.318 137.331C108.407 137.34 108.497 137.331 108.582 137.303C108.667 137.276 108.745 137.231 108.812 137.171C108.883 137.087 108.936 136.989 108.968 136.884C109 136.778 109.01 136.667 108.998 136.558V136.331C108.998 136.078 108.998 135.825 108.998 135.571C108.998 133.638 109.092 131.692 109.158 129.745C109.153 129.553 109.19 129.362 109.265 129.185C109.864 127.978 110.752 126.938 111.851 126.159C112.161 125.929 112.502 125.745 112.865 125.612C113.198 125.479 113.305 125.492 113.331 125.519C113.358 125.546 113.425 125.599 113.451 125.932C113.539 126.569 113.539 127.215 113.451 127.852C113.291 128.932 113.091 130.012 112.905 131.092C112.678 132.425 112.451 133.758 112.251 135.091C112.129 136.314 112.084 137.543 112.118 138.771C112.159 139.324 112.343 139.857 112.651 140.318C112.768 140.525 112.939 140.698 113.145 140.818C113.351 140.937 113.586 140.999 113.825 140.997C114.063 140.999 114.3 140.949 114.518 140.851C114.761 140.761 114.986 140.63 115.184 140.464C115.811 139.931 116.518 139.291 117.264 138.624C117.458 138.424 117.584 138.167 117.624 137.891C117.704 137.638 117.451 137.438 117.277 137.304Z" fill="white"/>
<path d="M117.811 135.891C117.051 136.038 116.384 136.185 115.784 136.358H115.611C115.493 136.357 115.375 136.382 115.267 136.43C115.159 136.478 115.063 136.549 114.984 136.638C114.947 136.717 114.928 136.804 114.928 136.891C114.928 136.979 114.947 137.065 114.984 137.145C114.998 137.219 115.027 137.29 115.071 137.353C115.115 137.415 115.172 137.467 115.238 137.505C115.456 137.591 115.699 137.591 115.918 137.505H116.064C116.598 137.411 117.118 137.305 117.651 137.185L118.051 137.105V138.438C118.057 138.504 118.057 138.571 118.051 138.638C118.011 138.795 118.011 138.96 118.051 139.118C118.11 139.283 118.217 139.426 118.357 139.531L118.477 139.638L118.664 139.838L118.851 139.638L118.944 139.544C119.08 139.441 119.179 139.296 119.224 139.131V139.131C119.304 138.459 119.344 137.782 119.344 137.105C119.373 136.919 119.352 136.729 119.283 136.554C119.214 136.379 119.1 136.225 118.951 136.11C118.803 135.994 118.626 135.92 118.44 135.896C118.253 135.872 118.064 135.898 117.891 135.971L117.811 135.891Z" fill="white"/>
<path d="M109.625 148.25C106.535 148.25 103.514 147.334 100.944 145.617C98.3747 143.9 96.372 141.46 95.1894 138.604C94.0068 135.749 93.6973 132.608 94.3002 129.577C94.9031 126.546 96.3913 123.762 98.5765 121.576C100.762 119.391 103.546 117.903 106.577 117.3C109.608 116.697 112.749 117.007 115.604 118.189C118.46 119.372 120.9 121.375 122.617 123.944C124.334 126.514 125.25 129.535 125.25 132.625C125.246 136.768 123.599 140.74 120.67 143.67C117.74 146.599 113.768 148.246 109.625 148.25V148.25ZM109.625 118.227C106.773 118.224 103.985 119.067 101.613 120.65C99.2412 122.232 97.3919 124.483 96.2995 127.117C95.207 129.751 94.9205 132.65 95.4762 135.447C96.0318 138.244 97.4047 140.813 99.421 142.829C101.437 144.845 104.006 146.218 106.803 146.774C109.6 147.33 112.499 147.043 115.133 145.951C117.767 144.858 120.018 143.009 121.6 140.637C123.183 138.265 124.026 135.477 124.023 132.625C124.016 128.808 122.497 125.15 119.798 122.452C117.1 119.753 113.442 118.234 109.625 118.227V118.227Z" fill="white"/>
</svg>
