<svg width="154" height="151" viewBox="0 0 154 151" fill="none" xmlns="http://www.w3.org/2000/svg">
<circle cx="77" cy="73.0001" r="67" fill="#F0E8FF"/>
<path d="M31.7848 40.063C34.8886 39.6078 37.9924 39.1732 41.0963 38.6352C44.51 38.0148 47.9976 37.9102 51.4424 38.3249C52.0514 38.4423 52.682 38.3625 53.2426 38.0972C56.1462 36.446 59.5495 35.9021 62.8231 36.566C65.5337 36.8764 68.2651 37.2075 70.9551 37.6834C76.3159 38.3917 81.7576 38.1959 87.0536 37.104C89.3505 36.7316 91.6887 36.566 94.0062 36.4005C96.3533 36.2077 98.701 36.7656 100.71 37.9938C101.253 38.2931 101.875 38.4161 102.49 38.3456C106.634 37.8429 110.835 38.0599 114.905 38.987C119.137 40.0861 123.57 40.1641 127.838 39.2146C129.924 38.6377 131.907 37.737 133.715 36.5453C135.687 35.515 137.204 33.7862 137.969 31.6969C138.734 29.6075 138.693 27.3078 137.853 25.2474C137.066 23.1792 136.045 21.2075 134.811 19.3708C133.487 17.1775 131.873 15.2324 130.528 12.9356C128.847 10.1654 127.874 7.02456 127.693 3.78961C127.631 3.23264 127.631 2.67051 127.693 2.11354C127.693 1.34793 127.693 0.334015 128.707 0.0443241C129.721 -0.245366 129.804 0.954777 130.135 1.61693C132.043 5.45491 134.654 8.90107 137.832 11.7768C140.957 14.6944 144.04 17.5499 147.227 20.5089C150.865 23.8838 153.177 28.4489 153.745 33.3794C154.288 36.8689 153.961 40.4387 152.791 43.7709C151.621 47.1031 149.646 50.0944 147.04 52.4783C140.145 58.9886 131.277 63.015 121.837 63.9211C119.499 64.1694 117.161 64.3556 114.843 64.3763C114.245 64.3615 113.654 64.5001 113.125 64.7791C112.596 65.058 112.148 65.4679 111.822 65.9696C109.807 68.7185 108.719 72.038 108.718 75.4466C108.594 77.7848 108.718 80.1231 108.718 82.4613C109.021 86.5678 108.665 90.6964 107.663 94.6904C106.426 99.352 103.62 103.445 99.7172 106.278C98.8068 106.94 97.9791 107.726 97.1307 108.347C95.6848 109.516 94.4836 110.958 93.596 112.591C92.7083 114.224 92.1516 116.017 91.9577 117.866C91.8517 120.305 90.9833 122.65 89.4746 124.57C89.0564 125.347 88.7896 126.197 88.6883 127.074C88.3136 128.422 87.5082 129.611 86.3949 130.459C85.2816 131.307 83.9215 131.768 82.522 131.771C78.8334 132.123 75.1197 132.123 71.431 131.771C70.0474 131.771 68.7035 131.309 67.6126 130.458C66.5216 129.607 65.7463 128.416 65.4096 127.074C64.9791 125.613 64.3452 124.22 63.5266 122.935C62.8288 121.757 62.4177 120.432 62.3265 119.066C61.9333 113.334 58.7674 109.382 54.3393 106.195C50.0721 103.16 47.1144 98.6199 46.0624 93.4902C45.1701 89.6329 44.9253 85.654 45.3382 81.7164C45.7183 78.1827 45.5155 74.6106 44.7381 71.1427C44.2565 69.2663 43.413 67.502 42.255 65.9489C41.9301 65.4516 41.4846 65.0447 40.9599 64.7661C40.4353 64.4875 39.8486 64.3463 39.2547 64.3556C36.035 64.2632 32.8229 63.9938 29.6328 63.5486C21.4619 62.276 13.8277 58.6852 7.63702 53.2025C5.34463 51.2185 3.485 48.784 2.17378 46.0505C0.862564 43.3169 0.127808 40.3428 0.0152394 37.3132C-0.0973295 34.2835 0.414697 31.2631 1.51945 28.4398C2.62419 25.6165 4.29803 23.0507 6.43687 20.902C9.45793 17.881 12.6445 15.0875 15.8104 12.1699C19.307 9.06101 22.1247 5.2642 24.0873 1.01686C24.2528 0.603016 24.8529 0.396093 25.2461 0.106402C25.5565 0.520246 26.0738 0.913395 26.1152 1.36862C26.415 4.26446 25.9809 7.18919 24.8529 9.87311C23.4726 13.059 21.67 16.0448 19.4936 18.7501C17.7622 20.8857 16.5129 23.3703 15.8311 26.0337C15.2914 27.9084 15.3569 29.9055 16.0182 31.7409C16.6795 33.5762 17.9029 35.1561 19.5143 36.2556C23.072 38.8447 27.3865 40.1834 31.7848 40.063V40.063ZM44.2001 64.5212C48.0607 71.2242 50.3463 78.7175 50.8837 86.4342C50.8837 87.0756 51.0078 87.7171 51.0492 88.3585C51.3419 94.5041 53.7633 100.356 57.8984 104.912C58.3743 105.45 58.8295 106.03 59.3261 106.547C61.8252 109.093 63.4673 112.355 64.0232 115.879C64.1474 116.686 64.3543 117.472 64.5198 118.259C64.7016 120.179 65.5811 121.967 66.9921 123.282C68.403 124.598 70.2474 125.35 72.176 125.398C74.2413 125.555 76.3142 125.589 78.3836 125.501C80.0626 125.579 81.7449 125.447 83.3911 125.108C84.9122 124.829 86.3075 124.08 87.3804 122.967C88.4533 121.853 89.1495 120.431 89.3711 118.9C89.5781 117.638 89.9505 116.396 90.1781 115.134C90.6847 112.511 91.8528 110.061 93.5717 108.016C95.4546 105.719 97.317 103.381 99.0758 100.981C100.66 98.8301 101.709 96.3335 102.138 93.6971C102.613 91.3257 102.944 88.928 103.131 86.5169C103.435 80.3871 104.999 74.3857 107.725 68.8872C108.387 67.5422 108.967 66.1558 109.794 64.3349C105.656 64.6246 101.869 64.8109 98.1446 65.2247C95.0187 65.6575 92.0168 66.7356 89.3298 68.3906C86.4158 70.0865 83.7491 72.1753 81.4047 74.5983C80.8735 75.2625 80.1997 75.7988 79.4332 76.1673C78.6667 76.5358 77.8271 76.7272 76.9766 76.7272C76.126 76.7272 75.2864 76.5358 74.5199 76.1673C73.7534 75.7988 73.0795 75.2625 72.5484 74.5983C71.8656 73.9361 71.2034 73.2119 70.4792 72.529C66.8869 69.1376 62.4949 66.7103 57.7121 65.473C53.2696 64.6155 48.7382 64.3097 44.2208 64.5625L44.2001 64.5212ZM61.8299 38.3249C53.9668 38.1386 50.2008 41.9874 50.4492 48.671C50.592 50.9356 51.3037 53.1276 52.5184 55.0441C55.2087 59.3687 58.9632 62.9309 63.4232 65.3902C67.3667 67.4278 70.9296 70.1297 73.9555 73.3774C74.3438 73.8178 74.8215 74.1704 75.3566 74.412C75.8917 74.6536 76.4722 74.7785 77.0593 74.7785C77.6464 74.7785 78.2269 74.6536 78.762 74.412C79.2972 74.1704 79.7748 73.8178 80.1631 73.3774C82.5826 70.6638 85.4527 68.3887 88.6469 66.6525C90.7162 65.4316 92.7854 64.0452 94.6891 62.6796C97.6805 60.4787 100.159 57.6548 101.952 54.4027C103.136 52.3707 103.731 50.0493 103.669 47.6984C103.735 46.4442 103.532 45.1905 103.075 44.0208C102.618 42.8511 101.916 41.7924 101.017 40.9151C100.119 40.0379 99.0431 39.3624 97.8627 38.9336C96.6823 38.5047 95.424 38.3325 94.1718 38.4283C91.5992 38.4932 89.0342 38.7352 86.4949 39.1526C80.9379 40.1418 75.258 40.2326 69.6722 39.4215C66.7132 38.8422 63.6715 38.5525 61.8299 38.3249ZM34.93 62.2657C36.6061 62.3692 37.889 62.3899 39.0685 62.5347C39.6586 62.6464 40.2691 62.5508 40.797 62.2643C41.3248 61.9778 41.7375 61.5178 41.9653 60.9621C45.7727 54.1751 45.1106 47.4708 41.8619 40.5182L37.4959 41.2838C38.8757 48.3637 38.015 55.6977 35.0335 62.2657H34.93ZM119.044 62.2657C115.976 55.7106 115.021 48.3639 116.312 41.2425L112.174 40.5389C109.563 45.1159 108.758 50.5041 109.919 55.6442C110.473 57.6486 111.28 59.5745 112.319 61.376C112.493 61.6729 112.732 61.9262 113.019 62.1163C113.306 62.3064 113.633 62.4283 113.974 62.4726C115.63 62.5554 117.14 62.3692 119.147 62.2657H119.044ZM24.5839 40.9942C24.8053 44.1387 24.1883 47.2857 22.796 50.114C21.4037 52.9422 19.2859 55.3504 16.6588 57.0927C18.4797 57.9204 20.0523 58.686 21.6663 59.3481C24.5632 60.5069 25.3495 60.2793 26.9428 57.5686C28.5868 54.6827 29.4365 51.4127 29.4052 48.0916C29.4982 45.9133 29.1243 43.7403 28.3085 41.7184L24.5839 40.9942ZM125.976 41.7598C124.507 45.7679 124.507 50.1669 125.976 54.1751C126.683 55.9512 127.608 57.6331 128.728 59.1826C128.935 59.4635 129.207 59.6908 129.52 59.8456C129.833 60.0003 130.179 60.0781 130.528 60.0723C132.995 59.471 135.34 58.4491 137.46 57.0513C132.038 52.5404 131.252 51.1126 129.473 41.1183L125.976 41.7598ZM56.7603 63.1969C56.0981 62.4933 55.6429 62.0588 55.2704 61.5829C53.5418 59.5758 51.9517 57.4534 50.5112 55.2304C49.2192 53.1718 48.5082 50.8021 48.4536 48.3723C48.399 45.9425 49.0027 43.5432 50.2009 41.4287C50.3664 41.1183 50.4698 40.7458 50.6354 40.332C48.4904 39.6804 46.2002 39.6804 44.0553 40.332C45.769 43.7522 46.6337 47.5349 46.576 51.36C46.5184 55.1851 45.5402 58.9401 43.7242 62.3071L56.7603 63.1969ZM118.589 41.8218C116.416 46.5603 118.175 58.0238 121.734 62.0174C123.514 61.964 125.272 61.5999 126.927 60.9414C125.955 58.8722 124.858 57.2582 124.217 55.4166C122.897 51.6855 122.618 47.6653 123.41 43.7876C123.513 43.2082 123.41 42.6081 123.555 41.8218H118.589ZM110.477 62.4106C106.339 54.9614 106.98 47.6777 110.105 40.2906C107.921 39.7151 105.619 39.7653 103.463 40.4355C103.587 40.7548 103.732 41.0659 103.897 41.3666C104.758 42.8276 105.322 44.4444 105.557 46.124C105.791 47.8037 105.691 49.5131 105.263 51.154C104.097 55.0939 101.921 58.6605 98.9516 61.5001C98.5171 61.9553 98.0826 62.4519 97.4618 63.1555L110.477 62.4106ZM30.3984 41.9046C31.218 45.2075 31.3658 48.6413 30.833 52.0024C30.2658 55.3508 28.8399 58.4949 26.6945 61.1276L32.5711 62.0588C36.2336 56.5961 37.6821 45.8568 35.3852 41.6563L30.3984 41.9046ZM134.004 39.1939C131.356 40.1458 131.252 40.1665 131.397 42.3805C131.48 44.1433 131.786 45.8885 132.307 47.5743C133.302 50.7539 135.44 53.4521 138.308 55.1476C138.929 55.4994 139.529 55.9753 140.377 55.4166L144.516 52.499C141.951 51.1126 139.696 49.2177 137.889 46.93C136.081 44.6423 134.759 42.0099 134.004 39.1939V39.1939ZM14.4861 55.9132C16.9969 54.684 19.1074 52.7678 20.5725 50.387C22.0376 48.0062 22.7972 45.2586 22.763 42.4633C22.763 40.1458 22.763 40.0216 20.5696 39.3802C19.3804 41.9246 17.9969 44.3735 16.4312 46.7052C14.511 48.8733 12.4364 50.8995 10.2235 52.768L14.4861 55.9132ZM145.964 51.0092C147.871 49.3801 149.247 47.2184 149.916 44.8015C147.247 44.6495 144.68 43.7219 142.529 42.1322C140.584 40.4562 138.825 38.6145 136.984 36.835C135.515 37.9938 135.411 38.0352 135.929 39.7319C136.68 42.2286 137.968 44.5312 139.701 46.4789C141.434 48.4267 143.572 49.9727 145.964 51.0092V51.0092ZM4.07796 44.8015C4.80533 47.1451 6.17443 49.2381 8.03018 50.8436C10.3859 49.8802 12.5048 48.4175 14.2409 46.5564C15.977 44.6953 17.289 42.48 18.0866 40.063C18.1789 39.6682 18.2411 39.267 18.2728 38.8629C18.3204 38.6313 18.3202 38.3924 18.2723 38.1609C18.2244 37.9294 18.1297 37.71 17.9942 37.5163C17.8586 37.3227 17.6849 37.1587 17.4838 37.0344C17.2826 36.9101 17.0582 36.8282 16.8244 36.7936C13.5964 40.87 9.89247 44.3256 4.07796 44.7601V44.8015ZM15.1897 34.4554C13.281 35.5606 11.2718 36.4821 9.18893 37.2075C6.84911 37.68 4.47623 37.9706 2.09153 38.0766C2.42261 39.6699 2.75366 41.2011 3.04335 42.6495C8.50609 42.8978 15.4794 37.9938 15.1897 34.4347V34.4554ZM138.95 34.4554C138.743 38.2628 146.419 43.4151 151.158 42.4219C151.448 41.0148 151.717 39.5457 152.027 37.9938C149.727 37.9186 147.437 37.6626 145.178 37.2282C143.034 36.4732 140.951 35.5531 138.95 34.4761V34.4554ZM1.98806 35.6349C4.36421 36.1963 6.84942 36.0889 9.16825 35.3245C10.7702 34.6333 12.2901 33.7658 13.6998 32.738C13.9895 32.531 13.9895 31.8689 14.1551 31.3102C9.04411 31.7654 9.0441 31.7654 3.08475 29.6962C2.73298 31.7861 2.38121 33.5864 1.98806 35.6556V35.6349ZM140.088 31.124C140.812 34.7451 147.309 36.9592 151.965 35.428C152.057 33.4148 151.607 31.4139 150.661 29.6341C149.089 30.5801 147.344 31.2012 145.528 31.4607C143.711 31.7202 141.862 31.6127 140.088 31.1447V31.124ZM86.826 126.763C83.5302 127.297 80.2076 127.65 76.8731 127.819C73.6602 127.637 70.461 127.264 67.2926 126.701C67.4585 127.547 67.9035 128.313 68.5564 128.875C69.2092 129.438 70.032 129.766 70.893 129.805C73.3554 130.033 75.8385 130.157 78.3215 130.157C80.0883 130.153 81.8522 130.014 83.598 129.743C84.3859 129.662 85.1264 129.328 85.7083 128.791C86.2903 128.254 86.6825 127.542 86.826 126.763ZM150.165 27.6477C149.275 26.2199 148.489 24.9991 147.827 23.9645L140.274 27.6477C140.026 28.6823 140.481 29.3651 141.784 29.6135C143.242 29.8632 144.734 29.8178 146.174 29.4802C147.613 29.1425 148.97 28.5194 150.165 27.6477V27.6477ZM6.31272 23.9852C5.69196 24.9784 4.86426 26.2613 3.97449 27.6477C5.13897 28.5408 6.47446 29.1854 7.8982 29.5413C9.32194 29.8972 10.8036 29.957 12.2514 29.7169C13.9895 29.3651 13.9895 29.3445 13.7205 27.6477L6.31272 23.9852ZM100.855 102.305C106.359 97.4838 107.911 87.5102 106.132 79.3574C105.759 81.3025 105.49 83.2683 105.283 85.2547C104.704 91.1727 104.373 97.1527 100.855 102.326V102.305ZM53.015 101.829C52.6632 101.146 52.3528 100.443 51.9804 99.7599C50.3009 96.1077 49.3385 92.1669 49.1455 88.1516C48.7938 85.234 48.4834 82.3164 48.173 79.3988H47.6143C46.766 87.655 46.9936 95.3525 53.015 101.85V101.829ZM14.7965 23.323L11.0305 19.3708L8.03018 22.1436C10.0994 24.5439 12.8928 25.8061 14.2378 24.9991C14.4241 24.4404 14.631 23.8403 14.7965 23.323ZM143.088 19.3294L139.301 23.323C139.488 23.8403 139.736 24.5646 140.026 25.3922C141.205 25.3526 142.36 25.0451 143.404 24.493C144.447 23.941 145.351 23.1588 146.047 22.2056L143.088 19.3294ZM12.8721 17.612C13.286 19.3915 13.9068 20.6744 15.7277 21.1297L17.1761 18.8328L15.1069 15.6048L12.8721 17.612ZM138.391 21.0469C139.091 20.9763 139.744 20.662 140.235 20.1589C140.727 19.6559 141.026 18.9961 141.081 18.2948C141.309 16.805 139.839 16.4739 139.012 15.6255C138.35 16.7429 137.749 17.6948 137.067 18.8535C137.418 19.5777 137.874 20.302 138.391 21.0469ZM20.4455 14.384L18.8108 11.8389L16.7416 14.1564C17.2175 15.1289 17.6727 16.1015 18.2935 17.3637L20.4455 14.384ZM133.57 14.384L135.639 17.0947C137.708 14.0943 137.501 13.4529 134.832 12.1492L133.57 14.384ZM132.452 12.3148C133.88 10.2456 133.839 9.93519 132.038 9.02473C130.838 10.349 131.666 11.3423 132.514 12.3769L132.452 12.3148ZM21.7077 8.77643C20.2179 10.556 20.2179 10.556 21.7077 12.1286C22.8665 10.4939 22.8665 10.4939 21.7698 8.8385L21.7077 8.77643ZM23.7769 7.80389C24.0459 6.85205 24.2528 6.14852 24.4391 5.44498C23.6528 6.04506 22.6595 6.54167 23.7976 7.86597L23.7769 7.80389ZM130.362 5.54844L129.762 5.83813L130.342 7.57628L130.942 7.39005C130.776 6.83136 130.569 6.23128 130.383 5.61052L130.362 5.54844Z" fill="#985BE7"/>
<path d="M77.0801 122.439C74.4038 122.531 71.796 121.582 69.8048 119.792C67.8136 118.001 66.5942 115.509 66.403 112.837C66.2253 112.17 65.9311 111.54 65.5339 110.975C65.2028 110.437 64.7062 109.982 64.4165 109.423C64.0648 108.695 63.9342 107.88 64.0409 107.078C64.1475 106.276 64.4867 105.523 65.0166 104.912C65.524 104.345 66.2017 103.958 66.9479 103.809C67.694 103.66 68.4685 103.756 69.155 104.085C70.3345 104.602 71.4932 105.181 72.6313 105.761C73.9771 106.494 75.4853 106.879 77.018 106.879C78.5507 106.879 80.059 106.494 81.4048 105.761C82.4187 105.243 83.474 104.705 84.4258 104.25C85.2218 103.816 86.1456 103.676 87.0344 103.856C87.9232 104.036 88.7199 104.524 89.284 105.234C89.8481 105.944 90.1433 106.831 90.1176 107.737C90.092 108.644 89.747 109.512 89.1437 110.189C88.2188 111.261 87.667 112.604 87.5711 114.017C87.1135 116.441 85.8049 118.622 83.8813 120.166C81.9577 121.71 79.5456 122.516 77.0801 122.439V122.439ZM69.2378 110.148C68.7072 109.575 68.2164 108.966 67.7686 108.327C67.6834 108.164 67.6389 107.983 67.6389 107.799C67.6389 107.615 67.6834 107.434 67.7686 107.271C67.9146 107.161 68.0862 107.09 68.2672 107.065C68.4482 107.04 68.6327 107.061 68.8032 107.126C69.7112 107.639 70.5348 108.288 71.2449 109.051C71.4264 109.333 71.5444 109.651 71.5909 109.983C71.6373 110.316 71.611 110.654 71.5139 110.975C71.1008 111.841 71.0358 112.833 71.3323 113.745C71.6287 114.658 72.264 115.421 73.1072 115.879C74.2695 116.628 75.6181 117.036 77.0003 117.058C78.3826 117.08 79.7434 116.715 80.9289 116.003C81.38 115.798 81.7846 115.503 82.1177 115.136C82.4509 114.769 82.7056 114.338 82.8664 113.87C83.0272 113.401 83.0906 112.904 83.0527 112.41C83.0149 111.916 82.8766 111.435 82.6463 110.996C82.4695 110.586 82.4387 110.129 82.5593 109.699C82.6798 109.27 82.9444 108.895 83.3085 108.637C83.9227 108.113 84.5803 107.642 85.2742 107.23C85.6467 107.044 86.1847 107.23 87.0124 107.23C86.2674 108.43 85.7501 109.299 85.2328 110.044C85.9594 110.126 86.6917 109.95 87.3021 109.547C87.7692 109.217 88.0947 108.722 88.2136 108.162C88.3324 107.602 88.236 107.018 87.9435 106.526C87.3641 105.616 86.5571 105.43 85.1708 106.009C84.281 106.382 83.4326 106.816 82.5636 107.271C80.8709 108.214 78.9657 108.708 77.0284 108.708C75.0911 108.708 73.1859 108.214 71.4932 107.271C70.5621 106.795 69.6102 106.361 68.6584 105.926C67.7066 105.492 66.734 105.533 66.3202 106.464C66.0308 107.26 66.0308 108.131 66.3202 108.927C66.734 109.858 67.7273 110.272 69.2378 110.148ZM68.7412 112.217C68.3932 113.598 68.5476 115.057 69.1769 116.335C69.8061 117.612 70.8692 118.624 72.1761 119.19C73.9657 120.219 76.0295 120.67 78.0853 120.481C80.141 120.292 82.0882 119.473 83.6602 118.135C84.5946 117.437 85.2703 116.449 85.5813 115.325C85.8922 114.201 85.8206 113.006 85.3777 111.927C85.1732 113.928 84.1914 115.769 82.6436 117.054C81.0957 118.339 79.1054 118.965 77.1008 118.797C75.1334 118.946 73.1817 118.35 71.6331 117.128C70.0845 115.905 69.0522 114.144 68.7412 112.196V112.217Z" fill="#985BE7"/>
<path d="M52.1667 70.8323C59.6366 72.4256 65.8235 75.9226 69.2584 83.2476C69.6739 84.2049 69.9861 85.2038 70.1896 86.2273C70.1896 86.4963 69.8999 86.8688 69.7344 87.1998C69.3619 87.0136 68.8032 86.9101 68.6377 86.5998C68.3188 85.8644 68.0425 85.1114 67.81 84.3443C67.6798 83.8468 67.4195 83.3929 67.0559 83.0292C66.6922 82.6656 66.2383 82.4053 65.7408 82.2751C63.8785 81.7578 62.0534 81.1149 60.278 80.3507C56.947 79.0647 54.0137 76.9236 51.7736 74.1431C51.3654 73.649 51.0308 73.0984 50.7803 72.5084C50.263 71.3289 50.8424 70.6875 52.1667 70.8323ZM53.8014 73.4189C56.4002 76.7243 60.2016 78.8668 64.3751 79.3782C61.6601 76.2112 57.9166 74.1014 53.8014 73.4189Z" fill="#985BE7"/>
<path d="M83.9706 86.993C84.0222 86.1833 84.1469 85.3799 84.343 84.5927C85.8546 80.3728 88.7788 76.8053 92.6199 74.4949C95.4109 72.7307 98.5165 71.5222 101.766 70.9358C102.055 70.8639 102.357 70.8601 102.648 70.9248C102.939 70.9894 103.21 71.1207 103.442 71.3083C103.54 71.594 103.574 71.8977 103.541 72.198C103.509 72.4983 103.412 72.7879 103.256 73.0464C101.737 75.5389 99.541 77.5482 96.9239 78.8402C94.654 80.0468 92.2695 81.0242 89.8058 81.7578C88.8267 81.9396 87.9261 82.415 87.2238 83.121C86.5215 83.827 86.0508 84.73 85.8742 85.71C85.6259 86.4343 85.5225 87.4275 83.9706 86.993ZM100.338 73.481C96.231 74.1941 92.504 76.3249 89.8058 79.5024C93.9123 78.7876 97.6387 76.6571 100.338 73.481Z" fill="#985BE7"/>
<path d="M82.0047 91.152C82.0047 91.7727 82.0047 92.4556 82.0047 93.2212C81.7771 96.2009 81.5702 99.1599 83.9498 101.498C84.1567 101.705 83.9498 102.367 83.9498 102.74C83.7903 102.811 83.6176 102.848 83.4429 102.848C83.2681 102.848 83.0954 102.811 82.9359 102.74C82.2299 102.173 81.6458 101.469 81.2184 100.67C80.0005 97.9369 79.7665 94.8661 80.5563 91.9797C80.6391 91.3382 80.9288 90.8002 82.0047 91.152Z" fill="#985BE7"/>
<path d="M72.5276 90.3865C73.1277 91.2142 73.5829 91.5866 73.6864 92.0626C74.4007 94.7221 74.2559 97.5395 73.2726 100.112C72.7321 101.09 72.0328 101.971 71.2033 102.719C71.0442 102.804 70.8665 102.849 70.686 102.849C70.5056 102.849 70.3279 102.804 70.1687 102.719C70.0835 102.556 70.039 102.375 70.039 102.191C70.039 102.008 70.0835 101.827 70.1687 101.664C72.7346 98.9324 72.6311 95.7251 72.0517 92.3729C71.9276 91.7936 72.1759 91.3383 72.5276 90.3865Z" fill="#985BE7"/>
<path d="M73.6246 47.7812C73.4177 50.9057 73.6246 53.8026 77.1836 53.7406C80.7427 53.6785 80.6599 50.7402 80.5772 48.0709C82.0348 48.7291 83.2378 49.8451 84.0034 51.2494C84.769 52.6536 85.0554 54.2693 84.8191 55.8512C84.5447 57.5646 83.7084 59.1381 82.4417 60.3241C81.175 61.5101 79.55 62.2412 77.8222 62.4024C76.0945 62.5636 74.3622 62.1456 72.898 61.2143C71.4339 60.2831 70.321 58.8914 69.7345 57.2582C68.4929 53.8026 69.7965 50.285 73.6246 47.7812ZM71.783 52.5404C71.2092 53.627 71.046 54.8839 71.3234 56.081C71.6009 57.278 72.3002 58.335 73.2935 59.0585C74.5257 59.9382 76.0257 60.3615 77.536 60.2558C79.0463 60.1501 80.4727 59.5219 81.5704 58.4791C82.3863 57.7501 82.9065 56.7471 83.0324 55.6602C83.1582 54.5733 82.881 53.478 82.2532 52.5818C78.6942 56.8858 76.0042 56.8651 71.783 52.4783V52.5404Z" fill="#985BE7"/>
<path d="M32.8609 86.2273L34.0197 87.4689C34.2238 87.6418 34.3924 87.8526 34.5163 88.0896C34.5588 88.1803 34.5807 88.2792 34.5807 88.3793C34.5807 88.4795 34.5588 88.5784 34.5163 88.669C34.4244 88.7197 34.3212 88.7464 34.2162 88.7464C34.1113 88.7464 34.0081 88.7197 33.9162 88.669C33.5023 88.2966 33.1299 87.862 32.716 87.4689C32.3022 87.0757 32.385 87.1585 32.116 86.9102C32.0531 87.1824 32.0116 87.4592 31.9918 87.7379C31.9918 89.5588 31.9918 91.3797 31.9918 93.2006C31.9918 93.6352 32.1367 94.1732 31.4952 94.318C30.8537 94.4628 30.8744 94.0283 30.8537 93.2006V88.1931C30.8773 87.7691 30.8066 87.3451 30.6468 86.9516L29.4881 88.1103C29.3282 88.3152 29.1401 88.4963 28.9294 88.6483C28.8396 88.6938 28.7404 88.7175 28.6397 88.7175C28.5391 88.7175 28.4398 88.6938 28.35 88.6483C28.2992 88.5603 28.2724 88.4603 28.2724 88.3586C28.2724 88.2569 28.2992 88.157 28.35 88.069C28.5643 87.7517 28.8142 87.4601 29.0949 87.1999L30.233 85.9584H26.5912C26.2545 85.9999 25.9139 85.9999 25.5772 85.9584C25.4787 85.9304 25.3889 85.8777 25.3164 85.8053C25.244 85.7329 25.1913 85.6431 25.1634 85.5445C25.1759 85.4416 25.2149 85.3436 25.2765 85.2602C25.3382 85.1768 25.4204 85.1108 25.5152 85.0686C25.8511 85.0155 26.1932 85.0155 26.5291 85.0686H29.9019V84.841L28.1224 83.0201C27.812 82.689 27.2947 82.3372 27.7499 81.882C28.2051 81.4268 28.5569 81.882 28.8673 82.2751C29.1777 82.6683 30.0468 83.4339 30.771 84.1581C30.771 83.6615 30.771 83.3925 30.771 83.1028C30.771 81.5095 30.771 79.9162 30.771 78.3229C30.771 77.8263 30.5848 77.1849 31.309 77.0193C31.7228 76.8952 31.8884 77.309 31.8884 78.385V84.1374C32.4911 83.7162 33.0401 83.2228 33.5231 82.6683C33.7454 82.4078 33.9952 82.1719 34.2679 81.9648C34.3903 81.9045 34.5248 81.8732 34.6611 81.8732C34.7974 81.8732 34.932 81.9045 35.0543 81.9648C35.3853 82.151 35.2198 82.5028 35.0543 82.7304C34.4956 83.3098 33.9162 83.8478 33.3575 84.4271C33.2127 84.572 33.0678 84.7582 32.7988 85.0893H35.5509H36.9993C37.3511 85.0893 37.7443 85.0893 37.7443 85.6066C37.7443 86.1239 37.3511 86.1032 37.02 86.1032H32.8816L32.8609 86.2273Z" fill="#985BE7"/>
<path d="M116.375 120.597C116.413 119.998 116.311 119.398 116.078 118.845C115.845 118.292 115.486 117.801 115.03 117.41C114.118 116.614 113.056 116.008 111.905 115.631C111.684 115.57 111.469 115.487 111.264 115.383C111.173 115.348 111.096 115.287 111.041 115.208C110.986 115.128 110.957 115.034 110.957 114.938C110.957 114.841 110.986 114.747 111.041 114.667C111.096 114.588 111.173 114.527 111.264 114.493C111.512 114.407 111.769 114.344 112.029 114.307C112.547 114.214 113.058 114.09 113.561 113.934C114.325 113.708 114.999 113.246 115.486 112.614C115.972 111.983 116.247 111.214 116.271 110.416C116.264 110.041 116.298 109.666 116.375 109.299C116.414 109.181 116.486 109.077 116.58 108.997C116.675 108.917 116.79 108.864 116.913 108.844C117.078 108.844 117.347 109.113 117.409 109.32C117.489 109.764 117.538 110.214 117.554 110.665C117.628 111.448 117.945 112.188 118.461 112.782C118.976 113.376 119.665 113.793 120.43 113.976C120.886 114.12 121.382 114.182 121.858 114.286C122.334 114.389 122.769 114.286 122.81 114.907C122.851 115.527 122.334 115.403 122.003 115.548C121.105 115.938 120.234 116.388 119.396 116.893C118.714 117.259 118.155 117.816 117.787 118.497C117.419 119.177 117.259 119.951 117.327 120.721C117.337 120.831 117.337 120.942 117.327 121.052C117.327 121.404 117.14 121.694 116.789 121.632C116.437 121.57 116.375 121.28 116.23 121.052C116.24 120.891 116.29 120.735 116.375 120.597V120.597ZM113.747 115.052L116.892 117.804L120.016 115.093C119.441 114.78 118.887 114.428 118.361 114.038C117.829 113.571 117.331 113.066 116.871 112.527C116.101 113.658 115.014 114.536 113.747 115.052V115.052Z" fill="#985BE7"/>
<path d="M129.907 101.478C129.535 101.043 129.286 100.898 129.224 100.691C129.162 100.484 129.224 100.008 129.224 99.6773C129.05 98.7134 128.822 97.7601 128.541 96.8218C128.387 96.4347 128.158 96.0818 127.866 95.7836C127.575 95.4853 127.228 95.2474 126.845 95.0837C126.534 94.9181 126.224 94.794 125.934 94.6078C125.251 94.1525 125.251 93.6559 125.934 93.18C126.617 92.7041 126.948 92.5179 127.403 92.1247C128.002 91.6169 128.48 90.9819 128.802 90.2659C129.124 89.55 129.283 88.7712 129.266 87.9863C129.266 87.7173 129.266 87.4483 129.266 87.2C129.266 86.9517 129.452 86.455 129.866 86.5585C130.28 86.662 130.259 86.931 130.362 87.1793C130.466 87.4276 130.362 87.531 130.362 87.738C130.346 88.7272 130.585 89.7039 131.056 90.5739C131.527 91.4438 132.215 92.1775 133.052 92.7041L133.632 93.0558C134.48 93.6352 134.501 94.256 133.632 94.6491C132.56 95.062 131.654 95.8172 131.056 96.7975C130.457 97.7778 130.199 98.9284 130.321 100.07C130.34 100.332 130.34 100.595 130.321 100.857C130.203 101.076 130.064 101.284 129.907 101.478V101.478ZM129.68 96.7804C130.091 96.1719 130.533 95.5849 131.004 95.0216C131.459 94.6204 131.943 94.2538 132.452 93.9249L129.762 90.8418L127.01 93.9663C128.219 94.5398 129.171 95.5431 129.68 96.7804V96.7804Z" fill="#985BE7"/>
<path d="M54.9186 24.8336C54.5462 24.399 54.3186 24.2335 54.2565 24.0266C54.1944 23.8196 54.2565 23.3437 54.2565 23.0126C54.0973 22.0476 53.8762 21.0938 53.5943 20.1571C53.4385 19.7675 53.2063 19.413 52.9113 19.1145C52.6164 18.8159 52.2646 18.5795 51.8769 18.419C51.5719 18.2765 51.2749 18.1177 50.9871 17.9431C50.3043 17.4878 50.3043 16.9912 50.9871 16.5153C51.4968 16.1922 51.9873 15.8399 52.4563 15.46C53.0634 14.9581 53.5485 14.3248 53.8747 13.6078C54.2009 12.8908 54.3598 12.109 54.3393 11.3216C54.3186 11.0599 54.3186 10.797 54.3393 10.5353C54.3393 10.1628 54.5048 9.79034 54.9393 9.8938C55.3739 9.99726 55.3118 10.2663 55.4359 10.5146C55.4672 10.6995 55.4672 10.8883 55.4359 11.0733C55.4174 12.0628 55.6554 13.0404 56.1268 13.9106C56.5982 14.7809 57.2869 15.5143 58.1259 16.0394C58.304 16.1754 58.4906 16.2998 58.6846 16.4118C59.533 16.9705 59.5537 17.5913 58.6846 17.9845C57.6696 18.4241 56.8192 19.1728 56.2545 20.1239C55.6898 21.075 55.4396 22.18 55.5394 23.2816C55.571 23.5428 55.571 23.8068 55.5394 24.068C55.3677 24.3498 55.1589 24.6073 54.9186 24.8336ZM54.7117 20.1157C55.1038 19.5004 55.5468 18.919 56.036 18.3776C56.4814 17.959 56.9665 17.5848 57.4845 17.2602L54.7945 14.1771L52.0424 17.3016C53.2465 17.8816 54.1961 18.8828 54.7117 20.1157V20.1157Z" fill="#985BE7"/>
<path d="M115.712 86.1032C116.352 86.1032 116.871 85.5844 116.871 84.9444C116.871 84.3045 116.352 83.7856 115.712 83.7856C115.072 83.7856 114.554 84.3045 114.554 84.9444C114.554 85.5844 115.072 86.1032 115.712 86.1032Z" fill="#985BE7"/>
<path d="M147.247 113.955C147.247 114.184 147.179 114.408 147.052 114.599C146.925 114.789 146.744 114.938 146.532 115.025C146.32 115.113 146.087 115.136 145.863 115.091C145.638 115.047 145.431 114.936 145.269 114.774C145.107 114.612 144.997 114.406 144.952 114.181C144.907 113.956 144.93 113.723 145.018 113.511C145.106 113.3 145.254 113.119 145.445 112.991C145.635 112.864 145.859 112.796 146.089 112.796C146.396 112.796 146.691 112.918 146.908 113.136C147.125 113.353 147.247 113.648 147.247 113.955Z" fill="#985BE7"/>
<path d="M67.6858 29.7169C67.6858 29.9461 67.6179 30.1701 67.4906 30.3607C67.3632 30.5512 67.1822 30.6997 66.9705 30.7874C66.7588 30.8751 66.5258 30.8981 66.301 30.8534C66.0762 30.8087 65.8698 30.6983 65.7077 30.5363C65.5457 30.3742 65.4353 30.1677 65.3906 29.9429C65.3459 29.7182 65.3688 29.4852 65.4565 29.2734C65.5442 29.0617 65.6927 28.8807 65.8833 28.7534C66.0739 28.6261 66.2979 28.5581 66.5271 28.5581C66.8344 28.5581 67.1291 28.6802 67.3465 28.8975C67.5638 29.1148 67.6858 29.4096 67.6858 29.7169Z" fill="#985BE7"/>
<path d="M36.1923 28.4962C36.1923 28.7254 36.1243 28.9494 35.997 29.14C35.8697 29.3305 35.6887 29.479 35.4769 29.5667C35.2652 29.6545 35.0322 29.6774 34.8075 29.6327C34.5827 29.588 34.3762 29.4776 34.2142 29.3156C34.0521 29.1535 33.9417 28.947 33.897 28.7223C33.8523 28.4975 33.8752 28.2645 33.963 28.0528C34.0507 27.841 34.1992 27.66 34.3897 27.5327C34.5803 27.4054 34.8043 27.3374 35.0335 27.3374C35.1857 27.3374 35.3364 27.3674 35.4769 27.4256C35.6175 27.4839 35.7453 27.5692 35.8529 27.6768C35.9605 27.7844 36.0458 27.9122 36.1041 28.0528C36.1623 28.1933 36.1923 28.344 36.1923 28.4962Z" fill="#985BE7"/>
<path d="M105.283 11.8391C105.283 12.1464 105.161 12.4411 104.944 12.6584C104.727 12.8758 104.432 12.9978 104.125 12.9978C103.973 12.9978 103.822 12.9679 103.681 12.9096C103.541 12.8514 103.413 12.766 103.305 12.6584C103.198 12.5508 103.112 12.4231 103.054 12.2825C102.996 12.1419 102.966 11.9912 102.966 11.8391C102.966 11.6869 102.996 11.5362 103.054 11.3956C103.112 11.2551 103.198 11.1273 103.305 11.0197C103.413 10.9121 103.541 10.8268 103.681 10.7685C103.822 10.7103 103.973 10.6803 104.125 10.6803C104.432 10.6803 104.727 10.8024 104.944 11.0197C105.161 11.237 105.283 11.5318 105.283 11.8391Z" fill="#985BE7"/>
<path d="M25.039 114.307C25.039 114.614 24.917 114.909 24.6996 115.126C24.4823 115.343 24.1876 115.465 23.8803 115.465C23.573 115.465 23.2782 115.343 23.0609 115.126C22.8436 114.909 22.7215 114.614 22.7215 114.307C22.7215 113.999 22.8436 113.705 23.0609 113.487C23.2782 113.27 23.573 113.148 23.8803 113.148C24.1876 113.148 24.4823 113.27 24.6996 113.487C24.917 113.705 25.039 113.999 25.039 114.307Z" fill="#985BE7"/>
<path d="M11.2997 80.2473C11.2997 80.4765 11.2317 80.7005 11.1044 80.891C10.9771 81.0816 10.7961 81.2301 10.5843 81.3178C10.3726 81.4055 10.1396 81.4285 9.91485 81.3838C9.69008 81.3391 9.48361 81.2287 9.32155 81.0666C9.1595 80.9046 9.04914 80.6981 9.00442 80.4733C8.95971 80.2486 8.98265 80.0156 9.07035 79.8038C9.15805 79.5921 9.30658 79.4111 9.49713 79.2838C9.68769 79.1565 9.91174 79.0885 10.1409 79.0885C10.4482 79.0885 10.743 79.2106 10.9603 79.4279C11.1776 79.6452 11.2997 79.94 11.2997 80.2473Z" fill="#985BE7"/>
<circle cx="111" cy="133" r="18" fill="#8840E3"/>
<path d="M119.477 125.479C119.439 125.44 119.407 125.395 119.384 125.346C119.292 125.194 119.158 125.074 118.997 124.999C118.61 124.875 118.203 124.829 117.798 124.863C117.393 124.898 116.998 125.012 116.638 125.199C115.807 125.629 115.075 126.228 114.491 126.959C114.278 127.226 114.065 127.492 113.865 127.772C113.665 128.052 113.278 128.519 112.971 128.865C112.531 129.355 112.044 129.802 111.518 130.199C111.242 130.447 110.883 130.584 110.512 130.584C110.14 130.584 109.782 130.447 109.505 130.199C108.969 129.799 108.47 129.353 108.012 128.865C107.732 128.559 107.465 128.199 107.212 127.865C106.959 127.532 106.839 127.372 106.639 127.132C106.053 126.37 105.307 125.746 104.452 125.306C103.754 124.906 102.929 124.787 102.146 124.972C102.042 124.985 101.943 125.024 101.857 125.084C101.771 125.144 101.702 125.225 101.654 125.318C101.607 125.412 101.583 125.515 101.585 125.62C101.587 125.725 101.615 125.827 101.666 125.919V126.079H102.013C102.176 126.105 102.342 126.105 102.506 126.079C102.853 126.023 103.207 126.045 103.544 126.144C103.881 126.244 104.191 126.417 104.452 126.652C104.937 127.055 105.383 127.501 105.785 127.985C105.999 128.239 106.199 128.505 106.399 128.772C107.048 129.718 107.866 130.536 108.812 131.185C107.286 131.788 106.053 132.959 105.372 134.451C104.943 135.286 104.829 136.247 105.052 137.158C105.275 138.069 105.82 138.869 106.585 139.411C107.026 139.761 107.522 140.035 108.052 140.224C108.785 140.499 109.562 140.635 110.345 140.624C110.863 140.623 111.381 140.579 111.892 140.491C112.579 140.377 113.241 140.147 113.851 139.811C114.323 139.573 114.743 139.245 115.087 138.845C115.431 138.444 115.692 137.98 115.856 137.478C116.019 136.976 116.082 136.446 116.04 135.92C115.998 135.394 115.852 134.881 115.611 134.411C115.272 133.636 114.772 132.94 114.145 132.372C113.597 131.854 112.948 131.454 112.238 131.198C113.098 130.624 113.84 129.891 114.425 129.039C114.785 128.572 115.144 128.079 115.544 127.625C116.558 126.479 117.451 125.826 118.797 126.092C118.975 126.11 119.152 126.057 119.291 125.946L119.411 125.866L119.704 125.732L119.477 125.479ZM112.185 132.465C112.819 132.785 113.379 133.235 113.827 133.787C114.275 134.338 114.601 134.978 114.785 135.665C114.927 136.176 114.875 136.722 114.638 137.198C114.307 137.887 113.776 138.461 113.116 138.846C112.455 139.231 111.694 139.409 110.932 139.358H110.505C109.737 139.439 108.96 139.32 108.252 139.011C107.65 138.775 107.13 138.367 106.759 137.838C106.469 137.483 106.283 137.055 106.219 136.601C106.156 136.148 106.218 135.685 106.399 135.265C106.657 134.539 107.085 133.885 107.646 133.356C108.207 132.828 108.885 132.44 109.625 132.225C109.936 132.131 110.26 132.081 110.585 132.078C111.142 132.071 111.692 132.204 112.185 132.465V132.465Z" fill="white"/>
<path d="M110.625 148.25C107.534 148.25 104.513 147.333 101.943 145.616C99.373 143.898 97.3703 141.457 96.1881 138.601C95.0059 135.745 94.6972 132.603 95.3012 129.572C95.9052 126.54 97.3946 123.756 99.5812 121.572C101.768 119.387 104.553 117.9 107.585 117.299C110.617 116.697 113.759 117.009 116.614 118.193C119.469 119.378 121.908 121.383 123.623 123.954C125.338 126.525 126.253 129.547 126.25 132.638C126.243 136.779 124.594 140.748 121.665 143.674C118.736 146.601 114.766 148.246 110.625 148.25V148.25ZM110.625 118.24C107.777 118.24 104.993 119.084 102.626 120.666C100.258 122.249 98.4123 124.497 97.3225 127.128C96.2328 129.759 95.9476 132.654 96.5032 135.447C97.0588 138.24 98.4301 140.806 100.444 142.82C102.457 144.833 105.023 146.205 107.816 146.76C110.609 147.316 113.504 147.031 116.135 145.941C118.766 144.851 121.015 143.006 122.597 140.638C124.179 138.27 125.023 135.486 125.023 132.638C125.02 128.821 123.502 125.16 120.802 122.461C118.103 119.762 114.443 118.243 110.625 118.24V118.24Z" fill="white"/>
</svg>
