<svg width="160" height="151" viewBox="0 0 160 151" fill="none" xmlns="http://www.w3.org/2000/svg">
<circle cx="80" cy="73" r="67" fill="#F0E8FF"/>
<path d="M123.53 37.7772C124.248 38.2902 124.987 38.7827 125.582 39.3162C129.214 42.0043 132.948 44.5693 136.396 47.5241C141.715 51.9145 145.731 57.6766 148.01 64.1863C148.963 66.7333 149.355 69.456 149.159 72.1685C148.95 75.5034 147.483 78.6349 145.055 80.9305C143.947 81.9565 142.736 82.8593 141.567 83.8033C139.632 85.2619 138.03 87.1155 136.868 89.241C136.132 90.5594 135.706 92.0275 135.621 93.5346C135.535 95.0417 135.793 96.5485 136.375 97.9414C137.574 100.691 138.575 103.524 139.371 106.416C140.623 111.546 138.304 114.85 133.092 115.917C129.15 116.594 125.115 116.496 121.211 115.63C119.297 115.236 117.355 114.996 115.404 114.911C113.879 114.815 112.374 115.289 111.179 116.241C109.984 117.192 109.186 118.554 108.94 120.062C108.618 121.987 108.501 123.94 108.591 125.889C108.691 129.617 107.337 133.238 104.816 135.985C104.56 136.36 104.241 136.687 103.872 136.95C103.409 137.023 102.938 137.023 102.476 136.95C102.476 136.56 102.476 136.006 102.599 135.76C103.147 135.301 103.566 134.708 103.814 134.039C104.062 133.37 104.132 132.647 104.015 131.943C103.631 130.081 102.599 128.415 101.101 127.244C99.7881 126.238 98.4133 125.315 97.1411 124.248C95.8496 123.209 94.642 122.07 93.5296 120.842C91.9144 119.127 90.8422 116.974 90.4478 114.651C90.0535 112.329 90.3547 109.942 91.3134 107.791C92.2366 105.655 93.4223 103.642 94.8429 101.799C96.7512 99.2137 98.9469 96.8334 100.999 94.3094C105.693 88.477 108.815 81.5399 110.069 74.1589C110.389 73.1223 110.393 72.0135 110.078 70.9749C109.764 69.9364 109.146 69.0157 108.304 68.3313C108.188 68.7145 108.099 69.1053 108.037 69.5009C107.11 79.9293 102.884 89.7908 95.9714 97.6542C92.5998 101.413 88.3786 104.312 83.6595 106.108C80.7017 107.288 77.404 107.288 74.4461 106.108C68.3046 103.714 63.0223 99.5322 59.2819 94.1042C54.3289 87.2298 51.2332 79.1938 50.2942 70.7731C50.1916 70.0344 50.089 69.3162 49.9249 68.2697C49.2248 68.7539 48.6723 69.4222 48.3283 70.2008C47.9842 70.9794 47.8621 71.8379 47.9755 72.6815C48.3858 74.7335 48.6321 77.0112 49.2477 79.0837C50.9445 85.1343 53.9497 90.7383 58.0508 95.4996C59.9796 97.7157 61.9085 99.9319 63.6732 102.271C64.8576 103.829 65.8625 105.515 66.669 107.298C67.7991 109.584 68.1775 112.168 67.75 114.682C67.3225 117.196 66.1109 119.51 64.2888 121.293C62.7344 122.826 61.0899 124.265 59.364 125.602C58.6252 126.218 57.784 126.751 57.0248 127.346C55.5692 128.537 54.5926 130.213 54.2751 132.066C54.1166 132.569 54.0978 133.106 54.2207 133.619C54.3436 134.133 54.6036 134.603 54.9728 134.98C55.3151 135.277 55.5941 135.64 55.7935 136.047C55.8561 136.208 55.8776 136.383 55.8561 136.555C55.8346 136.727 55.7708 136.891 55.6704 137.032C55.5225 137.113 55.3567 137.155 55.1882 137.155C55.0197 137.155 54.8539 137.113 54.706 137.032C54.2708 136.737 53.8833 136.377 53.5569 135.965C52.2116 134.536 51.1733 132.846 50.5062 131C49.8392 129.155 49.5576 127.192 49.6786 125.233C49.7367 123.726 49.6818 122.217 49.5144 120.718C49.4821 119.88 49.2787 119.057 48.9168 118.3C48.5549 117.543 48.0421 116.869 47.4099 116.317C46.7776 115.766 46.0393 115.349 45.2403 115.093C44.4412 114.837 43.5984 114.748 42.7635 114.829C40.0103 115.058 37.2707 115.428 34.5555 115.937C31.2795 116.468 27.9338 116.391 24.6855 115.712C23.7614 115.609 22.8684 115.317 22.0626 114.853C21.2568 114.389 20.5555 113.764 20.0026 113.017C19.4497 112.269 19.0572 111.415 18.8496 110.509C18.642 109.603 18.6239 108.664 18.7963 107.75C19.1211 105.596 19.6572 103.479 20.3967 101.43C20.8258 100.228 21.333 99.0561 21.9152 97.9209C22.5842 96.4345 22.8673 94.8033 22.7382 93.1784C22.609 91.5535 22.0719 89.9875 21.1765 88.6254C19.8514 86.5175 18.1468 84.6737 16.1491 83.1877C14.5825 82.0239 13.151 80.6887 11.8811 79.2068C10.5043 77.4026 9.58062 75.2943 9.18784 73.059C8.79507 70.8237 8.94458 68.5269 9.62382 66.3614C11.2543 60.2901 14.4447 54.751 18.8783 50.2943C22.6535 46.5035 26.822 43.126 31.3133 40.2191L34.8838 37.7361C32.6812 36.7576 30.1813 36.6895 27.9288 37.5467C25.6762 38.4039 23.8539 40.1168 22.8592 42.3121C22.574 42.9251 22.2304 43.5092 21.8332 44.0563C21.7228 44.1459 21.5915 44.2061 21.4515 44.2312C21.3116 44.2563 21.1675 44.2455 21.0329 44.1999C20.9094 44.1258 20.8045 44.0243 20.7263 43.9034C20.648 43.7825 20.5985 43.6453 20.5815 43.5022C20.5589 43.2076 20.6082 42.9118 20.7251 42.6404C22.613 38.0234 25.5678 35.0275 30.9851 35.4995C33.1216 35.7191 35.2798 35.4344 37.2863 34.6681C39.2928 33.9019 41.0915 32.6756 42.5378 31.0877C45.1643 28.4201 47.5651 25.5063 50.048 22.6746C54.2226 17.5707 59.8919 13.9037 66.2587 12.1889C69.8497 11.3062 73.5772 11.125 77.2368 11.6554C78.2728 11.8397 79.3291 11.8812 80.3763 11.7785C91.4775 10.0138 100.445 13.9331 107.832 22.0385C109.699 24.0904 111.341 26.3681 113.229 28.3996C114.786 30.0355 116.452 31.5643 118.215 32.9755C119.374 33.9417 120.718 34.662 122.164 35.0924C123.61 35.5227 125.129 35.6543 126.628 35.479C129.007 35.1067 131.439 35.611 133.474 36.8981C135.508 38.1852 137.006 40.1675 137.688 42.4762C137.688 42.5994 137.873 42.7635 137.852 42.8866C137.75 43.3381 137.586 43.769 137.442 44.2204C137.073 44.0563 136.58 43.9742 136.355 43.6869C135.991 43.1116 135.676 42.5077 135.411 41.8812C134.789 40.4129 133.726 39.1742 132.37 38.3361C131.013 37.4979 129.43 37.1019 127.839 37.2026C126.505 37.2026 125.151 37.2026 123.735 37.2026L123.53 37.7772ZM56.6349 40.7526C55.8141 42.8046 54.9523 44.7129 54.3161 46.6212C51.3298 55.5988 50.7844 65.209 52.7361 74.4667C54.5188 84.4129 59.6617 93.4457 67.3051 100.055C70.2643 102.55 73.7852 104.289 77.5651 105.123C78.657 105.39 79.7973 105.39 80.8893 105.123C84.6733 104.29 88.1957 102.543 91.1492 100.034C96.3962 95.5793 100.463 89.8985 102.989 83.4955C106.755 74.0748 107.779 63.7812 105.944 53.8032C105.216 49.2538 103.702 44.8656 101.471 40.8346C99.2706 40.3841 97.002 40.3841 94.8018 40.8346C94.6787 43.0303 95.479 43.8511 97.2847 43.5227C97.6541 43.5227 97.9823 43.215 98.3517 43.1739C99.1109 43.1739 99.5624 43.6459 99.1931 44.2615C96.6281 48.3654 93.2833 49.3299 89.8975 45.6568C89.4102 45.0896 89.0218 44.4445 88.7484 43.7485C88.167 42.4119 87.6668 41.0414 87.2505 39.6445C87.009 38.6417 86.4268 37.7539 85.6034 37.1327C84.7801 36.5114 83.7666 36.1953 82.7361 36.2382C80.3353 36.1356 77.9139 36.1356 75.5131 36.2382C74.4782 36.2089 73.4656 36.5412 72.6491 37.1779C71.8327 37.8145 71.2636 38.7158 71.0398 39.7266C70.5508 41.2264 69.9823 42.699 69.3367 44.1383C68.7069 45.5209 67.6199 46.6441 66.2587 47.3189C65.6718 47.6645 65.0081 47.8586 64.3275 47.8837C63.6468 47.9087 62.9706 47.764 62.3599 47.4626C60.7064 46.4893 59.4219 44.9956 58.7073 43.215C59.5076 43.215 59.9796 43.215 60.431 43.215C61.1081 43.3338 61.7966 43.3751 62.483 43.3381C62.899 43.2534 63.2667 43.0128 63.5109 42.6655C63.7551 42.3183 63.8573 41.8908 63.7963 41.4708C63.7963 40.4448 62.914 40.4037 62.1342 40.4242L56.6349 40.7526ZM35.2942 57.3942C34.3937 55.5218 33.6457 53.5797 33.0575 51.5871C32.6193 49.6127 32.5498 47.5744 32.8523 45.5747C33.3412 43.6548 34.0289 41.7911 34.9043 40.0138C29.5627 43.1925 24.6229 47.0024 20.1916 51.3613C15.9477 55.5732 12.8657 60.8113 11.245 66.5666C10.362 69.1522 10.3493 71.9558 11.2089 74.5494C12.0685 77.1429 13.753 79.384 16.0055 80.9305C17.6881 82.1822 19.4939 83.2697 21.2381 84.4188L26.9631 88.0919L25.9782 86.5529C24.7655 84.7246 23.9679 82.6528 23.6418 80.4832C23.3157 78.3135 23.4687 76.0988 24.0903 73.9947C25.1728 69.6612 27.4559 65.721 30.6772 62.6268C32.5003 61.1555 34.0614 59.3863 35.2942 57.3942V57.3942ZM132.004 87.5994C133.625 86.5734 135.349 85.5474 137.032 84.4188C138.714 83.2903 140.972 81.9359 142.777 80.4996C144.754 79.0139 146.231 76.9613 147.012 74.6152C147.793 72.269 147.84 69.7407 147.148 67.3668C145.671 61.3374 142.544 55.8381 138.119 51.4845C133.776 47.1947 128.957 43.4151 123.755 40.2191C123.632 40.2191 123.407 40.2191 123.181 40.2191C125.417 44.323 125.889 45.862 125.705 48.7964C125.604 51.2916 124.854 53.7175 123.53 55.8347C123.198 56.2408 123.035 56.7583 123.073 57.2811C123.111 57.8038 123.348 58.2922 123.735 58.6459C125.089 60.0823 126.382 61.5392 127.839 62.914C131.073 66.1107 133.317 70.1714 134.303 74.6103C134.961 76.7142 135.018 78.9602 134.467 81.0946C133.708 83.2697 132.825 85.4038 132.004 87.5994ZM48.4474 64.6582L49.1656 64.412C48.8578 62.5857 48.6116 60.7389 48.1807 58.9332C47.7498 57.1274 46.9905 54.8292 46.5185 52.7772C46.0316 50.634 46.2106 48.3932 47.0315 46.3545C48.0921 43.8401 49.9029 41.7143 52.2166 40.2673C54.5303 38.8204 57.2342 38.1227 59.9591 38.2697H62.6677C62.3599 37.2847 62.1957 36.6281 61.97 36.0125C61.5566 34.8118 61.4827 33.5203 61.7566 32.2803C62.0305 31.0404 62.6416 29.9002 63.5224 28.9854C64.4032 28.0707 65.5195 27.4169 66.7482 27.0963C67.9769 26.7757 69.2704 26.8007 70.4858 27.1684C72.8261 27.8278 74.9501 29.0951 76.6418 30.8415C77.0932 31.2929 77.5651 31.7238 78.1397 32.2368C78.3646 29.6226 77.7678 27.0034 76.4325 24.7447C75.0971 22.486 73.0899 20.7006 70.691 19.6376C68.9844 18.854 67.131 18.4414 65.2531 18.4269C63.3782 18.4722 61.5908 19.2289 60.2533 20.5436C58.9158 21.8583 58.1284 23.6325 58.0508 25.5063C57.5993 30.4926 54.7471 33.0166 50.2122 34.1657C48.6937 34.5556 47.1546 34.9249 45.6567 35.4379C44.7894 35.6913 43.9853 36.1248 43.297 36.7101C41.9762 37.8269 40.8956 39.2 40.1208 40.7464C39.3461 42.2928 38.8933 43.9804 38.7897 45.7069C38.6861 47.4334 38.9339 49.163 39.5181 50.791C40.1024 52.4189 41.011 53.9114 42.1888 55.178C44.8359 57.9482 47.7702 60.5542 48.4474 64.6582ZM109.72 64.8019C110.234 62.3391 111.453 60.0791 113.229 58.2971C114.542 56.8401 115.937 55.4448 117.127 53.9058C122.237 47.3189 118.666 36.1972 110.787 34.8428C110.041 34.7258 109.307 34.5474 108.591 34.3093C107.188 33.8541 105.817 33.3057 104.487 32.6677C103.402 32.1267 102.472 31.3198 101.783 30.3223C101.094 29.3249 100.669 28.1693 100.547 26.9632C100.428 25.9903 100.257 25.0245 100.034 24.0699C99.5305 22.2044 98.3431 20.5968 96.7084 19.5666C95.0736 18.5363 93.1111 18.1588 91.2108 18.509C88.6639 18.9072 86.2883 20.0393 84.3749 21.7668C82.4615 23.4943 81.0933 25.7423 80.4379 28.2355C79.9467 29.4957 79.9467 30.8945 80.4379 32.1547C81.2997 31.3545 81.9769 30.6568 82.7156 30.1028C84.4312 28.5248 86.5711 27.4833 88.8715 27.1069C89.9355 26.9508 91.0214 27.0496 92.0397 27.3952C93.058 27.7407 93.9797 28.3231 94.729 29.0944C95.4783 29.8657 96.0338 30.804 96.3497 31.8319C96.6656 32.8598 96.7328 33.948 96.5459 35.007C96.3407 36.0946 96.0125 37.1616 95.7047 38.4133H98.7006C106.662 38.4133 114.193 44.795 111.361 54.6445C110.848 56.4503 110.274 58.2355 109.802 60.0618C109.256 61.5881 109.213 63.2492 109.679 64.8019H109.72ZM55.732 125.376L56.2245 125.848C58.5976 124.014 60.8717 122.055 63.0371 119.98C64.6345 118.454 65.6969 116.454 66.0666 114.277C66.4363 112.099 66.0935 109.861 65.0891 107.894C64.2529 106.126 63.2278 104.454 62.0316 102.907C60.4106 100.753 58.5842 98.8033 56.8195 96.7513C51.32 90.3101 47.7621 82.44 46.5596 74.0563C46.5596 73.4202 46.3749 72.7841 46.2723 72.148C42.6197 73.256 41.1013 73.2355 39.5624 72.148C39.5624 71.9838 39.5624 71.7991 39.5624 71.6965C40.0343 71.122 40.5267 70.5679 41.0397 70.0139C41.3987 69.6796 41.688 69.2775 41.8908 68.8308C42.0935 68.3841 42.2058 67.9016 42.221 67.4113C42.2363 66.921 42.1542 66.4325 41.9797 65.9741C41.8051 65.5156 41.5414 65.0963 41.2039 64.7403C36.8947 71.9838 36.5459 79.2273 40.9782 86.5119C43.0832 89.7335 45.6479 92.6301 48.591 95.1097C50.8687 97.1617 53.1875 99.2137 55.3831 101.389C58.0324 103.988 59.9565 107.235 60.9646 110.807C61.3814 112.099 61.5165 113.466 61.3607 114.814C61.205 116.163 60.762 117.462 60.0617 118.625C59.1178 120.247 58.0097 121.827 57.0863 123.427C56.5117 123.961 56.1424 124.679 55.732 125.376ZM112.1 72.1685C112.01 72.4362 111.941 72.7107 111.895 72.9893C110.981 81.4221 107.581 89.3931 102.127 95.8895C100.075 98.3518 98.0234 100.671 96.0946 103.195C94.8218 104.874 93.7668 106.708 92.955 108.653C92.3469 110.04 92.0676 111.549 92.1388 113.061C92.2099 114.574 92.6297 116.05 93.3654 117.374C95.6274 120.879 98.7878 123.713 102.517 125.582C101.348 123.283 99.9933 121.129 98.639 118.974C97.7714 117.647 97.2299 116.134 97.0587 114.558C96.8875 112.981 97.0915 111.387 97.6541 109.905C98.7721 106.537 100.687 103.489 103.235 101.019C105.534 98.7417 108.078 96.7103 110.335 94.412C112.758 92.0825 115.007 89.5792 117.066 86.9223C118.533 84.9063 119.58 82.6157 120.144 80.1868C120.708 77.758 120.778 75.2404 120.349 72.7841C119.861 69.8562 118.771 67.0613 117.148 64.5761C116.524 65.3129 116.198 66.2571 116.236 67.2221C116.274 68.1871 116.673 69.1028 117.353 69.7882L119.159 71.9633C117.086 73.1124 116.348 73.1124 112.1 72.1685V72.1685ZM121.621 58.9947C117.764 63.427 118.03 61.5187 120.287 66.6486L120.657 67.4694C122.483 71.7248 122.851 76.4647 121.703 80.951C120.651 85.1402 118.456 88.9549 115.363 91.9702C112.634 94.7609 109.679 97.3464 106.826 100.014L104.774 101.943C106.801 101.107 108.781 100.161 110.705 99.1111C114.049 97.4284 117.476 95.8689 120.842 94.1863C124.65 92.2875 127.924 89.4658 130.363 85.9784C132.336 83.3615 133.212 80.0786 132.805 76.8265C132.221 72.3914 130.287 68.2433 127.264 64.9455C125.52 62.9961 123.612 61.0878 121.621 58.9947ZM53.3722 101.881C52.7566 101.286 52.2231 100.712 51.628 100.199C49.9044 98.6391 48.0575 97.1822 46.4365 95.5201C44.057 93.2313 41.8742 90.7465 39.9112 88.0919C37.6318 84.9966 36.261 81.3269 35.9528 77.4953C35.6447 73.6637 36.4116 69.8221 38.167 66.4024C40.0959 62.2984 40.0753 62.2984 36.587 59.1589C34.9248 60.9031 33.3038 62.6678 31.6212 64.3709C28.8268 67.2184 26.8432 70.7604 25.8755 74.6309C25.2585 76.7372 25.1718 78.9634 25.6229 81.1114C26.074 83.2594 27.0489 85.2626 28.461 86.9428C30.7301 89.8713 33.6076 92.2726 36.8948 93.9811C42.23 96.7513 47.6061 99.4189 52.9823 102.189C53.0233 102.066 53.1054 102.004 53.3722 101.881V101.881ZM104.672 125.335C104.487 122.032 104.118 118.954 104.179 115.896C104.139 112.619 105.375 109.455 107.627 107.073C108.793 105.767 110.368 104.896 112.094 104.602C113.819 104.307 115.594 104.607 117.127 105.452C118.133 105.965 119.036 106.662 120.062 107.134C121.459 107.856 122.923 108.44 124.432 108.879C124.877 109.053 125.358 109.114 125.832 109.055C126.307 108.997 126.759 108.821 127.148 108.544C127.537 108.267 127.851 107.897 128.061 107.469C128.271 107.04 128.371 106.565 128.352 106.088C128.485 104.963 128.485 103.827 128.352 102.702C127.859 98.4544 127.244 94.2068 129.686 90.1439C124.863 95.0687 118.523 97.2027 112.654 100.178C110.022 101.467 107.485 102.942 105.062 104.59C103.233 105.896 101.613 107.474 100.26 109.268C99.3747 110.369 98.8488 111.715 98.7534 113.124C98.6579 114.534 98.9977 115.938 99.7266 117.148C101.225 119.877 102.969 122.504 104.692 125.335H104.672ZM53.4953 124.699L53.8237 124.884C55.4653 122.216 57.1684 119.59 58.6869 116.861C59.1275 115.908 59.365 114.874 59.3845 113.824C59.4084 112.577 59.1601 111.34 58.6568 110.199C58.1536 109.057 57.4076 108.04 56.4707 107.216C54.2157 104.988 51.6002 103.156 48.7347 101.799C45.0411 99.9113 41.3065 98.1466 37.5719 96.3204C34.7086 94.9713 32.0769 93.1775 29.7743 91.0057C29.3845 90.6158 28.9331 90.2875 28.5227 89.9387C30.4069 93.3449 30.9763 97.324 30.1231 101.122C29.9281 102.543 29.8458 103.977 29.8769 105.411C29.8769 108.468 31.498 109.658 34.4733 108.694C36.2381 108.119 37.8387 107.093 39.5624 106.334C41.0007 105.551 42.5406 104.971 44.1382 104.61C45.9198 104.459 47.7027 104.887 49.222 105.829C50.7413 106.772 51.9161 108.18 52.5719 109.843C53.8148 112.522 54.3381 115.478 54.0903 118.42C54.0083 120.513 53.721 122.606 53.5158 124.699H53.4953ZM51.628 123.94C52.8645 119.914 52.7709 115.597 51.3613 111.628C50.8373 110.303 50.064 109.091 49.0835 108.058C48.224 107.09 47.06 106.445 45.7839 106.228C44.5079 106.012 43.1962 106.237 42.0657 106.868C40.9371 107.442 40.0137 108.242 38.7415 108.776C37.2751 109.523 35.7346 110.114 34.1451 110.541C33.4204 110.777 32.6484 110.831 31.8981 110.696C31.1477 110.562 30.4423 110.243 29.8449 109.77C29.2474 109.296 28.7765 108.682 28.4742 107.983C28.1719 107.283 28.0475 106.519 28.1122 105.76C28.1122 103.974 28.3175 102.169 28.3995 100.363C28.5601 98.7951 28.6082 97.2178 28.5432 95.6432C28.3901 94.2537 27.9454 92.9123 27.2382 91.7065C26.531 90.5007 25.5772 89.4578 24.4392 88.6459C24.675 90.5379 24.7298 92.4481 24.6033 94.3505C24.123 96.3874 23.485 98.3838 22.695 100.322C21.8342 102.554 21.1079 104.836 20.5199 107.155C19.7606 110.889 21.3202 113.003 25.0343 113.906C28.06 114.538 31.1762 114.608 34.2271 114.111C37.5719 113.68 40.8961 113.003 44.2614 112.88C45.793 112.749 47.3163 113.21 48.5185 114.168C49.7207 115.126 50.5104 116.508 50.7252 118.03C51.1356 119.877 51.2791 121.683 51.6485 123.858L51.628 123.94ZM106.601 123.94C106.847 122.155 106.991 120.739 107.257 119.344C108.201 114.583 110.582 112.654 115.465 112.941C117.486 113.096 119.495 113.384 121.478 113.803C125.157 114.63 128.96 114.742 132.682 114.132C137.134 113.208 138.632 110.889 137.668 106.498C137.395 105.332 137.06 104.181 136.662 103.051C136.425 102.347 136.137 101.661 135.8 100.999C133.995 97.1001 132.415 93.1603 134.097 88.687C132.911 89.4403 131.908 90.4479 131.159 91.6368C130.41 92.8256 129.935 94.1661 129.768 95.5611C129.768 97.8594 129.932 100.178 130.034 102.497C130.167 103.764 130.208 105.04 130.157 106.314C130.154 107.019 129.989 107.713 129.674 108.344C129.359 108.975 128.903 109.525 128.342 109.951C127.78 110.378 127.128 110.669 126.436 110.804C125.744 110.938 125.031 110.911 124.35 110.725C122.755 110.333 121.207 109.769 119.733 109.043C118.564 108.509 117.538 107.729 116.389 107.134C115.184 106.398 113.75 106.131 112.361 106.385C110.972 106.638 109.725 107.395 108.858 108.509C107.85 109.72 107.084 111.113 106.601 112.613C105.54 116.287 105.548 120.188 106.621 123.858L106.601 123.94ZM80.9509 34.3914L83.0029 34.5556C84.4074 34.6 85.7581 35.1067 86.8452 35.9972C87.9323 36.8876 88.6951 38.112 89.0152 39.4803C89.42 40.7714 89.9137 42.033 90.4927 43.256C90.7381 43.8674 91.1126 44.4186 91.5907 44.8719C92.0688 45.3252 92.6392 45.67 93.2628 45.8825C93.7722 46.0112 94.2973 46.0665 94.8223 46.0467C93.8793 45.3685 93.199 44.3858 92.8962 43.2644C92.5934 42.143 92.6867 40.9514 93.1602 39.8907C93.386 39.111 93.7142 38.3517 93.981 37.572C94.2808 36.7991 94.541 36.0115 94.7607 35.2122C94.9872 34.3757 94.9964 33.4952 94.7873 32.6542C94.5781 31.8132 94.1577 31.0395 93.5658 30.4066C92.9739 29.7736 92.2302 29.3022 91.4051 29.0372C90.58 28.7721 89.7008 28.7222 88.851 28.8921C87.2323 29.2311 85.6986 29.8929 84.3412 30.8377C82.9839 31.7825 81.8309 32.9912 80.9509 34.3914V34.3914ZM62.9755 45.8825C63.5277 46.0036 64.0934 46.0518 64.6581 46.0262C65.3908 45.8256 66.066 45.4555 66.6292 44.9458C67.1924 44.436 67.6279 43.8009 67.9003 43.0918C68.5569 41.5734 69.1109 40.0138 69.6855 38.4749C69.9933 37.5724 70.5355 36.768 71.2567 36.1441C71.9779 35.5203 72.8521 35.0995 73.7895 34.9249C74.8565 34.6992 75.8414 34.535 77.1752 34.2888C75.692 31.9121 73.451 30.1048 70.8141 29.1588C69.8436 28.7278 68.7652 28.6009 67.7212 28.7951C66.6772 28.9893 65.7166 29.4953 64.966 30.2464C64.1932 30.9789 63.6719 31.9371 63.4766 32.9837C63.2812 34.0304 63.4218 35.1121 63.8783 36.074C64.3503 37.3463 64.8427 38.6185 65.2531 39.8907C65.5141 40.431 65.6621 41.0189 65.6881 41.6183C65.7141 42.2177 65.6175 42.8162 65.4043 43.377C65.1911 43.9379 64.8658 44.4493 64.4482 44.8801C64.0306 45.3109 63.5294 45.652 62.9755 45.8825ZM67.6541 13.9536C70.2278 14.4076 72.6396 15.5218 74.6538 17.187C76.668 18.8523 78.2155 21.0118 79.1451 23.4543C80.0724 21.0161 81.6171 18.8605 83.6278 17.1987C85.6386 15.5368 88.0466 14.4257 90.6158 13.9741C90.1115 13.6576 89.5443 13.4545 88.9537 13.3791C86.1835 13.3791 83.4133 13.3791 80.7457 13.3791C79.7197 13.3791 78.6937 13.3791 77.6472 13.3791C74.3161 12.8449 70.9094 13.0267 67.6541 13.9126V13.9536ZM36.6895 42.0658C35.6262 43.4067 34.9338 45.0033 34.6817 46.6959C34.4297 48.3885 34.6267 50.1177 35.2531 51.7102C36.5079 54.8652 38.3378 57.7598 40.6498 60.2464C43.1122 63.0577 44.9796 66.0536 43.5432 70.096C44.4596 69.8328 45.2558 69.2587 45.795 68.4724C46.3342 67.686 46.5828 66.7365 46.4981 65.7868C46.2303 63.8161 45.3635 61.9752 44.0151 60.5132C42.1478 58.256 40.2805 55.9988 38.4953 53.6801C37.2209 52.0723 36.5527 50.0675 36.6075 48.0166C36.7306 46.1698 36.6895 44.323 36.6895 42.0658ZM114.829 70.0755C113.188 66.1767 115.055 63.3244 117.312 60.5953C118.112 59.6103 118.954 58.5433 119.733 57.6199C121.395 55.5719 122.617 53.2041 123.324 50.6637C123.759 49.1231 123.798 47.4981 123.439 45.9383C123.081 44.3784 122.336 42.9339 121.272 41.7375C121.272 42.3942 121.272 42.6814 121.416 42.9482C121.94 44.9924 121.985 47.13 121.547 49.1943C121.109 51.2587 120.201 53.1941 118.892 54.8497C117.209 56.9017 115.547 58.9537 113.885 61.0057C112.759 62.3231 112.045 63.9432 111.833 65.6637C111.725 66.6354 111.968 67.6137 112.517 68.4225C113.066 69.2313 113.886 69.8175 114.829 70.0755V70.0755ZM106.334 31.5186C104.914 29.5664 104.133 27.2225 104.097 24.8086C103.978 22.9529 103.301 21.1764 102.155 19.7119C101.009 18.2474 99.4472 17.163 97.6746 16.6007C94.3812 15.4285 90.7705 15.5162 87.5378 16.8469C86.178 17.3343 84.9783 18.1862 84.0699 19.3093C85.7607 18.4832 87.5014 17.7636 89.282 17.1547C90.6362 16.6731 92.0817 16.503 93.5108 16.657C94.9399 16.811 96.3158 17.2852 97.5364 18.0444C98.7569 18.8035 99.7906 19.828 100.561 21.0418C101.331 22.2555 101.817 23.6272 101.984 25.0549C101.984 25.5063 102.168 25.9372 102.209 26.3887C102.274 27.5678 102.706 28.697 103.446 29.6173C104.186 30.5376 105.196 31.2026 106.334 31.5186V31.5186ZM52.2231 31.1698C53.1512 30.9509 53.9935 30.4617 54.6437 29.764C55.2938 29.0664 55.7226 28.1917 55.8757 27.2505C56.0809 26.4502 56.1218 25.6089 56.2654 24.8086C56.4236 23.5709 56.8277 22.3774 57.454 21.2982C58.0803 20.219 58.9161 19.2759 59.9123 18.5245C60.9084 17.7731 62.0447 17.2285 63.2544 16.9228C64.4641 16.6171 65.7228 16.5564 66.9563 16.7443C68.7096 17.1 70.4268 17.6151 72.0863 18.2833C72.5918 18.4795 73.0852 18.7056 73.5638 18.9605L73.7689 18.5706C72.825 17.996 71.9016 17.3599 70.9166 16.888C68.831 15.9861 66.5494 15.6329 64.2888 15.862C61.7143 15.7274 59.1909 16.6161 57.269 18.3343C55.3471 20.0525 54.1824 22.4609 54.0288 25.0343C53.946 27.1978 53.3254 29.3064 52.2231 31.1698V31.1698ZM49.9659 57.3531C50.7242 51.8979 52.1721 46.5611 54.2751 41.4708C48.1191 44.4256 46.4364 49.9865 49.9864 57.3531H49.9659ZM103.79 41.3682C106.077 46.5886 107.571 52.1217 108.222 57.7841C111.731 50.479 110.438 44.5282 103.81 41.3682H103.79ZM45.4515 32.2163C51.9769 30.6158 52.4283 27.7635 52.2436 22.4694L51.2791 23.9468L45.4515 32.2163ZM106.047 23.0234C105.534 28.5227 107.483 31.2313 112.49 32.0727C110.628 28.8675 108.478 25.8386 106.067 23.0234H106.047Z" fill="#985BE7"/>
<path d="M72.271 137.052C70.9284 135.496 69.298 134.214 67.4693 133.276C65.3582 132.095 63.585 130.393 62.3188 128.331C61.9824 127.837 61.7327 127.288 61.5801 126.71C61.2723 125.479 61.9906 124.658 63.1602 125.13C64.1726 125.424 65.1149 125.919 65.9303 126.587C67.6542 128.253 69.2912 130.006 70.8346 131.84C72.1068 133.4 73.1943 135.103 74.364 136.744L74.7744 136.539C74.3845 135.452 74.0151 134.323 73.5842 133.235C72.2929 129.751 72.1067 125.954 73.0508 122.36C73.297 121.375 73.4611 120.082 74.7949 120.041C76.1287 120 76.2314 121.17 76.6212 122.093C77.8499 125.366 78.3471 128.868 78.0781 132.353C78.0781 134.898 78.0781 137.442 78.0781 140.007C78.0781 140.869 77.8934 141.484 76.9495 141.608C72.2504 142.223 67.5514 143.044 62.8524 141.608H62.6472C61.929 141.3 60.7798 141.3 60.8824 140.212C60.985 139.125 62.0315 139.186 62.8113 139.043L72.271 137.052ZM76.1082 133.913C76.7666 130.186 76.3465 126.349 74.8975 122.852C74.3187 124.679 74.1274 126.606 74.3359 128.51C74.5444 130.415 75.1481 132.255 76.1082 133.913V133.913ZM73.338 139.904C71.286 138.776 69.2341 138.878 66.2382 140.151C68.5839 140.709 71.0366 140.624 73.338 139.904V139.904ZM64.9249 128.003C65.7252 130.055 66.3202 130.588 68.0849 130.896L64.9249 128.003Z" fill="#985BE7"/>
<path d="M85.7937 137.011C89.5488 137.709 92.873 138.283 96.1767 139.063C96.6487 139.063 96.9976 139.761 97.408 140.13C96.9976 140.52 96.6487 141.095 96.1767 141.238C93.3284 142.238 90.2958 142.602 87.2917 142.305C85.5065 142.059 83.7212 141.915 81.9359 141.669C80.1507 141.423 80.1302 141.177 80.2533 139.432C80.3354 137.942 80.3354 136.449 80.2533 134.959C79.7237 130.695 80.1657 126.367 81.5461 122.298C81.9359 121.354 82.1822 120.021 83.598 120.123C85.0139 120.226 85.0344 121.478 85.2807 122.504C86.1729 125.95 86.0301 129.583 84.8703 132.948C84.354 134.188 84.0488 135.506 83.9674 136.847C84.9934 135.39 86.0194 133.892 87.0864 132.497C88.5797 130.624 90.1687 128.829 91.8471 127.12C92.7532 126.329 93.7963 125.71 94.925 125.294C95.1902 125.2 95.4743 125.171 95.753 125.21C96.0317 125.25 96.2969 125.356 96.5257 125.52C96.6685 125.763 96.7538 126.035 96.7751 126.316C96.7965 126.597 96.7533 126.879 96.6488 127.141C95.7581 129.161 94.3406 130.905 92.5448 132.189C91.5804 132.907 90.4927 133.42 89.5078 134.241C88.5228 135.062 87.107 135.965 85.7937 137.011ZM83.4749 123.263C81.8259 126.617 81.3978 130.441 82.2643 134.077C83.1683 132.443 83.7405 130.646 83.9482 128.791C84.156 126.935 83.9952 125.056 83.4749 123.263V123.263ZM84.8498 139.863C87.1099 140.631 89.5497 140.696 91.8471 140.048C89.5283 139.371 87.2096 138.447 84.8498 139.863ZM93.7554 128.536L93.3655 128.105C92.1816 128.839 91.1562 129.802 90.3492 130.937L90.7185 131.327L93.7554 128.536Z" fill="#985BE7"/>
<path d="M69.316 123.55C68.9671 123.16 68.6798 122.955 68.5977 122.668C68.5156 122.381 68.9671 122.114 69.0697 122.155C69.3663 122.24 69.617 122.439 69.7673 122.709C69.8289 122.852 69.5417 123.14 69.316 123.55Z" fill="#985BE7"/>
<path d="M89.7947 122.955C89.4254 123.099 89.097 123.345 88.9944 123.263C88.7772 123.037 88.6033 122.772 88.4814 122.483C88.7636 122.332 89.0686 122.228 89.3843 122.175C89.3843 122.175 89.6101 122.606 89.7947 122.955Z" fill="#985BE7"/>
<path d="M95.3145 134.569C95.6017 135.062 95.848 135.328 95.8685 135.616C95.8891 135.903 95.4991 136.067 95.2939 136.067C95.0887 136.067 94.7399 135.759 94.7604 135.595C94.7809 135.431 94.9656 135.062 95.3145 134.569Z" fill="#985BE7"/>
<path d="M61.8672 135.349C62.4007 135.123 62.7084 134.877 62.9341 134.939C63.1599 135 63.4062 135.328 63.6524 135.554C63.4472 135.739 63.2626 136.047 63.0368 136.067C62.8111 136.088 62.5854 135.821 61.8672 135.349Z" fill="#985BE7"/>
<path d="M78.8989 97.3667C77.6085 97.4617 76.3167 97.2022 75.163 96.6163C74.0093 96.0305 73.0376 95.1405 72.353 94.0425C72.0298 93.453 71.5778 92.9439 71.0307 92.5531C70.4836 92.1623 69.8555 91.8999 69.193 91.7853C68.906 91.7187 68.6388 91.5851 68.4133 91.3954C68.2081 91.2108 67.9618 90.8004 68.0439 90.6567C68.126 90.5131 68.7006 90.0001 68.8237 90.0822C71.1014 91.2928 72.4146 89.446 74.0151 88.5021L75.1848 87.8455C75.5569 87.5814 76.0129 87.4627 76.4665 87.5119C76.9202 87.561 77.3402 87.7746 77.6472 88.1123C77.8098 88.3451 78.0263 88.5352 78.2782 88.6665C78.53 88.7978 78.8097 88.8663 79.0938 88.8663C79.3778 88.8663 79.6576 88.7978 79.9095 88.6665C80.1613 88.5352 80.3778 88.3451 80.5404 88.1123C80.9013 87.7196 81.401 87.4829 81.9334 87.4523C82.4658 87.4216 82.9892 87.5995 83.3927 87.9481C84.3119 88.4503 85.1841 89.034 85.9988 89.6923C86.2967 90.0355 86.7001 90.27 87.1458 90.3592C87.5914 90.4483 88.0541 90.3869 88.4611 90.1848C88.8664 89.999 89.3243 89.9626 89.7538 90.0822C89.959 90.0822 90.2053 90.944 90.0822 91.0671C89.7111 91.4232 89.25 91.6715 88.7484 91.7853C88.1983 91.9009 87.6795 92.1328 87.2264 92.4655C86.7734 92.7982 86.3968 93.2239 86.1219 93.7142C85.404 94.9598 84.3381 95.9689 83.0551 96.6177C81.7721 97.2665 80.3277 97.5268 78.8989 97.3667V97.3667ZM76.2723 89.1588L74.2203 90.3694C74.0972 91.6006 74.0152 92.4214 73.9331 93.3448C74.5314 94.1098 75.2938 94.7306 76.1642 95.1613C77.0346 95.5921 77.9906 95.8219 78.9616 95.8337C79.9327 95.8456 80.8941 95.6391 81.7747 95.2296C82.6553 94.8201 83.4326 94.2181 84.0494 93.4679V90.4105L81.9974 89.1793C81.6486 89.6037 81.209 89.9445 80.711 90.1766C80.2131 90.4086 79.6694 90.526 79.1201 90.5201C78.5707 90.5142 78.0297 90.3851 77.5369 90.1424C77.044 89.8997 76.6119 89.5496 76.2723 89.1177V89.1588Z" fill="#985BE7"/>
<path d="M81.8948 50.171C81.8948 50.3352 81.8948 50.4378 81.8948 50.4788C81.8948 50.5198 81.2997 51.4638 81.1151 51.4227C79.716 51.2896 78.3075 51.2896 76.9085 51.4227C76.6417 51.4227 76.3954 50.8071 76.1902 50.5198C76.3544 50.2531 76.3955 50.0684 76.4981 50.0068C77.0932 49.699 78.1191 49.8016 77.8113 48.632C77.5035 47.4624 76.8469 47.6881 76.0466 47.6881C75.3008 47.7447 74.5537 47.5964 73.8861 47.2592C73.2185 46.9221 72.6557 46.4089 72.2586 45.7752C71.8614 45.1414 71.6451 44.4112 71.6328 43.6634C71.6205 42.9156 71.8127 42.1786 72.1888 41.5321C72.5401 40.8605 73.1197 40.3363 73.8233 40.0541C74.5268 39.772 75.308 39.7503 76.026 39.9932C76.5254 40.1649 76.9584 40.4889 77.2639 40.9196C77.5695 41.3503 77.7322 41.8659 77.7292 42.394C77.7115 42.7772 77.5568 43.1414 77.2931 43.4201C77.0295 43.6988 76.6745 43.8735 76.2928 43.9124C74.8975 44.0766 74.6102 43.0506 74.3845 41.8605C73.9242 42.1601 73.5943 42.6229 73.4611 43.1558C73.3278 43.6886 73.4012 44.2522 73.6663 44.7332C73.8493 45.1875 74.1789 45.5676 74.6028 45.813C75.0267 46.0584 75.5205 46.1551 76.0056 46.0875C77.0858 46.137 78.1582 46.2951 79.2067 46.5595C80.092 46.2772 81.0085 46.1049 81.9358 46.0465C82.4132 46.1536 82.9125 46.1012 83.3573 45.8973C83.802 45.6935 84.1677 45.3495 84.3982 44.9179C84.6625 44.4341 84.7652 43.8784 84.6914 43.3321C84.6175 42.7857 84.371 42.2773 83.9878 41.881C83.8474 42.0681 83.7367 42.2757 83.6595 42.4966C83.5569 43.3789 83.0644 43.9535 82.2231 43.8919C81.9355 43.871 81.655 43.793 81.3979 43.6627C81.1407 43.5324 80.9121 43.3522 80.7252 43.1327C80.4986 42.7788 80.3995 42.3581 80.4443 41.9403C80.489 41.5224 80.675 41.1324 80.9714 40.8345C81.2327 40.539 81.5504 40.2988 81.906 40.1281C82.2615 39.9574 82.6477 39.8596 83.0417 39.8405C83.4356 39.8214 83.8294 39.8813 84.1998 40.0168C84.5702 40.1522 84.9098 40.3605 85.1985 40.6293C85.7958 41.2053 86.2112 41.9438 86.3936 42.7533C86.5759 43.5629 86.5172 44.4082 86.2245 45.1847C85.9823 45.943 85.4977 46.6008 84.8452 47.0568C84.1927 47.5128 83.4083 47.7419 82.613 47.7086C82.3192 47.729 82.0244 47.729 81.7306 47.7086C81.5634 47.6729 81.3905 47.6736 81.2236 47.7107C81.0568 47.7478 80.8998 47.8204 80.7635 47.9236C80.6272 48.0268 80.5147 48.1582 80.4337 48.3088C80.3528 48.4593 80.3052 48.6256 80.2942 48.7962C80.1711 49.5964 80.7456 49.8016 81.4022 49.9042C81.6485 49.8427 81.7922 49.9863 81.8948 50.171Z" fill="#985BE7"/>
<path d="M67.9616 69.3571C65.706 69.3294 63.5069 68.6476 61.6311 67.3947C59.7553 66.1417 58.2834 64.3713 57.394 62.2983C56.9015 61.026 57.394 60.2463 58.7893 60.2463C60.0635 60.2588 61.3289 60.4593 62.5445 60.8413C65.7288 61.8922 68.5522 63.8195 70.6908 66.4022C71.1628 66.9563 71.7579 67.4898 71.3475 68.4542C70.9371 69.4186 70.1573 69.2545 69.4186 69.316C68.6799 69.3776 68.1463 69.3571 67.9616 69.3571ZM68.9261 67.5103C67.9 65.9583 66.5166 64.6751 64.8921 63.7682C63.2675 62.8613 61.4492 62.3572 59.5896 62.2983C61.7237 66.4022 65.0889 68.2901 68.9261 67.5103V67.5103Z" fill="#985BE7"/>
<path d="M90.2053 69.3777C89.5661 69.3528 88.929 69.2912 88.2969 69.193C86.9426 68.9673 86.4296 68.0029 87.2504 66.9769C88.5938 65.1097 90.3145 63.5456 92.3012 62.3861C94.2879 61.2267 96.496 60.4977 98.7825 60.2464C99.5154 60.1612 100.252 60.3676 100.835 60.8209C101.512 61.5186 100.958 62.3804 100.506 63.0781C98.1465 66.7717 95.3147 69.5214 90.2053 69.3777ZM98.6183 62.2778C95.3147 62.1547 90.4104 64.9865 89.4255 67.5925C91.3323 67.8957 93.2855 67.5354 94.9586 66.5718C96.6318 65.6083 97.9235 64.0998 98.6183 62.2984V62.2778Z" fill="#985BE7"/>
<path d="M71.2245 49.4733C70.6089 49.6374 69.5213 49.8837 68.4543 50.212C65.8205 51.1469 62.9789 51.3316 60.2463 50.7455C59.542 50.6206 58.8723 50.3475 58.2815 49.9442C57.6907 49.5409 57.1924 49.0167 56.8195 48.4062C56.5238 47.8882 56.375 47.2994 56.3887 46.7031C56.3718 46.5325 56.3956 46.3602 56.4579 46.2005C56.5203 46.0408 56.6196 45.8981 56.7476 45.784C56.8757 45.67 57.0289 45.5879 57.1948 45.5443C57.3606 45.5008 57.5343 45.497 57.7019 45.5335C58.0097 45.5335 58.3996 46.2927 58.3585 46.6826C58.2354 48.201 59.3435 48.6114 60.4105 48.9603C62.673 49.5902 65.0708 49.5402 67.3052 48.8166C68.3011 48.4967 69.3153 48.2363 70.3422 48.0369C71.0775 47.9371 71.8255 47.9931 72.5378 48.201C72.8456 48.201 73.0302 48.8166 73.256 49.1655C72.9109 49.3639 72.5546 49.542 72.1889 49.699C72.0453 49.74 71.8812 49.6374 71.2245 49.4733Z" fill="#985BE7"/>
<path d="M85.0548 49.2888C84.7675 48.4475 85.4242 48.0371 86.2244 48.0371C87.484 48.1236 88.7378 48.2812 89.9796 48.5091C91.888 48.7758 93.7963 49.1862 95.7251 49.3093C96.6994 49.3024 97.6598 49.0781 98.5364 48.6527C99.3366 48.3039 100.137 47.8114 99.8497 46.6007C99.8497 46.2929 100.301 45.8415 100.547 45.4721C100.937 45.7594 101.655 46.0262 101.676 46.334C101.725 47.1261 101.57 47.9176 101.224 48.6322C100.841 49.1846 100.348 49.6519 99.7764 50.005C99.2044 50.3581 98.5657 50.5893 97.9002 50.6842C95.3921 51.2133 92.7893 51.079 90.349 50.2943C88.7894 49.9865 87.1068 49.6992 85.0548 49.2888Z" fill="#985BE7"/>
<path d="M100.301 54.747C100.158 55.9782 99.3574 55.9988 98.6187 56.1014C97.2233 56.3066 95.8075 56.4297 94.4121 56.758C92.2855 57.2161 90.3091 58.2043 88.6666 59.6308C88.3793 59.877 87.7842 59.7539 87.3328 59.8155C87.3328 59.3435 87.3328 58.7484 87.6612 58.4611C88.2709 57.8271 88.9607 57.2752 89.7131 56.8196C92.5584 55.2935 95.7197 54.4504 98.9471 54.3572C99.4205 54.3925 99.8816 54.5252 100.301 54.747V54.747Z" fill="#985BE7"/>
<path d="M70.6907 60.1026C70.4855 60.1026 70.2188 60.1026 70.0752 59.9179C67.322 57.6079 63.8784 56.2795 60.2871 56.1422C59.4458 56.1422 58.0505 56.2654 58.2351 55.1163C58.3377 53.6183 59.8152 54.3365 60.595 54.4801C62.878 54.8875 65.1276 55.4637 67.3254 56.2038C68.5507 56.7719 69.6848 57.5188 70.6907 58.42C71.1832 58.8714 71.4089 59.5075 70.6907 60.1026Z" fill="#985BE7"/>
<path d="M77.8726 82.2641C77.5854 82.2641 77.2571 82.613 77.0108 82.5514C76.1654 82.3607 75.3354 82.1069 74.5279 81.7922C74.4048 81.7922 74.4048 81.0329 74.5279 81.0329C75.0382 80.8404 75.5849 80.7633 76.1285 80.8072C76.7084 81.0099 77.26 81.2857 77.7701 81.628L77.8726 82.2641Z" fill="#985BE7"/>
<path d="M83.0027 80.3557C83.4131 80.684 83.844 80.8482 83.9056 81.1149C83.9671 81.3817 83.762 81.9563 83.5568 81.9973C82.7359 82.207 81.8981 82.3444 81.0533 82.4077C80.9017 82.2042 80.8093 81.9627 80.7865 81.71C81.4431 81.2381 82.1819 80.7661 83.0027 80.3557Z" fill="#985BE7"/>
<path d="M76.416 92.6676C77.2368 90.985 78.3039 91.3544 79.1863 91.3749C80.0686 91.3954 81.3613 90.9234 81.4229 92.0931C81.4844 93.2627 80.0276 93.037 79.1657 93.0575C78.2416 92.9886 77.3229 92.8584 76.416 92.6676V92.6676Z" fill="#985BE7"/>
<path d="M128.577 23.7005C128.615 23.1064 128.515 22.5116 128.283 21.9631C128.052 21.4147 127.696 20.9276 127.243 20.5404C126.335 19.7513 125.283 19.1451 124.145 18.7552C123.923 18.7108 123.709 18.6348 123.509 18.5295C123.419 18.4955 123.342 18.4351 123.288 18.3563C123.234 18.2775 123.204 18.184 123.204 18.0883C123.204 17.9926 123.234 17.8991 123.288 17.8203C123.342 17.7415 123.419 17.6811 123.509 17.6471C123.755 17.5616 124.01 17.4997 124.268 17.4625C124.781 17.3709 125.288 17.2475 125.786 17.0931C126.531 16.8639 127.185 16.4089 127.659 15.7913C128.134 15.1737 128.404 14.4239 128.434 13.6458C128.426 13.2737 128.46 12.902 128.536 12.5377C128.576 12.421 128.646 12.3174 128.74 12.2378C128.834 12.1583 128.948 12.1059 129.07 12.0862C129.234 12.0862 129.501 12.353 129.562 12.5582C129.642 12.9988 129.69 13.4446 129.706 13.892C129.779 14.6725 130.099 15.4093 130.62 15.9959C131.14 16.5824 131.833 16.9883 132.599 17.1547C133.063 17.2954 133.536 17.4051 134.015 17.483C134.405 17.483 134.918 17.483 134.959 18.0986C135 18.7142 134.487 18.591 134.159 18.7347C133.264 19.1257 132.393 19.5711 131.553 20.0685C130.896 20.4452 130.362 21.0043 130.016 21.678C129.67 22.3517 129.527 23.1112 129.603 23.8647C129.613 23.9739 129.613 24.0838 129.603 24.193C129.603 24.5418 129.419 24.8291 129.07 24.7675C128.721 24.706 128.659 24.4187 128.516 24.193C128.494 24.0262 128.515 23.8567 128.577 23.7005V23.7005ZM125.971 18.2012L129.09 20.9303L132.25 18.2422C131.679 17.9323 131.131 17.5826 130.609 17.1957C130.081 16.7326 129.587 16.232 129.131 15.6977C128.351 16.8284 127.25 17.7002 125.971 18.2012V18.2012Z" fill="#985BE7"/>
<path d="M152.914 123.509C152.952 122.915 152.851 122.32 152.62 121.772C152.388 121.223 152.032 120.736 151.58 120.349C150.672 119.56 149.62 118.954 148.482 118.564C148.26 118.519 148.046 118.443 147.846 118.338C147.756 118.304 147.679 118.244 147.625 118.165C147.57 118.086 147.541 117.993 147.541 117.897C147.541 117.801 147.57 117.708 147.625 117.629C147.679 117.55 147.756 117.49 147.846 117.456C148.092 117.37 148.346 117.308 148.605 117.271C149.119 117.182 149.626 117.058 150.123 116.902C150.868 116.672 151.522 116.217 151.996 115.6C152.471 114.982 152.741 114.232 152.77 113.454C152.763 113.082 152.797 112.71 152.873 112.346C152.918 112.233 152.99 112.132 153.083 112.053C153.176 111.975 153.287 111.92 153.407 111.895C153.571 111.895 153.837 112.162 153.899 112.367C153.988 112.806 154.036 113.252 154.043 113.7C154.112 114.473 154.423 115.203 154.932 115.789C155.44 116.375 156.12 116.785 156.874 116.963C157.339 117.104 157.812 117.214 158.29 117.291C158.68 117.291 159.193 117.291 159.234 117.907C159.275 118.523 158.762 118.4 158.434 118.543C157.544 118.93 156.68 119.376 155.848 119.877C155.172 120.239 154.618 120.792 154.253 121.467C153.888 122.142 153.729 122.909 153.796 123.673C153.807 123.782 153.807 123.892 153.796 124.001C153.796 124.35 153.612 124.638 153.263 124.576C152.914 124.514 152.852 124.227 152.729 124.001C152.606 123.776 152.894 123.632 152.914 123.509ZM150.308 118.01L153.427 120.739L156.526 118.051C155.957 117.736 155.409 117.387 154.884 117.004C154.356 116.541 153.862 116.041 153.407 115.506C152.643 116.627 151.565 117.498 150.308 118.01V118.01Z" fill="#985BE7"/>
<path d="M10.8344 133.03C10.465 132.599 10.2187 132.435 10.1572 132.23C10.0956 132.025 10.1572 131.553 10.1572 131.224C9.95198 130.281 9.7878 129.316 9.50053 128.393C9.18249 127.616 8.57026 126.996 7.79734 126.669C7.4861 126.532 7.18445 126.375 6.89446 126.197C6.21731 125.746 6.21731 125.253 6.89446 124.781C7.57162 124.309 7.89998 124.125 8.35142 123.735C8.9486 123.234 9.42495 122.605 9.74475 121.894C10.0645 121.184 10.2196 120.41 10.1983 119.631C10.1775 119.371 10.1775 119.11 10.1983 118.851C10.1983 118.482 10.3624 118.112 10.7727 118.215C11.1831 118.317 11.1626 118.584 11.2652 118.83C11.3678 119.077 11.2652 119.2 11.2652 119.385C11.2426 120.364 11.4747 121.333 11.9386 122.196C12.4026 123.06 13.0827 123.788 13.9123 124.309C14.097 124.453 14.3022 124.556 14.4868 124.679C15.3282 125.233 15.3487 125.848 14.4868 126.238C13.4744 126.666 12.6256 127.407 12.0644 128.352C11.5032 129.297 11.2592 130.397 11.3679 131.491C11.3679 131.758 11.3679 132.025 11.3679 132.271C11.2121 132.539 11.0336 132.793 10.8344 133.03V133.03ZM10.6086 128.352C11.0157 127.749 11.4613 127.173 11.9424 126.628C12.3825 126.22 12.8562 125.849 13.3583 125.52L10.6907 122.462L7.96154 125.561C9.16377 126.125 10.109 127.121 10.6086 128.352V128.352Z" fill="#985BE7"/>
<path d="M39.7676 16.7237L41.3886 18.4473C41.6654 18.6905 41.895 18.9827 42.0658 19.3092C42.1142 19.4456 42.1282 19.5918 42.1068 19.7349C42.0853 19.8781 42.029 20.0137 41.9427 20.13C41.821 20.2002 41.683 20.2372 41.5425 20.2372C41.4021 20.2372 41.264 20.2002 41.1424 20.13C40.5268 19.617 40.0139 19.0014 39.4599 18.4473C39.2342 18.2216 38.9878 18.0369 38.5979 17.6881C38.5979 18.1806 38.4339 18.5089 38.4339 18.8372C38.4339 21.3817 38.4339 23.9261 38.4339 26.4501C38.4339 27.0452 38.639 27.8044 37.7567 28.0096C36.8743 28.2148 36.8538 27.5992 36.8538 26.4706C36.8538 24.1519 36.8538 21.8126 36.8538 19.4938C36.8829 18.9053 36.7849 18.3174 36.5665 17.7702L34.9455 19.3707C34.7218 19.6645 34.4595 19.9268 34.1657 20.1505C34.0391 20.217 33.8983 20.2517 33.7553 20.2517C33.6123 20.2517 33.4714 20.217 33.3449 20.1505C33.2784 20.0276 33.2437 19.8901 33.2437 19.7503C33.2437 19.6106 33.2784 19.4731 33.3449 19.3502C33.6408 18.9098 33.9849 18.5037 34.3709 18.1395C34.8018 17.6471 35.2738 17.1751 35.9715 16.4159C34.0221 16.4159 32.4625 16.4159 30.903 16.4159C30.4256 16.4674 29.944 16.4674 29.4666 16.4159C29.3327 16.3655 29.2116 16.286 29.1123 16.1831C29.0129 16.0801 28.9377 15.9564 28.8921 15.8208C28.9117 15.676 28.9669 15.5383 29.0529 15.4201C29.1389 15.3019 29.2528 15.2069 29.3845 15.1436C29.8506 15.0508 30.3254 15.0096 30.8004 15.0205H35.4994L35.6225 14.6717L33.1192 12.1477C32.7088 11.6963 31.9701 11.2038 32.6062 10.5677C33.2423 9.93159 33.7348 10.6908 34.1863 11.1217C35.007 11.9015 35.8073 12.7223 36.8333 13.7278C36.8333 13.0506 36.9564 12.6607 36.9564 12.2709C36.9564 10.0547 36.9564 7.81804 36.9564 5.6019C36.9564 4.90422 36.7101 4.02187 37.7156 3.77563C38.2902 3.63199 38.5159 4.20655 38.5159 5.68398V13.7278C39.3499 13.1316 40.114 12.4433 40.7936 11.6758C41.0992 11.3115 41.4431 10.9813 41.8196 10.6908C41.986 10.595 42.1711 10.5362 42.3624 10.5184C42.5536 10.5007 42.7464 10.5245 42.9276 10.5882C43.3996 10.855 43.1738 11.3269 42.9276 11.6553L40.5679 14.015L39.7881 14.9384H43.6253H45.6773C46.1493 14.9384 46.7033 14.9384 46.7033 15.6772C46.7033 16.4159 46.1493 16.3543 45.6773 16.3543H39.9112L39.7676 16.7237Z" fill="#985BE7"/>
<path d="M9.80827 105.39C9.80827 105.617 9.74078 105.84 9.61451 106.028C9.48825 106.217 9.30886 106.365 9.09889 106.452C8.88891 106.539 8.65788 106.561 8.43497 106.517C8.21207 106.473 8.00729 106.363 7.84658 106.203C7.68587 106.042 7.57643 105.837 7.53209 105.614C7.48776 105.391 7.5105 105.16 7.59747 104.95C7.68444 104.74 7.8317 104.561 8.02067 104.435C8.20964 104.308 8.43189 104.241 8.65916 104.241C8.96392 104.241 9.25611 104.362 9.47161 104.578C9.68711 104.793 9.80827 105.085 9.80827 105.39Z" fill="#985BE7"/>
<path d="M35.8074 132.763C35.8074 132.991 35.7401 133.213 35.6138 133.402C35.4875 133.591 35.308 133.738 35.098 133.825C34.8881 133.912 34.657 133.935 34.4341 133.89C34.2112 133.846 34.0064 133.737 33.8457 133.576C33.685 133.415 33.5756 133.211 33.5312 132.988C33.4869 132.765 33.5096 132.534 33.5966 132.324C33.6836 132.114 33.831 131.934 34.0199 131.808C34.2089 131.682 34.431 131.614 34.6583 131.614C34.9631 131.614 35.2554 131.735 35.4709 131.951C35.6864 132.166 35.8074 132.459 35.8074 132.763V132.763Z" fill="#985BE7"/>
<path d="M115.322 1.14912C115.322 1.37639 115.255 1.59856 115.128 1.78753C115.002 1.9765 114.823 2.12378 114.613 2.21076C114.403 2.29773 114.172 2.32049 113.949 2.27615C113.726 2.23181 113.521 2.12237 113.36 1.96166C113.2 1.80096 113.09 1.5962 113.046 1.37329C113.001 1.15039 113.024 0.919343 113.111 0.70937C113.198 0.499398 113.345 0.319931 113.534 0.193665C113.723 0.0673992 113.946 0 114.173 0C114.478 0 114.77 0.121068 114.985 0.336568C115.201 0.552068 115.322 0.844352 115.322 1.14912Z" fill="#985BE7"/>
<path d="M139.535 28.6869C139.539 28.919 139.474 29.1471 139.348 29.3422C139.222 29.5372 139.041 29.6903 138.828 29.782C138.614 29.8737 138.378 29.8998 138.15 29.857C137.922 29.8142 137.712 29.7045 137.546 29.5417C137.38 29.379 137.267 29.1706 137.22 28.9432C137.173 28.7158 137.195 28.4796 137.283 28.2646C137.371 28.0497 137.521 27.8658 137.714 27.7364C137.906 27.6069 138.133 27.5378 138.366 27.5378C138.672 27.5377 138.967 27.6581 139.186 27.873C139.404 28.088 139.53 28.3802 139.535 28.6869V28.6869Z" fill="#985BE7"/>
<path d="M130.794 134.569C130.794 134.797 130.726 135.019 130.6 135.208C130.474 135.397 130.294 135.544 130.084 135.631C129.874 135.718 129.643 135.741 129.42 135.696C129.198 135.652 128.993 135.543 128.832 135.382C128.671 135.221 128.562 135.016 128.518 134.793C128.473 134.571 128.496 134.34 128.583 134.13C128.67 133.92 128.817 133.74 129.006 133.614C129.195 133.488 129.417 133.42 129.645 133.42C129.949 133.42 130.242 133.541 130.457 133.757C130.673 133.972 130.794 134.265 130.794 134.569V134.569Z" fill="#985BE7"/>
<path d="M16.2312 26.3476C16.2259 26.6543 16.1002 26.9465 15.8814 27.1614C15.6627 27.3764 15.3683 27.4968 15.0616 27.4967C14.7568 27.4967 14.4645 27.3757 14.249 27.1602C14.0335 26.9447 13.9125 26.6524 13.9125 26.3476C13.9125 26.0429 14.0335 25.7506 14.249 25.5351C14.4645 25.3196 14.7568 25.1985 15.0616 25.1985C15.3683 25.1985 15.6627 25.3189 15.8814 25.5338C16.1002 25.7487 16.2259 26.041 16.2312 26.3476V26.3476Z" fill="#985BE7"/>
<path d="M2.31842 9.68529C2.95306 9.68529 3.46753 9.17081 3.46753 8.53618C3.46753 7.90154 2.95306 7.38707 2.31842 7.38707C1.68378 7.38707 1.16931 7.90154 1.16931 8.53618C1.16931 9.17081 1.68378 9.68529 2.31842 9.68529Z" fill="#985BE7"/>
<path d="M139.535 4.84259C139.539 5.07475 139.474 5.30287 139.348 5.49789C139.222 5.69292 139.041 5.84603 138.828 5.93771C138.614 6.02939 138.378 6.0555 138.15 6.01271C137.922 5.96993 137.712 5.86018 137.546 5.69745C137.38 5.53472 137.267 5.32638 137.22 5.09895C137.173 4.87152 137.195 4.6353 137.283 4.42038C137.371 4.20546 137.521 4.02156 137.714 3.89211C137.906 3.76266 138.133 3.69351 138.366 3.69347C138.672 3.69343 138.967 3.81384 139.186 4.02877C139.404 4.2437 139.53 4.53595 139.535 4.84259V4.84259Z" fill="#985BE7"/>
<path d="M2.31875 134.918C2.31337 135.225 2.18784 135.517 1.96908 135.732C1.75031 135.947 1.45579 136.067 1.14911 136.067C0.844344 136.067 0.552154 135.946 0.336654 135.731C0.121154 135.515 0 135.223 0 134.918C0 134.613 0.121154 134.321 0.336654 134.106C0.552154 133.89 0.844344 133.769 1.14911 133.769C1.45579 133.769 1.75031 133.889 1.96908 134.104C2.18784 134.319 2.31337 134.612 2.31875 134.918Z" fill="#985BE7"/>
<circle cx="114" cy="133" r="18" fill="#8840E3"/>
<path d="M122.638 136.665C123.004 135.991 123.299 135.28 123.518 134.545C123.819 133.615 123.781 132.609 123.411 131.705C123.312 131.439 123.156 131.199 122.953 131C122.75 130.802 122.506 130.651 122.238 130.559C121.977 130.481 121.702 130.461 121.433 130.501C121.163 130.54 120.906 130.637 120.678 130.785C120.373 130.979 120.091 131.207 119.838 131.465V131.159C119.971 130.225 120.105 129.252 120.225 128.306C120.381 127.413 120.308 126.495 120.011 125.639C119.923 125.341 119.77 125.067 119.562 124.837C119.355 124.606 119.098 124.425 118.811 124.306C118.52 124.212 118.212 124.183 117.908 124.22C117.604 124.257 117.312 124.359 117.052 124.519C116.369 124.908 115.796 125.463 115.385 126.132V126.132L115.265 125.772C115.151 125.385 114.999 125.01 114.812 124.653C114.708 124.444 114.562 124.259 114.383 124.11C114.204 123.961 113.996 123.85 113.772 123.786C113.532 123.729 113.282 123.722 113.039 123.766C112.796 123.809 112.564 123.902 112.359 124.039C112.145 124.173 111.945 124.319 111.719 124.493C111.098 125.011 110.578 125.639 110.186 126.346C110.186 126.212 110.186 126.092 110.066 125.959C109.951 125.57 109.795 125.194 109.599 124.839C109.474 124.599 109.299 124.389 109.085 124.223C108.871 124.057 108.623 123.94 108.359 123.879C108.121 123.849 107.88 123.868 107.65 123.937C107.42 124.006 107.208 124.123 107.026 124.279C106.645 124.602 106.309 124.974 106.026 125.386L105.826 125.666C105.745 125.758 105.685 125.866 105.651 125.984C105.616 126.101 105.608 126.225 105.626 126.346C105.642 126.437 105.679 126.523 105.735 126.597C105.79 126.672 105.863 126.732 105.946 126.772C106.293 126.959 106.586 126.866 106.826 126.439C106.82 126.417 106.82 126.394 106.826 126.372L107.039 126.092C107.225 125.817 107.445 125.567 107.693 125.346C107.749 125.286 107.817 125.238 107.893 125.206C107.968 125.174 108.05 125.158 108.132 125.159C108.252 125.159 108.372 125.319 108.479 125.519C108.689 125.906 108.833 126.325 108.906 126.759C109.017 127.643 109.071 128.534 109.066 129.425C109.066 130.879 109.066 132.332 108.959 133.745V133.985C108.959 134.665 108.959 135.318 108.892 136.025V136.118C108.868 136.238 108.869 136.362 108.897 136.482C108.924 136.602 108.977 136.714 109.052 136.811C109.113 136.878 109.187 136.93 109.27 136.965C109.353 136.999 109.443 137.015 109.532 137.011C109.618 137.019 109.705 137.008 109.785 136.978C109.866 136.948 109.939 136.9 109.999 136.838C110.071 136.749 110.125 136.647 110.157 136.537C110.189 136.427 110.199 136.312 110.186 136.198L110.439 129.172V129.012C110.431 128.919 110.431 128.825 110.439 128.732C110.829 127.487 111.575 126.384 112.585 125.559C113.119 125.146 113.359 125.106 113.479 125.146C113.599 125.186 113.772 125.359 113.985 126.026C114.283 126.982 114.392 127.987 114.305 128.985C114.212 130.559 114.078 132.212 113.972 133.652L113.905 134.398C113.872 134.796 113.819 135.192 113.745 135.585C113.694 135.817 113.732 136.059 113.852 136.265C113.967 136.402 114.128 136.492 114.305 136.518C114.383 136.534 114.463 136.534 114.541 136.518C114.619 136.502 114.693 136.47 114.758 136.425C114.845 136.35 114.916 136.258 114.966 136.155C115.017 136.051 115.046 135.939 115.052 135.825V135.665C115.052 135.491 115.052 135.305 115.052 135.131L115.332 131.199L115.518 128.745V128.612C115.51 128.541 115.51 128.47 115.518 128.399C115.832 127.598 116.283 126.858 116.852 126.212C117.102 125.968 117.39 125.766 117.705 125.612C117.78 125.562 117.866 125.528 117.955 125.512C118.045 125.496 118.136 125.498 118.225 125.519C118.358 125.519 118.465 125.692 118.558 125.919C118.723 126.255 118.81 126.625 118.811 126.999C118.811 127.999 118.638 129.105 118.465 130.492C118.371 131.225 118.265 131.958 118.158 132.692C118.051 133.425 117.878 134.665 117.758 135.678C117.558 137.019 117.672 138.388 118.091 139.678L117.638 140.038C116.585 140.927 115.471 141.742 114.305 142.477C114.208 142.526 114.122 142.594 114.051 142.676C113.98 142.759 113.926 142.854 113.892 142.957C113.867 143.104 113.895 143.256 113.972 143.384C114.055 143.489 114.161 143.574 114.28 143.634C114.4 143.694 114.531 143.727 114.665 143.731H114.758C115.014 143.673 115.252 143.554 115.452 143.384L117.425 141.891L118.545 141.037L118.758 140.878C119.179 141.342 119.726 141.673 120.332 141.832C120.938 141.991 121.577 141.969 122.171 141.771C122.336 141.718 122.487 141.628 122.612 141.508C122.736 141.388 122.832 141.24 122.891 141.077C122.922 140.989 122.931 140.894 122.918 140.801C122.904 140.708 122.867 140.62 122.811 140.544C122.758 140.469 122.689 140.405 122.609 140.358C122.529 140.311 122.44 140.282 122.348 140.271C122.256 140.261 122.163 140.271 122.075 140.3C121.987 140.328 121.906 140.375 121.838 140.438L121.691 140.504C121.355 140.647 120.979 140.667 120.631 140.559C120.282 140.452 119.982 140.225 119.785 139.918L120.131 139.598C121.107 138.749 121.952 137.761 122.638 136.665V136.665ZM122.304 133.812C122.258 134.274 122.132 134.725 121.931 135.145C121.291 136.478 120.415 137.684 119.345 138.704C119.207 138.274 119.148 137.822 119.171 137.371C119.155 136.476 119.236 135.582 119.411 134.705C119.642 133.63 120.265 132.68 121.158 132.038C121.312 131.909 121.503 131.83 121.704 131.812H121.851C121.951 131.871 122.037 131.952 122.102 132.049C122.166 132.146 122.208 132.256 122.224 132.372C122.334 132.843 122.361 133.331 122.304 133.812V133.812Z" fill="white"/>
<path d="M114.625 148.25C111.534 148.25 108.513 147.333 105.943 145.616C103.373 143.898 101.37 141.457 100.188 138.601C99.0059 135.745 98.6972 132.603 99.3012 129.572C99.9052 126.54 101.395 123.756 103.581 121.572C105.768 119.387 108.553 117.9 111.585 117.299C114.617 116.697 117.759 117.009 120.614 118.193C123.469 119.378 125.908 121.383 127.623 123.954C129.338 126.525 130.253 129.547 130.25 132.638C130.243 136.779 128.594 140.748 125.665 143.674C122.736 146.601 118.766 148.246 114.625 148.25V148.25ZM114.625 118.227C111.774 118.224 108.986 119.067 106.615 120.649C104.243 122.231 102.394 124.481 101.301 127.114C100.208 129.747 99.9206 132.645 100.475 135.442C101.03 138.238 102.401 140.807 104.416 142.824C106.431 144.841 108.999 146.215 111.795 146.772C114.591 147.329 117.49 147.045 120.124 145.954C122.758 144.864 125.01 143.017 126.594 140.646C128.178 138.276 129.023 135.489 129.023 132.638C129.02 128.819 127.502 125.158 124.803 122.456C122.104 119.755 118.444 118.234 114.625 118.227V118.227Z" fill="white"/>
</svg>
